M48
;DRILL file {KiCad 4.0.1-stable} date 1/20/2016 12:58:48 AM
;FORMAT={-:-/ absolute / inch / decimal}
FMAT,2
INCH,TZ
T1C0.010
T2C0.012
T3C0.015
T4C0.031
T5C0.039
T6C0.043
T7C0.120
T8C0.122
%
G90
G05
M72
T1
X2.7465Y-1.5934
X2.7465Y-1.6327
X2.7465Y-1.6721
T2
X3.4887Y-1.1026
X3.5255Y-1.1008
X3.5623Y-1.1376
T3
X0.8623Y-2.0456
X0.9143Y-2.6826
X0.9533Y-2.1346
X0.9558Y-2.2446
X1.0073Y-2.4561
X1.0968Y-1.7136
X1.1083Y-1.7661
X1.1363Y-2.8026
X1.1483Y-2.7516
X1.1558Y-2.6131
X1.1583Y-2.5031
X1.1638Y-2.6866
X1.2118Y-2.6806
X1.2158Y-1.8276
X1.3178Y-2.8116
X1.3398Y-1.7631
X1.3688Y-2.1426
X1.3973Y-2.2896
X1.4738Y-1.5616
X1.4978Y-2.4231
X1.5148Y-2.7226
X1.5438Y-1.7496
X1.5748Y-1.7916
X1.5843Y-2.2096
X1.5893Y-2.4186
X1.5983Y-2.1336
X1.6128Y-2.7211
X1.6363Y-2.1781
X1.7323Y-1.7416
X1.7403Y-2.2436
X1.7543Y-2.6261
X1.7758Y-2.5016
X1.8558Y-2.1776
X1.9403Y-2.7416
X1.9458Y-1.7531
X1.9673Y-2.7996
X1.9943Y-2.8461
X2.0693Y-2.3391
X2.1138Y-2.8761
X2.1253Y-1.7341
X2.1668Y-1.7606
X2.1743Y-2.4426
X2.1878Y-2.4951
X2.2993Y-1.3436
X2.3418Y-1.1941
X2.3438Y-2.4996
X2.3893Y-1.5116
X2.3988Y-1.3486
X2.4053Y-1.1866
X2.4148Y-1.8626
X2.4566Y-1.7053
X2.4838Y-1.0806
X2.4841Y-1.5653
X2.4898Y-1.9441
X2.4933Y-2.4656
X2.5118Y-2.4246
X2.5178Y-1.9676
X2.5593Y-1.1766
X2.5713Y-1.9436
X2.5748Y-1.0476
X2.6253Y-2.1786
X2.6283Y-2.5016
X2.6718Y-1.9471
X2.6858Y-1.9936
X2.7158Y-1.3066
X2.7308Y-2.4996
X2.7313Y-1.0171
X2.7598Y-1.9426
X2.7638Y-1.9911
X2.7753Y-2.0456
X2.8283Y-2.5071
X2.8368Y-1.0116
X2.9338Y-1.3676
X2.9693Y-1.9351
X2.9788Y-2.0861
X3.0478Y-2.1731
X3.0523Y-1.9926
X3.0743Y-1.9486
X3.0791Y-1.7228
X3.0798Y-2.0901
X3.0858Y-2.5511
X3.1298Y-1.3636
X3.1688Y-2.2041
X3.2228Y-1.9246
X3.2908Y-1.9376
X3.3478Y-2.5461
X3.3503Y-2.1711
X3.3998Y-1.9596
X3.4033Y-2.1696
X3.5448Y-1.7826
X3.5648Y-2.0001
X3.6198Y-1.9326
X5.1575Y-1.8665
X5.1795Y-1.4793
X5.2091Y-2.4407
X5.4395Y-3.0243
X5.4599Y-3.5637
X5.4707Y-1.7787
X5.4722Y-1.4772
X5.4732Y-1.5772
X5.4752Y-1.6717
X5.5007Y-1.9643
X5.5127Y-3.5649
X5.5459Y-2.2771
X5.5501Y-2.4967
X5.5532Y-1.4407
X5.5572Y-1.7792
X5.5642Y-1.5777
X5.5737Y-1.8572
X5.6003Y-2.7671
X5.6057Y-1.9487
X5.6219Y-3.6579
X5.6393Y-3.5561
X5.6852Y-1.1952
X5.7063Y-2.8895
X5.7107Y-1.6222
X5.7127Y-0.8317
X5.7172Y-1.0702
X5.7307Y-0.9942
X5.7447Y-1.6772
X5.7468Y-2.2266
X5.7468Y-2.2891
X5.7468Y-2.3516
X5.7517Y-1.3762
X5.7948Y-2.0136
X5.7948Y-2.0761
X5.7948Y-2.1386
X5.7962Y-2.4322
X5.7962Y-2.4947
X5.7962Y-2.5572
X5.8093Y-2.2266
X5.8093Y-2.2891
X5.8093Y-2.3516
X5.8548Y-3.6637
X5.8573Y-2.0136
X5.8573Y-2.0761
X5.8573Y-2.1386
X5.8587Y-2.4322
X5.8587Y-2.4947
X5.8587Y-2.5572
X5.8823Y-3.0547
X5.9414Y-2.6202
X5.9414Y-2.6827
X5.9414Y-2.7452
X5.9456Y-1.8238
X5.9456Y-1.8863
X5.9456Y-1.9488
X6.0039Y-2.6202
X6.0039Y-2.6827
X6.0039Y-2.7452
X6.0081Y-1.8238
X6.0081Y-1.8863
X6.0081Y-1.9488
X6.0102Y-2.2242
X6.0102Y-2.2867
X6.0102Y-2.3492
X6.0362Y-1.5392
X6.0437Y-2.4122
X6.0437Y-2.4747
X6.0437Y-2.5372
X6.0482Y-2.0332
X6.0482Y-2.0957
X6.0482Y-2.1582
X6.0671Y-2.9675
X6.0727Y-2.2242
X6.0727Y-2.2867
X6.0727Y-2.3492
X6.0727Y-3.6705
X6.1062Y-2.4122
X6.1062Y-2.4747
X6.1062Y-2.5372
X6.1107Y-2.0332
X6.1107Y-2.0957
X6.1107Y-2.1582
X6.1153Y-3.0091
X6.1242Y-0.9392
X6.1242Y-1.0337
X6.1267Y-1.1362
X6.1468Y-1.7314
X6.1468Y-1.7939
X6.1468Y-1.8564
X6.148Y-2.717
X6.148Y-2.7795
X6.148Y-2.842
X6.1595Y-2.9159
X6.1859Y-3.2909
X6.2093Y-1.7314
X6.2093Y-1.7939
X6.2093Y-1.8564
X6.2105Y-2.717
X6.2105Y-2.7795
X6.2105Y-2.842
X6.2502Y-1.9842
X6.2502Y-2.0467
X6.2502Y-2.1092
X6.2502Y-2.2242
X6.2502Y-2.2867
X6.2502Y-2.3492
X6.2502Y-2.4642
X6.2502Y-2.5267
X6.2502Y-2.5892
X6.2937Y-3.0545
X6.3127Y-1.9842
X6.3127Y-2.0467
X6.3127Y-2.1092
X6.3127Y-2.2242
X6.3127Y-2.2867
X6.3127Y-2.3492
X6.3127Y-2.4642
X6.3127Y-2.5267
X6.3127Y-2.5892
X6.357Y-1.7292
X6.357Y-1.7917
X6.357Y-1.8542
X6.3587Y-3.7321
X6.3756Y-2.718
X6.3756Y-2.7805
X6.3756Y-2.843
X6.4195Y-1.7292
X6.4195Y-1.7917
X6.4195Y-1.8542
X6.4381Y-2.718
X6.4381Y-2.7805
X6.4381Y-2.843
X6.4557Y-2.4187
X6.4557Y-2.4812
X6.4557Y-2.5437
X6.4572Y-2.0307
X6.4572Y-2.0932
X6.4572Y-2.1557
X6.4737Y-1.4622
X6.4902Y-2.2242
X6.4902Y-2.2867
X6.4902Y-2.3492
X6.5182Y-2.4187
X6.5182Y-2.4812
X6.5182Y-2.5437
X6.5197Y-2.0307
X6.5197Y-2.0932
X6.5197Y-2.1557
X6.5527Y-2.2242
X6.5527Y-2.2867
X6.5527Y-2.3492
X6.5714Y-1.8326
X6.5714Y-1.8951
X6.5714Y-1.9576
X6.5797Y-2.8917
X6.5836Y-2.6114
X6.5836Y-2.6739
X6.5836Y-2.7364
X6.5952Y-0.9767
X6.5997Y-1.0757
X6.5997Y-1.4662
X6.6339Y-1.8326
X6.6339Y-1.8951
X6.6339Y-1.9576
X6.6461Y-2.6114
X6.6461Y-2.6739
X6.6461Y-2.7364
X6.6711Y-3.6749
X6.7166Y-2.0284
X6.7166Y-2.0909
X6.7166Y-2.1534
X6.7166Y-2.4222
X6.7166Y-2.4847
X6.7166Y-2.5472
X6.7562Y-2.2242
X6.7562Y-2.2867
X6.7562Y-2.3492
X6.7791Y-2.0284
X6.7791Y-2.0909
X6.7791Y-2.1534
X6.7791Y-2.4222
X6.7791Y-2.4847
X6.7791Y-2.5472
X6.7843Y-2.9037
X6.7909Y-3.2921
X6.8187Y-2.2242
X6.8187Y-2.2867
X6.8187Y-2.3492
X6.8427Y-3.5143
X6.9483Y-1.1845
X6.9502Y-1.4682
X6.9517Y-3.6862
X6.9597Y-1.6427
X6.9627Y-1.0772
X6.9663Y-3.3671
X6.9763Y-3.4446
X6.9802Y-3.7332
X7.0017Y-3.2927
X7.0022Y-1.2417
X7.0082Y-3.6897
X7.0113Y-3.3671
X7.0113Y-3.4121
X7.0175Y-3.0149
X7.0341Y-3.2633
X7.0538Y-3.4446
X7.0583Y-1.3285
X7.0638Y-3.3671
X7.0792Y-3.2747
X7.0938Y-3.4121
X7.1088Y-3.3671
X7.1111Y-1.2999
X7.1197Y-3.7517
X7.1231Y-2.7927
X7.1703Y-2.3309
X7.1739Y-1.8953
X7.1751Y-2.1233
X7.1881Y-1.5013
X7.1903Y-2.7097
X7.1969Y-1.7565
X7.4841Y-3.3098
X7.4841Y-3.3548
X7.4841Y-3.4073
X7.4841Y-3.4523
X7.4855Y-1.4143
X7.4867Y-3.5542
X7.4867Y-3.5992
X7.4867Y-3.6517
X7.4867Y-3.6967
X7.4976Y-1.2038
X7.4976Y-1.2488
X7.4976Y-1.3013
X7.4976Y-1.3463
X7.4978Y-0.9589
X7.4978Y-1.0039
X7.4978Y-1.0564
X7.4978Y-1.1014
X7.5291Y-3.3248
X7.5291Y-3.4073
X7.5317Y-3.5692
X7.5317Y-3.6517
X7.5426Y-1.2188
X7.5426Y-1.3013
X7.5428Y-0.9739
X7.5428Y-1.0564
X7.5616Y-3.3648
X7.5616Y-3.4423
X7.5642Y-3.6092
X7.5642Y-3.6867
X7.5751Y-1.2588
X7.5751Y-1.3363
X7.5753Y-1.0139
X7.5753Y-1.0914
X7.5951Y-0.9259
X7.6107Y-3.1387
X7.6217Y-1.1445
X7.6503Y-1.4205
X7.8022Y-1.0642
X7.8037Y-3.4077
X7.8052Y-3.4577
X7.8052Y-3.6537
X7.8052Y-3.7017
X7.8067Y-1.1087
X7.8091Y-1.6995
X7.8152Y-1.3153
X7.8152Y-1.3522
X7.8173Y-2.4605
X7.8173Y-2.6805
X7.8183Y-2.2361
X7.8195Y-1.7987
X7.8211Y-2.0171
X7.8211Y-2.9899
X7.8223Y-3.0617
X7.8253Y-2.3431
X7.8261Y-1.9061
X7.8261Y-2.1239
X7.8267Y-2.7923
X7.8271Y-2.9049
X7.8293Y-2.5737
X7.8512Y-3.4297
X7.8537Y-3.6747
X7.8567Y-1.0967
X7.8597Y-1.3237
X7.8627Y-3.2877
X7.8772Y-1.1907
X7.8972Y-1.5057
X7.9427Y-1.4195
X7.9555Y-1.3329
X7.9843Y-1.5347
X7.9876Y-1.4302
X7.9942Y-3.1932
X8.0007Y-3.5707
X8.0026Y-1.3852
X8.0032Y-1.0202
X8.0157Y-3.5257
X8.0326Y-1.4302
X8.0426Y-1.3527
X8.0457Y-3.5707
X8.0557Y-3.4932
X8.0842Y-1.1042
X8.0851Y-1.3852
X8.0851Y-1.4302
X8.0982Y-3.5257
X8.0982Y-3.5707
X8.0992Y-3.2542
X8.1022Y-1.0532
X8.1162Y-3.2042
X8.1201Y-1.3527
X8.1301Y-1.4302
X8.1332Y-3.4932
X8.1352Y-1.1062
X8.1432Y-3.5707
X8.1492Y-3.2482
X8.1763Y-1.3111
X8.2123Y-3.5489
X8.2199Y-3.4201
T4
X0.8048Y-1.9671
X0.8048Y-2.5671
X0.9048Y-1.9671
X0.9048Y-2.5671
X1.0048Y-1.9671
X1.0048Y-2.5671
X1.1048Y-1.9671
X1.1048Y-2.5671
X1.2048Y-1.9671
X1.2048Y-2.5671
X1.3048Y-1.9671
X1.3048Y-2.5671
X1.4048Y-1.9671
X1.4048Y-2.5671
X1.5048Y-1.9671
X1.5048Y-2.5671
X1.6048Y-1.9671
X1.6048Y-2.5671
X1.7048Y-1.9671
X1.7048Y-2.5671
X1.8048Y-1.9671
X1.8048Y-2.5671
X1.9048Y-1.9671
X1.9048Y-2.5671
X2.0048Y-1.9671
X2.0048Y-2.5671
X2.1048Y-1.9671
X2.1048Y-2.5671
T5
X4.3961Y-2.5727
X4.3961Y-2.6727
X4.3961Y-2.7727
X4.3961Y-3.3727
X4.3961Y-3.5727
X4.4025Y-1.4563
X4.4025Y-1.6563
X4.9025Y-1.4563
X4.9025Y-1.6563
X4.9961Y-2.6727
X4.9961Y-2.7727
X4.9961Y-3.3727
X4.9961Y-3.5727
T6
X0.8823Y-1.5501
X0.8823Y-1.6501
X0.8823Y-1.7501
X1.0903Y-0.9356
X1.1173Y-2.9536
X1.1903Y-0.9356
X1.2173Y-2.9536
X1.2903Y-0.9356
X1.3173Y-2.9536
X1.4173Y-2.9536
X1.4323Y-0.9376
X1.5323Y-0.9376
X1.6323Y-0.9376
X1.7723Y-0.9351
X1.8723Y-0.9351
X1.9723Y-0.9351
X2.1148Y-0.9376
X2.2148Y-0.9376
X2.3148Y-0.9376
X2.6823Y-0.9376
X2.7823Y-0.9376
X2.8823Y-0.9376
X2.9823Y-0.9376
X3.8423Y-1.5826
X3.8423Y-1.6826
X3.8423Y-1.7826
X3.8423Y-1.8826
X3.8438Y-1.1516
X3.8438Y-1.2516
X3.8438Y-1.3516
X3.8438Y-1.4516
X4.3937Y-0.9617
X4.4937Y-0.9617
X5.2487Y-0.9707
X5.3487Y-0.9707
X5.4487Y-0.9707
X5.5487Y-0.9707
X7.1223Y-0.9511
X7.2223Y-0.9511
X7.3223Y-0.9511
T7
X0.8526Y-0.9304
T8
X0.8526Y-2.9776
X3.8447Y-0.9304
X3.8447Y-2.9776
X5.2827Y-1.2867
X5.2827Y-3.2867
X7.2827Y-1.2867
X7.2827Y-3.2867
T0
M30
