G04 #@! TF.FileFunction,Soldermask,Bot*
%FSLAX46Y46*%
G04 Gerber Fmt 4.6, Leading zero omitted, Abs format (unit mm)*
G04 Created by KiCad (PCBNEW 4.0.1-stable) date 1/20/2016 12:58:46 AM*
%MOMM*%
G01*
G04 APERTURE LIST*
%ADD10C,0.100000*%
%ADD11R,2.950160X3.100020*%
%ADD12R,2.950160X4.199840*%
%ADD13R,1.700480X1.898600*%
%ADD14R,1.299160X1.400760*%
%ADD15R,3.092400X2.000200*%
%ADD16R,2.000200X3.600400*%
%ADD17R,6.899860X7.400240*%
%ADD18R,5.899100X2.249120*%
%ADD19O,2.398980X2.398980*%
%ADD20R,2.398980X2.398980*%
%ADD21R,1.800000X0.700000*%
%ADD22R,2.050000X3.250000*%
%ADD23C,1.050000*%
%ADD24R,1.000000X2.350000*%
%ADD25C,4.464000*%
%ADD26R,1.598880X1.598880*%
%ADD27R,1.310000X1.620000*%
%ADD28C,1.797000*%
%ADD29C,2.150000*%
%ADD30C,2.400000*%
%ADD31C,0.984200*%
%ADD32C,1.035000*%
G04 APERTURE END LIST*
D10*
D11*
X75839542Y-46731802D03*
D12*
X69840062Y-46731802D03*
D13*
X73972420Y-50434240D03*
X72067420Y-50434240D03*
D14*
X63975202Y-45030002D03*
X62471522Y-45030002D03*
X67086702Y-37664002D03*
X65583022Y-37664002D03*
D15*
X79288862Y-29663002D03*
X79288862Y-32457002D03*
D14*
X51208234Y-44696832D03*
X52711914Y-44696832D03*
X47852894Y-29787032D03*
X46349214Y-29787032D03*
X55891994Y-29761632D03*
X54388314Y-29761632D03*
X44639794Y-29787032D03*
X43136114Y-29787032D03*
X52800814Y-29761632D03*
X51297134Y-29761632D03*
X55912314Y-27932832D03*
X57415994Y-27932832D03*
X36196834Y-44963532D03*
X37700514Y-44963532D03*
X32671314Y-29977532D03*
X31167634Y-29977532D03*
X40862814Y-30002932D03*
X39359134Y-30002932D03*
X29394714Y-29977532D03*
X27891034Y-29977532D03*
X37764014Y-30002932D03*
X36260334Y-30002932D03*
X40888214Y-28085232D03*
X42391894Y-28085232D03*
D16*
X87673180Y-31816040D03*
X92275660Y-31816040D03*
D17*
X89974420Y-38064440D03*
D18*
X71541862Y-36648002D03*
X71541862Y-31496882D03*
D19*
X97632520Y-36870640D03*
D20*
X97632520Y-29250640D03*
D19*
X97632520Y-31790640D03*
X97632520Y-34330640D03*
X28379420Y-75021440D03*
D20*
X35999420Y-75021440D03*
D19*
X33459420Y-75021440D03*
X30919420Y-75021440D03*
X58795920Y-23815040D03*
D20*
X53715920Y-23815040D03*
D19*
X56255920Y-23815040D03*
X41460420Y-23815040D03*
D20*
X36380420Y-23815040D03*
D19*
X38920420Y-23815040D03*
X50096420Y-23751540D03*
D20*
X45016420Y-23751540D03*
D19*
X47556420Y-23751540D03*
X22410420Y-39372540D03*
D20*
X22410420Y-44452540D03*
D19*
X22410420Y-41912540D03*
X32773620Y-23764240D03*
D20*
X27693620Y-23764240D03*
D19*
X30233620Y-23764240D03*
D14*
X65583022Y-44966502D03*
X67086702Y-44966502D03*
X75224862Y-42045503D03*
X76728542Y-42045503D03*
X75181682Y-43760002D03*
X76685362Y-43760002D03*
X65235042Y-41855002D03*
X63731362Y-41855002D03*
X65255362Y-43442502D03*
X63751682Y-43442502D03*
X80739201Y-27059502D03*
X79235521Y-27059502D03*
D21*
X71960962Y-39721403D03*
X71960962Y-40221403D03*
X71960962Y-40721403D03*
X71960962Y-41221403D03*
X71960962Y-41721403D03*
X67560962Y-41721403D03*
X67560962Y-41221403D03*
X67560962Y-40721403D03*
X67560962Y-40221403D03*
X67560962Y-39721403D03*
X71960962Y-42221403D03*
X71960962Y-42721403D03*
X71960962Y-43221403D03*
X67560962Y-42221403D03*
X67560962Y-42721403D03*
X67560962Y-43221403D03*
D22*
X69760962Y-41471403D03*
D23*
X69760962Y-41471403D03*
X69760962Y-42471403D03*
X69760962Y-40471403D03*
D24*
X55361134Y-42089252D03*
X54091134Y-42089252D03*
X52821134Y-42089252D03*
X51551134Y-42089252D03*
X50281134Y-42089252D03*
X49011134Y-42089252D03*
X47741134Y-42089252D03*
X46471134Y-42089252D03*
X45201134Y-42089252D03*
X43931134Y-42089252D03*
X43931134Y-32689252D03*
X45201134Y-32689252D03*
X46471134Y-32689252D03*
X47741134Y-32689252D03*
X49011134Y-32689252D03*
X50281134Y-32689252D03*
X51551134Y-32689252D03*
X52821134Y-32689252D03*
X54091134Y-32689252D03*
X55361134Y-32689252D03*
X40286234Y-42228952D03*
X39016234Y-42228952D03*
X37746234Y-42228952D03*
X36476234Y-42228952D03*
X35206234Y-42228952D03*
X33936234Y-42228952D03*
X32666234Y-42228952D03*
X31396234Y-42228952D03*
X30126234Y-42228952D03*
X28856234Y-42228952D03*
X28856234Y-32828952D03*
X30126234Y-32828952D03*
X31396234Y-32828952D03*
X32666234Y-32828952D03*
X33936234Y-32828952D03*
X35206234Y-32828952D03*
X36476234Y-32828952D03*
X37746234Y-32828952D03*
X39016234Y-32828952D03*
X40286234Y-32828952D03*
D25*
X21655920Y-23632040D03*
X97655920Y-23632040D03*
X97655920Y-75632040D03*
X21655920Y-75632040D03*
D26*
X82621342Y-27059502D03*
X84719382Y-27059502D03*
D27*
X77393262Y-39480101D03*
X74123262Y-39480101D03*
D19*
X97594420Y-47818041D03*
D20*
X97594420Y-40198041D03*
D19*
X97594420Y-42738041D03*
X97594420Y-45278041D03*
X75750421Y-23815040D03*
D20*
X68130421Y-23815040D03*
D19*
X70670421Y-23815040D03*
X73210421Y-23815040D03*
D28*
X22981920Y-65204340D03*
X25521920Y-65204340D03*
X28061920Y-65204340D03*
X30601920Y-65204340D03*
X33141920Y-65204340D03*
X35681920Y-65204340D03*
X38221920Y-65204340D03*
X40761920Y-65204340D03*
X43301920Y-65204340D03*
X45841920Y-65204340D03*
X48381920Y-65204340D03*
X50921920Y-65204340D03*
X53461920Y-65204340D03*
X53461920Y-49964340D03*
X50921920Y-49964340D03*
X48381920Y-49964340D03*
X45841920Y-49964340D03*
X43301920Y-49964340D03*
X40761920Y-49964340D03*
X38221920Y-49964340D03*
X35681920Y-49964340D03*
X33141920Y-49964340D03*
X30601920Y-49964340D03*
X28061920Y-49964340D03*
X25521920Y-49964340D03*
X22981920Y-49964340D03*
X20441920Y-49964340D03*
X20441920Y-65204340D03*
D19*
X114139543Y-24426605D03*
D20*
X111599543Y-24426605D03*
D19*
X140936543Y-24655205D03*
D20*
X133316543Y-24655205D03*
D19*
X135856543Y-24655205D03*
X138396543Y-24655205D03*
D29*
X111823063Y-42069445D03*
X124523063Y-42069445D03*
X124523063Y-36989445D03*
X111823063Y-36989445D03*
D30*
X111660503Y-65346005D03*
X111660503Y-67886005D03*
X111660503Y-70426005D03*
X111660503Y-85666005D03*
X111660503Y-90746005D03*
X126900503Y-90746005D03*
X126900503Y-85666005D03*
X126900503Y-70426005D03*
X126900503Y-67886005D03*
D25*
X134180143Y-83481605D03*
X134180143Y-32681605D03*
X184980143Y-32681605D03*
X184980143Y-83481605D03*
D19*
X185985983Y-24157365D03*
D20*
X180905983Y-24157365D03*
D19*
X183445983Y-24157365D03*
D31*
X158754643Y-56494105D03*
X160342143Y-56494105D03*
X158754643Y-58081605D03*
X160342143Y-58081605D03*
X158754643Y-59669105D03*
X160342143Y-59669105D03*
X152658643Y-56494105D03*
X154246143Y-56494105D03*
X152658643Y-58081605D03*
X154246143Y-58081605D03*
X152658643Y-59669105D03*
X154246143Y-59669105D03*
X145968283Y-56555065D03*
X147555783Y-56555065D03*
X145968283Y-58142565D03*
X147555783Y-58142565D03*
X145968283Y-59730065D03*
X147555783Y-59730065D03*
X170601203Y-61523305D03*
X172188703Y-61523305D03*
X170601203Y-63110805D03*
X172188703Y-63110805D03*
X170601203Y-64698305D03*
X172188703Y-64698305D03*
X153623843Y-51642705D03*
X155211343Y-51642705D03*
X153623843Y-53230205D03*
X155211343Y-53230205D03*
X153623843Y-54817705D03*
X155211343Y-54817705D03*
X147187483Y-51144865D03*
X148774983Y-51144865D03*
X147187483Y-52732365D03*
X148774983Y-52732365D03*
X147187483Y-54319865D03*
X148774983Y-54319865D03*
X167223003Y-66328985D03*
X168810503Y-66328985D03*
X167223003Y-67916485D03*
X168810503Y-67916485D03*
X167223003Y-69503985D03*
X168810503Y-69503985D03*
X158754643Y-50398105D03*
X160342143Y-50398105D03*
X158754643Y-51985605D03*
X160342143Y-51985605D03*
X158754643Y-53573105D03*
X160342143Y-53573105D03*
X151017803Y-46323945D03*
X152605303Y-46323945D03*
X151017803Y-47911445D03*
X152605303Y-47911445D03*
X151017803Y-49498945D03*
X152605303Y-49498945D03*
X161939803Y-69036625D03*
X163527303Y-69036625D03*
X161939803Y-70624125D03*
X163527303Y-70624125D03*
X161939803Y-72211625D03*
X163527303Y-72211625D03*
X164012443Y-51579205D03*
X165599943Y-51579205D03*
X164012443Y-53166705D03*
X165599943Y-53166705D03*
X164012443Y-54754205D03*
X165599943Y-54754205D03*
X156128283Y-43976985D03*
X157715783Y-43976985D03*
X156128283Y-45564485D03*
X157715783Y-45564485D03*
X156128283Y-47151985D03*
X157715783Y-47151985D03*
X156158763Y-69011225D03*
X157746263Y-69011225D03*
X156158763Y-70598725D03*
X157746263Y-70598725D03*
X156158763Y-72186225D03*
X157746263Y-72186225D03*
X164850643Y-56494105D03*
X166438143Y-56494105D03*
X164850643Y-58081605D03*
X166438143Y-58081605D03*
X164850643Y-59669105D03*
X166438143Y-59669105D03*
X161467363Y-43921105D03*
X163054863Y-43921105D03*
X161467363Y-45508605D03*
X163054863Y-45508605D03*
X161467363Y-47096105D03*
X163054863Y-47096105D03*
X150911123Y-66552505D03*
X152498623Y-66552505D03*
X150911123Y-68140005D03*
X152498623Y-68140005D03*
X150911123Y-69727505D03*
X152498623Y-69727505D03*
X163974343Y-61434405D03*
X165561843Y-61434405D03*
X163974343Y-63021905D03*
X165561843Y-63021905D03*
X163974343Y-64609405D03*
X165561843Y-64609405D03*
X166913123Y-46547465D03*
X168500623Y-46547465D03*
X166913123Y-48134965D03*
X168500623Y-48134965D03*
X166913123Y-49722465D03*
X168500623Y-49722465D03*
X147223043Y-61777305D03*
X148810543Y-61777305D03*
X147223043Y-63364805D03*
X148810543Y-63364805D03*
X147223043Y-64952305D03*
X148810543Y-64952305D03*
X158754643Y-62590105D03*
X160342143Y-62590105D03*
X158754643Y-64177605D03*
X160342143Y-64177605D03*
X158754643Y-65765105D03*
X160342143Y-65765105D03*
X170601203Y-51520785D03*
X172188703Y-51520785D03*
X170601203Y-53108285D03*
X172188703Y-53108285D03*
X170601203Y-54695785D03*
X172188703Y-54695785D03*
X153509543Y-61269305D03*
X155097043Y-61269305D03*
X153509543Y-62856805D03*
X155097043Y-62856805D03*
X153509543Y-64444305D03*
X155097043Y-64444305D03*
X171607043Y-56494105D03*
X173194543Y-56494105D03*
X171607043Y-58081605D03*
X173194543Y-58081605D03*
X171607043Y-59669105D03*
X173194543Y-59669105D03*
D32*
X206250103Y-34358005D03*
X205361103Y-35183505D03*
X203265603Y-35183505D03*
X204281603Y-34358005D03*
X204027603Y-36326505D03*
X202884603Y-36326505D03*
X205361103Y-36326505D03*
X206504103Y-36326505D03*
X192407103Y-33941445D03*
X191581603Y-33052445D03*
X191581603Y-30956945D03*
X192407103Y-31972945D03*
X190438603Y-31718945D03*
X190438603Y-30575945D03*
X190438603Y-33052445D03*
X190438603Y-34195445D03*
X192412183Y-27720985D03*
X191586683Y-26831985D03*
X191586683Y-24736485D03*
X192412183Y-25752485D03*
X190443683Y-25498485D03*
X190443683Y-24355485D03*
X190443683Y-26831985D03*
X190443683Y-27974985D03*
X206582843Y-88726705D03*
X205693843Y-89552205D03*
X203598343Y-89552205D03*
X204614343Y-88726705D03*
X204360343Y-90695205D03*
X203217343Y-90695205D03*
X205693843Y-90695205D03*
X206836843Y-90695205D03*
X192130243Y-93641605D03*
X191304743Y-92752605D03*
X191304743Y-90657105D03*
X192130243Y-91673105D03*
X190161743Y-91419105D03*
X190161743Y-90276105D03*
X190161743Y-92752605D03*
X190161743Y-93895605D03*
X192064203Y-87433845D03*
X191238703Y-86544845D03*
X191238703Y-84449345D03*
X192064203Y-85465345D03*
X190095703Y-85211345D03*
X190095703Y-84068345D03*
X190095703Y-86544845D03*
X190095703Y-87687845D03*
X177197583Y-87492265D03*
X178086583Y-86666765D03*
X180182083Y-86666765D03*
X179166083Y-87492265D03*
X179420083Y-85523765D03*
X180563083Y-85523765D03*
X178086583Y-85523765D03*
X176943583Y-85523765D03*
M02*
