G04 #@! TF.FileFunction,Paste,Bot*
%FSLAX46Y46*%
G04 Gerber Fmt 4.6, Leading zero omitted, Abs format (unit mm)*
G04 Created by KiCad (PCBNEW 4.0.1-stable) date 1/20/2016 12:58:46 AM*
%MOMM*%
G01*
G04 APERTURE LIST*
%ADD10C,0.100000*%
%ADD11R,2.550160X2.700020*%
%ADD12R,2.550160X3.799840*%
%ADD13R,1.300480X1.498600*%
%ADD14R,0.899160X1.000760*%
%ADD15R,2.692400X1.600200*%
%ADD16R,1.600200X3.200400*%
%ADD17R,6.499860X7.000240*%
%ADD18R,5.499100X1.849120*%
%ADD19R,1.400000X0.300000*%
%ADD20R,1.650000X2.850000*%
%ADD21C,0.650000*%
%ADD22R,0.600000X1.950000*%
%ADD23R,1.198880X1.198880*%
%ADD24R,0.910000X1.220000*%
G04 APERTURE END LIST*
D10*
D11*
X75839542Y-46731802D03*
D12*
X69840062Y-46731802D03*
D13*
X73972420Y-50434240D03*
X72067420Y-50434240D03*
D14*
X63975202Y-45030002D03*
X62471522Y-45030002D03*
X67086702Y-37664002D03*
X65583022Y-37664002D03*
D15*
X79288862Y-29663002D03*
X79288862Y-32457002D03*
D14*
X51208234Y-44696832D03*
X52711914Y-44696832D03*
X47852894Y-29787032D03*
X46349214Y-29787032D03*
X55891994Y-29761632D03*
X54388314Y-29761632D03*
X44639794Y-29787032D03*
X43136114Y-29787032D03*
X52800814Y-29761632D03*
X51297134Y-29761632D03*
X55912314Y-27932832D03*
X57415994Y-27932832D03*
X36196834Y-44963532D03*
X37700514Y-44963532D03*
X32671314Y-29977532D03*
X31167634Y-29977532D03*
X40862814Y-30002932D03*
X39359134Y-30002932D03*
X29394714Y-29977532D03*
X27891034Y-29977532D03*
X37764014Y-30002932D03*
X36260334Y-30002932D03*
X40888214Y-28085232D03*
X42391894Y-28085232D03*
D16*
X87673180Y-31816040D03*
X92275660Y-31816040D03*
D17*
X89974420Y-38064440D03*
D18*
X71541862Y-36648002D03*
X71541862Y-31496882D03*
D14*
X65583022Y-44966502D03*
X67086702Y-44966502D03*
X75224862Y-42045503D03*
X76728542Y-42045503D03*
X75181682Y-43760002D03*
X76685362Y-43760002D03*
X65235042Y-41855002D03*
X63731362Y-41855002D03*
X65255362Y-43442502D03*
X63751682Y-43442502D03*
X80739201Y-27059502D03*
X79235521Y-27059502D03*
D19*
X71960962Y-39721403D03*
X71960962Y-40221403D03*
X71960962Y-40721403D03*
X71960962Y-41221403D03*
X71960962Y-41721403D03*
X67560962Y-41721403D03*
X67560962Y-41221403D03*
X67560962Y-40721403D03*
X67560962Y-40221403D03*
X67560962Y-39721403D03*
X71960962Y-42221403D03*
X71960962Y-42721403D03*
X71960962Y-43221403D03*
X67560962Y-42221403D03*
X67560962Y-42721403D03*
X67560962Y-43221403D03*
D20*
X69760962Y-41471403D03*
D21*
X69760962Y-41471403D03*
X69760962Y-42471403D03*
X69760962Y-40471403D03*
D22*
X55361134Y-42089252D03*
X54091134Y-42089252D03*
X52821134Y-42089252D03*
X51551134Y-42089252D03*
X50281134Y-42089252D03*
X49011134Y-42089252D03*
X47741134Y-42089252D03*
X46471134Y-42089252D03*
X45201134Y-42089252D03*
X43931134Y-42089252D03*
X43931134Y-32689252D03*
X45201134Y-32689252D03*
X46471134Y-32689252D03*
X47741134Y-32689252D03*
X49011134Y-32689252D03*
X50281134Y-32689252D03*
X51551134Y-32689252D03*
X52821134Y-32689252D03*
X54091134Y-32689252D03*
X55361134Y-32689252D03*
X40286234Y-42228952D03*
X39016234Y-42228952D03*
X37746234Y-42228952D03*
X36476234Y-42228952D03*
X35206234Y-42228952D03*
X33936234Y-42228952D03*
X32666234Y-42228952D03*
X31396234Y-42228952D03*
X30126234Y-42228952D03*
X28856234Y-42228952D03*
X28856234Y-32828952D03*
X30126234Y-32828952D03*
X31396234Y-32828952D03*
X32666234Y-32828952D03*
X33936234Y-32828952D03*
X35206234Y-32828952D03*
X36476234Y-32828952D03*
X37746234Y-32828952D03*
X39016234Y-32828952D03*
X40286234Y-32828952D03*
D23*
X82621342Y-27059502D03*
X84719382Y-27059502D03*
D24*
X77393262Y-39480101D03*
X74123262Y-39480101D03*
M02*
