G04 #@! TF.FileFunction,Legend,Bot*
%FSLAX46Y46*%
G04 Gerber Fmt 4.6, Leading zero omitted, Abs format (unit mm)*
G04 Created by KiCad (PCBNEW 4.0.1-stable) date 1/20/2016 12:58:46 AM*
%MOMM*%
G01*
G04 APERTURE LIST*
%ADD10C,0.100000*%
%ADD11C,0.127000*%
%ADD12C,0.150000*%
%ADD13C,0.119380*%
%ADD14C,0.060960*%
%ADD15C,0.040640*%
%ADD16C,0.304800*%
%ADD17R,2.950160X3.100020*%
%ADD18R,2.950160X4.199840*%
%ADD19R,1.700480X1.898600*%
%ADD20R,1.299160X1.400760*%
%ADD21R,3.092400X2.000200*%
%ADD22R,2.000200X3.600400*%
%ADD23R,6.899860X7.400240*%
%ADD24R,5.899100X2.249120*%
%ADD25O,2.398980X2.398980*%
%ADD26R,2.398980X2.398980*%
%ADD27R,1.800000X0.700000*%
%ADD28R,2.050000X3.250000*%
%ADD29C,1.050000*%
%ADD30R,1.000000X2.350000*%
%ADD31C,4.464000*%
%ADD32R,1.598880X1.598880*%
%ADD33R,1.310000X1.620000*%
%ADD34C,1.797000*%
%ADD35C,2.150000*%
%ADD36C,2.400000*%
%ADD37C,0.984200*%
%ADD38C,1.035000*%
G04 APERTURE END LIST*
D10*
D11*
X75379802Y-48890802D02*
X75379802Y-44572802D01*
X69156802Y-48890802D02*
X69156802Y-44572802D01*
X69156802Y-44572802D02*
X76522802Y-44572802D01*
X76522802Y-44572802D02*
X76522802Y-48890802D01*
X76522802Y-48890802D02*
X69156802Y-48890802D01*
X73654920Y-51069240D02*
X73654920Y-49799240D01*
X72384920Y-51069240D02*
X72384920Y-49824640D01*
X72003920Y-51069240D02*
X74035920Y-51069240D01*
X74035920Y-51069240D02*
X74035920Y-49799240D01*
X74035920Y-49799240D02*
X72003920Y-49799240D01*
X72003920Y-49799240D02*
X72003920Y-51069240D01*
X63782162Y-44623602D02*
X63782162Y-45436402D01*
X62664562Y-45411002D02*
X62664562Y-44623602D01*
X62410562Y-45436402D02*
X64036162Y-45436402D01*
X64036162Y-45436402D02*
X64036162Y-44623602D01*
X64036162Y-44623602D02*
X62410562Y-44623602D01*
X62410562Y-44623602D02*
X62410562Y-45436402D01*
X66893662Y-37257602D02*
X66893662Y-38070402D01*
X65776062Y-38045002D02*
X65776062Y-37257602D01*
X65522062Y-38070402D02*
X67147662Y-38070402D01*
X67147662Y-38070402D02*
X67147662Y-37257602D01*
X67147662Y-37257602D02*
X65522062Y-37257602D01*
X65522062Y-37257602D02*
X65522062Y-38070402D01*
X80533462Y-32660202D02*
X78044262Y-32660202D01*
X78044262Y-29459802D02*
X80533462Y-29459802D01*
X80533462Y-29917002D02*
X78044262Y-29917002D01*
X78044262Y-32203002D02*
X80533462Y-32203002D01*
X78044262Y-32660202D02*
X78044262Y-29459802D01*
X80533462Y-29459802D02*
X80533462Y-32660202D01*
X51401274Y-45103232D02*
X51401274Y-44290432D01*
X52518874Y-44315832D02*
X52518874Y-45103232D01*
X52772874Y-44290432D02*
X51147274Y-44290432D01*
X51147274Y-44290432D02*
X51147274Y-45103232D01*
X51147274Y-45103232D02*
X52772874Y-45103232D01*
X52772874Y-45103232D02*
X52772874Y-44290432D01*
X47659854Y-29380632D02*
X47659854Y-30193432D01*
X46542254Y-30168032D02*
X46542254Y-29380632D01*
X46288254Y-30193432D02*
X47913854Y-30193432D01*
X47913854Y-30193432D02*
X47913854Y-29380632D01*
X47913854Y-29380632D02*
X46288254Y-29380632D01*
X46288254Y-29380632D02*
X46288254Y-30193432D01*
X55698954Y-29355232D02*
X55698954Y-30168032D01*
X54581354Y-30142632D02*
X54581354Y-29355232D01*
X54327354Y-30168032D02*
X55952954Y-30168032D01*
X55952954Y-30168032D02*
X55952954Y-29355232D01*
X55952954Y-29355232D02*
X54327354Y-29355232D01*
X54327354Y-29355232D02*
X54327354Y-30168032D01*
X44446754Y-29380632D02*
X44446754Y-30193432D01*
X43329154Y-30168032D02*
X43329154Y-29380632D01*
X43075154Y-30193432D02*
X44700754Y-30193432D01*
X44700754Y-30193432D02*
X44700754Y-29380632D01*
X44700754Y-29380632D02*
X43075154Y-29380632D01*
X43075154Y-29380632D02*
X43075154Y-30193432D01*
X52607774Y-29355232D02*
X52607774Y-30168032D01*
X51490174Y-30142632D02*
X51490174Y-29355232D01*
X51236174Y-30168032D02*
X52861774Y-30168032D01*
X52861774Y-30168032D02*
X52861774Y-29355232D01*
X52861774Y-29355232D02*
X51236174Y-29355232D01*
X51236174Y-29355232D02*
X51236174Y-30168032D01*
X56105354Y-28339232D02*
X56105354Y-27526432D01*
X57222954Y-27551832D02*
X57222954Y-28339232D01*
X57476954Y-27526432D02*
X55851354Y-27526432D01*
X55851354Y-27526432D02*
X55851354Y-28339232D01*
X55851354Y-28339232D02*
X57476954Y-28339232D01*
X57476954Y-28339232D02*
X57476954Y-27526432D01*
X36389874Y-45369932D02*
X36389874Y-44557132D01*
X37507474Y-44582532D02*
X37507474Y-45369932D01*
X37761474Y-44557132D02*
X36135874Y-44557132D01*
X36135874Y-44557132D02*
X36135874Y-45369932D01*
X36135874Y-45369932D02*
X37761474Y-45369932D01*
X37761474Y-45369932D02*
X37761474Y-44557132D01*
X32478274Y-29571132D02*
X32478274Y-30383932D01*
X31360674Y-30358532D02*
X31360674Y-29571132D01*
X31106674Y-30383932D02*
X32732274Y-30383932D01*
X32732274Y-30383932D02*
X32732274Y-29571132D01*
X32732274Y-29571132D02*
X31106674Y-29571132D01*
X31106674Y-29571132D02*
X31106674Y-30383932D01*
X40669774Y-29596532D02*
X40669774Y-30409332D01*
X39552174Y-30383932D02*
X39552174Y-29596532D01*
X39298174Y-30409332D02*
X40923774Y-30409332D01*
X40923774Y-30409332D02*
X40923774Y-29596532D01*
X40923774Y-29596532D02*
X39298174Y-29596532D01*
X39298174Y-29596532D02*
X39298174Y-30409332D01*
X29201674Y-29571132D02*
X29201674Y-30383932D01*
X28084074Y-30358532D02*
X28084074Y-29571132D01*
X27830074Y-30383932D02*
X29455674Y-30383932D01*
X29455674Y-30383932D02*
X29455674Y-29571132D01*
X29455674Y-29571132D02*
X27830074Y-29571132D01*
X27830074Y-29571132D02*
X27830074Y-30383932D01*
X37570974Y-29596532D02*
X37570974Y-30409332D01*
X36453374Y-30383932D02*
X36453374Y-29596532D01*
X36199374Y-30409332D02*
X37824974Y-30409332D01*
X37824974Y-30409332D02*
X37824974Y-29596532D01*
X37824974Y-29596532D02*
X36199374Y-29596532D01*
X36199374Y-29596532D02*
X36199374Y-30409332D01*
X41081254Y-28491632D02*
X41081254Y-27678832D01*
X42198854Y-27704232D02*
X42198854Y-28491632D01*
X42452854Y-27678832D02*
X40827254Y-27678832D01*
X40827254Y-27678832D02*
X40827254Y-28491632D01*
X40827254Y-28491632D02*
X42452854Y-28491632D01*
X42452854Y-28491632D02*
X42452854Y-27678832D01*
X87269320Y-39372540D02*
X87269320Y-40566340D01*
X87269320Y-40566340D02*
X92679520Y-40566340D01*
X92679520Y-40566340D02*
X92679520Y-39359840D01*
X91701620Y-33365440D02*
X91701620Y-30457140D01*
X92844620Y-30457140D02*
X92844620Y-33365440D01*
X91701620Y-30457140D02*
X92844620Y-30457140D01*
X87104220Y-30457140D02*
X88247220Y-30457140D01*
X88247220Y-30457140D02*
X88247220Y-33365440D01*
X87104220Y-33365440D02*
X87104220Y-30457140D01*
X93327220Y-33365440D02*
X93327220Y-39359840D01*
X93327220Y-39359840D02*
X86621620Y-39359840D01*
X86621620Y-39359840D02*
X86621620Y-33365440D01*
X93327220Y-33365440D02*
X86621620Y-33365440D01*
X69001862Y-36231442D02*
X74081862Y-36231442D01*
X69001862Y-31913442D02*
X74081862Y-31913442D01*
X69001862Y-31278442D02*
X69001862Y-36866442D01*
X69001862Y-36866442D02*
X74081862Y-36866442D01*
X74081862Y-36866442D02*
X74081862Y-31278442D01*
X74081862Y-31278442D02*
X69001862Y-31278442D01*
X65776062Y-45372902D02*
X65776062Y-44560102D01*
X66893662Y-44585502D02*
X66893662Y-45372902D01*
X67147662Y-44560102D02*
X65522062Y-44560102D01*
X65522062Y-44560102D02*
X65522062Y-45372902D01*
X65522062Y-45372902D02*
X67147662Y-45372902D01*
X67147662Y-45372902D02*
X67147662Y-44560102D01*
X75417902Y-42451903D02*
X75417902Y-41639103D01*
X76535502Y-41664503D02*
X76535502Y-42451903D01*
X76789502Y-41639103D02*
X75163902Y-41639103D01*
X75163902Y-41639103D02*
X75163902Y-42451903D01*
X75163902Y-42451903D02*
X76789502Y-42451903D01*
X76789502Y-42451903D02*
X76789502Y-41639103D01*
X75374722Y-44166402D02*
X75374722Y-43353602D01*
X76492322Y-43379002D02*
X76492322Y-44166402D01*
X76746322Y-43353602D02*
X75120722Y-43353602D01*
X75120722Y-43353602D02*
X75120722Y-44166402D01*
X75120722Y-44166402D02*
X76746322Y-44166402D01*
X76746322Y-44166402D02*
X76746322Y-43353602D01*
X65042002Y-41448602D02*
X65042002Y-42261402D01*
X63924402Y-42236002D02*
X63924402Y-41448602D01*
X63670402Y-42261402D02*
X65296002Y-42261402D01*
X65296002Y-42261402D02*
X65296002Y-41448602D01*
X65296002Y-41448602D02*
X63670402Y-41448602D01*
X63670402Y-41448602D02*
X63670402Y-42261402D01*
X65062322Y-43036102D02*
X65062322Y-43848902D01*
X63944722Y-43823502D02*
X63944722Y-43036102D01*
X63690722Y-43848902D02*
X65316322Y-43848902D01*
X65316322Y-43848902D02*
X65316322Y-43036102D01*
X65316322Y-43036102D02*
X63690722Y-43036102D01*
X63690722Y-43036102D02*
X63690722Y-43848902D01*
X80546161Y-26653102D02*
X80546161Y-27465902D01*
X79428561Y-27440502D02*
X79428561Y-26653102D01*
X79174561Y-27465902D02*
X80800161Y-27465902D01*
X80800161Y-27465902D02*
X80800161Y-26653102D01*
X80800161Y-26653102D02*
X79174561Y-26653102D01*
X79174561Y-26653102D02*
X79174561Y-27465902D01*
D12*
X71435962Y-39046403D02*
X71435962Y-39346403D01*
X68085962Y-39046403D02*
X68085962Y-39346403D01*
X68085962Y-43896403D02*
X68085962Y-43596403D01*
X71435962Y-43896403D02*
X71435962Y-43596403D01*
X71435962Y-39046403D02*
X68085962Y-39046403D01*
X71435962Y-43896403D02*
X68085962Y-43896403D01*
X71435962Y-39346403D02*
X72660962Y-39346403D01*
X56221134Y-41264252D02*
X55886134Y-41264252D01*
X56221134Y-33514252D02*
X55886134Y-33514252D01*
X43071134Y-33514252D02*
X43406134Y-33514252D01*
X43071134Y-41264252D02*
X43406134Y-41264252D01*
X56221134Y-41264252D02*
X56221134Y-33514252D01*
X43071134Y-41264252D02*
X43071134Y-33514252D01*
X55886134Y-41264252D02*
X55886134Y-43064252D01*
X41146234Y-41403952D02*
X40811234Y-41403952D01*
X41146234Y-33653952D02*
X40811234Y-33653952D01*
X27996234Y-33653952D02*
X28331234Y-33653952D01*
X27996234Y-41403952D02*
X28331234Y-41403952D01*
X41146234Y-41403952D02*
X41146234Y-33653952D01*
X27996234Y-41403952D02*
X27996234Y-33653952D01*
X40811234Y-41403952D02*
X40811234Y-43203952D01*
X85270362Y-27809502D02*
X82570362Y-27809502D01*
X85270362Y-26309502D02*
X82570362Y-26309502D01*
X83770362Y-27209502D02*
X83770362Y-26959502D01*
X83770362Y-26959502D02*
X83920362Y-27109502D01*
X84020362Y-26709502D02*
X84020362Y-27409502D01*
X83670362Y-27059502D02*
X83320362Y-27059502D01*
X84020362Y-27059502D02*
X83670362Y-26709502D01*
X83670362Y-26709502D02*
X83670362Y-27409502D01*
X83670362Y-27409502D02*
X84020362Y-27059502D01*
X75440762Y-39480101D02*
X75059762Y-39480101D01*
X76456762Y-39480101D02*
X76075762Y-39480101D01*
X76075762Y-39480101D02*
X75440762Y-39099101D01*
X75440762Y-39099101D02*
X75440762Y-39861101D01*
X75440762Y-39861101D02*
X76075762Y-39480101D01*
X76075762Y-38972101D02*
X76075762Y-39988101D01*
X77758262Y-40380101D02*
X74218262Y-40380101D01*
X77758262Y-38580101D02*
X74218262Y-38580101D01*
D13*
X67974069Y-46851606D02*
X67997897Y-46827778D01*
X68021724Y-46756295D01*
X68021724Y-46708640D01*
X67997897Y-46637157D01*
X67950242Y-46589502D01*
X67902586Y-46565674D01*
X67807276Y-46541846D01*
X67735793Y-46541846D01*
X67640482Y-46565674D01*
X67592827Y-46589502D01*
X67545172Y-46637157D01*
X67521344Y-46708640D01*
X67521344Y-46756295D01*
X67545172Y-46827778D01*
X67569000Y-46851606D01*
X68021724Y-47328158D02*
X68021724Y-47042226D01*
X68021724Y-47185192D02*
X67521344Y-47185192D01*
X67592827Y-47137537D01*
X67640482Y-47089882D01*
X67664310Y-47042226D01*
D14*
X75419374Y-50465083D02*
X75433646Y-50479355D01*
X75476463Y-50493628D01*
X75505008Y-50493628D01*
X75547825Y-50479355D01*
X75576370Y-50450810D01*
X75590642Y-50422266D01*
X75604914Y-50365176D01*
X75604914Y-50322359D01*
X75590642Y-50265270D01*
X75576370Y-50236725D01*
X75547825Y-50208180D01*
X75505008Y-50193908D01*
X75476463Y-50193908D01*
X75433646Y-50208180D01*
X75419374Y-50222452D01*
X75305194Y-50222452D02*
X75290922Y-50208180D01*
X75262377Y-50193908D01*
X75191015Y-50193908D01*
X75162471Y-50208180D01*
X75148198Y-50222452D01*
X75133926Y-50250997D01*
X75133926Y-50279542D01*
X75148198Y-50322359D01*
X75319467Y-50493628D01*
X75133926Y-50493628D01*
D15*
X63274363Y-46175204D02*
X63283918Y-46184760D01*
X63312584Y-46194315D01*
X63331694Y-46194315D01*
X63360360Y-46184760D01*
X63379471Y-46165649D01*
X63389026Y-46146539D01*
X63398581Y-46108318D01*
X63398581Y-46079652D01*
X63389026Y-46041431D01*
X63379471Y-46022320D01*
X63360360Y-46003210D01*
X63331694Y-45993655D01*
X63312584Y-45993655D01*
X63283918Y-46003210D01*
X63274363Y-46012765D01*
X63207476Y-45993655D02*
X63083258Y-45993655D01*
X63150145Y-46070097D01*
X63121479Y-46070097D01*
X63102369Y-46079652D01*
X63092813Y-46089207D01*
X63083258Y-46108318D01*
X63083258Y-46156094D01*
X63092813Y-46175204D01*
X63102369Y-46184760D01*
X63121479Y-46194315D01*
X63178811Y-46194315D01*
X63197921Y-46184760D01*
X63207476Y-46175204D01*
X66368305Y-38682204D02*
X66377860Y-38691760D01*
X66406526Y-38701315D01*
X66425636Y-38701315D01*
X66454302Y-38691760D01*
X66473413Y-38672649D01*
X66482968Y-38653539D01*
X66492523Y-38615318D01*
X66492523Y-38586652D01*
X66482968Y-38548431D01*
X66473413Y-38529320D01*
X66454302Y-38510210D01*
X66425636Y-38500655D01*
X66406526Y-38500655D01*
X66377860Y-38510210D01*
X66368305Y-38519765D01*
X66196311Y-38500655D02*
X66234532Y-38500655D01*
X66253642Y-38510210D01*
X66263197Y-38519765D01*
X66282308Y-38548431D01*
X66291863Y-38586652D01*
X66291863Y-38663094D01*
X66282308Y-38682204D01*
X66272753Y-38691760D01*
X66253642Y-38701315D01*
X66215421Y-38701315D01*
X66196311Y-38691760D01*
X66186755Y-38682204D01*
X66177200Y-38663094D01*
X66177200Y-38615318D01*
X66186755Y-38596207D01*
X66196311Y-38586652D01*
X66215421Y-38577097D01*
X66253642Y-38577097D01*
X66272753Y-38586652D01*
X66282308Y-38596207D01*
X66291863Y-38615318D01*
D13*
X77389627Y-30970644D02*
X77413455Y-30946816D01*
X77437282Y-30875333D01*
X77437282Y-30827678D01*
X77413455Y-30756195D01*
X77365800Y-30708540D01*
X77318144Y-30684712D01*
X77222834Y-30660884D01*
X77151351Y-30660884D01*
X77056040Y-30684712D01*
X77008385Y-30708540D01*
X76960730Y-30756195D01*
X76936902Y-30827678D01*
X76936902Y-30875333D01*
X76960730Y-30946816D01*
X76984558Y-30970644D01*
X76936902Y-31137437D02*
X76936902Y-31471024D01*
X77437282Y-31256575D01*
D15*
X52089070Y-43825704D02*
X52098625Y-43835260D01*
X52127291Y-43844815D01*
X52146401Y-43844815D01*
X52175067Y-43835260D01*
X52194178Y-43816149D01*
X52203733Y-43797039D01*
X52213288Y-43758818D01*
X52213288Y-43730152D01*
X52203733Y-43691931D01*
X52194178Y-43672820D01*
X52175067Y-43653710D01*
X52146401Y-43644155D01*
X52127291Y-43644155D01*
X52098625Y-43653710D01*
X52089070Y-43663265D01*
X52012628Y-43663265D02*
X52003073Y-43653710D01*
X51983962Y-43644155D01*
X51936186Y-43644155D01*
X51917076Y-43653710D01*
X51907520Y-43663265D01*
X51897965Y-43682376D01*
X51897965Y-43701486D01*
X51907520Y-43730152D01*
X52022183Y-43844815D01*
X51897965Y-43844815D01*
X51773747Y-43644155D02*
X51754636Y-43644155D01*
X51735526Y-43653710D01*
X51725971Y-43663265D01*
X51716415Y-43682376D01*
X51706860Y-43720597D01*
X51706860Y-43768373D01*
X51716415Y-43806594D01*
X51725971Y-43825704D01*
X51735526Y-43835260D01*
X51754636Y-43844815D01*
X51773747Y-43844815D01*
X51792857Y-43835260D01*
X51802413Y-43825704D01*
X51811968Y-43806594D01*
X51821523Y-43768373D01*
X51821523Y-43720597D01*
X51811968Y-43682376D01*
X51802413Y-43663265D01*
X51792857Y-43653710D01*
X51773747Y-43644155D01*
X47431416Y-30871704D02*
X47440971Y-30881260D01*
X47469637Y-30890815D01*
X47488747Y-30890815D01*
X47517413Y-30881260D01*
X47536524Y-30862149D01*
X47546079Y-30843039D01*
X47555634Y-30804818D01*
X47555634Y-30776152D01*
X47546079Y-30737931D01*
X47536524Y-30718820D01*
X47517413Y-30699710D01*
X47488747Y-30690155D01*
X47469637Y-30690155D01*
X47440971Y-30699710D01*
X47431416Y-30709265D01*
X47354974Y-30709265D02*
X47345419Y-30699710D01*
X47326308Y-30690155D01*
X47278532Y-30690155D01*
X47259422Y-30699710D01*
X47249866Y-30709265D01*
X47240311Y-30728376D01*
X47240311Y-30747486D01*
X47249866Y-30776152D01*
X47364529Y-30890815D01*
X47240311Y-30890815D01*
X47173424Y-30690155D02*
X47049206Y-30690155D01*
X47116093Y-30766597D01*
X47087427Y-30766597D01*
X47068317Y-30776152D01*
X47058761Y-30785707D01*
X47049206Y-30804818D01*
X47049206Y-30852594D01*
X47058761Y-30871704D01*
X47068317Y-30881260D01*
X47087427Y-30890815D01*
X47144759Y-30890815D01*
X47163869Y-30881260D01*
X47173424Y-30871704D01*
X55368916Y-30935204D02*
X55378471Y-30944760D01*
X55407137Y-30954315D01*
X55426247Y-30954315D01*
X55454913Y-30944760D01*
X55474024Y-30925649D01*
X55483579Y-30906539D01*
X55493134Y-30868318D01*
X55493134Y-30839652D01*
X55483579Y-30801431D01*
X55474024Y-30782320D01*
X55454913Y-30763210D01*
X55426247Y-30753655D01*
X55407137Y-30753655D01*
X55378471Y-30763210D01*
X55368916Y-30772765D01*
X55292474Y-30772765D02*
X55282919Y-30763210D01*
X55263808Y-30753655D01*
X55216032Y-30753655D01*
X55196922Y-30763210D01*
X55187366Y-30772765D01*
X55177811Y-30791876D01*
X55177811Y-30810986D01*
X55187366Y-30839652D01*
X55302029Y-30954315D01*
X55177811Y-30954315D01*
X55005817Y-30753655D02*
X55044038Y-30753655D01*
X55063148Y-30763210D01*
X55072703Y-30772765D01*
X55091814Y-30801431D01*
X55101369Y-30839652D01*
X55101369Y-30916094D01*
X55091814Y-30935204D01*
X55082259Y-30944760D01*
X55063148Y-30954315D01*
X55024927Y-30954315D01*
X55005817Y-30944760D01*
X54996261Y-30935204D01*
X54986706Y-30916094D01*
X54986706Y-30868318D01*
X54996261Y-30849207D01*
X55005817Y-30839652D01*
X55024927Y-30830097D01*
X55063148Y-30830097D01*
X55082259Y-30839652D01*
X55091814Y-30849207D01*
X55101369Y-30868318D01*
X43875416Y-30871704D02*
X43884971Y-30881260D01*
X43913637Y-30890815D01*
X43932747Y-30890815D01*
X43961413Y-30881260D01*
X43980524Y-30862149D01*
X43990079Y-30843039D01*
X43999634Y-30804818D01*
X43999634Y-30776152D01*
X43990079Y-30737931D01*
X43980524Y-30718820D01*
X43961413Y-30699710D01*
X43932747Y-30690155D01*
X43913637Y-30690155D01*
X43884971Y-30699710D01*
X43875416Y-30709265D01*
X43808529Y-30690155D02*
X43684311Y-30690155D01*
X43751198Y-30766597D01*
X43722532Y-30766597D01*
X43703422Y-30776152D01*
X43693866Y-30785707D01*
X43684311Y-30804818D01*
X43684311Y-30852594D01*
X43693866Y-30871704D01*
X43703422Y-30881260D01*
X43722532Y-30890815D01*
X43779864Y-30890815D01*
X43798974Y-30881260D01*
X43808529Y-30871704D01*
X43493206Y-30890815D02*
X43607869Y-30890815D01*
X43550538Y-30890815D02*
X43550538Y-30690155D01*
X43569648Y-30718820D01*
X43588759Y-30737931D01*
X43607869Y-30747486D01*
X52177970Y-30871704D02*
X52187525Y-30881260D01*
X52216191Y-30890815D01*
X52235301Y-30890815D01*
X52263967Y-30881260D01*
X52283078Y-30862149D01*
X52292633Y-30843039D01*
X52302188Y-30804818D01*
X52302188Y-30776152D01*
X52292633Y-30737931D01*
X52283078Y-30718820D01*
X52263967Y-30699710D01*
X52235301Y-30690155D01*
X52216191Y-30690155D01*
X52187525Y-30699710D01*
X52177970Y-30709265D01*
X52111083Y-30690155D02*
X51986865Y-30690155D01*
X52053752Y-30766597D01*
X52025086Y-30766597D01*
X52005976Y-30776152D01*
X51996420Y-30785707D01*
X51986865Y-30804818D01*
X51986865Y-30852594D01*
X51996420Y-30871704D01*
X52005976Y-30881260D01*
X52025086Y-30890815D01*
X52082418Y-30890815D01*
X52101528Y-30881260D01*
X52111083Y-30871704D01*
X51910423Y-30709265D02*
X51900868Y-30699710D01*
X51881757Y-30690155D01*
X51833981Y-30690155D01*
X51814871Y-30699710D01*
X51805315Y-30709265D01*
X51795760Y-30728376D01*
X51795760Y-30747486D01*
X51805315Y-30776152D01*
X51919978Y-30890815D01*
X51795760Y-30890815D01*
X56765916Y-26934704D02*
X56775471Y-26944260D01*
X56804137Y-26953815D01*
X56823247Y-26953815D01*
X56851913Y-26944260D01*
X56871024Y-26925149D01*
X56880579Y-26906039D01*
X56890134Y-26867818D01*
X56890134Y-26839152D01*
X56880579Y-26800931D01*
X56871024Y-26781820D01*
X56851913Y-26762710D01*
X56823247Y-26753155D01*
X56804137Y-26753155D01*
X56775471Y-26762710D01*
X56765916Y-26772265D01*
X56699029Y-26753155D02*
X56574811Y-26753155D01*
X56641698Y-26829597D01*
X56613032Y-26829597D01*
X56593922Y-26839152D01*
X56584366Y-26848707D01*
X56574811Y-26867818D01*
X56574811Y-26915594D01*
X56584366Y-26934704D01*
X56593922Y-26944260D01*
X56613032Y-26953815D01*
X56670364Y-26953815D01*
X56689474Y-26944260D01*
X56699029Y-26934704D01*
X56393261Y-26753155D02*
X56488814Y-26753155D01*
X56498369Y-26848707D01*
X56488814Y-26839152D01*
X56469703Y-26829597D01*
X56421927Y-26829597D01*
X56402817Y-26839152D01*
X56393261Y-26848707D01*
X56383706Y-26867818D01*
X56383706Y-26915594D01*
X56393261Y-26934704D01*
X56402817Y-26944260D01*
X56421927Y-26953815D01*
X56469703Y-26953815D01*
X56488814Y-26944260D01*
X56498369Y-26934704D01*
X37080916Y-44079704D02*
X37090471Y-44089260D01*
X37119137Y-44098815D01*
X37138247Y-44098815D01*
X37166913Y-44089260D01*
X37186024Y-44070149D01*
X37195579Y-44051039D01*
X37205134Y-44012818D01*
X37205134Y-43984152D01*
X37195579Y-43945931D01*
X37186024Y-43926820D01*
X37166913Y-43907710D01*
X37138247Y-43898155D01*
X37119137Y-43898155D01*
X37090471Y-43907710D01*
X37080916Y-43917265D01*
X37014029Y-43898155D02*
X36889811Y-43898155D01*
X36956698Y-43974597D01*
X36928032Y-43974597D01*
X36908922Y-43984152D01*
X36899366Y-43993707D01*
X36889811Y-44012818D01*
X36889811Y-44060594D01*
X36899366Y-44079704D01*
X36908922Y-44089260D01*
X36928032Y-44098815D01*
X36985364Y-44098815D01*
X37004474Y-44089260D01*
X37014029Y-44079704D01*
X36717817Y-43898155D02*
X36756038Y-43898155D01*
X36775148Y-43907710D01*
X36784703Y-43917265D01*
X36803814Y-43945931D01*
X36813369Y-43984152D01*
X36813369Y-44060594D01*
X36803814Y-44079704D01*
X36794259Y-44089260D01*
X36775148Y-44098815D01*
X36736927Y-44098815D01*
X36717817Y-44089260D01*
X36708261Y-44079704D01*
X36698706Y-44060594D01*
X36698706Y-44012818D01*
X36708261Y-43993707D01*
X36717817Y-43984152D01*
X36736927Y-43974597D01*
X36775148Y-43974597D01*
X36794259Y-43984152D01*
X36803814Y-43993707D01*
X36813369Y-44012818D01*
X32048470Y-31062204D02*
X32058025Y-31071760D01*
X32086691Y-31081315D01*
X32105801Y-31081315D01*
X32134467Y-31071760D01*
X32153578Y-31052649D01*
X32163133Y-31033539D01*
X32172688Y-30995318D01*
X32172688Y-30966652D01*
X32163133Y-30928431D01*
X32153578Y-30909320D01*
X32134467Y-30890210D01*
X32105801Y-30880655D01*
X32086691Y-30880655D01*
X32058025Y-30890210D01*
X32048470Y-30899765D01*
X31981583Y-30880655D02*
X31857365Y-30880655D01*
X31924252Y-30957097D01*
X31895586Y-30957097D01*
X31876476Y-30966652D01*
X31866920Y-30976207D01*
X31857365Y-30995318D01*
X31857365Y-31043094D01*
X31866920Y-31062204D01*
X31876476Y-31071760D01*
X31895586Y-31081315D01*
X31952918Y-31081315D01*
X31972028Y-31071760D01*
X31981583Y-31062204D01*
X31790478Y-30880655D02*
X31656705Y-30880655D01*
X31742702Y-31081315D01*
X40128916Y-30998704D02*
X40138471Y-31008260D01*
X40167137Y-31017815D01*
X40186247Y-31017815D01*
X40214913Y-31008260D01*
X40234024Y-30989149D01*
X40243579Y-30970039D01*
X40253134Y-30931818D01*
X40253134Y-30903152D01*
X40243579Y-30864931D01*
X40234024Y-30845820D01*
X40214913Y-30826710D01*
X40186247Y-30817155D01*
X40167137Y-30817155D01*
X40138471Y-30826710D01*
X40128916Y-30836265D01*
X40062029Y-30817155D02*
X39937811Y-30817155D01*
X40004698Y-30893597D01*
X39976032Y-30893597D01*
X39956922Y-30903152D01*
X39947366Y-30912707D01*
X39937811Y-30931818D01*
X39937811Y-30979594D01*
X39947366Y-30998704D01*
X39956922Y-31008260D01*
X39976032Y-31017815D01*
X40033364Y-31017815D01*
X40052474Y-31008260D01*
X40062029Y-30998704D01*
X39823148Y-30903152D02*
X39842259Y-30893597D01*
X39851814Y-30884041D01*
X39861369Y-30864931D01*
X39861369Y-30855376D01*
X39851814Y-30836265D01*
X39842259Y-30826710D01*
X39823148Y-30817155D01*
X39784927Y-30817155D01*
X39765817Y-30826710D01*
X39756261Y-30836265D01*
X39746706Y-30855376D01*
X39746706Y-30864931D01*
X39756261Y-30884041D01*
X39765817Y-30893597D01*
X39784927Y-30903152D01*
X39823148Y-30903152D01*
X39842259Y-30912707D01*
X39851814Y-30922262D01*
X39861369Y-30941373D01*
X39861369Y-30979594D01*
X39851814Y-30998704D01*
X39842259Y-31008260D01*
X39823148Y-31017815D01*
X39784927Y-31017815D01*
X39765817Y-31008260D01*
X39756261Y-30998704D01*
X39746706Y-30979594D01*
X39746706Y-30941373D01*
X39756261Y-30922262D01*
X39765817Y-30912707D01*
X39784927Y-30903152D01*
X28762416Y-30998704D02*
X28771971Y-31008260D01*
X28800637Y-31017815D01*
X28819747Y-31017815D01*
X28848413Y-31008260D01*
X28867524Y-30989149D01*
X28877079Y-30970039D01*
X28886634Y-30931818D01*
X28886634Y-30903152D01*
X28877079Y-30864931D01*
X28867524Y-30845820D01*
X28848413Y-30826710D01*
X28819747Y-30817155D01*
X28800637Y-30817155D01*
X28771971Y-30826710D01*
X28762416Y-30836265D01*
X28695529Y-30817155D02*
X28571311Y-30817155D01*
X28638198Y-30893597D01*
X28609532Y-30893597D01*
X28590422Y-30903152D01*
X28580866Y-30912707D01*
X28571311Y-30931818D01*
X28571311Y-30979594D01*
X28580866Y-30998704D01*
X28590422Y-31008260D01*
X28609532Y-31017815D01*
X28666864Y-31017815D01*
X28685974Y-31008260D01*
X28695529Y-30998704D01*
X28475759Y-31017815D02*
X28437538Y-31017815D01*
X28418427Y-31008260D01*
X28408872Y-30998704D01*
X28389761Y-30970039D01*
X28380206Y-30931818D01*
X28380206Y-30855376D01*
X28389761Y-30836265D01*
X28399317Y-30826710D01*
X28418427Y-30817155D01*
X28456648Y-30817155D01*
X28475759Y-30826710D01*
X28485314Y-30836265D01*
X28494869Y-30855376D01*
X28494869Y-30903152D01*
X28485314Y-30922262D01*
X28475759Y-30931818D01*
X28456648Y-30941373D01*
X28418427Y-30941373D01*
X28399317Y-30931818D01*
X28389761Y-30922262D01*
X28380206Y-30903152D01*
X37141170Y-31062204D02*
X37150725Y-31071760D01*
X37179391Y-31081315D01*
X37198501Y-31081315D01*
X37227167Y-31071760D01*
X37246278Y-31052649D01*
X37255833Y-31033539D01*
X37265388Y-30995318D01*
X37265388Y-30966652D01*
X37255833Y-30928431D01*
X37246278Y-30909320D01*
X37227167Y-30890210D01*
X37198501Y-30880655D01*
X37179391Y-30880655D01*
X37150725Y-30890210D01*
X37141170Y-30899765D01*
X36969176Y-30947541D02*
X36969176Y-31081315D01*
X37016952Y-30871100D02*
X37064728Y-31014428D01*
X36940510Y-31014428D01*
X36825847Y-30880655D02*
X36806736Y-30880655D01*
X36787626Y-30890210D01*
X36778071Y-30899765D01*
X36768515Y-30918876D01*
X36758960Y-30957097D01*
X36758960Y-31004873D01*
X36768515Y-31043094D01*
X36778071Y-31062204D01*
X36787626Y-31071760D01*
X36806736Y-31081315D01*
X36825847Y-31081315D01*
X36844957Y-31071760D01*
X36854513Y-31062204D01*
X36864068Y-31043094D01*
X36873623Y-31004873D01*
X36873623Y-30957097D01*
X36864068Y-30918876D01*
X36854513Y-30899765D01*
X36844957Y-30890210D01*
X36825847Y-30880655D01*
X41779916Y-27061704D02*
X41789471Y-27071260D01*
X41818137Y-27080815D01*
X41837247Y-27080815D01*
X41865913Y-27071260D01*
X41885024Y-27052149D01*
X41894579Y-27033039D01*
X41904134Y-26994818D01*
X41904134Y-26966152D01*
X41894579Y-26927931D01*
X41885024Y-26908820D01*
X41865913Y-26889710D01*
X41837247Y-26880155D01*
X41818137Y-26880155D01*
X41789471Y-26889710D01*
X41779916Y-26899265D01*
X41607922Y-26947041D02*
X41607922Y-27080815D01*
X41655698Y-26870600D02*
X41703474Y-27013928D01*
X41579256Y-27013928D01*
X41397706Y-27080815D02*
X41512369Y-27080815D01*
X41455038Y-27080815D02*
X41455038Y-26880155D01*
X41474148Y-26908820D01*
X41493259Y-26927931D01*
X41512369Y-26937486D01*
D16*
X91099277Y-43986269D02*
X91099277Y-42462269D01*
X90736420Y-42462269D01*
X90518705Y-42534840D01*
X90373563Y-42679983D01*
X90300991Y-42825126D01*
X90228420Y-43115411D01*
X90228420Y-43333126D01*
X90300991Y-43623411D01*
X90373563Y-43768554D01*
X90518705Y-43913697D01*
X90736420Y-43986269D01*
X91099277Y-43986269D01*
X89647848Y-42607411D02*
X89575277Y-42534840D01*
X89430134Y-42462269D01*
X89067277Y-42462269D01*
X88922134Y-42534840D01*
X88849563Y-42607411D01*
X88776991Y-42752554D01*
X88776991Y-42897697D01*
X88849563Y-43115411D01*
X89720420Y-43986269D01*
X88776991Y-43986269D01*
D13*
X68466224Y-33989045D02*
X68466224Y-33750769D01*
X67965844Y-33750769D01*
X68466224Y-34417943D02*
X68466224Y-34132011D01*
X68466224Y-34274977D02*
X67965844Y-34274977D01*
X68037327Y-34227322D01*
X68084982Y-34179667D01*
X68108810Y-34132011D01*
D15*
X66481416Y-46067315D02*
X66548303Y-45971762D01*
X66596079Y-46067315D02*
X66596079Y-45866655D01*
X66519637Y-45866655D01*
X66500526Y-45876210D01*
X66490971Y-45885765D01*
X66481416Y-45904876D01*
X66481416Y-45933541D01*
X66490971Y-45952652D01*
X66500526Y-45962207D01*
X66519637Y-45971762D01*
X66596079Y-45971762D01*
X66290311Y-46067315D02*
X66404974Y-46067315D01*
X66347643Y-46067315D02*
X66347643Y-45866655D01*
X66366753Y-45895320D01*
X66385864Y-45914431D01*
X66404974Y-45923986D01*
X66166093Y-45866655D02*
X66146982Y-45866655D01*
X66127872Y-45876210D01*
X66118317Y-45885765D01*
X66108761Y-45904876D01*
X66099206Y-45943097D01*
X66099206Y-45990873D01*
X66108761Y-46029094D01*
X66118317Y-46048204D01*
X66127872Y-46057760D01*
X66146982Y-46067315D01*
X66166093Y-46067315D01*
X66185203Y-46057760D01*
X66194759Y-46048204D01*
X66204314Y-46029094D01*
X66213869Y-45990873D01*
X66213869Y-45943097D01*
X66204314Y-45904876D01*
X66194759Y-45885765D01*
X66185203Y-45876210D01*
X66166093Y-45866655D01*
X76105698Y-41114315D02*
X76172585Y-41018762D01*
X76220361Y-41114315D02*
X76220361Y-40913655D01*
X76143919Y-40913655D01*
X76124808Y-40923210D01*
X76115253Y-40932765D01*
X76105698Y-40951876D01*
X76105698Y-40980541D01*
X76115253Y-40999652D01*
X76124808Y-41009207D01*
X76143919Y-41018762D01*
X76220361Y-41018762D01*
X75914593Y-41114315D02*
X76029256Y-41114315D01*
X75971925Y-41114315D02*
X75971925Y-40913655D01*
X75991035Y-40942320D01*
X76010146Y-40961431D01*
X76029256Y-40970986D01*
X75723488Y-41114315D02*
X75838151Y-41114315D01*
X75780820Y-41114315D02*
X75780820Y-40913655D01*
X75799930Y-40942320D01*
X75819041Y-40961431D01*
X75838151Y-40970986D01*
X77911416Y-44289315D02*
X77978303Y-44193762D01*
X78026079Y-44289315D02*
X78026079Y-44088655D01*
X77949637Y-44088655D01*
X77930526Y-44098210D01*
X77920971Y-44107765D01*
X77911416Y-44126876D01*
X77911416Y-44155541D01*
X77920971Y-44174652D01*
X77930526Y-44184207D01*
X77949637Y-44193762D01*
X78026079Y-44193762D01*
X77720311Y-44289315D02*
X77834974Y-44289315D01*
X77777643Y-44289315D02*
X77777643Y-44088655D01*
X77796753Y-44117320D01*
X77815864Y-44136431D01*
X77834974Y-44145986D01*
X77643869Y-44107765D02*
X77634314Y-44098210D01*
X77615203Y-44088655D01*
X77567427Y-44088655D01*
X77548317Y-44098210D01*
X77538761Y-44107765D01*
X77529206Y-44126876D01*
X77529206Y-44145986D01*
X77538761Y-44174652D01*
X77653424Y-44289315D01*
X77529206Y-44289315D01*
X62734916Y-41939815D02*
X62801803Y-41844262D01*
X62849579Y-41939815D02*
X62849579Y-41739155D01*
X62773137Y-41739155D01*
X62754026Y-41748710D01*
X62744471Y-41758265D01*
X62734916Y-41777376D01*
X62734916Y-41806041D01*
X62744471Y-41825152D01*
X62754026Y-41834707D01*
X62773137Y-41844262D01*
X62849579Y-41844262D01*
X62543811Y-41939815D02*
X62658474Y-41939815D01*
X62601143Y-41939815D02*
X62601143Y-41739155D01*
X62620253Y-41767820D01*
X62639364Y-41786931D01*
X62658474Y-41796486D01*
X62476924Y-41739155D02*
X62352706Y-41739155D01*
X62419593Y-41815597D01*
X62390927Y-41815597D01*
X62371817Y-41825152D01*
X62362261Y-41834707D01*
X62352706Y-41853818D01*
X62352706Y-41901594D01*
X62362261Y-41920704D01*
X62371817Y-41930260D01*
X62390927Y-41939815D01*
X62448259Y-41939815D01*
X62467369Y-41930260D01*
X62476924Y-41920704D01*
X62798416Y-43527315D02*
X62865303Y-43431762D01*
X62913079Y-43527315D02*
X62913079Y-43326655D01*
X62836637Y-43326655D01*
X62817526Y-43336210D01*
X62807971Y-43345765D01*
X62798416Y-43364876D01*
X62798416Y-43393541D01*
X62807971Y-43412652D01*
X62817526Y-43422207D01*
X62836637Y-43431762D01*
X62913079Y-43431762D01*
X62607311Y-43527315D02*
X62721974Y-43527315D01*
X62664643Y-43527315D02*
X62664643Y-43326655D01*
X62683753Y-43355320D01*
X62702864Y-43374431D01*
X62721974Y-43383986D01*
X62492648Y-43412652D02*
X62511759Y-43403097D01*
X62521314Y-43393541D01*
X62530869Y-43374431D01*
X62530869Y-43364876D01*
X62521314Y-43345765D01*
X62511759Y-43336210D01*
X62492648Y-43326655D01*
X62454427Y-43326655D01*
X62435317Y-43336210D01*
X62425761Y-43345765D01*
X62416206Y-43364876D01*
X62416206Y-43374431D01*
X62425761Y-43393541D01*
X62435317Y-43403097D01*
X62454427Y-43412652D01*
X62492648Y-43412652D01*
X62511759Y-43422207D01*
X62521314Y-43431762D01*
X62530869Y-43450873D01*
X62530869Y-43489094D01*
X62521314Y-43508204D01*
X62511759Y-43517760D01*
X62492648Y-43527315D01*
X62454427Y-43527315D01*
X62435317Y-43517760D01*
X62425761Y-43508204D01*
X62416206Y-43489094D01*
X62416206Y-43450873D01*
X62425761Y-43431762D01*
X62435317Y-43422207D01*
X62454427Y-43412652D01*
X80116357Y-28160315D02*
X80183244Y-28064762D01*
X80231020Y-28160315D02*
X80231020Y-27959655D01*
X80154578Y-27959655D01*
X80135467Y-27969210D01*
X80125912Y-27978765D01*
X80116357Y-27997876D01*
X80116357Y-28026541D01*
X80125912Y-28045652D01*
X80135467Y-28055207D01*
X80154578Y-28064762D01*
X80231020Y-28064762D01*
X80039915Y-27978765D02*
X80030360Y-27969210D01*
X80011249Y-27959655D01*
X79963473Y-27959655D01*
X79944363Y-27969210D01*
X79934807Y-27978765D01*
X79925252Y-27997876D01*
X79925252Y-28016986D01*
X79934807Y-28045652D01*
X80049470Y-28160315D01*
X79925252Y-28160315D01*
X79801034Y-27959655D02*
X79781923Y-27959655D01*
X79762813Y-27969210D01*
X79753258Y-27978765D01*
X79743702Y-27997876D01*
X79734147Y-28036097D01*
X79734147Y-28083873D01*
X79743702Y-28122094D01*
X79753258Y-28141204D01*
X79762813Y-28150760D01*
X79781923Y-28160315D01*
X79801034Y-28160315D01*
X79820144Y-28150760D01*
X79829700Y-28141204D01*
X79839255Y-28122094D01*
X79848810Y-28083873D01*
X79848810Y-28036097D01*
X79839255Y-27997876D01*
X79829700Y-27978765D01*
X79820144Y-27969210D01*
X79801034Y-27959655D01*
D12*
X65826767Y-39529384D02*
X65826767Y-40338908D01*
X65779148Y-40434146D01*
X65731529Y-40481765D01*
X65636291Y-40529384D01*
X65445814Y-40529384D01*
X65350576Y-40481765D01*
X65302957Y-40434146D01*
X65255338Y-40338908D01*
X65255338Y-39529384D01*
X64350576Y-39862717D02*
X64350576Y-40529384D01*
X64588672Y-39481765D02*
X64826767Y-40196051D01*
X64207719Y-40196051D01*
X56598515Y-36151157D02*
X57408039Y-36151157D01*
X57503277Y-36198776D01*
X57550896Y-36246395D01*
X57598515Y-36341633D01*
X57598515Y-36532110D01*
X57550896Y-36627348D01*
X57503277Y-36674967D01*
X57408039Y-36722586D01*
X56598515Y-36722586D01*
X57598515Y-37722586D02*
X57598515Y-37151157D01*
X57598515Y-37436871D02*
X56598515Y-37436871D01*
X56741372Y-37341633D01*
X56836610Y-37246395D01*
X56884229Y-37151157D01*
X56931848Y-38579729D02*
X57598515Y-38579729D01*
X56550896Y-38341633D02*
X57265182Y-38103538D01*
X57265182Y-38722586D01*
X41523615Y-36290857D02*
X42333139Y-36290857D01*
X42428377Y-36338476D01*
X42475996Y-36386095D01*
X42523615Y-36481333D01*
X42523615Y-36671810D01*
X42475996Y-36767048D01*
X42428377Y-36814667D01*
X42333139Y-36862286D01*
X41523615Y-36862286D01*
X42523615Y-37862286D02*
X42523615Y-37290857D01*
X42523615Y-37576571D02*
X41523615Y-37576571D01*
X41666472Y-37481333D01*
X41761710Y-37386095D01*
X41809329Y-37290857D01*
X41523615Y-38767048D02*
X41523615Y-38290857D01*
X41999805Y-38243238D01*
X41952186Y-38290857D01*
X41904567Y-38386095D01*
X41904567Y-38624191D01*
X41952186Y-38719429D01*
X41999805Y-38767048D01*
X42095044Y-38814667D01*
X42333139Y-38814667D01*
X42428377Y-38767048D01*
X42475996Y-38719429D01*
X42523615Y-38624191D01*
X42523615Y-38386095D01*
X42475996Y-38290857D01*
X42428377Y-38243238D01*
X84408457Y-25761883D02*
X84408457Y-24761883D01*
X84170362Y-24761883D01*
X84027504Y-24809502D01*
X83932266Y-24904740D01*
X83884647Y-24999978D01*
X83837028Y-25190454D01*
X83837028Y-25333312D01*
X83884647Y-25523788D01*
X83932266Y-25619026D01*
X84027504Y-25714264D01*
X84170362Y-25761883D01*
X84408457Y-25761883D01*
X82979885Y-25095216D02*
X82979885Y-25761883D01*
X83217981Y-24714264D02*
X83456076Y-25428550D01*
X82837028Y-25428550D01*
X76496357Y-37932482D02*
X76496357Y-36932482D01*
X76258262Y-36932482D01*
X76115404Y-36980101D01*
X76020166Y-37075339D01*
X75972547Y-37170577D01*
X75924928Y-37361053D01*
X75924928Y-37503911D01*
X75972547Y-37694387D01*
X76020166Y-37789625D01*
X76115404Y-37884863D01*
X76258262Y-37932482D01*
X76496357Y-37932482D01*
X75591595Y-36932482D02*
X74972547Y-36932482D01*
X75305881Y-37313434D01*
X75163023Y-37313434D01*
X75067785Y-37361053D01*
X75020166Y-37408672D01*
X74972547Y-37503911D01*
X74972547Y-37742006D01*
X75020166Y-37837244D01*
X75067785Y-37884863D01*
X75163023Y-37932482D01*
X75448738Y-37932482D01*
X75543976Y-37884863D01*
X75591595Y-37837244D01*
%LPC*%
D17*
X75839542Y-46731802D03*
D18*
X69840062Y-46731802D03*
D19*
X73972420Y-50434240D03*
X72067420Y-50434240D03*
D20*
X63975202Y-45030002D03*
X62471522Y-45030002D03*
X67086702Y-37664002D03*
X65583022Y-37664002D03*
D21*
X79288862Y-29663002D03*
X79288862Y-32457002D03*
D20*
X51208234Y-44696832D03*
X52711914Y-44696832D03*
X47852894Y-29787032D03*
X46349214Y-29787032D03*
X55891994Y-29761632D03*
X54388314Y-29761632D03*
X44639794Y-29787032D03*
X43136114Y-29787032D03*
X52800814Y-29761632D03*
X51297134Y-29761632D03*
X55912314Y-27932832D03*
X57415994Y-27932832D03*
X36196834Y-44963532D03*
X37700514Y-44963532D03*
X32671314Y-29977532D03*
X31167634Y-29977532D03*
X40862814Y-30002932D03*
X39359134Y-30002932D03*
X29394714Y-29977532D03*
X27891034Y-29977532D03*
X37764014Y-30002932D03*
X36260334Y-30002932D03*
X40888214Y-28085232D03*
X42391894Y-28085232D03*
D22*
X87673180Y-31816040D03*
X92275660Y-31816040D03*
D23*
X89974420Y-38064440D03*
D24*
X71541862Y-36648002D03*
X71541862Y-31496882D03*
D25*
X97632520Y-36870640D03*
D26*
X97632520Y-29250640D03*
D25*
X97632520Y-31790640D03*
X97632520Y-34330640D03*
X28379420Y-75021440D03*
D26*
X35999420Y-75021440D03*
D25*
X33459420Y-75021440D03*
X30919420Y-75021440D03*
X58795920Y-23815040D03*
D26*
X53715920Y-23815040D03*
D25*
X56255920Y-23815040D03*
X41460420Y-23815040D03*
D26*
X36380420Y-23815040D03*
D25*
X38920420Y-23815040D03*
X50096420Y-23751540D03*
D26*
X45016420Y-23751540D03*
D25*
X47556420Y-23751540D03*
X22410420Y-39372540D03*
D26*
X22410420Y-44452540D03*
D25*
X22410420Y-41912540D03*
X32773620Y-23764240D03*
D26*
X27693620Y-23764240D03*
D25*
X30233620Y-23764240D03*
D20*
X65583022Y-44966502D03*
X67086702Y-44966502D03*
X75224862Y-42045503D03*
X76728542Y-42045503D03*
X75181682Y-43760002D03*
X76685362Y-43760002D03*
X65235042Y-41855002D03*
X63731362Y-41855002D03*
X65255362Y-43442502D03*
X63751682Y-43442502D03*
X80739201Y-27059502D03*
X79235521Y-27059502D03*
D27*
X71960962Y-39721403D03*
X71960962Y-40221403D03*
X71960962Y-40721403D03*
X71960962Y-41221403D03*
X71960962Y-41721403D03*
X67560962Y-41721403D03*
X67560962Y-41221403D03*
X67560962Y-40721403D03*
X67560962Y-40221403D03*
X67560962Y-39721403D03*
X71960962Y-42221403D03*
X71960962Y-42721403D03*
X71960962Y-43221403D03*
X67560962Y-42221403D03*
X67560962Y-42721403D03*
X67560962Y-43221403D03*
D28*
X69760962Y-41471403D03*
D29*
X69760962Y-41471403D03*
X69760962Y-42471403D03*
X69760962Y-40471403D03*
D30*
X55361134Y-42089252D03*
X54091134Y-42089252D03*
X52821134Y-42089252D03*
X51551134Y-42089252D03*
X50281134Y-42089252D03*
X49011134Y-42089252D03*
X47741134Y-42089252D03*
X46471134Y-42089252D03*
X45201134Y-42089252D03*
X43931134Y-42089252D03*
X43931134Y-32689252D03*
X45201134Y-32689252D03*
X46471134Y-32689252D03*
X47741134Y-32689252D03*
X49011134Y-32689252D03*
X50281134Y-32689252D03*
X51551134Y-32689252D03*
X52821134Y-32689252D03*
X54091134Y-32689252D03*
X55361134Y-32689252D03*
X40286234Y-42228952D03*
X39016234Y-42228952D03*
X37746234Y-42228952D03*
X36476234Y-42228952D03*
X35206234Y-42228952D03*
X33936234Y-42228952D03*
X32666234Y-42228952D03*
X31396234Y-42228952D03*
X30126234Y-42228952D03*
X28856234Y-42228952D03*
X28856234Y-32828952D03*
X30126234Y-32828952D03*
X31396234Y-32828952D03*
X32666234Y-32828952D03*
X33936234Y-32828952D03*
X35206234Y-32828952D03*
X36476234Y-32828952D03*
X37746234Y-32828952D03*
X39016234Y-32828952D03*
X40286234Y-32828952D03*
D31*
X21655920Y-23632040D03*
X97655920Y-23632040D03*
X97655920Y-75632040D03*
X21655920Y-75632040D03*
D32*
X82621342Y-27059502D03*
X84719382Y-27059502D03*
D33*
X77393262Y-39480101D03*
X74123262Y-39480101D03*
D25*
X97594420Y-47818041D03*
D26*
X97594420Y-40198041D03*
D25*
X97594420Y-42738041D03*
X97594420Y-45278041D03*
X75750421Y-23815040D03*
D26*
X68130421Y-23815040D03*
D25*
X70670421Y-23815040D03*
X73210421Y-23815040D03*
D34*
X22981920Y-65204340D03*
X25521920Y-65204340D03*
X28061920Y-65204340D03*
X30601920Y-65204340D03*
X33141920Y-65204340D03*
X35681920Y-65204340D03*
X38221920Y-65204340D03*
X40761920Y-65204340D03*
X43301920Y-65204340D03*
X45841920Y-65204340D03*
X48381920Y-65204340D03*
X50921920Y-65204340D03*
X53461920Y-65204340D03*
X53461920Y-49964340D03*
X50921920Y-49964340D03*
X48381920Y-49964340D03*
X45841920Y-49964340D03*
X43301920Y-49964340D03*
X40761920Y-49964340D03*
X38221920Y-49964340D03*
X35681920Y-49964340D03*
X33141920Y-49964340D03*
X30601920Y-49964340D03*
X28061920Y-49964340D03*
X25521920Y-49964340D03*
X22981920Y-49964340D03*
X20441920Y-49964340D03*
X20441920Y-65204340D03*
D25*
X114139543Y-24426605D03*
D26*
X111599543Y-24426605D03*
D25*
X140936543Y-24655205D03*
D26*
X133316543Y-24655205D03*
D25*
X135856543Y-24655205D03*
X138396543Y-24655205D03*
D35*
X111823063Y-42069445D03*
X124523063Y-42069445D03*
X124523063Y-36989445D03*
X111823063Y-36989445D03*
D36*
X111660503Y-65346005D03*
X111660503Y-67886005D03*
X111660503Y-70426005D03*
X111660503Y-85666005D03*
X111660503Y-90746005D03*
X126900503Y-90746005D03*
X126900503Y-85666005D03*
X126900503Y-70426005D03*
X126900503Y-67886005D03*
D31*
X134180143Y-83481605D03*
X134180143Y-32681605D03*
X184980143Y-32681605D03*
X184980143Y-83481605D03*
D25*
X185985983Y-24157365D03*
D26*
X180905983Y-24157365D03*
D25*
X183445983Y-24157365D03*
D37*
X158754643Y-56494105D03*
X160342143Y-56494105D03*
X158754643Y-58081605D03*
X160342143Y-58081605D03*
X158754643Y-59669105D03*
X160342143Y-59669105D03*
X152658643Y-56494105D03*
X154246143Y-56494105D03*
X152658643Y-58081605D03*
X154246143Y-58081605D03*
X152658643Y-59669105D03*
X154246143Y-59669105D03*
X145968283Y-56555065D03*
X147555783Y-56555065D03*
X145968283Y-58142565D03*
X147555783Y-58142565D03*
X145968283Y-59730065D03*
X147555783Y-59730065D03*
X170601203Y-61523305D03*
X172188703Y-61523305D03*
X170601203Y-63110805D03*
X172188703Y-63110805D03*
X170601203Y-64698305D03*
X172188703Y-64698305D03*
X153623843Y-51642705D03*
X155211343Y-51642705D03*
X153623843Y-53230205D03*
X155211343Y-53230205D03*
X153623843Y-54817705D03*
X155211343Y-54817705D03*
X147187483Y-51144865D03*
X148774983Y-51144865D03*
X147187483Y-52732365D03*
X148774983Y-52732365D03*
X147187483Y-54319865D03*
X148774983Y-54319865D03*
X167223003Y-66328985D03*
X168810503Y-66328985D03*
X167223003Y-67916485D03*
X168810503Y-67916485D03*
X167223003Y-69503985D03*
X168810503Y-69503985D03*
X158754643Y-50398105D03*
X160342143Y-50398105D03*
X158754643Y-51985605D03*
X160342143Y-51985605D03*
X158754643Y-53573105D03*
X160342143Y-53573105D03*
X151017803Y-46323945D03*
X152605303Y-46323945D03*
X151017803Y-47911445D03*
X152605303Y-47911445D03*
X151017803Y-49498945D03*
X152605303Y-49498945D03*
X161939803Y-69036625D03*
X163527303Y-69036625D03*
X161939803Y-70624125D03*
X163527303Y-70624125D03*
X161939803Y-72211625D03*
X163527303Y-72211625D03*
X164012443Y-51579205D03*
X165599943Y-51579205D03*
X164012443Y-53166705D03*
X165599943Y-53166705D03*
X164012443Y-54754205D03*
X165599943Y-54754205D03*
X156128283Y-43976985D03*
X157715783Y-43976985D03*
X156128283Y-45564485D03*
X157715783Y-45564485D03*
X156128283Y-47151985D03*
X157715783Y-47151985D03*
X156158763Y-69011225D03*
X157746263Y-69011225D03*
X156158763Y-70598725D03*
X157746263Y-70598725D03*
X156158763Y-72186225D03*
X157746263Y-72186225D03*
X164850643Y-56494105D03*
X166438143Y-56494105D03*
X164850643Y-58081605D03*
X166438143Y-58081605D03*
X164850643Y-59669105D03*
X166438143Y-59669105D03*
X161467363Y-43921105D03*
X163054863Y-43921105D03*
X161467363Y-45508605D03*
X163054863Y-45508605D03*
X161467363Y-47096105D03*
X163054863Y-47096105D03*
X150911123Y-66552505D03*
X152498623Y-66552505D03*
X150911123Y-68140005D03*
X152498623Y-68140005D03*
X150911123Y-69727505D03*
X152498623Y-69727505D03*
X163974343Y-61434405D03*
X165561843Y-61434405D03*
X163974343Y-63021905D03*
X165561843Y-63021905D03*
X163974343Y-64609405D03*
X165561843Y-64609405D03*
X166913123Y-46547465D03*
X168500623Y-46547465D03*
X166913123Y-48134965D03*
X168500623Y-48134965D03*
X166913123Y-49722465D03*
X168500623Y-49722465D03*
X147223043Y-61777305D03*
X148810543Y-61777305D03*
X147223043Y-63364805D03*
X148810543Y-63364805D03*
X147223043Y-64952305D03*
X148810543Y-64952305D03*
X158754643Y-62590105D03*
X160342143Y-62590105D03*
X158754643Y-64177605D03*
X160342143Y-64177605D03*
X158754643Y-65765105D03*
X160342143Y-65765105D03*
X170601203Y-51520785D03*
X172188703Y-51520785D03*
X170601203Y-53108285D03*
X172188703Y-53108285D03*
X170601203Y-54695785D03*
X172188703Y-54695785D03*
X153509543Y-61269305D03*
X155097043Y-61269305D03*
X153509543Y-62856805D03*
X155097043Y-62856805D03*
X153509543Y-64444305D03*
X155097043Y-64444305D03*
X171607043Y-56494105D03*
X173194543Y-56494105D03*
X171607043Y-58081605D03*
X173194543Y-58081605D03*
X171607043Y-59669105D03*
X173194543Y-59669105D03*
D38*
X206250103Y-34358005D03*
X205361103Y-35183505D03*
X203265603Y-35183505D03*
X204281603Y-34358005D03*
X204027603Y-36326505D03*
X202884603Y-36326505D03*
X205361103Y-36326505D03*
X206504103Y-36326505D03*
X192407103Y-33941445D03*
X191581603Y-33052445D03*
X191581603Y-30956945D03*
X192407103Y-31972945D03*
X190438603Y-31718945D03*
X190438603Y-30575945D03*
X190438603Y-33052445D03*
X190438603Y-34195445D03*
X192412183Y-27720985D03*
X191586683Y-26831985D03*
X191586683Y-24736485D03*
X192412183Y-25752485D03*
X190443683Y-25498485D03*
X190443683Y-24355485D03*
X190443683Y-26831985D03*
X190443683Y-27974985D03*
X206582843Y-88726705D03*
X205693843Y-89552205D03*
X203598343Y-89552205D03*
X204614343Y-88726705D03*
X204360343Y-90695205D03*
X203217343Y-90695205D03*
X205693843Y-90695205D03*
X206836843Y-90695205D03*
X192130243Y-93641605D03*
X191304743Y-92752605D03*
X191304743Y-90657105D03*
X192130243Y-91673105D03*
X190161743Y-91419105D03*
X190161743Y-90276105D03*
X190161743Y-92752605D03*
X190161743Y-93895605D03*
X192064203Y-87433845D03*
X191238703Y-86544845D03*
X191238703Y-84449345D03*
X192064203Y-85465345D03*
X190095703Y-85211345D03*
X190095703Y-84068345D03*
X190095703Y-86544845D03*
X190095703Y-87687845D03*
X177197583Y-87492265D03*
X178086583Y-86666765D03*
X180182083Y-86666765D03*
X179166083Y-87492265D03*
X179420083Y-85523765D03*
X180563083Y-85523765D03*
X178086583Y-85523765D03*
X176943583Y-85523765D03*
M02*
