G04 #@! TF.FileFunction,Paste,Top*
%FSLAX46Y46*%
G04 Gerber Fmt 4.6, Leading zero omitted, Abs format (unit mm)*
G04 Created by KiCad (PCBNEW 4.0.1-stable) date 1/20/2016 12:58:46 AM*
%MOMM*%
G01*
G04 APERTURE LIST*
%ADD10C,0.100000*%
%ADD11R,0.600000X1.950000*%
%ADD12R,1.000760X0.899160*%
%ADD13R,0.899160X1.000760*%
%ADD14R,1.498600X1.300480*%
%ADD15R,1.300480X1.498600*%
%ADD16R,4.191000X3.556000*%
%ADD17R,1.000760X0.701040*%
%ADD18C,0.650000*%
%ADD19R,0.600000X1.500000*%
%ADD20R,0.508000X1.143000*%
%ADD21R,0.700000X0.350000*%
%ADD22R,1.798320X0.797560*%
%ADD23R,1.198880X1.198880*%
%ADD24R,0.500000X0.900000*%
%ADD25R,1.300000X0.700000*%
%ADD26R,2.430000X2.370000*%
%ADD27R,0.800000X0.750000*%
%ADD28R,2.370000X2.430000*%
%ADD29R,0.750000X0.800000*%
%ADD30R,0.600000X0.400000*%
%ADD31R,0.400000X0.600000*%
%ADD32R,1.500000X1.200000*%
%ADD33R,1.600200X1.803400*%
%ADD34R,1.193800X3.302000*%
%ADD35R,3.302000X1.193800*%
%ADD36R,1.143000X0.508000*%
%ADD37R,1.500000X0.600000*%
%ADD38R,1.550000X0.600000*%
%ADD39R,0.705000X0.705000*%
%ADD40R,0.596900X1.998980*%
%ADD41R,5.598160X6.499860*%
%ADD42R,1.998980X0.596900*%
%ADD43R,6.499860X5.598160*%
%ADD44R,3.200400X1.600200*%
%ADD45R,7.000240X6.499860*%
%ADD46R,2.500000X1.000000*%
%ADD47R,4.500000X1.300000*%
%ADD48R,4.500000X0.900000*%
%ADD49R,0.600000X1.050000*%
%ADD50R,1.050000X0.600000*%
G04 APERTURE END LIST*
D10*
D11*
X43776900Y-41984660D03*
X45046900Y-41984660D03*
X46316900Y-41984660D03*
X47586900Y-41984660D03*
X48856900Y-41984660D03*
X50126900Y-41984660D03*
X51396900Y-41984660D03*
X52666900Y-41984660D03*
X53936900Y-41984660D03*
X55206900Y-41984660D03*
X55206900Y-32584660D03*
X53936900Y-32584660D03*
X52666900Y-32584660D03*
X51396900Y-32584660D03*
X50126900Y-32584660D03*
X48856900Y-32584660D03*
X47586900Y-32584660D03*
X46316900Y-32584660D03*
X45046900Y-32584660D03*
X43776900Y-32584660D03*
D12*
X39720520Y-70835520D03*
X39720520Y-69331840D03*
X30855920Y-69174360D03*
X30855920Y-70678040D03*
D13*
X87543640Y-50789840D03*
X89047320Y-50789840D03*
X79809340Y-50751740D03*
X81313020Y-50751740D03*
X72989440Y-50523140D03*
X74493120Y-50523140D03*
X65105280Y-50586640D03*
X66608960Y-50586640D03*
D14*
X40215820Y-57508140D03*
X40215820Y-59413140D03*
D15*
X20975320Y-60327540D03*
X22880320Y-60327540D03*
X45041820Y-55399940D03*
X43136820Y-55399940D03*
D13*
X32687260Y-44782740D03*
X31183580Y-44782740D03*
X47967900Y-44541440D03*
X46464220Y-44541440D03*
X36189920Y-29961840D03*
X37693600Y-29961840D03*
X51170840Y-29949140D03*
X52674520Y-29949140D03*
X28171140Y-29936440D03*
X29674820Y-29936440D03*
X43411140Y-29872940D03*
X44914820Y-29872940D03*
X39250620Y-29974540D03*
X40754300Y-29974540D03*
X31275020Y-29936440D03*
X32778700Y-29936440D03*
X54282340Y-29949140D03*
X55786020Y-29949140D03*
X46578520Y-29872940D03*
X48082200Y-29872940D03*
X28138120Y-28234640D03*
X26634440Y-28234640D03*
X43446700Y-28056840D03*
X41943020Y-28056840D03*
D16*
X91307920Y-23688040D03*
X84957920Y-23688040D03*
D13*
X21663660Y-47398940D03*
X20159980Y-47398940D03*
X92174296Y-40048560D03*
X93677976Y-40048560D03*
X92174296Y-42624844D03*
X93677976Y-42624844D03*
X92174295Y-45201130D03*
X93677975Y-45201130D03*
X92174296Y-47777416D03*
X93677976Y-47777416D03*
D12*
X68097760Y-29776420D03*
X68097760Y-28272740D03*
X70674045Y-29776420D03*
X70674045Y-28272740D03*
X73250329Y-29776420D03*
X73250329Y-28272740D03*
X75826615Y-29776420D03*
X75826615Y-28272740D03*
X80055720Y-63393320D03*
X80055720Y-61889640D03*
X82532220Y-63342520D03*
X82532220Y-61838840D03*
X87561420Y-63253620D03*
X87561420Y-61749940D03*
X84983320Y-63317120D03*
X84983320Y-61813440D03*
D13*
X43482260Y-70043040D03*
X41978580Y-70043040D03*
D12*
X88307646Y-48306348D03*
X88307646Y-46802668D03*
X71559420Y-48125380D03*
X71559420Y-46621700D03*
X89831646Y-46797588D03*
X89831646Y-48301268D03*
X73083420Y-46621700D03*
X73083420Y-48125380D03*
X91952546Y-34582728D03*
X91952546Y-36086408D03*
X73273920Y-34620200D03*
X73273920Y-36123880D03*
X90238046Y-34554788D03*
X90238046Y-36058468D03*
X71686420Y-34620200D03*
X71686420Y-36123880D03*
X85246946Y-48331748D03*
X85246946Y-46828068D03*
X68701920Y-48125380D03*
X68701920Y-46621700D03*
X86770946Y-46815368D03*
X86770946Y-48319048D03*
X70098920Y-46621700D03*
X70098920Y-48125380D03*
X68130420Y-63545720D03*
X68130420Y-62042040D03*
X73007220Y-63621920D03*
X73007220Y-62118240D03*
X65438020Y-63545720D03*
X65438020Y-62042040D03*
X70530719Y-63545720D03*
X70530719Y-62042040D03*
X87190046Y-34605588D03*
X87190046Y-36109268D03*
X69781420Y-34620200D03*
X69781420Y-36123880D03*
X85577146Y-34618288D03*
X85577146Y-36121968D03*
X68257420Y-34620200D03*
X68257420Y-36123880D03*
X82211646Y-48344448D03*
X82211646Y-46840768D03*
X65844420Y-48125380D03*
X65844420Y-46621700D03*
X83735646Y-46828067D03*
X83735646Y-48331747D03*
X67241420Y-46621700D03*
X67241420Y-48125380D03*
X82608420Y-34630360D03*
X82608420Y-36134040D03*
X66034920Y-34620200D03*
X66034920Y-36123880D03*
X80957420Y-34630360D03*
X80957420Y-36134040D03*
X64447420Y-34620200D03*
X64447420Y-36123880D03*
X79189045Y-48357148D03*
X79189045Y-46853468D03*
X62859920Y-48125380D03*
X62859920Y-46621700D03*
X80725746Y-46840768D03*
X80725746Y-48344448D03*
X64383920Y-46621700D03*
X64383920Y-48125380D03*
X78099920Y-34630360D03*
X78099920Y-36134040D03*
X62161420Y-34620200D03*
X62161420Y-36123880D03*
X76321920Y-34630360D03*
X76321920Y-36134040D03*
X59621420Y-34493200D03*
X59621420Y-35996880D03*
X22905720Y-57091580D03*
X22905720Y-55587900D03*
X24759920Y-59888120D03*
X24759920Y-58384440D03*
X47492920Y-58145680D03*
X47492920Y-56642000D03*
X47048420Y-59781440D03*
X47048420Y-61285120D03*
D17*
X34196020Y-68328540D03*
X34196020Y-69278500D03*
X34196020Y-70228460D03*
X36593780Y-68328540D03*
X36593780Y-70228460D03*
X36593780Y-69278500D03*
X25013920Y-68214240D03*
X25013920Y-69164200D03*
X25013920Y-70114160D03*
X27411680Y-68214240D03*
X27411680Y-70114160D03*
X27411680Y-69164200D03*
D18*
X69760962Y-41471403D03*
X69760962Y-42471403D03*
X69760962Y-40471403D03*
D19*
X80017620Y-59006740D03*
X81287620Y-59006740D03*
X82557620Y-59006740D03*
X83827620Y-59006740D03*
X85097620Y-59006740D03*
X86367620Y-59006740D03*
X87637620Y-59006740D03*
X88907620Y-59006740D03*
X88907620Y-53606740D03*
X87637620Y-53606740D03*
X86367620Y-53606740D03*
X85097620Y-53606740D03*
X83827620Y-53606740D03*
X82557620Y-53606740D03*
X81287620Y-53606740D03*
X80017620Y-53606740D03*
D20*
X88942646Y-44605568D03*
X86402646Y-44605568D03*
X85132646Y-44605568D03*
X83862646Y-44605568D03*
X82592646Y-44605568D03*
X81322646Y-44605568D03*
X80052646Y-44605568D03*
X80052646Y-38255568D03*
X81322646Y-38255568D03*
X82592646Y-38255568D03*
X83862646Y-38255568D03*
X85132646Y-38255568D03*
X86402646Y-38255568D03*
X87672646Y-38255568D03*
X88942646Y-38255568D03*
X87672646Y-44605568D03*
X72448420Y-44706540D03*
X69908420Y-44706540D03*
X68638420Y-44706540D03*
X67368420Y-44706540D03*
X66098420Y-44706540D03*
X64828420Y-44706540D03*
X63558420Y-44706540D03*
X63558420Y-38356540D03*
X64828420Y-38356540D03*
X66098420Y-38356540D03*
X67368420Y-38356540D03*
X68638420Y-38356540D03*
X69908420Y-38356540D03*
X71178420Y-38356540D03*
X72448420Y-38356540D03*
X71178420Y-44706540D03*
D19*
X65463420Y-59082940D03*
X66733420Y-59082940D03*
X68003420Y-59082940D03*
X69273420Y-59082940D03*
X70543420Y-59082940D03*
X71813420Y-59082940D03*
X73083420Y-59082940D03*
X74353420Y-59082940D03*
X74353420Y-53682940D03*
X73083420Y-53682940D03*
X71813420Y-53682940D03*
X70543420Y-53682940D03*
X69273420Y-53682940D03*
X68003420Y-53682940D03*
X66733420Y-53682940D03*
X65463420Y-53682940D03*
D21*
X45336020Y-57558940D03*
X45336020Y-58208940D03*
X45336020Y-58858940D03*
X45336020Y-59508940D03*
X43086020Y-59508940D03*
X43086020Y-58858940D03*
X43086020Y-58208940D03*
X43086020Y-57558940D03*
D22*
X26918920Y-55819040D03*
X26918920Y-57089040D03*
X26918920Y-58359040D03*
X26918920Y-59629040D03*
X32252920Y-59629040D03*
X32252920Y-58359040D03*
X32252920Y-57089040D03*
X32252920Y-55819040D03*
D11*
X28638500Y-42124360D03*
X29908500Y-42124360D03*
X31178500Y-42124360D03*
X32448500Y-42124360D03*
X33718500Y-42124360D03*
X34988500Y-42124360D03*
X36258500Y-42124360D03*
X37528500Y-42124360D03*
X38798500Y-42124360D03*
X40068500Y-42124360D03*
X40068500Y-32724360D03*
X38798500Y-32724360D03*
X37528500Y-32724360D03*
X36258500Y-32724360D03*
X34988500Y-32724360D03*
X33718500Y-32724360D03*
X32448500Y-32724360D03*
X31178500Y-32724360D03*
X29908500Y-32724360D03*
X28638500Y-32724360D03*
D23*
X23456900Y-47373540D03*
X25554940Y-47373540D03*
X89907846Y-32642168D03*
X92005886Y-32642168D03*
X71493380Y-32705040D03*
X73591420Y-32705040D03*
X85663507Y-32654868D03*
X87761547Y-32654868D03*
X67685920Y-31790640D03*
X69783960Y-31790640D03*
X80764380Y-32705040D03*
X82862420Y-32705040D03*
X62971680Y-31790640D03*
X65069720Y-31790640D03*
X76258420Y-32705040D03*
X78356460Y-32705040D03*
X59009280Y-31765240D03*
X61107320Y-31765240D03*
D12*
X145102143Y-31950085D03*
X145102143Y-33453765D03*
X145102143Y-22450485D03*
X145102143Y-23954165D03*
D24*
X171474263Y-39316085D03*
X172974263Y-39316085D03*
D25*
X130690183Y-88785165D03*
X130690183Y-86885165D03*
D26*
X139986583Y-87270405D03*
X139986583Y-93510405D03*
D13*
X172991343Y-40901045D03*
X171487663Y-40901045D03*
D27*
X171532683Y-30901065D03*
X173032683Y-30901065D03*
D13*
X173034523Y-29112905D03*
X171530843Y-29112905D03*
D28*
X146376343Y-77573565D03*
X152616343Y-77573565D03*
D29*
X147441483Y-94648145D03*
X147441483Y-93148145D03*
D27*
X149587083Y-94533145D03*
X151087083Y-94533145D03*
X143952223Y-71538525D03*
X142452223Y-71538525D03*
D29*
X163425703Y-94655765D03*
X163425703Y-93155765D03*
D27*
X141051543Y-56229945D03*
X139551543Y-56229945D03*
D29*
X143926123Y-69824725D03*
X143926123Y-68324725D03*
D27*
X165248723Y-94583945D03*
X166748723Y-94583945D03*
D29*
X140987343Y-54427245D03*
X140987343Y-52927245D03*
D28*
X186616783Y-39752965D03*
X180376783Y-39752965D03*
X207289843Y-45721965D03*
X201049843Y-45721965D03*
X189962743Y-73829605D03*
X196202743Y-73829605D03*
X186616783Y-45340965D03*
X180376783Y-45340965D03*
X207289843Y-51142325D03*
X201049843Y-51142325D03*
X190038943Y-68025705D03*
X196278943Y-68025705D03*
X186616783Y-50984845D03*
X180376783Y-50984845D03*
X207289843Y-56831925D03*
X201049843Y-56831925D03*
X190115143Y-62399605D03*
X196355143Y-62399605D03*
X186616783Y-56628725D03*
X180376783Y-56628725D03*
X207376203Y-62521525D03*
X201136203Y-62521525D03*
X190115143Y-56760805D03*
X196355143Y-56760805D03*
X169033143Y-76522005D03*
X175273143Y-76522005D03*
X207376203Y-68124765D03*
X201136203Y-68124765D03*
X190115143Y-51198205D03*
X196355143Y-51198205D03*
X186616783Y-62328485D03*
X180376783Y-62328485D03*
X207467643Y-73722925D03*
X201227643Y-73722925D03*
X190074503Y-45559405D03*
X196314503Y-45559405D03*
X186642183Y-68089205D03*
X180402183Y-68089205D03*
X190038943Y-39956165D03*
X196278943Y-39956165D03*
X186642183Y-73839765D03*
X180402183Y-73839765D03*
X189962743Y-79404905D03*
X196202743Y-79404905D03*
D23*
X162668783Y-32143125D03*
X164766823Y-32143125D03*
X162732283Y-28714125D03*
X164830323Y-28714125D03*
X164832863Y-26077605D03*
X162734823Y-26077605D03*
X162732283Y-22211725D03*
X164830323Y-22211725D03*
X136085143Y-91708665D03*
X136085143Y-89610625D03*
D16*
X112092303Y-31482725D03*
X118442303Y-31482725D03*
D30*
X144495083Y-90349345D03*
X144495083Y-91249345D03*
D31*
X140577983Y-74601765D03*
X141477983Y-74601765D03*
D30*
X160359923Y-90450945D03*
X160359923Y-91350945D03*
D31*
X136818783Y-58924885D03*
X137718783Y-58924885D03*
D32*
X130991183Y-91274325D03*
X133691183Y-91274325D03*
D13*
X133651823Y-37558405D03*
X135155503Y-37558405D03*
X133672143Y-39773285D03*
X135175823Y-39773285D03*
X133672143Y-44142085D03*
X135175823Y-44142085D03*
X133651823Y-42069445D03*
X135155503Y-42069445D03*
D12*
X146839503Y-33509645D03*
X146839503Y-32005965D03*
X148515903Y-32018665D03*
X148515903Y-33522345D03*
D13*
X160850143Y-32651125D03*
X159346463Y-32651125D03*
X160824743Y-31152525D03*
X159321063Y-31152525D03*
D12*
X146880143Y-30321945D03*
X146880143Y-28818265D03*
X148465103Y-28818265D03*
X148465103Y-30321945D03*
D13*
X160812043Y-29539625D03*
X159308363Y-29539625D03*
X160837443Y-28104525D03*
X159333763Y-28104525D03*
D12*
X146890303Y-27273945D03*
X146890303Y-25770265D03*
X148465103Y-25770265D03*
X148465103Y-27273945D03*
D13*
X160850143Y-26618625D03*
X159346463Y-26618625D03*
X160837443Y-25170825D03*
X159333763Y-25170825D03*
D12*
X146903003Y-23959245D03*
X146903003Y-22455565D03*
X148452403Y-22430165D03*
X148452403Y-23933845D03*
D13*
X160850143Y-23672225D03*
X159346463Y-23672225D03*
X160850143Y-22122825D03*
X159346463Y-22122825D03*
D33*
X130746063Y-94235965D03*
X133540063Y-94235965D03*
D12*
X136110543Y-93540005D03*
X136110543Y-95043685D03*
D13*
X180895823Y-93956565D03*
X179392143Y-93956565D03*
X144302043Y-93059945D03*
X145805723Y-93059945D03*
X154263923Y-90456445D03*
X152760243Y-90456445D03*
X154263923Y-91942345D03*
X152760243Y-91942345D03*
D12*
X142902503Y-74629705D03*
X142902503Y-73126025D03*
D13*
X160395483Y-93085345D03*
X161899163Y-93085345D03*
D12*
X139402383Y-59260165D03*
X139402383Y-57756485D03*
X139613203Y-64921825D03*
X139613203Y-66425505D03*
D13*
X170103363Y-90342145D03*
X168599683Y-90342145D03*
D12*
X136633783Y-49811365D03*
X136633783Y-51315045D03*
X141315003Y-64921825D03*
X141315003Y-66425505D03*
D13*
X170103363Y-91853445D03*
X168599683Y-91853445D03*
D12*
X138167943Y-49836765D03*
X138167943Y-51340445D03*
X198289743Y-89854465D03*
X198289743Y-91358145D03*
X198779963Y-30243205D03*
X198779963Y-31746885D03*
D13*
X202196263Y-28071505D03*
X203699943Y-28071505D03*
D12*
X198299903Y-83618765D03*
X198299903Y-85122445D03*
X198673283Y-24612025D03*
X198673283Y-26115705D03*
D13*
X202973503Y-82516405D03*
X204477183Y-82516405D03*
D34*
X158680983Y-82506645D03*
X156140983Y-88906645D03*
X153600983Y-82506645D03*
D35*
X131610063Y-60520005D03*
X138010063Y-63060005D03*
X131610063Y-65600005D03*
D34*
X174177523Y-82331385D03*
X171637523Y-88731385D03*
X169097523Y-82331385D03*
D35*
X129044663Y-45620365D03*
X135444663Y-48160365D03*
X129044663Y-50700365D03*
D36*
X151030503Y-32054225D03*
X151030503Y-29514225D03*
X151030503Y-28244225D03*
X151030503Y-26974225D03*
X151030503Y-25704225D03*
X151030503Y-24434225D03*
X151030503Y-23164225D03*
X157380503Y-23164225D03*
X157380503Y-24434225D03*
X157380503Y-25704225D03*
X157380503Y-26974225D03*
X157380503Y-28244225D03*
X157380503Y-29514225D03*
X157380503Y-30784225D03*
X157380503Y-32054225D03*
X151030503Y-30784225D03*
D37*
X137469463Y-36303645D03*
X137469463Y-37573645D03*
X137469463Y-38843645D03*
X137469463Y-40113645D03*
X137469463Y-41383645D03*
X137469463Y-42653645D03*
X137469463Y-43923645D03*
X137469463Y-45193645D03*
X142869463Y-45193645D03*
X142869463Y-43923645D03*
X142869463Y-42653645D03*
X142869463Y-41383645D03*
X142869463Y-40113645D03*
X142869463Y-38843645D03*
X142869463Y-37573645D03*
X142869463Y-36303645D03*
D38*
X169448063Y-33474085D03*
X169448063Y-34744085D03*
X169448063Y-36014085D03*
X169448063Y-37284085D03*
X174848063Y-37284085D03*
X174848063Y-36014085D03*
X174848063Y-34744085D03*
X174848063Y-33474085D03*
D39*
X172735563Y-35966585D03*
X172735563Y-34791585D03*
X171560563Y-35966585D03*
X171560563Y-34791585D03*
D38*
X169608083Y-23514745D03*
X169608083Y-24784745D03*
X169608083Y-26054745D03*
X169608083Y-27324745D03*
X175008083Y-27324745D03*
X175008083Y-26054745D03*
X175008083Y-24784745D03*
X175008083Y-23514745D03*
D39*
X172895583Y-26007245D03*
X172895583Y-24832245D03*
X171720583Y-26007245D03*
X171720583Y-24832245D03*
D40*
X146171483Y-91040645D03*
X151251483Y-91040645D03*
D41*
X148711483Y-84342665D03*
D40*
X147441483Y-91040645D03*
X148711483Y-91040645D03*
X149981483Y-91040645D03*
D42*
X140133903Y-72823765D03*
X140133903Y-67743765D03*
D43*
X133435923Y-70283765D03*
D42*
X140133903Y-71553765D03*
X140133903Y-70283765D03*
X140133903Y-69013765D03*
D40*
X161960123Y-90926345D03*
X167040123Y-90926345D03*
D41*
X164500123Y-84228365D03*
D40*
X163230123Y-90926345D03*
X164500123Y-90926345D03*
X165770123Y-90926345D03*
D42*
X137278943Y-57601545D03*
X137278943Y-52521545D03*
D43*
X130580963Y-55061545D03*
D42*
X137278943Y-56331545D03*
X137278943Y-55061545D03*
X137278943Y-53791545D03*
D25*
X122506303Y-33463965D03*
X122506303Y-31563965D03*
X122648543Y-61911965D03*
X122648543Y-60011965D03*
D28*
X113127743Y-59986605D03*
X119367743Y-59986605D03*
D44*
X120469223Y-22420005D03*
X120469223Y-27022485D03*
D45*
X126717623Y-24721245D03*
D28*
X113097263Y-48134965D03*
X119337263Y-48134965D03*
X113127743Y-53941405D03*
X119367743Y-53941405D03*
D46*
X131502983Y-75606205D03*
X131502983Y-78606205D03*
X135272343Y-75550325D03*
X135272343Y-78550325D03*
D47*
X159580143Y-58081605D03*
D48*
X159580143Y-56481605D03*
X159580143Y-59681605D03*
D47*
X153484143Y-58081605D03*
D48*
X153484143Y-56481605D03*
X153484143Y-59681605D03*
D47*
X146793783Y-58142565D03*
D48*
X146793783Y-56542565D03*
X146793783Y-59742565D03*
D47*
X171426703Y-63110805D03*
D48*
X171426703Y-61510805D03*
X171426703Y-64710805D03*
D47*
X154449343Y-53230205D03*
D48*
X154449343Y-51630205D03*
X154449343Y-54830205D03*
D47*
X148012983Y-52732365D03*
D48*
X148012983Y-51132365D03*
X148012983Y-54332365D03*
D47*
X168048503Y-67916485D03*
D48*
X168048503Y-66316485D03*
X168048503Y-69516485D03*
D47*
X159580143Y-51985605D03*
D48*
X159580143Y-50385605D03*
X159580143Y-53585605D03*
D47*
X151843303Y-47911445D03*
D48*
X151843303Y-46311445D03*
X151843303Y-49511445D03*
D47*
X162765303Y-70624125D03*
D48*
X162765303Y-69024125D03*
X162765303Y-72224125D03*
D47*
X164837943Y-53166705D03*
D48*
X164837943Y-51566705D03*
X164837943Y-54766705D03*
D47*
X156953783Y-45564485D03*
D48*
X156953783Y-43964485D03*
X156953783Y-47164485D03*
D47*
X156984263Y-70598725D03*
D48*
X156984263Y-68998725D03*
X156984263Y-72198725D03*
D47*
X165676143Y-58081605D03*
D48*
X165676143Y-56481605D03*
X165676143Y-59681605D03*
D47*
X162292863Y-45508605D03*
D48*
X162292863Y-43908605D03*
X162292863Y-47108605D03*
D47*
X151736623Y-68140005D03*
D48*
X151736623Y-66540005D03*
X151736623Y-69740005D03*
D47*
X164799843Y-63021905D03*
D48*
X164799843Y-61421905D03*
X164799843Y-64621905D03*
D47*
X167738623Y-48134965D03*
D48*
X167738623Y-46534965D03*
X167738623Y-49734965D03*
D47*
X148048543Y-63364805D03*
D48*
X148048543Y-61764805D03*
X148048543Y-64964805D03*
D47*
X159580143Y-64177605D03*
D48*
X159580143Y-62577605D03*
X159580143Y-65777605D03*
D47*
X171426703Y-53108285D03*
D48*
X171426703Y-51508285D03*
X171426703Y-54708285D03*
D47*
X154335043Y-62856805D03*
D48*
X154335043Y-61256805D03*
X154335043Y-64456805D03*
D47*
X172432543Y-58081605D03*
D48*
X172432543Y-56481605D03*
X172432543Y-59681605D03*
D49*
X205361103Y-30580505D03*
X206631103Y-30580505D03*
X204091103Y-30580505D03*
X202821103Y-30580505D03*
D50*
X196184603Y-33052445D03*
X196184603Y-34322445D03*
X196184603Y-31782445D03*
X196184603Y-30512445D03*
X196189683Y-26831985D03*
X196189683Y-28101985D03*
X196189683Y-25561985D03*
X196189683Y-24291985D03*
D49*
X205693843Y-84949205D03*
X206963843Y-84949205D03*
X204423843Y-84949205D03*
X203153843Y-84949205D03*
D50*
X195907743Y-92752605D03*
X195907743Y-94022605D03*
X195907743Y-91482605D03*
X195907743Y-90212605D03*
X195841703Y-86544845D03*
X195841703Y-87814845D03*
X195841703Y-85274845D03*
X195841703Y-84004845D03*
D49*
X178086583Y-91269765D03*
X176816583Y-91269765D03*
X179356583Y-91269765D03*
X180626583Y-91269765D03*
M02*
