0
SECTION
2
HEADER
9
$INSUNITS
70
1
9
$ACADVER
1
AC1014
9
$HANDSEED
5
FFFF
0
ENDSEC
0
SECTION
2
TABLES
0
TABLE
2
VPORT
5
8
100
AcDbSymbolTable
0
ENDTAB
0
TABLE
2
LTYPE
5
5
100
AcDbSymbolTable
0
LTYPE
5
14
100
AcDbSymbolTableRecord
100
AcDbLinetypeTableRecord
2
BYBLOCK
70
0
0
LTYPE
5
15
100
AcDbSymbolTableRecord
100
AcDbLinetypeTableRecord
2
BYLAYER
70
0
0
ENDTAB
0
TABLE
2
LAYER
5
2
100
AcDbSymbolTable
70
2
0
LAYER
5
50
100
AcDbSymbolTableRecord
100
AcDbLayerTableRecord
2
0
70
0
6
CONTINUOUS
0
ENDTAB
0
TABLE
2
STYLE
5
3
100
AcDbSymbolTable
70
1
0
STYLE
5
11
100
AcDbSymbolTableRecord
100
AcDbTextStyleTableRecord
2
STANDARD
70
0
0
ENDTAB
0
TABLE
2
VIEW
5
6
100
AcDbSymbolTable
70
0
0
ENDTAB
0
TABLE
2
UCS
5
7
100
AcDbSymbolTable
70
0
0
ENDTAB
0
TABLE
2
APPID
5
9
100
AcDbSymbolTable
70
2
0
APPID
5
12
100
AcDbSymbolTableRecord
100
AcDbRegAppTableRecord
2
ACAD
70
0
0
ENDTAB
0
TABLE
2
DIMSTYLE
5
A
100
AcDbSymbolTable
70
1
0
ENDTAB
0
TABLE
2
BLOCK_RECORD
5
1
100
AcDbSymbolTable
70
1
0
BLOCK_RECORD
5
1F
100
AcDbSymbolTableRecord
100
AcDbBlockTableRecord
2
*MODEL_SPACE
0
BLOCK_RECORD
5
1B
100
AcDbSymbolTableRecord
100
AcDbBlockTableRecord
2
*PAPER_SPACE
0
ENDTAB
0
ENDSEC
0
SECTION
2
BLOCKS
0
BLOCK
5
20
100
AcDbEntity
100
AcDbBlockBegin
2
*MODEL_SPACE
0
ENDBLK
5
21
100
AcDbEntity
100
AcDbBlockEnd
0
BLOCK
5
1C
100
AcDbEntity
100
AcDbBlockBegin
2
*PAPER_SPACE
0
ENDBLK
5
1D
100
AcDbEntity
100
AcDbBlockEnd
0
ENDSEC
0
SECTION
2
ENTITIES
0
CIRCLE
5
100
100
AcDbEntity
8
0
100
AcDbCircle
10
-3.6486795734131973e-17
20
1.1249999999999998
30
0
40
0.19488188976377954
210
0
220
-0
230
1
0
LWPOLYLINE
5
101
100
AcDbEntity
8
0
100
AcDbPolyline
90
4
70
1
43
0.0
10
0.031496062992126012
20
1.0935039370078736
10
-0.031496062992125963
20
1.0935039370078736
10
-0.031496062992125963
20
1.1564960629921257
10
0.031496062992126012
20
1.1564960629921257
0
LINE
5
102
100
AcDbEntity
8
0
100
AcDbLine
10
0.031496062992126012
20
1.0935039370078736
30
0
11
-0.031496062992125963
21
1.1564960629921257
31
0
0
LINE
5
103
100
AcDbEntity
8
0
100
AcDbLine
10
-0.031496062992125963
20
1.0935039370078736
30
0
11
0.031496062992126012
21
1.1564960629921257
31
0
0
LWPOLYLINE
5
104
100
AcDbEntity
8
0
100
AcDbPolyline
90
4
70
1
43
0.0
10
0.031496062992125921
20
1.0929684109848334
10
-0.031496062992126192
20
1.0929684109848334
10
-0.031496062992126199
20
1.1736770724021564
10
0.031496062992125921
20
1.1736770724021564
0
LINE
5
105
100
AcDbEntity
8
0
100
AcDbLine
10
0.031496062992125921
20
1.0929684109848334
30
0
11
-0.031496062992126199
21
1.1736770724021564
31
0
0
LINE
5
106
100
AcDbEntity
8
0
100
AcDbLine
10
-0.031496062992126192
20
1.0929684109848334
30
0
11
0.031496062992125921
21
1.1736770724021564
31
0
0
CIRCLE
5
107
100
AcDbEntity
8
0
100
AcDbCircle
10
0.15748031496062986
20
1.1249999999999998
30
0
40
0.035433070866141732
210
0
220
0
230
1
0
CIRCLE
5
108
100
AcDbEntity
8
0
100
AcDbCircle
10
-0.15748031496063006
20
1.1249999999999998
30
0
40
0.035433070866141732
210
0
220
0
230
1
0
CIRCLE
5
109
100
AcDbEntity
8
0
100
AcDbCircle
10
-3.6486795734131973e-17
20
1.1249999999999998
30
0
40
0.19488188976377954
210
0
220
0
230
1
0
LWPOLYLINE
5
110
100
AcDbEntity
8
0
100
AcDbPolyline
90
4
70
1
43
0.0
10
-0.44735947093540568
20
0.99771812309845798
10
-0.47824533850817874
20
1.0722832034783059
10
-0.38916233502918279
20
1.0218241660820857
10
-0.4200482026019558
20
1.0963892464619336
0
LINE
5
111
100
AcDbEntity
8
0
100
AcDbLine
10
-0.38936727196580057
20
1.0223189276138995
30
0
11
-0.47167045085565107
21
1.0564100205364948
31
0
0
LWPOLYLINE
5
112
100
AcDbEntity
8
0
100
AcDbPolyline
90
3
70
1
43
0.0
10
-0.44756440787202328
20
0.99821288463027202
10
-0.41347331494942824
20
1.0805160635201225
10
-0.38936727196580057
20
1.0223189276138995
0
CIRCLE
5
113
100
AcDbEntity
8
0
100
AcDbCircle
10
-0.43051886141072587
20
1.0393644740751975
30
0
40
0.19488188976377954
210
0
220
0
230
1
0
CIRCLE
5
114
100
AcDbEntity
8
0
100
AcDbCircle
10
-0.28502602164516894
20
1.0996295815342665
30
0
40
0.035433070866141732
210
0
220
0
230
1
0
LINE
5
115
100
AcDbEntity
8
0
100
AcDbLine
10
-0.47167045085565107
20
1.0564100205364948
30
0
11
-0.41347331494942824
21
1.0805160635201225
31
0
0
CIRCLE
5
116
100
AcDbEntity
8
0
100
AcDbCircle
10
-0.43051886141072587
20
1.0393644740751975
30
0
40
0.19488188976377954
210
0
220
0
230
1
0
CIRCLE
5
117
100
AcDbEntity
8
0
100
AcDbCircle
10
-0.57601170117628298
20
0.97909936661612806
30
0
40
0.035433070866141732
210
0
220
0
230
1
0
LINE
5
118
100
AcDbEntity
8
0
100
AcDbLine
10
-0.47824533850817874
20
1.0722832034783059
30
0
11
-0.4200482026019558
21
1.0963892464619336
31
0
0
LINE
5
119
100
AcDbEntity
8
0
100
AcDbLine
10
-0.44756440787202328
20
0.99821288463027202
30
0
11
-0.47167045085565107
21
1.0564100205364948
31
0
0
LINE
5
120
100
AcDbEntity
8
0
100
AcDbLine
10
-0.38916233502918279
20
1.0218241660820857
30
0
11
-0.44735947093540568
21
0.99771812309845798
31
0
0
LWPOLYLINE
5
121
100
AcDbEntity
8
0
100
AcDbPolyline
90
4
70
1
43
0.0
10
-0.79511645475247228
20
0.75057429530764996
10
-0.8521860965411503
20
0.80764393709632809
10
-0.75057429530765041
20
0.79511645475247206
10
-0.80764393709632842
20
0.85218609654114996
0
LINE
5
122
100
AcDbEntity
8
0
100
AcDbLine
10
-0.75095296939004386
20
0.79549512883486573
30
0
11
-0.84003728827968771
21
0.79549512883486573
31
0
0
LWPOLYLINE
5
123
100
AcDbEntity
8
0
100
AcDbPolyline
90
3
70
1
43
0.0
10
-0.79549512883486573
20
0.75095296939004375
10
-0.79549512883486573
20
0.84003728827968771
10
-0.75095296939004386
20
0.79549512883486573
0
CIRCLE
5
124
100
AcDbEntity
8
0
100
AcDbCircle
10
-0.79549512883486595
20
0.79549512883486573
30
0
40
0.19488188976377954
210
0
220
0
230
1
0
CIRCLE
5
125
100
AcDbEntity
8
0
100
AcDbCircle
10
-0.68413973022281105
20
0.90685052744692041
30
0
40
0.035433070866141732
210
0
220
0
230
1
0
LINE
5
126
100
AcDbEntity
8
0
100
AcDbLine
10
-0.84003728827968771
20
0.79549512883486573
30
0
11
-0.79549512883486573
21
0.84003728827968771
31
0
0
CIRCLE
5
127
100
AcDbEntity
8
0
100
AcDbCircle
10
-0.79549512883486595
20
0.79549512883486573
30
0
40
0.19488188976377954
210
0
220
0
230
1
0
CIRCLE
5
128
100
AcDbEntity
8
0
100
AcDbCircle
10
-0.90685052744692063
20
0.68413973022281094
30
0
40
0.035433070866141732
210
0
220
0
230
1
0
LINE
5
129
100
AcDbEntity
8
0
100
AcDbLine
10
-0.8521860965411503
20
0.80764393709632809
30
0
11
-0.80764393709632842
21
0.85218609654114996
31
0
0
LINE
5
130
100
AcDbEntity
8
0
100
AcDbLine
10
-0.79549512883486573
20
0.75095296939004375
30
0
11
-0.84003728827968771
21
0.79549512883486573
31
0
0
LINE
5
131
100
AcDbEntity
8
0
100
AcDbLine
10
-0.75057429530765041
20
0.79511645475247206
30
0
11
-0.79511645475247228
21
0.75057429530764996
31
0
0
LWPOLYLINE
5
132
100
AcDbEntity
8
0
100
AcDbPolyline
90
4
70
1
43
0.0
10
-1.0218241660820857
20
0.38916233502918268
10
-1.0963892464619338
20
0.42004820260195563
10
-0.99771812309845798
20
0.44735947093540562
10
-1.0722832034783061
20
0.47824533850817857
0
LINE
5
133
100
AcDbEntity
8
0
100
AcDbLine
10
-0.99821288463027202
20
0.44756440787202345
30
0
11
-1.0805160635201225
21
0.41347331494942841
31
0
0
LWPOLYLINE
5
134
100
AcDbEntity
8
0
100
AcDbPolyline
90
3
70
1
43
0.0
10
-1.0223189276138995
20
0.38936727196580068
10
-1.0564100205364948
20
0.47167045085565124
10
-0.99821288463027202
20
0.44756440787202345
0
CIRCLE
5
135
100
AcDbEntity
8
0
100
AcDbCircle
10
-1.0393644740751973
20
0.43051886141072604
30
0
40
0.19488188976377954
210
0
220
0
230
1
0
CIRCLE
5
136
100
AcDbEntity
8
0
100
AcDbCircle
10
-0.97909936661612795
20
0.57601170117628286
30
0
40
0.035433070866141732
210
0
220
0
230
1
0
LINE
5
137
100
AcDbEntity
8
0
100
AcDbLine
10
-1.0805160635201225
20
0.41347331494942841
30
0
11
-1.0564100205364948
21
0.47167045085565124
31
0
0
CIRCLE
5
138
100
AcDbEntity
8
0
100
AcDbCircle
10
-1.0393644740751973
20
0.43051886141072604
30
0
40
0.19488188976377954
210
0
220
0
230
1
0
CIRCLE
5
139
100
AcDbEntity
8
0
100
AcDbCircle
10
-1.0996295815342665
20
0.28502602164516888
30
0
40
0.035433070866141732
210
0
220
0
230
1
0
LINE
5
140
100
AcDbEntity
8
0
100
AcDbLine
10
-1.0963892464619338
20
0.42004820260195563
30
0
11
-1.0722832034783061
21
0.47824533850817857
31
0
0
LINE
5
141
100
AcDbEntity
8
0
100
AcDbLine
10
-1.0223189276138995
20
0.38936727196580068
30
0
11
-1.0805160635201225
21
0.41347331494942841
31
0
0
LINE
5
142
100
AcDbEntity
8
0
100
AcDbLine
10
-0.99771812309845798
20
0.44735947093540562
30
0
11
-1.0218241660820857
21
0.38916233502918268
31
0
0
LWPOLYLINE
5
143
100
AcDbEntity
8
0
100
AcDbPolyline
90
4
70
1
43
0.0
10
-1.0929684109848337
20
-0.031496062992126435
10
-1.1736770724021566
20
-0.031496062992126463
10
-1.0929684109848337
20
0.031496062992125685
10
-1.1736770724021566
20
0.031496062992125672
0
LINE
5
144
100
AcDbEntity
8
0
100
AcDbLine
10
-1.0935039370078738
20
0.031496062992125776
30
0
11
-1.1564960629921259
21
-0.031496062992126227
31
0
0
LWPOLYLINE
5
145
100
AcDbEntity
8
0
100
AcDbPolyline
90
3
70
1
43
0.0
10
-1.0935039370078738
20
-0.031496062992126206
10
-1.1564960629921259
20
0.031496062992125755
10
-1.0935039370078738
20
0.031496062992125776
0
CIRCLE
5
146
100
AcDbEntity
8
0
100
AcDbCircle
10
-1.125
20
-2.8628697627479219e-16
30
0
40
0.19488188976377954
210
0
220
0
230
1
0
CIRCLE
5
147
100
AcDbEntity
8
0
100
AcDbCircle
10
-1.1249999999999998
20
0.15748031496062964
30
0
40
0.035433070866141732
210
0
220
0
230
1
0
LINE
5
148
100
AcDbEntity
8
0
100
AcDbLine
10
-1.1564960629921259
20
-0.031496062992126227
30
0
11
-1.1564960629921259
21
0.031496062992125755
31
0
0
CIRCLE
5
149
100
AcDbEntity
8
0
100
AcDbCircle
10
-1.125
20
-2.8628697627479219e-16
30
0
40
0.19488188976377954
210
0
220
0
230
1
0
CIRCLE
5
150
100
AcDbEntity
8
0
100
AcDbCircle
10
-1.1249999999999998
20
-0.15748031496063034
30
0
40
0.035433070866141732
210
0
220
0
230
1
0
LINE
5
151
100
AcDbEntity
8
0
100
AcDbLine
10
-1.1736770724021566
20
-0.03149606299212647
30
0
11
-1.1736770724021566
21
0.031496062992125665
31
0
0
LINE
5
152
100
AcDbEntity
8
0
100
AcDbLine
10
-1.0935039370078738
20
-0.031496062992126206
30
0
11
-1.1564960629921259
21
-0.031496062992126227
31
0
0
LINE
5
153
100
AcDbEntity
8
0
100
AcDbLine
10
-1.0929684109848337
20
0.031496062992125685
30
0
11
-1.0929684109848337
21
-0.031496062992126435
31
0
0
LWPOLYLINE
5
154
100
AcDbEntity
8
0
100
AcDbPolyline
90
4
70
1
43
0.0
10
-0.99771812309845798
20
-0.4473594709354059
10
-1.0722832034783061
20
-0.4782453385081788
10
-1.0218241660820857
20
-0.38916233502918296
10
-1.0963892464619338
20
-0.42004820260195591
0
LINE
5
155
100
AcDbEntity
8
0
100
AcDbLine
10
-1.0223189276138998
20
-0.38936727196580062
30
0
11
-1.056410020536495
21
-0.47167045085565124
31
0
0
LWPOLYLINE
5
156
100
AcDbEntity
8
0
100
AcDbPolyline
90
3
70
1
43
0.0
10
-0.99821288463027213
20
-0.44756440787202345
10
-1.0805160635201225
20
-0.41347331494942841
10
-1.0223189276138998
20
-0.38936727196580062
0
CIRCLE
5
157
100
AcDbEntity
8
0
100
AcDbCircle
10
-1.0393644740751977
20
-0.43051886141072604
30
0
40
0.19488188976377954
210
0
220
0
230
1
0
CIRCLE
5
158
100
AcDbEntity
8
0
100
AcDbCircle
10
-1.0996295815342667
20
-0.28502602164516905
30
0
40
0.035433070866141732
210
0
220
0
230
1
0
LINE
5
159
100
AcDbEntity
8
0
100
AcDbLine
10
-1.056410020536495
20
-0.47167045085565124
30
0
11
-1.0805160635201225
21
-0.41347331494942841
31
0
0
CIRCLE
5
160
100
AcDbEntity
8
0
100
AcDbCircle
10
-1.0393644740751977
20
-0.43051886141072604
30
0
40
0.19488188976377954
210
0
220
0
230
1
0
CIRCLE
5
161
100
AcDbEntity
8
0
100
AcDbCircle
10
-0.97909936661612806
20
-0.57601170117628298
30
0
40
0.035433070866141732
210
0
220
0
230
1
0
LINE
5
162
100
AcDbEntity
8
0
100
AcDbLine
10
-1.0722832034783061
20
-0.4782453385081788
30
0
11
-1.0963892464619338
21
-0.42004820260195591
31
0
0
LINE
5
163
100
AcDbEntity
8
0
100
AcDbLine
10
-0.99821288463027213
20
-0.44756440787202345
30
0
11
-1.056410020536495
21
-0.47167045085565124
31
0
0
LINE
5
164
100
AcDbEntity
8
0
100
AcDbLine
10
-1.0218241660820857
20
-0.38916233502918296
30
0
11
-0.99771812309845798
21
-0.4473594709354059
31
0
0
LWPOLYLINE
5
165
100
AcDbEntity
8
0
100
AcDbPolyline
90
4
70
1
43
0.0
10
-0.7505742953076503
20
-0.79511645475247228
10
-0.80764393709632842
20
-0.85218609654115018
10
-0.79511645475247228
20
-0.7505742953076503
10
-0.8521860965411503
20
-0.80764393709632831
0
LINE
5
166
100
AcDbEntity
8
0
100
AcDbLine
10
-0.79549512883486595
20
-0.75095296939004375
30
0
11
-0.79549512883486606
21
-0.84003728827968749
31
0
0
LWPOLYLINE
5
167
100
AcDbEntity
8
0
100
AcDbPolyline
90
3
70
1
43
0.0
10
-0.75095296939004408
20
-0.79549512883486562
10
-0.84003728827968804
20
-0.79549512883486562
10
-0.79549512883486595
20
-0.75095296939004375
0
CIRCLE
5
168
100
AcDbEntity
8
0
100
AcDbCircle
10
-0.79549512883486606
20
-0.79549512883486573
30
0
40
0.19488188976377954
210
0
220
0
230
1
0
CIRCLE
5
169
100
AcDbEntity
8
0
100
AcDbCircle
10
-0.90685052744692063
20
-0.68413973022281105
30
0
40
0.035433070866141732
210
0
220
0
230
1
0
LINE
5
170
100
AcDbEntity
8
0
100
AcDbLine
10
-0.79549512883486606
20
-0.84003728827968749
30
0
11
-0.84003728827968804
21
-0.79549512883486562
31
0
0
CIRCLE
5
171
100
AcDbEntity
8
0
100
AcDbCircle
10
-0.79549512883486606
20
-0.79549512883486573
30
0
40
0.19488188976377954
210
0
220
0
230
1
0
CIRCLE
5
172
100
AcDbEntity
8
0
100
AcDbCircle
10
-0.68413973022281105
20
-0.90685052744692063
30
0
40
0.035433070866141732
210
0
220
0
230
1
0
LINE
5
173
100
AcDbEntity
8
0
100
AcDbLine
10
-0.80764393709632842
20
-0.85218609654115018
30
0
11
-0.8521860965411503
21
-0.80764393709632831
31
0
0
LINE
5
174
100
AcDbEntity
8
0
100
AcDbLine
10
-0.75095296939004408
20
-0.79549512883486562
30
0
11
-0.79549512883486606
21
-0.84003728827968749
31
0
0
LINE
5
175
100
AcDbEntity
8
0
100
AcDbLine
10
-0.79511645475247228
20
-0.7505742953076503
30
0
11
-0.7505742953076503
21
-0.79511645475247228
31
0
0
LWPOLYLINE
5
176
100
AcDbEntity
8
0
100
AcDbPolyline
90
4
70
1
43
0.0
10
-0.38916233502918268
20
-1.0218241660820859
10
-0.42004820260195574
20
-1.0963892464619338
10
-0.44735947093540562
20
-0.99771812309845809
10
-0.47824533850817863
20
-1.0722832034783061
0
LINE
5
177
100
AcDbEntity
8
0
100
AcDbLine
10
-0.44756440787202356
20
-0.99821288463027202
30
0
11
-0.41347331494942841
21
-1.0805160635201225
31
0
0
LWPOLYLINE
5
178
100
AcDbEntity
8
0
100
AcDbPolyline
90
3
70
1
43
0.0
10
-0.38936727196580079
20
-1.0223189276138995
10
-0.47167045085565124
20
-1.0564100205364948
10
-0.44756440787202356
20
-0.99821288463027202
0
CIRCLE
5
179
100
AcDbEntity
8
0
100
AcDbCircle
10
-0.43051886141072609
20
-1.0393644740751975
30
0
40
0.19488188976377954
210
0
220
0
230
1
0
CIRCLE
5
180
100
AcDbEntity
8
0
100
AcDbCircle
10
-0.57601170117628298
20
-0.97909936661612806
30
0
40
0.035433070866141732
210
0
220
0
230
1
0
LINE
5
181
100
AcDbEntity
8
0
100
AcDbLine
10
-0.41347331494942841
20
-1.0805160635201225
30
0
11
-0.47167045085565124
21
-1.0564100205364948
31
0
0
CIRCLE
5
182
100
AcDbEntity
8
0
100
AcDbCircle
10
-0.43051886141072609
20
-1.0393644740751975
30
0
40
0.19488188976377954
210
0
220
0
230
1
0
CIRCLE
5
183
100
AcDbEntity
8
0
100
AcDbCircle
10
-0.28502602164516894
20
-1.0996295815342667
30
0
40
0.035433070866141732
210
0
220
0
230
1
0
LINE
5
184
100
AcDbEntity
8
0
100
AcDbLine
10
-0.42004820260195574
20
-1.0963892464619338
30
0
11
-0.47824533850817863
21
-1.0722832034783061
31
0
0
LINE
5
185
100
AcDbEntity
8
0
100
AcDbLine
10
-0.38936727196580079
20
-1.0223189276138995
30
0
11
-0.41347331494942841
21
-1.0805160635201225
31
0
0
LINE
5
186
100
AcDbEntity
8
0
100
AcDbLine
10
-0.44735947093540562
20
-0.99771812309845809
30
0
11
-0.38916233502918268
21
-1.0218241660820859
31
0
0
LWPOLYLINE
5
187
100
AcDbEntity
8
0
100
AcDbPolyline
90
4
70
1
43
0.0
10
0.03149606299212606
20
-1.0929684109848334
10
0.031496062992126053
20
-1.1736770724021564
10
-0.031496062992126053
20
-1.0929684109848334
10
-0.031496062992126067
20
-1.1736770724021564
0
LINE
5
188
100
AcDbEntity
8
0
100
AcDbLine
10
-0.031496062992126143
20
-1.0935039370078736
30
0
11
0.031496062992125824
21
-1.1564960629921257
31
0
0
LWPOLYLINE
5
189
100
AcDbEntity
8
0
100
AcDbPolyline
90
3
70
1
43
0.0
10
0.031496062992125824
20
-1.0935039370078736
10
-0.03149606299212615
20
-1.1564960629921257
10
-0.031496062992126143
20
-1.0935039370078736
0
CIRCLE
5
190
100
AcDbEntity
8
0
100
AcDbCircle
10
-1.0128596916994526e-16
20
-1.1249999999999998
30
0
40
0.19488188976377954
210
0
220
0
230
1
0
CIRCLE
5
191
100
AcDbEntity
8
0
100
AcDbCircle
10
-0.15748031496062997
20
-1.1249999999999998
30
0
40
0.035433070866141732
210
0
220
0
230
1
0
LINE
5
192
100
AcDbEntity
8
0
100
AcDbLine
10
0.031496062992125824
20
-1.1564960629921257
30
0
11
-0.03149606299212615
21
-1.1564960629921257
31
0
0
CIRCLE
5
193
100
AcDbEntity
8
0
100
AcDbCircle
10
-1.0128596916994526e-16
20
-1.1249999999999998
30
0
40
0.19488188976377954
210
0
220
0
230
1
0
CIRCLE
5
194
100
AcDbEntity
8
0
100
AcDbCircle
10
0.15748031496062992
20
-1.1249999999999998
30
0
40
0.035433070866141732
210
0
220
0
230
1
0
LINE
5
195
100
AcDbEntity
8
0
100
AcDbLine
10
0.03149606299212606
20
-1.1736770724021564
30
0
11
-0.031496062992126067
21
-1.1736770724021564
31
0
0
LINE
5
196
100
AcDbEntity
8
0
100
AcDbLine
10
0.031496062992125824
20
-1.0935039370078736
30
0
11
0.031496062992125824
21
-1.1564960629921257
31
0
0
LINE
5
197
100
AcDbEntity
8
0
100
AcDbLine
10
-0.031496062992126053
20
-1.0929684109848334
30
0
11
0.03149606299212606
21
-1.0929684109848334
31
0
0
LWPOLYLINE
5
198
100
AcDbEntity
8
0
100
AcDbPolyline
90
4
70
1
43
0.0
10
0.44735947093540562
20
-0.99771812309845798
10
0.47824533850817857
20
-1.0722832034783059
10
0.38916233502918268
20
-1.0218241660820857
10
0.42004820260195563
20
-1.0963892464619336
0
LINE
5
199
100
AcDbEntity
8
0
100
AcDbLine
10
0.38936727196580045
20
-1.0223189276138995
30
0
11
0.47167045085565101
21
-1.0564100205364948
31
0
0
LWPOLYLINE
5
200
100
AcDbEntity
8
0
100
AcDbPolyline
90
3
70
1
43
0.0
10
0.44756440787202328
20
-0.99821288463027202
10
0.41347331494942818
20
-1.0805160635201225
10
0.38936727196580045
20
-1.0223189276138995
0
CIRCLE
5
201
100
AcDbEntity
8
0
100
AcDbCircle
10
0.43051886141072576
20
-1.0393644740751975
30
0
40
0.19488188976377954
210
0
220
0
230
1
0
CIRCLE
5
202
100
AcDbEntity
8
0
100
AcDbCircle
10
0.28502602164516877
20
-1.0996295815342665
30
0
40
0.035433070866141732
210
0
220
0
230
1
0
LINE
5
203
100
AcDbEntity
8
0
100
AcDbLine
10
0.47167045085565101
20
-1.0564100205364948
30
0
11
0.41347331494942818
21
-1.0805160635201225
31
0
0
CIRCLE
5
204
100
AcDbEntity
8
0
100
AcDbCircle
10
0.43051886141072576
20
-1.0393644740751975
30
0
40
0.19488188976377954
210
0
220
0
230
1
0
CIRCLE
5
205
100
AcDbEntity
8
0
100
AcDbCircle
10
0.57601170117628275
20
-0.97909936661612806
30
0
40
0.035433070866141732
210
0
220
0
230
1
0
LINE
5
206
100
AcDbEntity
8
0
100
AcDbLine
10
0.47824533850817857
20
-1.0722832034783059
30
0
11
0.42004820260195563
21
-1.0963892464619336
31
0
0
LINE
5
207
100
AcDbEntity
8
0
100
AcDbLine
10
0.44756440787202328
20
-0.99821288463027202
30
0
11
0.47167045085565101
21
-1.0564100205364948
31
0
0
LINE
5
208
100
AcDbEntity
8
0
100
AcDbLine
10
0.38916233502918268
20
-1.0218241660820857
30
0
11
0.44735947093540562
21
-0.99771812309845798
31
0
0
LWPOLYLINE
5
209
100
AcDbEntity
8
0
100
AcDbPolyline
90
4
70
1
43
0.0
10
0.79511645475247228
20
-0.75057429530764996
10
0.85218609654115018
20
-0.80764393709632809
10
0.7505742953076503
20
-0.79511645475247206
10
0.80764393709632831
20
-0.85218609654114996
0
LINE
5
210
100
AcDbEntity
8
0
100
AcDbLine
10
0.75095296939004375
20
-0.79549512883486573
30
0
11
0.84003728827968749
21
-0.79549512883486573
31
0
0
LWPOLYLINE
5
211
100
AcDbEntity
8
0
100
AcDbPolyline
90
3
70
1
43
0.0
10
0.79549512883486562
20
-0.75095296939004375
10
0.79549512883486562
20
-0.84003728827968771
10
0.75095296939004375
20
-0.79549512883486573
0
CIRCLE
5
212
100
AcDbEntity
8
0
100
AcDbCircle
10
0.79549512883486573
20
-0.79549512883486573
30
0
40
0.19488188976377954
210
0
220
0
230
1
0
CIRCLE
5
213
100
AcDbEntity
8
0
100
AcDbCircle
10
0.68413973022281105
20
-0.90685052744692041
30
0
40
0.035433070866141732
210
0
220
0
230
1
0
LINE
5
214
100
AcDbEntity
8
0
100
AcDbLine
10
0.84003728827968749
20
-0.79549512883486573
30
0
11
0.79549512883486562
21
-0.84003728827968771
31
0
0
CIRCLE
5
215
100
AcDbEntity
8
0
100
AcDbCircle
10
0.79549512883486573
20
-0.79549512883486573
30
0
40
0.19488188976377954
210
0
220
0
230
1
0
CIRCLE
5
216
100
AcDbEntity
8
0
100
AcDbCircle
10
0.90685052744692063
20
-0.68413973022281094
30
0
40
0.035433070866141732
210
0
220
0
230
1
0
LINE
5
217
100
AcDbEntity
8
0
100
AcDbLine
10
0.85218609654115018
20
-0.80764393709632809
30
0
11
0.80764393709632831
21
-0.85218609654114996
31
0
0
LINE
5
218
100
AcDbEntity
8
0
100
AcDbLine
10
0.79549512883486562
20
-0.75095296939004375
30
0
11
0.84003728827968749
21
-0.79549512883486573
31
0
0
LINE
5
219
100
AcDbEntity
8
0
100
AcDbLine
10
0.7505742953076503
20
-0.79511645475247206
30
0
11
0.79511645475247228
21
-0.75057429530764996
31
0
0
LWPOLYLINE
5
220
100
AcDbEntity
8
0
100
AcDbPolyline
90
4
70
1
43
0.0
10
1.0218241660820855
20
-0.38916233502918285
10
1.0963892464619334
20
-0.42004820260195591
10
0.99771812309845775
20
-0.44735947093540579
10
1.0722832034783056
20
-0.4782453385081788
0
LINE
5
221
100
AcDbEntity
8
0
100
AcDbLine
10
0.99821288463027169
20
-0.44756440787202373
30
0
11
1.0805160635201221
21
-0.41347331494942879
31
0
0
LWPOLYLINE
5
222
100
AcDbEntity
8
0
100
AcDbPolyline
90
3
70
1
43
0.0
10
1.0223189276138993
20
-0.38936727196580095
10
1.0564100205364946
20
-0.47167045085565151
10
0.99821288463027169
20
-0.44756440787202373
0
CIRCLE
5
223
100
AcDbEntity
8
0
100
AcDbCircle
10
1.0393644740751971
20
-0.43051886141072632
30
0
40
0.19488188976377954
210
0
220
0
230
1
0
CIRCLE
5
224
100
AcDbEntity
8
0
100
AcDbCircle
10
0.97909936661612773
20
-0.57601170117628309
30
0
40
0.035433070866141732
210
0
220
0
230
1
0
LINE
5
225
100
AcDbEntity
8
0
100
AcDbLine
10
1.0805160635201221
20
-0.41347331494942879
30
0
11
1.0564100205364946
21
-0.47167045085565151
31
0
0
CIRCLE
5
226
100
AcDbEntity
8
0
100
AcDbCircle
10
1.0393644740751971
20
-0.43051886141072632
30
0
40
0.19488188976377954
210
0
220
0
230
1
0
CIRCLE
5
227
100
AcDbEntity
8
0
100
AcDbCircle
10
1.0996295815342663
20
-0.28502602164516916
30
0
40
0.035433070866141732
210
0
220
0
230
1
0
LINE
5
228
100
AcDbEntity
8
0
100
AcDbLine
10
1.0963892464619334
20
-0.42004820260195591
30
0
11
1.0722832034783056
21
-0.4782453385081788
31
0
0
LINE
5
229
100
AcDbEntity
8
0
100
AcDbLine
10
1.0223189276138993
20
-0.38936727196580095
30
0
11
1.0805160635201221
21
-0.41347331494942879
31
0
0
LINE
5
230
100
AcDbEntity
8
0
100
AcDbLine
10
0.99771812309845775
20
-0.44735947093540579
30
0
11
1.0218241660820855
21
-0.38916233502918285
31
0
0
LWPOLYLINE
5
231
100
AcDbEntity
8
0
100
AcDbPolyline
90
4
70
1
43
0.0
10
1.0929684109848334
20
0.031496062992125949
10
1.1736770724021564
20
0.031496062992125942
10
1.0929684109848334
20
-0.031496062992126164
10
1.1736770724021564
20
-0.031496062992126178
0
LINE
5
232
100
AcDbEntity
8
0
100
AcDbLine
10
1.0935039370078736
20
-0.031496062992126247
30
0
11
1.1564960629921257
21
0.031496062992125706
31
0
0
LWPOLYLINE
5
233
100
AcDbEntity
8
0
100
AcDbPolyline
90
3
70
1
43
0.0
10
1.0935039370078736
20
0.03149606299212572
10
1.1564960629921257
20
-0.031496062992126268
10
1.0935039370078736
20
-0.031496062992126247
0
CIRCLE
5
234
100
AcDbEntity
8
0
100
AcDbCircle
10
1.1249999999999998
20
-2.1331338480652821e-16
30
0
40
0.19488188976377954
210
0
220
0
230
1
0
CIRCLE
5
235
100
AcDbEntity
8
0
100
AcDbCircle
10
1.1249999999999998
20
-0.15748031496063009
30
0
40
0.035433070866141732
210
0
220
0
230
1
0
LINE
5
236
100
AcDbEntity
8
0
100
AcDbLine
10
1.1564960629921257
20
0.031496062992125706
30
0
11
1.1564960629921257
21
-0.031496062992126268
31
0
0
CIRCLE
5
237
100
AcDbEntity
8
0
100
AcDbCircle
10
1.1249999999999998
20
-2.1331338480652821e-16
30
0
40
0.19488188976377954
210
0
220
0
230
1
0
CIRCLE
5
238
100
AcDbEntity
8
0
100
AcDbCircle
10
1.1249999999999998
20
0.15748031496062981
30
0
40
0.035433070866141732
210
0
220
0
230
1
0
LINE
5
239
100
AcDbEntity
8
0
100
AcDbLine
10
1.1736770724021564
20
0.031496062992125935
30
0
11
1.1736770724021564
21
-0.031496062992126185
31
0
0
LINE
5
240
100
AcDbEntity
8
0
100
AcDbLine
10
1.0935039370078736
20
0.03149606299212572
30
0
11
1.1564960629921257
21
0.031496062992125706
31
0
0
LINE
5
241
100
AcDbEntity
8
0
100
AcDbLine
10
1.0929684109848334
20
-0.031496062992126164
30
0
11
1.0929684109848334
21
0.031496062992125949
31
0
0
LWPOLYLINE
5
242
100
AcDbEntity
8
0
100
AcDbPolyline
90
4
70
1
43
0.0
10
0.99771812309845798
20
0.4473594709354059
10
1.0722832034783061
20
0.4782453385081788
10
1.0218241660820857
20
0.38916233502918296
10
1.0963892464619338
20
0.42004820260195591
0
LINE
5
243
100
AcDbEntity
8
0
100
AcDbLine
10
1.0223189276138998
20
0.38936727196580062
30
0
11
1.056410020536495
21
0.47167045085565124
31
0
0
LWPOLYLINE
5
244
100
AcDbEntity
8
0
100
AcDbPolyline
90
3
70
1
43
0.0
10
0.99821288463027213
20
0.44756440787202345
10
1.0805160635201225
20
0.41347331494942841
10
1.0223189276138998
20
0.38936727196580062
0
CIRCLE
5
245
100
AcDbEntity
8
0
100
AcDbCircle
10
1.0393644740751977
20
0.43051886141072604
30
0
40
0.19488188976377954
210
0
220
0
230
1
0
CIRCLE
5
246
100
AcDbEntity
8
0
100
AcDbCircle
10
1.0996295815342667
20
0.28502602164516905
30
0
40
0.035433070866141732
210
0
220
0
230
1
0
LINE
5
247
100
AcDbEntity
8
0
100
AcDbLine
10
1.056410020536495
20
0.47167045085565124
30
0
11
1.0805160635201225
21
0.41347331494942841
31
0
0
CIRCLE
5
248
100
AcDbEntity
8
0
100
AcDbCircle
10
1.0393644740751977
20
0.43051886141072604
30
0
40
0.19488188976377954
210
0
220
0
230
1
0
CIRCLE
5
249
100
AcDbEntity
8
0
100
AcDbCircle
10
0.97909936661612806
20
0.57601170117628298
30
0
40
0.035433070866141732
210
0
220
0
230
1
0
LINE
5
250
100
AcDbEntity
8
0
100
AcDbLine
10
1.0722832034783061
20
0.4782453385081788
30
0
11
1.0963892464619338
21
0.42004820260195591
31
0
0
LINE
5
251
100
AcDbEntity
8
0
100
AcDbLine
10
0.99821288463027213
20
0.44756440787202345
30
0
11
1.056410020536495
21
0.47167045085565124
31
0
0
LINE
5
252
100
AcDbEntity
8
0
100
AcDbLine
10
1.0218241660820857
20
0.38916233502918296
30
0
11
0.99771812309845798
21
0.4473594709354059
31
0
0
LWPOLYLINE
5
253
100
AcDbEntity
8
0
100
AcDbPolyline
90
4
70
1
43
0.0
10
0.7505742953076503
20
0.79511645475247206
10
0.80764393709632842
20
0.85218609654115018
10
0.79511645475247228
20
0.75057429530765019
10
0.8521860965411503
20
0.80764393709632831
0
LINE
5
254
100
AcDbEntity
8
0
100
AcDbLine
10
0.79549512883486595
20
0.75095296939004363
30
0
11
0.79549512883486606
21
0.84003728827968727
31
0
0
LWPOLYLINE
5
255
100
AcDbEntity
8
0
100
AcDbPolyline
90
3
70
1
43
0.0
10
0.75095296939004408
20
0.79549512883486562
10
0.84003728827968804
20
0.79549512883486539
10
0.79549512883486595
20
0.75095296939004363
0
CIRCLE
5
256
100
AcDbEntity
8
0
100
AcDbCircle
10
0.79549512883486606
20
0.79549512883486573
30
0
40
0.19488188976377954
210
0
220
0
230
1
0
CIRCLE
5
257
100
AcDbEntity
8
0
100
AcDbCircle
10
0.90685052744692063
20
0.68413973022281094
30
0
40
0.035433070866141732
210
0
220
0
230
1
0
LINE
5
258
100
AcDbEntity
8
0
100
AcDbLine
10
0.79549512883486606
20
0.84003728827968727
30
0
11
0.84003728827968804
21
0.79549512883486539
31
0
0
CIRCLE
5
259
100
AcDbEntity
8
0
100
AcDbCircle
10
0.79549512883486606
20
0.79549512883486573
30
0
40
0.19488188976377954
210
0
220
0
230
1
0
CIRCLE
5
260
100
AcDbEntity
8
0
100
AcDbCircle
10
0.68413973022281116
20
0.90685052744692041
30
0
40
0.035433070866141732
210
0
220
0
230
1
0
LINE
5
261
100
AcDbEntity
8
0
100
AcDbLine
10
0.80764393709632842
20
0.85218609654115018
30
0
11
0.8521860965411503
21
0.80764393709632831
31
0
0
LINE
5
262
100
AcDbEntity
8
0
100
AcDbLine
10
0.75095296939004408
20
0.79549512883486562
30
0
11
0.79549512883486606
21
0.84003728827968727
31
0
0
LINE
5
263
100
AcDbEntity
8
0
100
AcDbLine
10
0.79511645475247228
20
0.75057429530765019
30
0
11
0.7505742953076503
21
0.79511645475247206
31
0
0
LWPOLYLINE
5
264
100
AcDbEntity
8
0
100
AcDbPolyline
90
4
70
1
43
0.0
10
0.38916233502918329
20
1.0218241660820855
10
0.42004820260195636
20
1.0963892464619336
10
0.44735947093540623
20
0.99771812309845775
10
0.47824533850817924
20
1.0722832034783059
0
LINE
5
265
100
AcDbEntity
8
0
100
AcDbLine
10
0.44756440787202417
20
0.9982128846302718
30
0
11
0.41347331494942913
21
1.0805160635201223
31
0
0
LWPOLYLINE
5
266
100
AcDbEntity
8
0
100
AcDbPolyline
90
3
70
1
43
0.0
10
0.3893672719658014
20
1.0223189276138995
10
0.47167045085565196
20
1.0564100205364946
10
0.44756440787202417
20
0.9982128846302718
0
CIRCLE
5
267
100
AcDbEntity
8
0
100
AcDbCircle
10
0.43051886141072676
20
1.0393644740751971
30
0
40
0.19488188976377954
210
0
220
0
230
1
0
CIRCLE
5
268
100
AcDbEntity
8
0
100
AcDbCircle
10
0.57601170117628342
20
0.97909936661612773
30
0
40
0.035433070866141732
210
0
220
0
230
1
0
LINE
5
269
100
AcDbEntity
8
0
100
AcDbLine
10
0.41347331494942913
20
1.0805160635201223
30
0
11
0.47167045085565196
21
1.0564100205364946
31
0
0
CIRCLE
5
270
100
AcDbEntity
8
0
100
AcDbCircle
10
0.43051886141072676
20
1.0393644740751971
30
0
40
0.19488188976377954
210
0
220
0
230
1
0
CIRCLE
5
271
100
AcDbEntity
8
0
100
AcDbCircle
10
0.28502602164516955
20
1.0996295815342665
30
0
40
0.035433070866141732
210
0
220
0
230
1
0
LINE
5
272
100
AcDbEntity
8
0
100
AcDbLine
10
0.42004820260195636
20
1.0963892464619336
30
0
11
0.47824533850817924
21
1.0722832034783059
31
0
0
LINE
5
273
100
AcDbEntity
8
0
100
AcDbLine
10
0.3893672719658014
20
1.0223189276138995
30
0
11
0.41347331494942913
21
1.0805160635201223
31
0
0
LINE
5
274
100
AcDbEntity
8
0
100
AcDbLine
10
0.44735947093540623
20
0.99771812309845775
30
0
11
0.38916233502918329
21
1.0218241660820855
31
0
0
LWPOLYLINE
5
275
100
AcDbEntity
8
0
100
AcDbPolyline
90
4
70
1
43
0.0
10
0.19470275980142929
20
0.78820393539812394
10
0.13171063381717732
20
0.78820393539812394
10
0.13171063381717732
20
0.85119606138237591
10
0.19470275980142929
20
0.85119606138237591
0
LINE
5
276
100
AcDbEntity
8
0
100
AcDbLine
10
0.19470275980142929
20
0.78820393539812394
30
0
11
0.13171063381717732
21
0.85119606138237591
31
0
0
LINE
5
277
100
AcDbEntity
8
0
100
AcDbLine
10
0.13171063381717732
20
0.78820393539812394
30
0
11
0.19470275980142929
21
0.85119606138237591
31
0
0
CIRCLE
5
278
100
AcDbEntity
8
0
100
AcDbCircle
10
0.1632066968093033
20
0.81969999839024987
30
0
40
0.12499999999999997
210
0
220
0
230
1
0
LWPOLYLINE
5
279
100
AcDbEntity
8
0
100
AcDbPolyline
90
4
70
1
43
0.0
10
-0.20405387158767416
20
0.83680609669353689
10
-0.14585673568145138
20
0.86091213967716451
10
-0.12175069269782367
20
0.80271500377094174
10
-0.17994782860404646
20
0.77860896078731401
0
CIRCLE
5
280
100
AcDbEntity
8
0
100
AcDbCircle
10
-0.16290228214274893
20
0.81976055023223926
30
0
40
0.12499999999999997
210
0
220
0
230
1
0
LWPOLYLINE
5
281
100
AcDbEntity
8
0
100
AcDbPolyline
90
4
70
1
43
0.0
10
-0.5087530247962545
20
0.69501998944926302
10
-0.46421086535143263
20
0.73956214889408489
10
-0.41966870590661071
20
0.69501998944926302
10
-0.46421086535143263
20
0.65047783000444115
0
CIRCLE
5
282
100
AcDbEntity
8
0
100
AcDbCircle
10
-0.46421086535143263
20
0.69501998944926302
30
0
40
0.12499999999999997
210
0
220
0
230
1
0
LWPOLYLINE
5
283
100
AcDbEntity
8
0
100
AcDbPolyline
90
4
70
1
43
0.0
10
-0.73599914183725912
20
0.44742338918323232
10
-0.71189309885363128
20
0.5056205250894551
10
-0.65369596294740839
20
0.48151448210582742
10
-0.67780200593103623
20
0.42331734619960459
0
CIRCLE
5
284
100
AcDbEntity
8
0
100
AcDbCircle
10
-0.69484755239233376
20
0.46446893564452985
30
0
40
0.12499999999999997
210
0
220
0
230
1
0
LWPOLYLINE
5
285
100
AcDbEntity
8
0
100
AcDbPolyline
90
4
70
1
43
0.0
10
-0.85119606138237613
20
0.13171063381717715
10
-0.85119606138237613
20
0.19470275980142915
10
-0.78820393539812406
20
0.19470275980142915
10
-0.78820393539812406
20
0.13171063381717715
0
CIRCLE
5
286
100
AcDbEntity
8
0
100
AcDbCircle
10
-0.8196999983902501
20
0.16320669680930316
30
0
40
0.12499999999999997
210
0
220
0
230
1
0
LWPOLYLINE
5
287
100
AcDbEntity
8
0
100
AcDbPolyline
90
4
70
1
43
0.0
10
-0.83680609669353689
20
-0.20405387158767421
10
-0.86091213967716473
20
-0.14585673568145144
10
-0.80271500377094185
20
-0.12175069269782374
10
-0.77860896078731412
20
-0.17994782860404651
0
CIRCLE
5
288
100
AcDbEntity
8
0
100
AcDbCircle
10
-0.81976055023223937
20
-0.16290228214274899
30
0
40
0.12499999999999997
210
0
220
0
230
1
0
LWPOLYLINE
5
289
100
AcDbEntity
8
0
100
AcDbPolyline
90
4
70
1
43
0.0
10
-0.69501998944926324
20
-0.50875302479625439
10
-0.73956214889408511
20
-0.46421086535143252
10
-0.69501998944926324
20
-0.41966870590661065
10
-0.65047783000444126
20
-0.46421086535143252
0
CIRCLE
5
290
100
AcDbEntity
8
0
100
AcDbCircle
10
-0.69501998944926324
20
-0.46421086535143252
30
0
40
0.12499999999999997
210
0
220
0
230
1
0
LWPOLYLINE
5
291
100
AcDbEntity
8
0
100
AcDbPolyline
90
4
70
1
43
0.0
10
-0.44742338918323238
20
-0.73599914183725912
10
-0.5056205250894551
20
-0.71189309885363139
10
-0.48151448210582753
20
-0.6536959629474085
10
-0.4233173461996047
20
-0.67780200593103623
0
CIRCLE
5
292
100
AcDbEntity
8
0
100
AcDbCircle
10
-0.4644689356445299
20
-0.69484755239233387
30
0
40
0.12499999999999997
210
0
220
0
230
1
0
LWPOLYLINE
5
293
100
AcDbEntity
8
0
100
AcDbPolyline
90
4
70
1
43
0.0
10
-0.13171063381717743
20
-0.85119606138237591
10
-0.1947027598014294
20
-0.85119606138237591
10
-0.19470275980142937
20
-0.78820393539812394
10
-0.1317106338171774
20
-0.78820393539812394
0
CIRCLE
5
294
100
AcDbEntity
8
0
100
AcDbCircle
10
-0.16320669680930341
20
-0.81969999839024987
30
0
40
0.12499999999999997
210
0
220
0
230
1
0
LWPOLYLINE
5
295
100
AcDbEntity
8
0
100
AcDbPolyline
90
4
70
1
43
0.0
10
0.20405387158767407
20
-0.83680609669353689
10
0.1458567356814513
20
-0.86091213967716451
10
0.12175069269782358
20
-0.80271500377094174
10
0.17994782860404637
20
-0.77860896078731401
0
CIRCLE
5
296
100
AcDbEntity
8
0
100
AcDbCircle
10
0.16290228214274882
20
-0.81976055023223926
30
0
40
0.12499999999999997
210
0
220
0
230
1
0
LWPOLYLINE
5
297
100
AcDbEntity
8
0
100
AcDbPolyline
90
4
70
1
43
0.0
10
0.50875302479625439
20
-0.69501998944926302
10
0.46421086535143252
20
-0.73956214889408489
10
0.41966870590661065
20
-0.69501998944926302
10
0.46421086535143252
20
-0.65047783000444115
0
CIRCLE
5
298
100
AcDbEntity
8
0
100
AcDbCircle
10
0.46421086535143252
20
-0.69501998944926302
30
0
40
0.12499999999999997
210
0
220
0
230
1
0
LWPOLYLINE
5
299
100
AcDbEntity
8
0
100
AcDbPolyline
90
4
70
1
43
0.0
10
0.73599914183725879
20
-0.44742338918323249
10
0.71189309885363106
20
-0.50562052508945532
10
0.65369596294740828
20
-0.48151448210582753
10
0.67780200593103601
20
-0.42331734619960476
0
CIRCLE
5
300
100
AcDbEntity
8
0
100
AcDbCircle
10
0.69484755239233353
20
-0.46446893564453001
30
0
40
0.12499999999999997
210
0
220
0
230
1
0
LWPOLYLINE
5
301
100
AcDbEntity
8
0
100
AcDbPolyline
90
4
70
1
43
0.0
10
0.85119606138237591
20
-0.13171063381717751
10
0.85119606138237591
20
-0.19470275980142948
10
0.78820393539812394
20
-0.19470275980142945
10
0.78820393539812394
20
-0.13171063381717749
0
CIRCLE
5
302
100
AcDbEntity
8
0
100
AcDbCircle
10
0.81969999839024987
20
-0.16320669680930347
30
0
40
0.12499999999999997
210
0
220
0
230
1
0
LWPOLYLINE
5
303
100
AcDbEntity
8
0
100
AcDbPolyline
90
4
70
1
43
0.0
10
0.83680609669353689
20
0.20405387158767421
10
0.86091213967716473
20
0.14585673568145144
10
0.80271500377094185
20
0.12175069269782374
10
0.77860896078731412
20
0.17994782860404651
0
CIRCLE
5
304
100
AcDbEntity
8
0
100
AcDbCircle
10
0.81976055023223937
20
0.16290228214274899
30
0
40
0.12499999999999997
210
0
220
0
230
1
0
LWPOLYLINE
5
305
100
AcDbEntity
8
0
100
AcDbPolyline
90
4
70
1
43
0.0
10
0.69501998944926324
20
0.50875302479625439
10
0.73956214889408511
20
0.46421086535143247
10
0.69501998944926324
20
0.41966870590661054
10
0.65047783000444126
20
0.46421086535143247
0
CIRCLE
5
306
100
AcDbEntity
8
0
100
AcDbCircle
10
0.69501998944926324
20
0.46421086535143247
30
0
40
0.12499999999999997
210
0
220
0
230
1
0
LWPOLYLINE
5
307
100
AcDbEntity
8
0
100
AcDbPolyline
90
4
70
1
43
0.0
10
0.44742338918323282
20
0.7359991418372589
10
0.50562052508945565
20
0.71189309885363106
10
0.48151448210582787
20
0.65369596294740828
10
0.42331734619960515
20
0.67780200593103601
0
CIRCLE
5
308
100
AcDbEntity
8
0
100
AcDbCircle
10
0.46446893564453035
20
0.69484755239233353
30
0
40
0.12499999999999997
210
0
220
0
230
1
0
CIRCLE
5
309
100
AcDbEntity
8
0
100
AcDbCircle
10
0.25000000797857447
20
1.2500000398928723
30
0
40
0.043307086614173242
210
0
220
0
230
1
0
CIRCLE
5
310
100
AcDbEntity
8
0
100
AcDbCircle
10
-0.2473844152236401
20
1.2505203136398573
30
0
40
0.043307086614173242
210
0
220
0
230
1
0
CIRCLE
5
311
100
AcDbEntity
8
0
100
AcDbCircle
10
-0.7071068037533641
20
1.060660205630046
30
0
40
0.043307086614173242
210
0
220
0
230
1
0
CIRCLE
5
312
100
AcDbEntity
8
0
100
AcDbCircle
10
-1.0591785913507756
20
0.7093241962217669
30
0
40
0.043307086614173242
210
0
220
0
230
1
0
CIRCLE
5
313
100
AcDbEntity
8
0
100
AcDbCircle
10
-1.2500000398928728
20
0.25000000797857425
30
0
40
0.043307086614173242
210
0
220
0
230
1
0
CIRCLE
5
314
100
AcDbEntity
8
0
100
AcDbCircle
10
-1.2505203136398577
20
-0.24738441522364024
30
0
40
0.043307086614173242
210
0
220
0
230
1
0
CIRCLE
5
315
100
AcDbEntity
8
0
100
AcDbCircle
10
-1.0606602056300463
20
-0.70710680375336388
30
0
40
0.043307086614173242
210
0
220
0
230
1
0
CIRCLE
5
316
100
AcDbEntity
8
0
100
AcDbCircle
10
-0.70932419622176701
20
-1.0591785913507759
30
0
40
0.043307086614173242
210
0
220
0
230
1
0
CIRCLE
5
317
100
AcDbEntity
8
0
100
AcDbCircle
10
-0.25000000797857463
20
-1.2500000398928723
30
0
40
0.043307086614173242
210
0
220
0
230
1
0
CIRCLE
5
318
100
AcDbEntity
8
0
100
AcDbCircle
10
0.24738441522364002
20
-1.2505203136398573
30
0
40
0.043307086614173242
210
0
220
0
230
1
0
CIRCLE
5
319
100
AcDbEntity
8
0
100
AcDbCircle
10
0.70710680375336399
20
-1.060660205630046
30
0
40
0.043307086614173242
210
0
220
0
230
1
0
CIRCLE
5
320
100
AcDbEntity
8
0
100
AcDbCircle
10
1.0591785913507754
20
-0.70932419622176723
30
0
40
0.043307086614173242
210
0
220
0
230
1
0
CIRCLE
5
321
100
AcDbEntity
8
0
100
AcDbCircle
10
1.2500000398928723
20
-0.25000000797857475
30
0
40
0.043307086614173242
210
0
220
0
230
1
0
CIRCLE
5
322
100
AcDbEntity
8
0
100
AcDbCircle
10
1.2505203136398577
20
0.24738441522364024
30
0
40
0.043307086614173242
210
0
220
0
230
1
0
CIRCLE
5
323
100
AcDbEntity
8
0
100
AcDbCircle
10
1.0606602056300463
20
0.70710680375336366
30
0
40
0.043307086614173242
210
0
220
0
230
1
0
CIRCLE
5
324
100
AcDbEntity
8
0
100
AcDbCircle
10
0.70932419622176768
20
1.0591785913507756
30
0
40
0.043307086614173242
210
0
220
0
230
1
0
ENDSEC
0
SECTION
2
OBJECTS
0
DICTIONARY
5
C
100
AcDbDictionary
3
ACAD_GROUP
350
D
3
ACAD_MLINESTYLE
350
17
0
DICTIONARY
5
D
100
AcDbDictionary
0
DICTIONARY
5
1A
330
C
100
AcDbDictionary
0
DICTIONARY
5
17
100
AcDbDictionary
0
ENDSEC
0
EOF
