G04 #@! TF.FileFunction,Paste,Bot*
%FSLAX46Y46*%
G04 Gerber Fmt 4.6, Leading zero omitted, Abs format (unit mm)*
G04 Created by KiCad (PCBNEW 4.0.1-stable) date 2/3/2016 8:32:50 AM*
%MOMM*%
G01*
G04 APERTURE LIST*
%ADD10C,0.100000*%
%ADD11R,2.430000X2.370000*%
%ADD12R,2.370000X2.430000*%
%ADD13R,1.000760X0.899160*%
%ADD14R,0.899160X1.000760*%
%ADD15R,1.050000X0.600000*%
%ADD16R,0.600000X1.050000*%
G04 APERTURE END LIST*
D10*
D11*
X99305040Y-32674880D03*
X99305040Y-26434880D03*
D12*
X134433242Y-123529800D03*
X140673242Y-123529800D03*
X41312640Y-110697720D03*
X35072640Y-110697720D03*
D11*
X114321520Y-37485640D03*
X114321520Y-31245640D03*
X127727640Y-130188800D03*
X127727640Y-136428800D03*
D12*
X36842240Y-96727720D03*
X30602240Y-96727720D03*
D11*
X127595560Y-45049760D03*
X127595560Y-38809760D03*
X114280880Y-138154240D03*
X114280880Y-144394240D03*
D12*
X36283440Y-80517440D03*
X30043440Y-80517440D03*
D11*
X137659040Y-57505920D03*
X137659040Y-51265920D03*
X99929880Y-142218240D03*
X99929880Y-148458240D03*
D12*
X40423640Y-66049600D03*
X34183640Y-66049600D03*
X142961680Y-65328240D03*
X149201680Y-65328240D03*
D11*
X83821200Y-142096320D03*
X83821200Y-148336320D03*
D12*
X47896320Y-52912720D03*
X41656320Y-52912720D03*
X147386360Y-80156760D03*
X153626360Y-80156760D03*
D11*
X69292400Y-137905320D03*
X69292400Y-144145320D03*
X56267280Y-45883762D03*
X56267280Y-39643762D03*
D12*
X147331362Y-95498360D03*
X153571362Y-95498360D03*
D11*
X55881200Y-129802720D03*
X55881200Y-136042720D03*
X69343200Y-38599042D03*
X69343200Y-32359042D03*
D12*
X142129442Y-110489440D03*
X148369442Y-110489440D03*
X49506680Y-124129240D03*
X43266680Y-124129240D03*
D11*
X83999000Y-33167640D03*
X83999000Y-26927640D03*
D13*
X80915440Y-16631360D03*
X80915440Y-18135040D03*
D14*
X163887080Y-75813360D03*
X162383400Y-75813360D03*
X19437280Y-96417840D03*
X20940960Y-96417840D03*
D10*
G36*
X134254032Y-29181892D02*
X133546388Y-28474248D01*
X134182190Y-27838446D01*
X134889834Y-28546090D01*
X134254032Y-29181892D01*
X134254032Y-29181892D01*
G37*
G36*
X133190770Y-30245154D02*
X132483126Y-29537510D01*
X133118928Y-28901708D01*
X133826572Y-29609352D01*
X133190770Y-30245154D01*
X133190770Y-30245154D01*
G37*
D13*
X100839200Y-159994040D03*
X100839200Y-158490360D03*
D10*
G36*
X47429488Y-144928908D02*
X48137132Y-145636552D01*
X47501330Y-146272354D01*
X46793686Y-145564710D01*
X47429488Y-144928908D01*
X47429488Y-144928908D01*
G37*
G36*
X48492750Y-143865646D02*
X49200394Y-144573290D01*
X48564592Y-145209092D01*
X47856948Y-144501448D01*
X48492750Y-143865646D01*
X48492750Y-143865646D01*
G37*
D15*
X83932440Y-19186600D03*
X83932440Y-20456600D03*
X83932440Y-17916600D03*
X83932440Y-16646600D03*
D16*
X161169280Y-79450120D03*
X159899280Y-79450120D03*
X162439280Y-79450120D03*
X163709280Y-79450120D03*
X21977280Y-93197640D03*
X23247280Y-93197640D03*
X20707280Y-93197640D03*
X19437280Y-93197640D03*
D10*
G36*
X134787350Y-33054999D02*
X134044888Y-32312537D01*
X134469152Y-31888273D01*
X135211614Y-32630735D01*
X134787350Y-33054999D01*
X134787350Y-33054999D01*
G37*
G36*
X133889324Y-33953025D02*
X133146862Y-33210563D01*
X133571126Y-32786299D01*
X134313588Y-33528761D01*
X133889324Y-33953025D01*
X133889324Y-33953025D01*
G37*
G36*
X135685375Y-32156974D02*
X134942913Y-31414512D01*
X135367177Y-30990248D01*
X136109639Y-31732710D01*
X135685375Y-32156974D01*
X135685375Y-32156974D01*
G37*
G36*
X136583401Y-31258948D02*
X135840939Y-30516486D01*
X136265203Y-30092222D01*
X137007665Y-30834684D01*
X136583401Y-31258948D01*
X136583401Y-31258948D01*
G37*
D15*
X97771400Y-157261000D03*
X97771400Y-155991000D03*
X97771400Y-158531000D03*
X97771400Y-159801000D03*
D10*
G36*
X46972370Y-140684961D02*
X47714832Y-141427423D01*
X47290568Y-141851687D01*
X46548106Y-141109225D01*
X46972370Y-140684961D01*
X46972370Y-140684961D01*
G37*
G36*
X47870396Y-139786935D02*
X48612858Y-140529397D01*
X48188594Y-140953661D01*
X47446132Y-140211199D01*
X47870396Y-139786935D01*
X47870396Y-139786935D01*
G37*
G36*
X46074345Y-141582986D02*
X46816807Y-142325448D01*
X46392543Y-142749712D01*
X45650081Y-142007250D01*
X46074345Y-141582986D01*
X46074345Y-141582986D01*
G37*
G36*
X45176319Y-142481012D02*
X45918781Y-143223474D01*
X45494517Y-143647738D01*
X44752055Y-142905276D01*
X45176319Y-142481012D01*
X45176319Y-142481012D01*
G37*
M02*
