G04 #@! TF.FileFunction,Legend,Bot*
%FSLAX46Y46*%
G04 Gerber Fmt 4.6, Leading zero omitted, Abs format (unit mm)*
G04 Created by KiCad (PCBNEW 4.0.1-stable) date 2/3/2016 8:32:50 AM*
%MOMM*%
G01*
G04 APERTURE LIST*
%ADD10C,0.100000*%
%ADD11C,0.150000*%
%ADD12C,0.127000*%
%ADD13C,0.040640*%
%ADD14C,4.464000*%
%ADD15C,8.160000*%
%ADD16R,2.830000X2.770000*%
%ADD17R,2.770000X2.830000*%
%ADD18C,1.136600*%
%ADD19R,1.400760X1.299160*%
%ADD20R,1.299160X1.400760*%
%ADD21R,1.300000X0.850000*%
%ADD22R,1.700000X4.850000*%
%ADD23R,3.450000X4.350000*%
%ADD24R,0.850000X1.300000*%
%ADD25R,4.850000X1.700000*%
%ADD26R,4.350000X3.450000*%
%ADD27C,2.398980*%
G04 APERTURE END LIST*
D10*
D11*
X101505040Y-25354880D02*
X101505040Y-33354880D01*
X97105040Y-33354880D02*
X97105040Y-25254880D01*
X141753242Y-125729800D02*
X133753242Y-125729800D01*
X133753242Y-121329800D02*
X141853242Y-121329800D01*
X33992640Y-108497720D02*
X41992640Y-108497720D01*
X41992640Y-112897720D02*
X33892640Y-112897720D01*
X116521520Y-30165640D02*
X116521520Y-38165640D01*
X112121520Y-38165640D02*
X112121520Y-30065640D01*
X125527640Y-137508800D02*
X125527640Y-129508800D01*
X129927640Y-129508800D02*
X129927640Y-137608800D01*
X29522240Y-94527720D02*
X37522240Y-94527720D01*
X37522240Y-98927720D02*
X29422240Y-98927720D01*
X129795560Y-37729760D02*
X129795560Y-45729760D01*
X125395560Y-45729760D02*
X125395560Y-37629760D01*
X112080880Y-145474240D02*
X112080880Y-137474240D01*
X116480880Y-137474240D02*
X116480880Y-145574240D01*
X28963440Y-78317440D02*
X36963440Y-78317440D01*
X36963440Y-82717440D02*
X28863440Y-82717440D01*
X139859040Y-50185920D02*
X139859040Y-58185920D01*
X135459040Y-58185920D02*
X135459040Y-50085920D01*
X97729880Y-149538240D02*
X97729880Y-141538240D01*
X102129880Y-141538240D02*
X102129880Y-149638240D01*
X33103640Y-63849600D02*
X41103640Y-63849600D01*
X41103640Y-68249600D02*
X33003640Y-68249600D01*
X150281680Y-67528240D02*
X142281680Y-67528240D01*
X142281680Y-63128240D02*
X150381680Y-63128240D01*
X81621200Y-149416320D02*
X81621200Y-141416320D01*
X86021200Y-141416320D02*
X86021200Y-149516320D01*
X40576320Y-50712720D02*
X48576320Y-50712720D01*
X48576320Y-55112720D02*
X40476320Y-55112720D01*
X154706360Y-82356760D02*
X146706360Y-82356760D01*
X146706360Y-77956760D02*
X154806360Y-77956760D01*
X67092400Y-145225320D02*
X67092400Y-137225320D01*
X71492400Y-137225320D02*
X71492400Y-145325320D01*
X58467280Y-38563762D02*
X58467280Y-46563762D01*
X54067280Y-46563762D02*
X54067280Y-38463762D01*
X154651362Y-97698360D02*
X146651362Y-97698360D01*
X146651362Y-93298360D02*
X154751362Y-93298360D01*
X53681200Y-137122720D02*
X53681200Y-129122720D01*
X58081200Y-129122720D02*
X58081200Y-137222720D01*
X71543200Y-31279042D02*
X71543200Y-39279042D01*
X67143200Y-39279042D02*
X67143200Y-31179042D01*
X149449442Y-112689440D02*
X141449442Y-112689440D01*
X141449442Y-108289440D02*
X149549442Y-108289440D01*
X42186680Y-121929240D02*
X50186680Y-121929240D01*
X50186680Y-126329240D02*
X42086680Y-126329240D01*
X86199000Y-25847640D02*
X86199000Y-33847640D01*
X81799000Y-33847640D02*
X81799000Y-25747640D01*
D12*
X80509040Y-16824400D02*
X81321840Y-16824400D01*
X81296440Y-17942000D02*
X80509040Y-17942000D01*
X81321840Y-18196000D02*
X81321840Y-16570400D01*
X81321840Y-16570400D02*
X80509040Y-16570400D01*
X80509040Y-16570400D02*
X80509040Y-18196000D01*
X80509040Y-18196000D02*
X81321840Y-18196000D01*
X163694040Y-75406960D02*
X163694040Y-76219760D01*
X162576440Y-76194360D02*
X162576440Y-75406960D01*
X162322440Y-76219760D02*
X163948040Y-76219760D01*
X163948040Y-76219760D02*
X163948040Y-75406960D01*
X163948040Y-75406960D02*
X162322440Y-75406960D01*
X162322440Y-75406960D02*
X162322440Y-76219760D01*
X19630320Y-96824240D02*
X19630320Y-96011440D01*
X20747920Y-96036840D02*
X20747920Y-96824240D01*
X21001920Y-96011440D02*
X19376320Y-96011440D01*
X19376320Y-96011440D02*
X19376320Y-96824240D01*
X19376320Y-96824240D02*
X21001920Y-96824240D01*
X21001920Y-96824240D02*
X21001920Y-96011440D01*
X133794243Y-28359301D02*
X134368979Y-28934037D01*
X133560756Y-29706339D02*
X133003981Y-29149563D01*
X133399112Y-29903905D02*
X134548585Y-28754432D01*
X134548585Y-28754432D02*
X133973848Y-28179695D01*
X133973848Y-28179695D02*
X132824375Y-29329168D01*
X132824375Y-29329168D02*
X133399112Y-29903905D01*
X101245600Y-159801000D02*
X100432800Y-159801000D01*
X100458200Y-158683400D02*
X101245600Y-158683400D01*
X100432800Y-158429400D02*
X100432800Y-160055000D01*
X100432800Y-160055000D02*
X101245600Y-160055000D01*
X101245600Y-160055000D02*
X101245600Y-158429400D01*
X101245600Y-158429400D02*
X100432800Y-158429400D01*
X47889277Y-145751499D02*
X47314541Y-145176763D01*
X48122764Y-144404461D02*
X48679539Y-144961237D01*
X48284408Y-144206895D02*
X47134935Y-145356368D01*
X47134935Y-145356368D02*
X47709672Y-145931105D01*
X47709672Y-145931105D02*
X48859145Y-144781632D01*
X48859145Y-144781632D02*
X48284408Y-144206895D01*
D11*
X90657440Y-20551600D02*
X90857440Y-20551600D01*
X90857440Y-20551600D02*
X90857440Y-16551600D01*
X90857440Y-16551600D02*
X90657440Y-16551600D01*
X82857440Y-16951600D02*
X82657440Y-16951600D01*
X82657440Y-16951600D02*
X82657440Y-16351600D01*
X82657440Y-16351600D02*
X82857440Y-16351600D01*
X82857440Y-18251600D02*
X82657440Y-18251600D01*
X82657440Y-18251600D02*
X82657440Y-17651600D01*
X82657440Y-17651600D02*
X82857440Y-17651600D01*
X82857440Y-19451600D02*
X82657440Y-19451600D01*
X82657440Y-19451600D02*
X82657440Y-18851600D01*
X82657440Y-18851600D02*
X82857440Y-18851600D01*
X82857440Y-20751600D02*
X82657440Y-20751600D01*
X82657440Y-20751600D02*
X82657440Y-20151600D01*
X82657440Y-20151600D02*
X82857440Y-20151600D01*
X90657440Y-21351600D02*
X90657440Y-15751600D01*
X90657440Y-15751600D02*
X82857440Y-15751600D01*
X82857440Y-15751600D02*
X82857440Y-21351600D01*
X82857440Y-21351600D02*
X90657440Y-21351600D01*
X159804280Y-86175120D02*
X159804280Y-86375120D01*
X159804280Y-86375120D02*
X163804280Y-86375120D01*
X163804280Y-86375120D02*
X163804280Y-86175120D01*
X163404280Y-78375120D02*
X163404280Y-78175120D01*
X163404280Y-78175120D02*
X164004280Y-78175120D01*
X164004280Y-78175120D02*
X164004280Y-78375120D01*
X162104280Y-78375120D02*
X162104280Y-78175120D01*
X162104280Y-78175120D02*
X162704280Y-78175120D01*
X162704280Y-78175120D02*
X162704280Y-78375120D01*
X160904280Y-78375120D02*
X160904280Y-78175120D01*
X160904280Y-78175120D02*
X161504280Y-78175120D01*
X161504280Y-78175120D02*
X161504280Y-78375120D01*
X159604280Y-78375120D02*
X159604280Y-78175120D01*
X159604280Y-78175120D02*
X160204280Y-78175120D01*
X160204280Y-78175120D02*
X160204280Y-78375120D01*
X159004280Y-86175120D02*
X164604280Y-86175120D01*
X164604280Y-86175120D02*
X164604280Y-78375120D01*
X164604280Y-78375120D02*
X159004280Y-78375120D01*
X159004280Y-78375120D02*
X159004280Y-86175120D01*
X23342280Y-86472640D02*
X23342280Y-86272640D01*
X23342280Y-86272640D02*
X19342280Y-86272640D01*
X19342280Y-86272640D02*
X19342280Y-86472640D01*
X19742280Y-94272640D02*
X19742280Y-94472640D01*
X19742280Y-94472640D02*
X19142280Y-94472640D01*
X19142280Y-94472640D02*
X19142280Y-94272640D01*
X21042280Y-94272640D02*
X21042280Y-94472640D01*
X21042280Y-94472640D02*
X20442280Y-94472640D01*
X20442280Y-94472640D02*
X20442280Y-94272640D01*
X22242280Y-94272640D02*
X22242280Y-94472640D01*
X22242280Y-94472640D02*
X21642280Y-94472640D01*
X21642280Y-94472640D02*
X21642280Y-94272640D01*
X23542280Y-94272640D02*
X23542280Y-94472640D01*
X23542280Y-94472640D02*
X22942280Y-94472640D01*
X22942280Y-94472640D02*
X22942280Y-94272640D01*
X24142280Y-86472640D02*
X18542280Y-86472640D01*
X18542280Y-86472640D02*
X18542280Y-94272640D01*
X18542280Y-94272640D02*
X24142280Y-94272640D01*
X24142280Y-94272640D02*
X24142280Y-86472640D01*
X138418343Y-38192130D02*
X138559764Y-38333551D01*
X138559764Y-38333551D02*
X141388191Y-35505124D01*
X141388191Y-35505124D02*
X141246770Y-35363703D01*
X135448494Y-30131113D02*
X135307073Y-29989691D01*
X135307073Y-29989691D02*
X135731337Y-29565427D01*
X135731337Y-29565427D02*
X135872758Y-29706849D01*
X134529256Y-31050352D02*
X134387834Y-30908930D01*
X134387834Y-30908930D02*
X134812098Y-30484666D01*
X134812098Y-30484666D02*
X134953520Y-30626087D01*
X133680727Y-31898880D02*
X133539306Y-31757458D01*
X133539306Y-31757458D02*
X133963570Y-31333194D01*
X133963570Y-31333194D02*
X134104992Y-31474616D01*
X132761489Y-32818118D02*
X132620067Y-32676697D01*
X132620067Y-32676697D02*
X133044331Y-32252433D01*
X133044331Y-32252433D02*
X133185753Y-32393854D01*
X137852657Y-38757815D02*
X141812455Y-34798017D01*
X141812455Y-34798017D02*
X136297023Y-29282585D01*
X136297023Y-29282585D02*
X132337225Y-33242383D01*
X132337225Y-33242383D02*
X137852657Y-38757815D01*
X91046400Y-155896000D02*
X90846400Y-155896000D01*
X90846400Y-155896000D02*
X90846400Y-159896000D01*
X90846400Y-159896000D02*
X91046400Y-159896000D01*
X98846400Y-159496000D02*
X99046400Y-159496000D01*
X99046400Y-159496000D02*
X99046400Y-160096000D01*
X99046400Y-160096000D02*
X98846400Y-160096000D01*
X98846400Y-158196000D02*
X99046400Y-158196000D01*
X99046400Y-158196000D02*
X99046400Y-158796000D01*
X99046400Y-158796000D02*
X98846400Y-158796000D01*
X98846400Y-156996000D02*
X99046400Y-156996000D01*
X99046400Y-156996000D02*
X99046400Y-157596000D01*
X99046400Y-157596000D02*
X98846400Y-157596000D01*
X98846400Y-155696000D02*
X99046400Y-155696000D01*
X99046400Y-155696000D02*
X99046400Y-156296000D01*
X99046400Y-156296000D02*
X98846400Y-156296000D01*
X91046400Y-155096000D02*
X91046400Y-160696000D01*
X91046400Y-160696000D02*
X98846400Y-160696000D01*
X98846400Y-160696000D02*
X98846400Y-155096000D01*
X98846400Y-155096000D02*
X91046400Y-155096000D01*
X43341377Y-135547830D02*
X43199956Y-135406409D01*
X43199956Y-135406409D02*
X40371529Y-138234836D01*
X40371529Y-138234836D02*
X40512950Y-138376257D01*
X46311226Y-143608847D02*
X46452647Y-143750269D01*
X46452647Y-143750269D02*
X46028383Y-144174533D01*
X46028383Y-144174533D02*
X45886962Y-144033111D01*
X47230464Y-142689608D02*
X47371886Y-142831030D01*
X47371886Y-142831030D02*
X46947622Y-143255294D01*
X46947622Y-143255294D02*
X46806200Y-143113873D01*
X48078993Y-141841080D02*
X48220414Y-141982502D01*
X48220414Y-141982502D02*
X47796150Y-142406766D01*
X47796150Y-142406766D02*
X47654728Y-142265344D01*
X48998231Y-140921842D02*
X49139653Y-141063263D01*
X49139653Y-141063263D02*
X48715389Y-141487527D01*
X48715389Y-141487527D02*
X48573967Y-141346106D01*
X43907063Y-134982145D02*
X39947265Y-138941943D01*
X39947265Y-138941943D02*
X45462697Y-144457375D01*
X45462697Y-144457375D02*
X49422495Y-140497577D01*
X49422495Y-140497577D02*
X43907063Y-134982145D01*
X96362723Y-28711363D02*
X96410342Y-28663744D01*
X96457961Y-28520887D01*
X96457961Y-28425649D01*
X96410342Y-28282791D01*
X96315104Y-28187553D01*
X96219866Y-28139934D01*
X96029390Y-28092315D01*
X95886532Y-28092315D01*
X95696056Y-28139934D01*
X95600818Y-28187553D01*
X95505580Y-28282791D01*
X95457961Y-28425649D01*
X95457961Y-28520887D01*
X95505580Y-28663744D01*
X95553199Y-28711363D01*
X95886532Y-29282791D02*
X95838913Y-29187553D01*
X95791294Y-29139934D01*
X95696056Y-29092315D01*
X95648437Y-29092315D01*
X95553199Y-29139934D01*
X95505580Y-29187553D01*
X95457961Y-29282791D01*
X95457961Y-29473268D01*
X95505580Y-29568506D01*
X95553199Y-29616125D01*
X95648437Y-29663744D01*
X95696056Y-29663744D01*
X95791294Y-29616125D01*
X95838913Y-29568506D01*
X95886532Y-29473268D01*
X95886532Y-29282791D01*
X95934151Y-29187553D01*
X95981770Y-29139934D01*
X96077009Y-29092315D01*
X96267485Y-29092315D01*
X96362723Y-29139934D01*
X96410342Y-29187553D01*
X96457961Y-29282791D01*
X96457961Y-29473268D01*
X96410342Y-29568506D01*
X96362723Y-29616125D01*
X96267485Y-29663744D01*
X96077009Y-29663744D01*
X95981770Y-29616125D01*
X95934151Y-29568506D01*
X95886532Y-29473268D01*
X95457961Y-30282791D02*
X95457961Y-30378030D01*
X95505580Y-30473268D01*
X95553199Y-30520887D01*
X95648437Y-30568506D01*
X95838913Y-30616125D01*
X96077009Y-30616125D01*
X96267485Y-30568506D01*
X96362723Y-30520887D01*
X96410342Y-30473268D01*
X96457961Y-30378030D01*
X96457961Y-30282791D01*
X96410342Y-30187553D01*
X96362723Y-30139934D01*
X96267485Y-30092315D01*
X96077009Y-30044696D01*
X95838913Y-30044696D01*
X95648437Y-30092315D01*
X95553199Y-30139934D01*
X95505580Y-30187553D01*
X95457961Y-30282791D01*
X138396759Y-120587483D02*
X138444378Y-120635102D01*
X138587235Y-120682721D01*
X138682473Y-120682721D01*
X138825331Y-120635102D01*
X138920569Y-120539864D01*
X138968188Y-120444626D01*
X139015807Y-120254150D01*
X139015807Y-120111292D01*
X138968188Y-119920816D01*
X138920569Y-119825578D01*
X138825331Y-119730340D01*
X138682473Y-119682721D01*
X138587235Y-119682721D01*
X138444378Y-119730340D01*
X138396759Y-119777959D01*
X137825331Y-120111292D02*
X137920569Y-120063673D01*
X137968188Y-120016054D01*
X138015807Y-119920816D01*
X138015807Y-119873197D01*
X137968188Y-119777959D01*
X137920569Y-119730340D01*
X137825331Y-119682721D01*
X137634854Y-119682721D01*
X137539616Y-119730340D01*
X137491997Y-119777959D01*
X137444378Y-119873197D01*
X137444378Y-119920816D01*
X137491997Y-120016054D01*
X137539616Y-120063673D01*
X137634854Y-120111292D01*
X137825331Y-120111292D01*
X137920569Y-120158911D01*
X137968188Y-120206530D01*
X138015807Y-120301769D01*
X138015807Y-120492245D01*
X137968188Y-120587483D01*
X137920569Y-120635102D01*
X137825331Y-120682721D01*
X137634854Y-120682721D01*
X137539616Y-120635102D01*
X137491997Y-120587483D01*
X137444378Y-120492245D01*
X137444378Y-120301769D01*
X137491997Y-120206530D01*
X137539616Y-120158911D01*
X137634854Y-120111292D01*
X137111045Y-119682721D02*
X136491997Y-119682721D01*
X136825331Y-120063673D01*
X136682473Y-120063673D01*
X136587235Y-120111292D01*
X136539616Y-120158911D01*
X136491997Y-120254150D01*
X136491997Y-120492245D01*
X136539616Y-120587483D01*
X136587235Y-120635102D01*
X136682473Y-120682721D01*
X136968188Y-120682721D01*
X137063426Y-120635102D01*
X137111045Y-120587483D01*
X38634837Y-114354323D02*
X38682456Y-114401942D01*
X38825313Y-114449561D01*
X38920551Y-114449561D01*
X39063409Y-114401942D01*
X39158647Y-114306704D01*
X39206266Y-114211466D01*
X39253885Y-114020990D01*
X39253885Y-113878132D01*
X39206266Y-113687656D01*
X39158647Y-113592418D01*
X39063409Y-113497180D01*
X38920551Y-113449561D01*
X38825313Y-113449561D01*
X38682456Y-113497180D01*
X38634837Y-113544799D01*
X38063409Y-113878132D02*
X38158647Y-113830513D01*
X38206266Y-113782894D01*
X38253885Y-113687656D01*
X38253885Y-113640037D01*
X38206266Y-113544799D01*
X38158647Y-113497180D01*
X38063409Y-113449561D01*
X37872932Y-113449561D01*
X37777694Y-113497180D01*
X37730075Y-113544799D01*
X37682456Y-113640037D01*
X37682456Y-113687656D01*
X37730075Y-113782894D01*
X37777694Y-113830513D01*
X37872932Y-113878132D01*
X38063409Y-113878132D01*
X38158647Y-113925751D01*
X38206266Y-113973370D01*
X38253885Y-114068609D01*
X38253885Y-114259085D01*
X38206266Y-114354323D01*
X38158647Y-114401942D01*
X38063409Y-114449561D01*
X37872932Y-114449561D01*
X37777694Y-114401942D01*
X37730075Y-114354323D01*
X37682456Y-114259085D01*
X37682456Y-114068609D01*
X37730075Y-113973370D01*
X37777694Y-113925751D01*
X37872932Y-113878132D01*
X37349123Y-113449561D02*
X36682456Y-113449561D01*
X37111028Y-114449561D01*
X111379203Y-33522123D02*
X111426822Y-33474504D01*
X111474441Y-33331647D01*
X111474441Y-33236409D01*
X111426822Y-33093551D01*
X111331584Y-32998313D01*
X111236346Y-32950694D01*
X111045870Y-32903075D01*
X110903012Y-32903075D01*
X110712536Y-32950694D01*
X110617298Y-32998313D01*
X110522060Y-33093551D01*
X110474441Y-33236409D01*
X110474441Y-33331647D01*
X110522060Y-33474504D01*
X110569679Y-33522123D01*
X110903012Y-34093551D02*
X110855393Y-33998313D01*
X110807774Y-33950694D01*
X110712536Y-33903075D01*
X110664917Y-33903075D01*
X110569679Y-33950694D01*
X110522060Y-33998313D01*
X110474441Y-34093551D01*
X110474441Y-34284028D01*
X110522060Y-34379266D01*
X110569679Y-34426885D01*
X110664917Y-34474504D01*
X110712536Y-34474504D01*
X110807774Y-34426885D01*
X110855393Y-34379266D01*
X110903012Y-34284028D01*
X110903012Y-34093551D01*
X110950631Y-33998313D01*
X110998250Y-33950694D01*
X111093489Y-33903075D01*
X111283965Y-33903075D01*
X111379203Y-33950694D01*
X111426822Y-33998313D01*
X111474441Y-34093551D01*
X111474441Y-34284028D01*
X111426822Y-34379266D01*
X111379203Y-34426885D01*
X111283965Y-34474504D01*
X111093489Y-34474504D01*
X110998250Y-34426885D01*
X110950631Y-34379266D01*
X110903012Y-34284028D01*
X110903012Y-35045932D02*
X110855393Y-34950694D01*
X110807774Y-34903075D01*
X110712536Y-34855456D01*
X110664917Y-34855456D01*
X110569679Y-34903075D01*
X110522060Y-34950694D01*
X110474441Y-35045932D01*
X110474441Y-35236409D01*
X110522060Y-35331647D01*
X110569679Y-35379266D01*
X110664917Y-35426885D01*
X110712536Y-35426885D01*
X110807774Y-35379266D01*
X110855393Y-35331647D01*
X110903012Y-35236409D01*
X110903012Y-35045932D01*
X110950631Y-34950694D01*
X110998250Y-34903075D01*
X111093489Y-34855456D01*
X111283965Y-34855456D01*
X111379203Y-34903075D01*
X111426822Y-34950694D01*
X111474441Y-35045932D01*
X111474441Y-35236409D01*
X111426822Y-35331647D01*
X111379203Y-35379266D01*
X111283965Y-35426885D01*
X111093489Y-35426885D01*
X110998250Y-35379266D01*
X110950631Y-35331647D01*
X110903012Y-35236409D01*
X131384243Y-132866603D02*
X131431862Y-132818984D01*
X131479481Y-132676127D01*
X131479481Y-132580889D01*
X131431862Y-132438031D01*
X131336624Y-132342793D01*
X131241386Y-132295174D01*
X131050910Y-132247555D01*
X130908052Y-132247555D01*
X130717576Y-132295174D01*
X130622338Y-132342793D01*
X130527100Y-132438031D01*
X130479481Y-132580889D01*
X130479481Y-132676127D01*
X130527100Y-132818984D01*
X130574719Y-132866603D01*
X130908052Y-133438031D02*
X130860433Y-133342793D01*
X130812814Y-133295174D01*
X130717576Y-133247555D01*
X130669957Y-133247555D01*
X130574719Y-133295174D01*
X130527100Y-133342793D01*
X130479481Y-133438031D01*
X130479481Y-133628508D01*
X130527100Y-133723746D01*
X130574719Y-133771365D01*
X130669957Y-133818984D01*
X130717576Y-133818984D01*
X130812814Y-133771365D01*
X130860433Y-133723746D01*
X130908052Y-133628508D01*
X130908052Y-133438031D01*
X130955671Y-133342793D01*
X131003290Y-133295174D01*
X131098529Y-133247555D01*
X131289005Y-133247555D01*
X131384243Y-133295174D01*
X131431862Y-133342793D01*
X131479481Y-133438031D01*
X131479481Y-133628508D01*
X131431862Y-133723746D01*
X131384243Y-133771365D01*
X131289005Y-133818984D01*
X131098529Y-133818984D01*
X131003290Y-133771365D01*
X130955671Y-133723746D01*
X130908052Y-133628508D01*
X131479481Y-134295174D02*
X131479481Y-134485650D01*
X131431862Y-134580889D01*
X131384243Y-134628508D01*
X131241386Y-134723746D01*
X131050910Y-134771365D01*
X130669957Y-134771365D01*
X130574719Y-134723746D01*
X130527100Y-134676127D01*
X130479481Y-134580889D01*
X130479481Y-134390412D01*
X130527100Y-134295174D01*
X130574719Y-134247555D01*
X130669957Y-134199936D01*
X130908052Y-134199936D01*
X131003290Y-134247555D01*
X131050910Y-134295174D01*
X131098529Y-134390412D01*
X131098529Y-134580889D01*
X131050910Y-134676127D01*
X131003290Y-134723746D01*
X130908052Y-134771365D01*
X34164437Y-100384323D02*
X34212056Y-100431942D01*
X34354913Y-100479561D01*
X34450151Y-100479561D01*
X34593009Y-100431942D01*
X34688247Y-100336704D01*
X34735866Y-100241466D01*
X34783485Y-100050990D01*
X34783485Y-99908132D01*
X34735866Y-99717656D01*
X34688247Y-99622418D01*
X34593009Y-99527180D01*
X34450151Y-99479561D01*
X34354913Y-99479561D01*
X34212056Y-99527180D01*
X34164437Y-99574799D01*
X33688247Y-100479561D02*
X33497771Y-100479561D01*
X33402532Y-100431942D01*
X33354913Y-100384323D01*
X33259675Y-100241466D01*
X33212056Y-100050990D01*
X33212056Y-99670037D01*
X33259675Y-99574799D01*
X33307294Y-99527180D01*
X33402532Y-99479561D01*
X33593009Y-99479561D01*
X33688247Y-99527180D01*
X33735866Y-99574799D01*
X33783485Y-99670037D01*
X33783485Y-99908132D01*
X33735866Y-100003370D01*
X33688247Y-100050990D01*
X33593009Y-100098609D01*
X33402532Y-100098609D01*
X33307294Y-100050990D01*
X33259675Y-100003370D01*
X33212056Y-99908132D01*
X32593009Y-99479561D02*
X32497770Y-99479561D01*
X32402532Y-99527180D01*
X32354913Y-99574799D01*
X32307294Y-99670037D01*
X32259675Y-99860513D01*
X32259675Y-100098609D01*
X32307294Y-100289085D01*
X32354913Y-100384323D01*
X32402532Y-100431942D01*
X32497770Y-100479561D01*
X32593009Y-100479561D01*
X32688247Y-100431942D01*
X32735866Y-100384323D01*
X32783485Y-100289085D01*
X32831104Y-100098609D01*
X32831104Y-99860513D01*
X32783485Y-99670037D01*
X32735866Y-99574799D01*
X32688247Y-99527180D01*
X32593009Y-99479561D01*
X124653243Y-41086243D02*
X124700862Y-41038624D01*
X124748481Y-40895767D01*
X124748481Y-40800529D01*
X124700862Y-40657671D01*
X124605624Y-40562433D01*
X124510386Y-40514814D01*
X124319910Y-40467195D01*
X124177052Y-40467195D01*
X123986576Y-40514814D01*
X123891338Y-40562433D01*
X123796100Y-40657671D01*
X123748481Y-40800529D01*
X123748481Y-40895767D01*
X123796100Y-41038624D01*
X123843719Y-41086243D01*
X124748481Y-41562433D02*
X124748481Y-41752909D01*
X124700862Y-41848148D01*
X124653243Y-41895767D01*
X124510386Y-41991005D01*
X124319910Y-42038624D01*
X123938957Y-42038624D01*
X123843719Y-41991005D01*
X123796100Y-41943386D01*
X123748481Y-41848148D01*
X123748481Y-41657671D01*
X123796100Y-41562433D01*
X123843719Y-41514814D01*
X123938957Y-41467195D01*
X124177052Y-41467195D01*
X124272290Y-41514814D01*
X124319910Y-41562433D01*
X124367529Y-41657671D01*
X124367529Y-41848148D01*
X124319910Y-41943386D01*
X124272290Y-41991005D01*
X124177052Y-42038624D01*
X124748481Y-42991005D02*
X124748481Y-42419576D01*
X124748481Y-42705290D02*
X123748481Y-42705290D01*
X123891338Y-42610052D01*
X123986576Y-42514814D01*
X124034195Y-42419576D01*
X117937483Y-140832043D02*
X117985102Y-140784424D01*
X118032721Y-140641567D01*
X118032721Y-140546329D01*
X117985102Y-140403471D01*
X117889864Y-140308233D01*
X117794626Y-140260614D01*
X117604150Y-140212995D01*
X117461292Y-140212995D01*
X117270816Y-140260614D01*
X117175578Y-140308233D01*
X117080340Y-140403471D01*
X117032721Y-140546329D01*
X117032721Y-140641567D01*
X117080340Y-140784424D01*
X117127959Y-140832043D01*
X118032721Y-141308233D02*
X118032721Y-141498709D01*
X117985102Y-141593948D01*
X117937483Y-141641567D01*
X117794626Y-141736805D01*
X117604150Y-141784424D01*
X117223197Y-141784424D01*
X117127959Y-141736805D01*
X117080340Y-141689186D01*
X117032721Y-141593948D01*
X117032721Y-141403471D01*
X117080340Y-141308233D01*
X117127959Y-141260614D01*
X117223197Y-141212995D01*
X117461292Y-141212995D01*
X117556530Y-141260614D01*
X117604150Y-141308233D01*
X117651769Y-141403471D01*
X117651769Y-141593948D01*
X117604150Y-141689186D01*
X117556530Y-141736805D01*
X117461292Y-141784424D01*
X117127959Y-142165376D02*
X117080340Y-142212995D01*
X117032721Y-142308233D01*
X117032721Y-142546329D01*
X117080340Y-142641567D01*
X117127959Y-142689186D01*
X117223197Y-142736805D01*
X117318435Y-142736805D01*
X117461292Y-142689186D01*
X118032721Y-142117757D01*
X118032721Y-142736805D01*
X33605637Y-84174043D02*
X33653256Y-84221662D01*
X33796113Y-84269281D01*
X33891351Y-84269281D01*
X34034209Y-84221662D01*
X34129447Y-84126424D01*
X34177066Y-84031186D01*
X34224685Y-83840710D01*
X34224685Y-83697852D01*
X34177066Y-83507376D01*
X34129447Y-83412138D01*
X34034209Y-83316900D01*
X33891351Y-83269281D01*
X33796113Y-83269281D01*
X33653256Y-83316900D01*
X33605637Y-83364519D01*
X33129447Y-84269281D02*
X32938971Y-84269281D01*
X32843732Y-84221662D01*
X32796113Y-84174043D01*
X32700875Y-84031186D01*
X32653256Y-83840710D01*
X32653256Y-83459757D01*
X32700875Y-83364519D01*
X32748494Y-83316900D01*
X32843732Y-83269281D01*
X33034209Y-83269281D01*
X33129447Y-83316900D01*
X33177066Y-83364519D01*
X33224685Y-83459757D01*
X33224685Y-83697852D01*
X33177066Y-83793090D01*
X33129447Y-83840710D01*
X33034209Y-83888329D01*
X32843732Y-83888329D01*
X32748494Y-83840710D01*
X32700875Y-83793090D01*
X32653256Y-83697852D01*
X32319923Y-83269281D02*
X31700875Y-83269281D01*
X32034209Y-83650233D01*
X31891351Y-83650233D01*
X31796113Y-83697852D01*
X31748494Y-83745471D01*
X31700875Y-83840710D01*
X31700875Y-84078805D01*
X31748494Y-84174043D01*
X31796113Y-84221662D01*
X31891351Y-84269281D01*
X32177066Y-84269281D01*
X32272304Y-84221662D01*
X32319923Y-84174043D01*
X134716723Y-53542403D02*
X134764342Y-53494784D01*
X134811961Y-53351927D01*
X134811961Y-53256689D01*
X134764342Y-53113831D01*
X134669104Y-53018593D01*
X134573866Y-52970974D01*
X134383390Y-52923355D01*
X134240532Y-52923355D01*
X134050056Y-52970974D01*
X133954818Y-53018593D01*
X133859580Y-53113831D01*
X133811961Y-53256689D01*
X133811961Y-53351927D01*
X133859580Y-53494784D01*
X133907199Y-53542403D01*
X134811961Y-54018593D02*
X134811961Y-54209069D01*
X134764342Y-54304308D01*
X134716723Y-54351927D01*
X134573866Y-54447165D01*
X134383390Y-54494784D01*
X134002437Y-54494784D01*
X133907199Y-54447165D01*
X133859580Y-54399546D01*
X133811961Y-54304308D01*
X133811961Y-54113831D01*
X133859580Y-54018593D01*
X133907199Y-53970974D01*
X134002437Y-53923355D01*
X134240532Y-53923355D01*
X134335770Y-53970974D01*
X134383390Y-54018593D01*
X134431009Y-54113831D01*
X134431009Y-54304308D01*
X134383390Y-54399546D01*
X134335770Y-54447165D01*
X134240532Y-54494784D01*
X134145294Y-55351927D02*
X134811961Y-55351927D01*
X133764342Y-55113831D02*
X134478628Y-54875736D01*
X134478628Y-55494784D01*
X103586483Y-144896043D02*
X103634102Y-144848424D01*
X103681721Y-144705567D01*
X103681721Y-144610329D01*
X103634102Y-144467471D01*
X103538864Y-144372233D01*
X103443626Y-144324614D01*
X103253150Y-144276995D01*
X103110292Y-144276995D01*
X102919816Y-144324614D01*
X102824578Y-144372233D01*
X102729340Y-144467471D01*
X102681721Y-144610329D01*
X102681721Y-144705567D01*
X102729340Y-144848424D01*
X102776959Y-144896043D01*
X103681721Y-145372233D02*
X103681721Y-145562709D01*
X103634102Y-145657948D01*
X103586483Y-145705567D01*
X103443626Y-145800805D01*
X103253150Y-145848424D01*
X102872197Y-145848424D01*
X102776959Y-145800805D01*
X102729340Y-145753186D01*
X102681721Y-145657948D01*
X102681721Y-145467471D01*
X102729340Y-145372233D01*
X102776959Y-145324614D01*
X102872197Y-145276995D01*
X103110292Y-145276995D01*
X103205530Y-145324614D01*
X103253150Y-145372233D01*
X103300769Y-145467471D01*
X103300769Y-145657948D01*
X103253150Y-145753186D01*
X103205530Y-145800805D01*
X103110292Y-145848424D01*
X102681721Y-146753186D02*
X102681721Y-146276995D01*
X103157911Y-146229376D01*
X103110292Y-146276995D01*
X103062673Y-146372233D01*
X103062673Y-146610329D01*
X103110292Y-146705567D01*
X103157911Y-146753186D01*
X103253150Y-146800805D01*
X103491245Y-146800805D01*
X103586483Y-146753186D01*
X103634102Y-146705567D01*
X103681721Y-146610329D01*
X103681721Y-146372233D01*
X103634102Y-146276995D01*
X103586483Y-146229376D01*
X37745837Y-69706203D02*
X37793456Y-69753822D01*
X37936313Y-69801441D01*
X38031551Y-69801441D01*
X38174409Y-69753822D01*
X38269647Y-69658584D01*
X38317266Y-69563346D01*
X38364885Y-69372870D01*
X38364885Y-69230012D01*
X38317266Y-69039536D01*
X38269647Y-68944298D01*
X38174409Y-68849060D01*
X38031551Y-68801441D01*
X37936313Y-68801441D01*
X37793456Y-68849060D01*
X37745837Y-68896679D01*
X37269647Y-69801441D02*
X37079171Y-69801441D01*
X36983932Y-69753822D01*
X36936313Y-69706203D01*
X36841075Y-69563346D01*
X36793456Y-69372870D01*
X36793456Y-68991917D01*
X36841075Y-68896679D01*
X36888694Y-68849060D01*
X36983932Y-68801441D01*
X37174409Y-68801441D01*
X37269647Y-68849060D01*
X37317266Y-68896679D01*
X37364885Y-68991917D01*
X37364885Y-69230012D01*
X37317266Y-69325250D01*
X37269647Y-69372870D01*
X37174409Y-69420489D01*
X36983932Y-69420489D01*
X36888694Y-69372870D01*
X36841075Y-69325250D01*
X36793456Y-69230012D01*
X35936313Y-68801441D02*
X36126790Y-68801441D01*
X36222028Y-68849060D01*
X36269647Y-68896679D01*
X36364885Y-69039536D01*
X36412504Y-69230012D01*
X36412504Y-69610965D01*
X36364885Y-69706203D01*
X36317266Y-69753822D01*
X36222028Y-69801441D01*
X36031551Y-69801441D01*
X35936313Y-69753822D01*
X35888694Y-69706203D01*
X35841075Y-69610965D01*
X35841075Y-69372870D01*
X35888694Y-69277631D01*
X35936313Y-69230012D01*
X36031551Y-69182393D01*
X36222028Y-69182393D01*
X36317266Y-69230012D01*
X36364885Y-69277631D01*
X36412504Y-69372870D01*
X146925197Y-62385923D02*
X146972816Y-62433542D01*
X147115673Y-62481161D01*
X147210911Y-62481161D01*
X147353769Y-62433542D01*
X147449007Y-62338304D01*
X147496626Y-62243066D01*
X147544245Y-62052590D01*
X147544245Y-61909732D01*
X147496626Y-61719256D01*
X147449007Y-61624018D01*
X147353769Y-61528780D01*
X147210911Y-61481161D01*
X147115673Y-61481161D01*
X146972816Y-61528780D01*
X146925197Y-61576399D01*
X146449007Y-62481161D02*
X146258531Y-62481161D01*
X146163292Y-62433542D01*
X146115673Y-62385923D01*
X146020435Y-62243066D01*
X145972816Y-62052590D01*
X145972816Y-61671637D01*
X146020435Y-61576399D01*
X146068054Y-61528780D01*
X146163292Y-61481161D01*
X146353769Y-61481161D01*
X146449007Y-61528780D01*
X146496626Y-61576399D01*
X146544245Y-61671637D01*
X146544245Y-61909732D01*
X146496626Y-62004970D01*
X146449007Y-62052590D01*
X146353769Y-62100209D01*
X146163292Y-62100209D01*
X146068054Y-62052590D01*
X146020435Y-62004970D01*
X145972816Y-61909732D01*
X145639483Y-61481161D02*
X144972816Y-61481161D01*
X145401388Y-62481161D01*
X87477803Y-144774123D02*
X87525422Y-144726504D01*
X87573041Y-144583647D01*
X87573041Y-144488409D01*
X87525422Y-144345551D01*
X87430184Y-144250313D01*
X87334946Y-144202694D01*
X87144470Y-144155075D01*
X87001612Y-144155075D01*
X86811136Y-144202694D01*
X86715898Y-144250313D01*
X86620660Y-144345551D01*
X86573041Y-144488409D01*
X86573041Y-144583647D01*
X86620660Y-144726504D01*
X86668279Y-144774123D01*
X87573041Y-145250313D02*
X87573041Y-145440789D01*
X87525422Y-145536028D01*
X87477803Y-145583647D01*
X87334946Y-145678885D01*
X87144470Y-145726504D01*
X86763517Y-145726504D01*
X86668279Y-145678885D01*
X86620660Y-145631266D01*
X86573041Y-145536028D01*
X86573041Y-145345551D01*
X86620660Y-145250313D01*
X86668279Y-145202694D01*
X86763517Y-145155075D01*
X87001612Y-145155075D01*
X87096850Y-145202694D01*
X87144470Y-145250313D01*
X87192089Y-145345551D01*
X87192089Y-145536028D01*
X87144470Y-145631266D01*
X87096850Y-145678885D01*
X87001612Y-145726504D01*
X87001612Y-146297932D02*
X86953993Y-146202694D01*
X86906374Y-146155075D01*
X86811136Y-146107456D01*
X86763517Y-146107456D01*
X86668279Y-146155075D01*
X86620660Y-146202694D01*
X86573041Y-146297932D01*
X86573041Y-146488409D01*
X86620660Y-146583647D01*
X86668279Y-146631266D01*
X86763517Y-146678885D01*
X86811136Y-146678885D01*
X86906374Y-146631266D01*
X86953993Y-146583647D01*
X87001612Y-146488409D01*
X87001612Y-146297932D01*
X87049231Y-146202694D01*
X87096850Y-146155075D01*
X87192089Y-146107456D01*
X87382565Y-146107456D01*
X87477803Y-146155075D01*
X87525422Y-146202694D01*
X87573041Y-146297932D01*
X87573041Y-146488409D01*
X87525422Y-146583647D01*
X87477803Y-146631266D01*
X87382565Y-146678885D01*
X87192089Y-146678885D01*
X87096850Y-146631266D01*
X87049231Y-146583647D01*
X87001612Y-146488409D01*
X45218517Y-56569323D02*
X45266136Y-56616942D01*
X45408993Y-56664561D01*
X45504231Y-56664561D01*
X45647089Y-56616942D01*
X45742327Y-56521704D01*
X45789946Y-56426466D01*
X45837565Y-56235990D01*
X45837565Y-56093132D01*
X45789946Y-55902656D01*
X45742327Y-55807418D01*
X45647089Y-55712180D01*
X45504231Y-55664561D01*
X45408993Y-55664561D01*
X45266136Y-55712180D01*
X45218517Y-55759799D01*
X44742327Y-56664561D02*
X44551851Y-56664561D01*
X44456612Y-56616942D01*
X44408993Y-56569323D01*
X44313755Y-56426466D01*
X44266136Y-56235990D01*
X44266136Y-55855037D01*
X44313755Y-55759799D01*
X44361374Y-55712180D01*
X44456612Y-55664561D01*
X44647089Y-55664561D01*
X44742327Y-55712180D01*
X44789946Y-55759799D01*
X44837565Y-55855037D01*
X44837565Y-56093132D01*
X44789946Y-56188370D01*
X44742327Y-56235990D01*
X44647089Y-56283609D01*
X44456612Y-56283609D01*
X44361374Y-56235990D01*
X44313755Y-56188370D01*
X44266136Y-56093132D01*
X43789946Y-56664561D02*
X43599470Y-56664561D01*
X43504231Y-56616942D01*
X43456612Y-56569323D01*
X43361374Y-56426466D01*
X43313755Y-56235990D01*
X43313755Y-55855037D01*
X43361374Y-55759799D01*
X43408993Y-55712180D01*
X43504231Y-55664561D01*
X43694708Y-55664561D01*
X43789946Y-55712180D01*
X43837565Y-55759799D01*
X43885184Y-55855037D01*
X43885184Y-56093132D01*
X43837565Y-56188370D01*
X43789946Y-56235990D01*
X43694708Y-56283609D01*
X43504231Y-56283609D01*
X43408993Y-56235990D01*
X43361374Y-56188370D01*
X43313755Y-56093132D01*
X151826067Y-77214443D02*
X151873686Y-77262062D01*
X152016543Y-77309681D01*
X152111781Y-77309681D01*
X152254639Y-77262062D01*
X152349877Y-77166824D01*
X152397496Y-77071586D01*
X152445115Y-76881110D01*
X152445115Y-76738252D01*
X152397496Y-76547776D01*
X152349877Y-76452538D01*
X152254639Y-76357300D01*
X152111781Y-76309681D01*
X152016543Y-76309681D01*
X151873686Y-76357300D01*
X151826067Y-76404919D01*
X150873686Y-77309681D02*
X151445115Y-77309681D01*
X151159401Y-77309681D02*
X151159401Y-76309681D01*
X151254639Y-76452538D01*
X151349877Y-76547776D01*
X151445115Y-76595395D01*
X150254639Y-76309681D02*
X150159400Y-76309681D01*
X150064162Y-76357300D01*
X150016543Y-76404919D01*
X149968924Y-76500157D01*
X149921305Y-76690633D01*
X149921305Y-76928729D01*
X149968924Y-77119205D01*
X150016543Y-77214443D01*
X150064162Y-77262062D01*
X150159400Y-77309681D01*
X150254639Y-77309681D01*
X150349877Y-77262062D01*
X150397496Y-77214443D01*
X150445115Y-77119205D01*
X150492734Y-76928729D01*
X150492734Y-76690633D01*
X150445115Y-76500157D01*
X150397496Y-76404919D01*
X150349877Y-76357300D01*
X150254639Y-76309681D01*
X149302258Y-76309681D02*
X149207019Y-76309681D01*
X149111781Y-76357300D01*
X149064162Y-76404919D01*
X149016543Y-76500157D01*
X148968924Y-76690633D01*
X148968924Y-76928729D01*
X149016543Y-77119205D01*
X149064162Y-77214443D01*
X149111781Y-77262062D01*
X149207019Y-77309681D01*
X149302258Y-77309681D01*
X149397496Y-77262062D01*
X149445115Y-77214443D01*
X149492734Y-77119205D01*
X149540353Y-76928729D01*
X149540353Y-76690633D01*
X149492734Y-76500157D01*
X149445115Y-76404919D01*
X149397496Y-76357300D01*
X149302258Y-76309681D01*
X72949003Y-140106933D02*
X72996622Y-140059314D01*
X73044241Y-139916457D01*
X73044241Y-139821219D01*
X72996622Y-139678361D01*
X72901384Y-139583123D01*
X72806146Y-139535504D01*
X72615670Y-139487885D01*
X72472812Y-139487885D01*
X72282336Y-139535504D01*
X72187098Y-139583123D01*
X72091860Y-139678361D01*
X72044241Y-139821219D01*
X72044241Y-139916457D01*
X72091860Y-140059314D01*
X72139479Y-140106933D01*
X73044241Y-141059314D02*
X73044241Y-140487885D01*
X73044241Y-140773599D02*
X72044241Y-140773599D01*
X72187098Y-140678361D01*
X72282336Y-140583123D01*
X72329955Y-140487885D01*
X72044241Y-141678361D02*
X72044241Y-141773600D01*
X72091860Y-141868838D01*
X72139479Y-141916457D01*
X72234717Y-141964076D01*
X72425193Y-142011695D01*
X72663289Y-142011695D01*
X72853765Y-141964076D01*
X72949003Y-141916457D01*
X72996622Y-141868838D01*
X73044241Y-141773600D01*
X73044241Y-141678361D01*
X72996622Y-141583123D01*
X72949003Y-141535504D01*
X72853765Y-141487885D01*
X72663289Y-141440266D01*
X72425193Y-141440266D01*
X72234717Y-141487885D01*
X72139479Y-141535504D01*
X72091860Y-141583123D01*
X72044241Y-141678361D01*
X73044241Y-142964076D02*
X73044241Y-142392647D01*
X73044241Y-142678361D02*
X72044241Y-142678361D01*
X72187098Y-142583123D01*
X72282336Y-142487885D01*
X72329955Y-142392647D01*
X53324963Y-41444055D02*
X53372582Y-41396436D01*
X53420201Y-41253579D01*
X53420201Y-41158341D01*
X53372582Y-41015483D01*
X53277344Y-40920245D01*
X53182106Y-40872626D01*
X52991630Y-40825007D01*
X52848772Y-40825007D01*
X52658296Y-40872626D01*
X52563058Y-40920245D01*
X52467820Y-41015483D01*
X52420201Y-41158341D01*
X52420201Y-41253579D01*
X52467820Y-41396436D01*
X52515439Y-41444055D01*
X53420201Y-42396436D02*
X53420201Y-41825007D01*
X53420201Y-42110721D02*
X52420201Y-42110721D01*
X52563058Y-42015483D01*
X52658296Y-41920245D01*
X52705915Y-41825007D01*
X52420201Y-43015483D02*
X52420201Y-43110722D01*
X52467820Y-43205960D01*
X52515439Y-43253579D01*
X52610677Y-43301198D01*
X52801153Y-43348817D01*
X53039249Y-43348817D01*
X53229725Y-43301198D01*
X53324963Y-43253579D01*
X53372582Y-43205960D01*
X53420201Y-43110722D01*
X53420201Y-43015483D01*
X53372582Y-42920245D01*
X53324963Y-42872626D01*
X53229725Y-42825007D01*
X53039249Y-42777388D01*
X52801153Y-42777388D01*
X52610677Y-42825007D01*
X52515439Y-42872626D01*
X52467820Y-42920245D01*
X52420201Y-43015483D01*
X52515439Y-43729769D02*
X52467820Y-43777388D01*
X52420201Y-43872626D01*
X52420201Y-44110722D01*
X52467820Y-44205960D01*
X52515439Y-44253579D01*
X52610677Y-44301198D01*
X52705915Y-44301198D01*
X52848772Y-44253579D01*
X53420201Y-43682150D01*
X53420201Y-44301198D01*
X151771069Y-92556043D02*
X151818688Y-92603662D01*
X151961545Y-92651281D01*
X152056783Y-92651281D01*
X152199641Y-92603662D01*
X152294879Y-92508424D01*
X152342498Y-92413186D01*
X152390117Y-92222710D01*
X152390117Y-92079852D01*
X152342498Y-91889376D01*
X152294879Y-91794138D01*
X152199641Y-91698900D01*
X152056783Y-91651281D01*
X151961545Y-91651281D01*
X151818688Y-91698900D01*
X151771069Y-91746519D01*
X150818688Y-92651281D02*
X151390117Y-92651281D01*
X151104403Y-92651281D02*
X151104403Y-91651281D01*
X151199641Y-91794138D01*
X151294879Y-91889376D01*
X151390117Y-91936995D01*
X150199641Y-91651281D02*
X150104402Y-91651281D01*
X150009164Y-91698900D01*
X149961545Y-91746519D01*
X149913926Y-91841757D01*
X149866307Y-92032233D01*
X149866307Y-92270329D01*
X149913926Y-92460805D01*
X149961545Y-92556043D01*
X150009164Y-92603662D01*
X150104402Y-92651281D01*
X150199641Y-92651281D01*
X150294879Y-92603662D01*
X150342498Y-92556043D01*
X150390117Y-92460805D01*
X150437736Y-92270329D01*
X150437736Y-92032233D01*
X150390117Y-91841757D01*
X150342498Y-91746519D01*
X150294879Y-91698900D01*
X150199641Y-91651281D01*
X149532974Y-91651281D02*
X148913926Y-91651281D01*
X149247260Y-92032233D01*
X149104402Y-92032233D01*
X149009164Y-92079852D01*
X148961545Y-92127471D01*
X148913926Y-92222710D01*
X148913926Y-92460805D01*
X148961545Y-92556043D01*
X149009164Y-92603662D01*
X149104402Y-92651281D01*
X149390117Y-92651281D01*
X149485355Y-92603662D01*
X149532974Y-92556043D01*
X59537803Y-132004333D02*
X59585422Y-131956714D01*
X59633041Y-131813857D01*
X59633041Y-131718619D01*
X59585422Y-131575761D01*
X59490184Y-131480523D01*
X59394946Y-131432904D01*
X59204470Y-131385285D01*
X59061612Y-131385285D01*
X58871136Y-131432904D01*
X58775898Y-131480523D01*
X58680660Y-131575761D01*
X58633041Y-131718619D01*
X58633041Y-131813857D01*
X58680660Y-131956714D01*
X58728279Y-132004333D01*
X59633041Y-132956714D02*
X59633041Y-132385285D01*
X59633041Y-132670999D02*
X58633041Y-132670999D01*
X58775898Y-132575761D01*
X58871136Y-132480523D01*
X58918755Y-132385285D01*
X58633041Y-133575761D02*
X58633041Y-133671000D01*
X58680660Y-133766238D01*
X58728279Y-133813857D01*
X58823517Y-133861476D01*
X59013993Y-133909095D01*
X59252089Y-133909095D01*
X59442565Y-133861476D01*
X59537803Y-133813857D01*
X59585422Y-133766238D01*
X59633041Y-133671000D01*
X59633041Y-133575761D01*
X59585422Y-133480523D01*
X59537803Y-133432904D01*
X59442565Y-133385285D01*
X59252089Y-133337666D01*
X59013993Y-133337666D01*
X58823517Y-133385285D01*
X58728279Y-133432904D01*
X58680660Y-133480523D01*
X58633041Y-133575761D01*
X58966374Y-134766238D02*
X59633041Y-134766238D01*
X58585422Y-134528142D02*
X59299708Y-134290047D01*
X59299708Y-134909095D01*
X66400883Y-34159335D02*
X66448502Y-34111716D01*
X66496121Y-33968859D01*
X66496121Y-33873621D01*
X66448502Y-33730763D01*
X66353264Y-33635525D01*
X66258026Y-33587906D01*
X66067550Y-33540287D01*
X65924692Y-33540287D01*
X65734216Y-33587906D01*
X65638978Y-33635525D01*
X65543740Y-33730763D01*
X65496121Y-33873621D01*
X65496121Y-33968859D01*
X65543740Y-34111716D01*
X65591359Y-34159335D01*
X66496121Y-35111716D02*
X66496121Y-34540287D01*
X66496121Y-34826001D02*
X65496121Y-34826001D01*
X65638978Y-34730763D01*
X65734216Y-34635525D01*
X65781835Y-34540287D01*
X65496121Y-35730763D02*
X65496121Y-35826002D01*
X65543740Y-35921240D01*
X65591359Y-35968859D01*
X65686597Y-36016478D01*
X65877073Y-36064097D01*
X66115169Y-36064097D01*
X66305645Y-36016478D01*
X66400883Y-35968859D01*
X66448502Y-35921240D01*
X66496121Y-35826002D01*
X66496121Y-35730763D01*
X66448502Y-35635525D01*
X66400883Y-35587906D01*
X66305645Y-35540287D01*
X66115169Y-35492668D01*
X65877073Y-35492668D01*
X65686597Y-35540287D01*
X65591359Y-35587906D01*
X65543740Y-35635525D01*
X65496121Y-35730763D01*
X65496121Y-36968859D02*
X65496121Y-36492668D01*
X65972311Y-36445049D01*
X65924692Y-36492668D01*
X65877073Y-36587906D01*
X65877073Y-36826002D01*
X65924692Y-36921240D01*
X65972311Y-36968859D01*
X66067550Y-37016478D01*
X66305645Y-37016478D01*
X66400883Y-36968859D01*
X66448502Y-36921240D01*
X66496121Y-36826002D01*
X66496121Y-36587906D01*
X66448502Y-36492668D01*
X66400883Y-36445049D01*
X146569149Y-107547123D02*
X146616768Y-107594742D01*
X146759625Y-107642361D01*
X146854863Y-107642361D01*
X146997721Y-107594742D01*
X147092959Y-107499504D01*
X147140578Y-107404266D01*
X147188197Y-107213790D01*
X147188197Y-107070932D01*
X147140578Y-106880456D01*
X147092959Y-106785218D01*
X146997721Y-106689980D01*
X146854863Y-106642361D01*
X146759625Y-106642361D01*
X146616768Y-106689980D01*
X146569149Y-106737599D01*
X145616768Y-107642361D02*
X146188197Y-107642361D01*
X145902483Y-107642361D02*
X145902483Y-106642361D01*
X145997721Y-106785218D01*
X146092959Y-106880456D01*
X146188197Y-106928075D01*
X144997721Y-106642361D02*
X144902482Y-106642361D01*
X144807244Y-106689980D01*
X144759625Y-106737599D01*
X144712006Y-106832837D01*
X144664387Y-107023313D01*
X144664387Y-107261409D01*
X144712006Y-107451885D01*
X144759625Y-107547123D01*
X144807244Y-107594742D01*
X144902482Y-107642361D01*
X144997721Y-107642361D01*
X145092959Y-107594742D01*
X145140578Y-107547123D01*
X145188197Y-107451885D01*
X145235816Y-107261409D01*
X145235816Y-107023313D01*
X145188197Y-106832837D01*
X145140578Y-106737599D01*
X145092959Y-106689980D01*
X144997721Y-106642361D01*
X143807244Y-106642361D02*
X143997721Y-106642361D01*
X144092959Y-106689980D01*
X144140578Y-106737599D01*
X144235816Y-106880456D01*
X144283435Y-107070932D01*
X144283435Y-107451885D01*
X144235816Y-107547123D01*
X144188197Y-107594742D01*
X144092959Y-107642361D01*
X143902482Y-107642361D01*
X143807244Y-107594742D01*
X143759625Y-107547123D01*
X143712006Y-107451885D01*
X143712006Y-107213790D01*
X143759625Y-107118551D01*
X143807244Y-107070932D01*
X143902482Y-107023313D01*
X144092959Y-107023313D01*
X144188197Y-107070932D01*
X144235816Y-107118551D01*
X144283435Y-107213790D01*
X47305067Y-127785843D02*
X47352686Y-127833462D01*
X47495543Y-127881081D01*
X47590781Y-127881081D01*
X47733639Y-127833462D01*
X47828877Y-127738224D01*
X47876496Y-127642986D01*
X47924115Y-127452510D01*
X47924115Y-127309652D01*
X47876496Y-127119176D01*
X47828877Y-127023938D01*
X47733639Y-126928700D01*
X47590781Y-126881081D01*
X47495543Y-126881081D01*
X47352686Y-126928700D01*
X47305067Y-126976319D01*
X46352686Y-127881081D02*
X46924115Y-127881081D01*
X46638401Y-127881081D02*
X46638401Y-126881081D01*
X46733639Y-127023938D01*
X46828877Y-127119176D01*
X46924115Y-127166795D01*
X45733639Y-126881081D02*
X45638400Y-126881081D01*
X45543162Y-126928700D01*
X45495543Y-126976319D01*
X45447924Y-127071557D01*
X45400305Y-127262033D01*
X45400305Y-127500129D01*
X45447924Y-127690605D01*
X45495543Y-127785843D01*
X45543162Y-127833462D01*
X45638400Y-127881081D01*
X45733639Y-127881081D01*
X45828877Y-127833462D01*
X45876496Y-127785843D01*
X45924115Y-127690605D01*
X45971734Y-127500129D01*
X45971734Y-127262033D01*
X45924115Y-127071557D01*
X45876496Y-126976319D01*
X45828877Y-126928700D01*
X45733639Y-126881081D01*
X45066972Y-126881081D02*
X44400305Y-126881081D01*
X44828877Y-127881081D01*
X81056683Y-28727933D02*
X81104302Y-28680314D01*
X81151921Y-28537457D01*
X81151921Y-28442219D01*
X81104302Y-28299361D01*
X81009064Y-28204123D01*
X80913826Y-28156504D01*
X80723350Y-28108885D01*
X80580492Y-28108885D01*
X80390016Y-28156504D01*
X80294778Y-28204123D01*
X80199540Y-28299361D01*
X80151921Y-28442219D01*
X80151921Y-28537457D01*
X80199540Y-28680314D01*
X80247159Y-28727933D01*
X81151921Y-29680314D02*
X81151921Y-29108885D01*
X81151921Y-29394599D02*
X80151921Y-29394599D01*
X80294778Y-29299361D01*
X80390016Y-29204123D01*
X80437635Y-29108885D01*
X80151921Y-30299361D02*
X80151921Y-30394600D01*
X80199540Y-30489838D01*
X80247159Y-30537457D01*
X80342397Y-30585076D01*
X80532873Y-30632695D01*
X80770969Y-30632695D01*
X80961445Y-30585076D01*
X81056683Y-30537457D01*
X81104302Y-30489838D01*
X81151921Y-30394600D01*
X81151921Y-30299361D01*
X81104302Y-30204123D01*
X81056683Y-30156504D01*
X80961445Y-30108885D01*
X80770969Y-30061266D01*
X80532873Y-30061266D01*
X80342397Y-30108885D01*
X80247159Y-30156504D01*
X80199540Y-30204123D01*
X80151921Y-30299361D01*
X80580492Y-31204123D02*
X80532873Y-31108885D01*
X80485254Y-31061266D01*
X80390016Y-31013647D01*
X80342397Y-31013647D01*
X80247159Y-31061266D01*
X80199540Y-31108885D01*
X80151921Y-31204123D01*
X80151921Y-31394600D01*
X80199540Y-31489838D01*
X80247159Y-31537457D01*
X80342397Y-31585076D01*
X80390016Y-31585076D01*
X80485254Y-31537457D01*
X80532873Y-31489838D01*
X80580492Y-31394600D01*
X80580492Y-31204123D01*
X80628111Y-31108885D01*
X80675730Y-31061266D01*
X80770969Y-31013647D01*
X80961445Y-31013647D01*
X81056683Y-31061266D01*
X81104302Y-31108885D01*
X81151921Y-31204123D01*
X81151921Y-31394600D01*
X81104302Y-31489838D01*
X81056683Y-31537457D01*
X80961445Y-31585076D01*
X80770969Y-31585076D01*
X80675730Y-31537457D01*
X80628111Y-31489838D01*
X80580492Y-31394600D01*
D13*
X81615815Y-17158652D02*
X81520262Y-17091765D01*
X81615815Y-17043989D02*
X81415155Y-17043989D01*
X81415155Y-17120431D01*
X81424710Y-17139542D01*
X81434265Y-17149097D01*
X81453376Y-17158652D01*
X81482041Y-17158652D01*
X81501152Y-17149097D01*
X81510707Y-17139542D01*
X81520262Y-17120431D01*
X81520262Y-17043989D01*
X81615815Y-17349757D02*
X81615815Y-17235094D01*
X81615815Y-17292425D02*
X81415155Y-17292425D01*
X81443820Y-17273315D01*
X81462931Y-17254204D01*
X81472486Y-17235094D01*
X81415155Y-17473975D02*
X81415155Y-17493086D01*
X81424710Y-17512196D01*
X81434265Y-17521751D01*
X81453376Y-17531307D01*
X81491597Y-17540862D01*
X81539373Y-17540862D01*
X81577594Y-17531307D01*
X81596704Y-17521751D01*
X81606260Y-17512196D01*
X81615815Y-17493086D01*
X81615815Y-17473975D01*
X81606260Y-17454865D01*
X81596704Y-17445309D01*
X81577594Y-17435754D01*
X81539373Y-17426199D01*
X81491597Y-17426199D01*
X81453376Y-17435754D01*
X81434265Y-17445309D01*
X81424710Y-17454865D01*
X81415155Y-17473975D01*
X81434265Y-17617304D02*
X81424710Y-17626859D01*
X81415155Y-17645970D01*
X81415155Y-17693746D01*
X81424710Y-17712856D01*
X81434265Y-17722412D01*
X81453376Y-17731967D01*
X81472486Y-17731967D01*
X81501152Y-17722412D01*
X81615815Y-17607749D01*
X81615815Y-17731967D01*
X163359788Y-76513735D02*
X163426675Y-76418182D01*
X163474451Y-76513735D02*
X163474451Y-76313075D01*
X163398009Y-76313075D01*
X163378898Y-76322630D01*
X163369343Y-76332185D01*
X163359788Y-76351296D01*
X163359788Y-76379961D01*
X163369343Y-76399072D01*
X163378898Y-76408627D01*
X163398009Y-76418182D01*
X163474451Y-76418182D01*
X163168683Y-76513735D02*
X163283346Y-76513735D01*
X163226015Y-76513735D02*
X163226015Y-76313075D01*
X163245125Y-76341740D01*
X163264236Y-76360851D01*
X163283346Y-76370406D01*
X163044465Y-76313075D02*
X163025354Y-76313075D01*
X163006244Y-76322630D01*
X162996689Y-76332185D01*
X162987133Y-76351296D01*
X162977578Y-76389517D01*
X162977578Y-76437293D01*
X162987133Y-76475514D01*
X162996689Y-76494624D01*
X163006244Y-76504180D01*
X163025354Y-76513735D01*
X163044465Y-76513735D01*
X163063575Y-76504180D01*
X163073131Y-76494624D01*
X163082686Y-76475514D01*
X163092241Y-76437293D01*
X163092241Y-76389517D01*
X163082686Y-76351296D01*
X163073131Y-76332185D01*
X163063575Y-76322630D01*
X163044465Y-76313075D01*
X162910691Y-76313075D02*
X162786473Y-76313075D01*
X162853360Y-76389517D01*
X162824694Y-76389517D01*
X162805584Y-76399072D01*
X162796028Y-76408627D01*
X162786473Y-76427738D01*
X162786473Y-76475514D01*
X162796028Y-76494624D01*
X162805584Y-76504180D01*
X162824694Y-76513735D01*
X162882026Y-76513735D01*
X162901136Y-76504180D01*
X162910691Y-76494624D01*
X20413668Y-95899015D02*
X20480555Y-95803462D01*
X20528331Y-95899015D02*
X20528331Y-95698355D01*
X20451889Y-95698355D01*
X20432778Y-95707910D01*
X20423223Y-95717465D01*
X20413668Y-95736576D01*
X20413668Y-95765241D01*
X20423223Y-95784352D01*
X20432778Y-95793907D01*
X20451889Y-95803462D01*
X20528331Y-95803462D01*
X20222563Y-95899015D02*
X20337226Y-95899015D01*
X20279895Y-95899015D02*
X20279895Y-95698355D01*
X20299005Y-95727020D01*
X20318116Y-95746131D01*
X20337226Y-95755686D01*
X20098345Y-95698355D02*
X20079234Y-95698355D01*
X20060124Y-95707910D01*
X20050569Y-95717465D01*
X20041013Y-95736576D01*
X20031458Y-95774797D01*
X20031458Y-95822573D01*
X20041013Y-95860794D01*
X20050569Y-95879904D01*
X20060124Y-95889460D01*
X20079234Y-95899015D01*
X20098345Y-95899015D01*
X20117455Y-95889460D01*
X20127011Y-95879904D01*
X20136566Y-95860794D01*
X20146121Y-95822573D01*
X20146121Y-95774797D01*
X20136566Y-95736576D01*
X20127011Y-95717465D01*
X20117455Y-95707910D01*
X20098345Y-95698355D01*
X19859464Y-95765241D02*
X19859464Y-95899015D01*
X19907240Y-95688800D02*
X19955016Y-95832128D01*
X19830798Y-95832128D01*
X134340499Y-29378260D02*
X134320229Y-29263398D01*
X134421578Y-29297181D02*
X134279690Y-29155293D01*
X134225637Y-29209346D01*
X134218880Y-29229616D01*
X134218880Y-29243129D01*
X134225637Y-29263398D01*
X134245907Y-29283668D01*
X134266176Y-29290425D01*
X134279689Y-29290425D01*
X134299959Y-29283668D01*
X134354012Y-29229615D01*
X134205367Y-29513392D02*
X134286446Y-29432313D01*
X134245907Y-29472852D02*
X134104019Y-29330964D01*
X134137801Y-29337720D01*
X134164828Y-29337720D01*
X134185097Y-29330964D01*
X133975644Y-29459339D02*
X133962130Y-29472853D01*
X133955374Y-29493122D01*
X133955374Y-29506635D01*
X133962130Y-29526905D01*
X133982400Y-29560688D01*
X134016183Y-29594471D01*
X134049966Y-29614741D01*
X134070236Y-29621496D01*
X134083749Y-29621497D01*
X134104018Y-29614741D01*
X134117532Y-29601227D01*
X134124288Y-29580958D01*
X134124288Y-29567444D01*
X134117532Y-29547175D01*
X134097262Y-29513392D01*
X134063479Y-29479609D01*
X134029697Y-29459339D01*
X134009427Y-29452582D01*
X133995913Y-29452583D01*
X133975644Y-29459339D01*
X133799972Y-29635011D02*
X133867539Y-29567445D01*
X133941861Y-29628254D01*
X133928348Y-29628254D01*
X133908078Y-29635011D01*
X133874295Y-29668793D01*
X133867539Y-29689063D01*
X133867538Y-29702576D01*
X133874295Y-29722846D01*
X133908078Y-29756629D01*
X133928347Y-29763385D01*
X133941861Y-29763385D01*
X133962130Y-29756629D01*
X133995913Y-29722846D01*
X134002670Y-29702576D01*
X134002670Y-29689063D01*
X100320375Y-159017652D02*
X100224822Y-158950765D01*
X100320375Y-158902989D02*
X100119715Y-158902989D01*
X100119715Y-158979431D01*
X100129270Y-158998542D01*
X100138825Y-159008097D01*
X100157936Y-159017652D01*
X100186601Y-159017652D01*
X100205712Y-159008097D01*
X100215267Y-158998542D01*
X100224822Y-158979431D01*
X100224822Y-158902989D01*
X100320375Y-159208757D02*
X100320375Y-159094094D01*
X100320375Y-159151425D02*
X100119715Y-159151425D01*
X100148380Y-159132315D01*
X100167491Y-159113204D01*
X100177046Y-159094094D01*
X100119715Y-159332975D02*
X100119715Y-159352086D01*
X100129270Y-159371196D01*
X100138825Y-159380751D01*
X100157936Y-159390307D01*
X100196157Y-159399862D01*
X100243933Y-159399862D01*
X100282154Y-159390307D01*
X100301264Y-159380751D01*
X100310820Y-159371196D01*
X100320375Y-159352086D01*
X100320375Y-159332975D01*
X100310820Y-159313865D01*
X100301264Y-159304309D01*
X100282154Y-159294754D01*
X100243933Y-159285199D01*
X100196157Y-159285199D01*
X100157936Y-159294754D01*
X100138825Y-159304309D01*
X100129270Y-159313865D01*
X100119715Y-159332975D01*
X100119715Y-159571856D02*
X100119715Y-159533635D01*
X100129270Y-159514525D01*
X100138825Y-159504970D01*
X100167491Y-159485859D01*
X100205712Y-159476304D01*
X100282154Y-159476304D01*
X100301264Y-159485859D01*
X100310820Y-159495414D01*
X100320375Y-159514525D01*
X100320375Y-159552746D01*
X100310820Y-159571856D01*
X100301264Y-159581412D01*
X100282154Y-159590967D01*
X100234378Y-159590967D01*
X100215267Y-159581412D01*
X100205712Y-159571856D01*
X100196157Y-159552746D01*
X100196157Y-159514525D01*
X100205712Y-159495414D01*
X100215267Y-159485859D01*
X100234378Y-159476304D01*
X47788955Y-144543356D02*
X47768685Y-144428494D01*
X47870034Y-144462277D02*
X47728146Y-144320389D01*
X47674093Y-144374442D01*
X47667336Y-144394712D01*
X47667336Y-144408225D01*
X47674093Y-144428494D01*
X47694363Y-144448764D01*
X47714632Y-144455521D01*
X47728145Y-144455521D01*
X47748415Y-144448764D01*
X47802468Y-144394711D01*
X47653823Y-144678488D02*
X47734902Y-144597409D01*
X47694363Y-144637948D02*
X47552475Y-144496060D01*
X47586257Y-144502816D01*
X47613284Y-144502816D01*
X47633553Y-144496060D01*
X47424100Y-144624435D02*
X47410586Y-144637949D01*
X47403830Y-144658218D01*
X47403830Y-144671731D01*
X47410586Y-144692001D01*
X47430856Y-144725784D01*
X47464639Y-144759567D01*
X47498422Y-144779837D01*
X47518692Y-144786592D01*
X47532205Y-144786593D01*
X47552474Y-144779837D01*
X47565988Y-144766323D01*
X47572744Y-144746054D01*
X47572744Y-144732540D01*
X47565988Y-144712271D01*
X47545718Y-144678488D01*
X47511935Y-144644705D01*
X47478153Y-144624435D01*
X47457883Y-144617678D01*
X47444369Y-144617679D01*
X47424100Y-144624435D01*
X47329507Y-144719028D02*
X47234916Y-144813619D01*
X47437613Y-144894698D01*
D11*
X91134821Y-17313505D02*
X91944345Y-17313505D01*
X92039583Y-17361124D01*
X92087202Y-17408743D01*
X92134821Y-17503981D01*
X92134821Y-17694458D01*
X92087202Y-17789696D01*
X92039583Y-17837315D01*
X91944345Y-17884934D01*
X91134821Y-17884934D01*
X91134821Y-18265886D02*
X91134821Y-18884934D01*
X91515773Y-18551600D01*
X91515773Y-18694458D01*
X91563392Y-18789696D01*
X91611011Y-18837315D01*
X91706250Y-18884934D01*
X91944345Y-18884934D01*
X92039583Y-18837315D01*
X92087202Y-18789696D01*
X92134821Y-18694458D01*
X92134821Y-18408743D01*
X92087202Y-18313505D01*
X92039583Y-18265886D01*
X92134821Y-19837315D02*
X92134821Y-19265886D01*
X92134821Y-19551600D02*
X91134821Y-19551600D01*
X91277678Y-19456362D01*
X91372916Y-19361124D01*
X91420535Y-19265886D01*
X163042375Y-86652501D02*
X163042375Y-87462025D01*
X162994756Y-87557263D01*
X162947137Y-87604882D01*
X162851899Y-87652501D01*
X162661422Y-87652501D01*
X162566184Y-87604882D01*
X162518565Y-87557263D01*
X162470946Y-87462025D01*
X162470946Y-86652501D01*
X162089994Y-86652501D02*
X161470946Y-86652501D01*
X161804280Y-87033453D01*
X161661422Y-87033453D01*
X161566184Y-87081072D01*
X161518565Y-87128691D01*
X161470946Y-87223930D01*
X161470946Y-87462025D01*
X161518565Y-87557263D01*
X161566184Y-87604882D01*
X161661422Y-87652501D01*
X161947137Y-87652501D01*
X162042375Y-87604882D01*
X162089994Y-87557263D01*
X161089994Y-86747739D02*
X161042375Y-86700120D01*
X160947137Y-86652501D01*
X160709041Y-86652501D01*
X160613803Y-86700120D01*
X160566184Y-86747739D01*
X160518565Y-86842977D01*
X160518565Y-86938215D01*
X160566184Y-87081072D01*
X161137613Y-87652501D01*
X160518565Y-87652501D01*
X22580375Y-84900021D02*
X22580375Y-85709545D01*
X22532756Y-85804783D01*
X22485137Y-85852402D01*
X22389899Y-85900021D01*
X22199422Y-85900021D01*
X22104184Y-85852402D01*
X22056565Y-85804783D01*
X22008946Y-85709545D01*
X22008946Y-84900021D01*
X21627994Y-84900021D02*
X21008946Y-84900021D01*
X21342280Y-85280973D01*
X21199422Y-85280973D01*
X21104184Y-85328592D01*
X21056565Y-85376211D01*
X21008946Y-85471450D01*
X21008946Y-85709545D01*
X21056565Y-85804783D01*
X21104184Y-85852402D01*
X21199422Y-85900021D01*
X21485137Y-85900021D01*
X21580375Y-85852402D01*
X21627994Y-85804783D01*
X20675613Y-84900021D02*
X20056565Y-84900021D01*
X20389899Y-85280973D01*
X20247041Y-85280973D01*
X20151803Y-85328592D01*
X20104184Y-85376211D01*
X20056565Y-85471450D01*
X20056565Y-85709545D01*
X20104184Y-85804783D01*
X20151803Y-85852402D01*
X20247041Y-85900021D01*
X20532756Y-85900021D01*
X20627994Y-85852402D01*
X20675613Y-85804783D01*
X141045581Y-36240011D02*
X141618001Y-36812430D01*
X141651673Y-36913446D01*
X141651673Y-36980789D01*
X141618001Y-37081804D01*
X141483314Y-37216492D01*
X141382298Y-37250163D01*
X141314955Y-37250163D01*
X141213940Y-37216492D01*
X140641520Y-36644072D01*
X140372146Y-36913446D02*
X139934413Y-37351179D01*
X140439490Y-37384850D01*
X140338474Y-37485865D01*
X140304802Y-37586881D01*
X140304802Y-37654224D01*
X140338474Y-37755240D01*
X140506833Y-37923599D01*
X140607848Y-37957270D01*
X140675192Y-37957270D01*
X140776207Y-37923599D01*
X140978238Y-37721568D01*
X141011910Y-37620552D01*
X141011910Y-37553209D01*
X139564024Y-38192972D02*
X140035428Y-38664377D01*
X139463009Y-37755239D02*
X140136444Y-38091957D01*
X139698711Y-38529690D01*
X89473781Y-156657905D02*
X90283305Y-156657905D01*
X90378543Y-156705524D01*
X90426162Y-156753143D01*
X90473781Y-156848381D01*
X90473781Y-157038858D01*
X90426162Y-157134096D01*
X90378543Y-157181715D01*
X90283305Y-157229334D01*
X89473781Y-157229334D01*
X89473781Y-157610286D02*
X89473781Y-158229334D01*
X89854733Y-157896000D01*
X89854733Y-158038858D01*
X89902352Y-158134096D01*
X89949971Y-158181715D01*
X90045210Y-158229334D01*
X90283305Y-158229334D01*
X90378543Y-158181715D01*
X90426162Y-158134096D01*
X90473781Y-158038858D01*
X90473781Y-157753143D01*
X90426162Y-157657905D01*
X90378543Y-157610286D01*
X89473781Y-159134096D02*
X89473781Y-158657905D01*
X89949971Y-158610286D01*
X89902352Y-158657905D01*
X89854733Y-158753143D01*
X89854733Y-158991239D01*
X89902352Y-159086477D01*
X89949971Y-159134096D01*
X90045210Y-159181715D01*
X90283305Y-159181715D01*
X90378543Y-159134096D01*
X90426162Y-159086477D01*
X90473781Y-158991239D01*
X90473781Y-158753143D01*
X90426162Y-158657905D01*
X90378543Y-158610286D01*
X41690619Y-134974569D02*
X42263039Y-135546988D01*
X42296711Y-135648004D01*
X42296711Y-135715347D01*
X42263039Y-135816362D01*
X42128352Y-135951050D01*
X42027336Y-135984721D01*
X41959993Y-135984721D01*
X41858978Y-135951050D01*
X41286558Y-135378630D01*
X41017184Y-135648004D02*
X40579451Y-136085737D01*
X41084528Y-136119408D01*
X40983512Y-136220423D01*
X40949840Y-136321439D01*
X40949840Y-136388782D01*
X40983512Y-136489798D01*
X41151871Y-136658157D01*
X41252886Y-136691828D01*
X41320230Y-136691828D01*
X41421245Y-136658157D01*
X41623276Y-136456126D01*
X41656948Y-136355110D01*
X41656948Y-136287767D01*
X39973360Y-136691828D02*
X40108047Y-136557141D01*
X40209062Y-136523469D01*
X40276406Y-136523469D01*
X40444764Y-136557141D01*
X40613123Y-136658156D01*
X40882497Y-136927530D01*
X40916169Y-137028545D01*
X40916169Y-137095889D01*
X40882497Y-137196904D01*
X40747810Y-137331592D01*
X40646795Y-137365263D01*
X40579451Y-137365263D01*
X40478436Y-137331592D01*
X40310077Y-137163233D01*
X40276405Y-137062217D01*
X40276405Y-136994874D01*
X40310077Y-136893859D01*
X40444764Y-136759171D01*
X40545779Y-136725499D01*
X40613123Y-136725499D01*
X40714139Y-136759172D01*
%LPC*%
D14*
X160510000Y-101930000D03*
X78370000Y-156810000D03*
X23490000Y-74670000D03*
X53190000Y-30220000D03*
X130810000Y-146380000D03*
X33920000Y-127110000D03*
D15*
X156530000Y-61570000D03*
X65270000Y-152830000D03*
X118730000Y-152830000D03*
X118730000Y-23770000D03*
X156530000Y-115030000D03*
X65270000Y-23770000D03*
X27270000Y-61570000D03*
D14*
X105630000Y-19790000D03*
X150080000Y-49490000D03*
D16*
X99305040Y-32674880D03*
X99305040Y-26434880D03*
D17*
X134433242Y-123529800D03*
X140673242Y-123529800D03*
X41312640Y-110697720D03*
X35072640Y-110697720D03*
D16*
X114321520Y-37485640D03*
X114321520Y-31245640D03*
X127727640Y-130188800D03*
X127727640Y-136428800D03*
D17*
X36842240Y-96727720D03*
X30602240Y-96727720D03*
D16*
X127595560Y-45049760D03*
X127595560Y-38809760D03*
X114280880Y-138154240D03*
X114280880Y-144394240D03*
D17*
X36283440Y-80517440D03*
X30043440Y-80517440D03*
D16*
X137659040Y-57505920D03*
X137659040Y-51265920D03*
X99929880Y-142218240D03*
X99929880Y-148458240D03*
D17*
X40423640Y-66049600D03*
X34183640Y-66049600D03*
X142961680Y-65328240D03*
X149201680Y-65328240D03*
D16*
X83821200Y-142096320D03*
X83821200Y-148336320D03*
D17*
X47896320Y-52912720D03*
X41656320Y-52912720D03*
X147386360Y-80156760D03*
X153626360Y-80156760D03*
D16*
X69292400Y-137905320D03*
X69292400Y-144145320D03*
X56267280Y-45883762D03*
X56267280Y-39643762D03*
D17*
X147331362Y-95498360D03*
X153571362Y-95498360D03*
D16*
X55881200Y-129802720D03*
X55881200Y-136042720D03*
X69343200Y-38599042D03*
X69343200Y-32359042D03*
D17*
X142129442Y-110489440D03*
X148369442Y-110489440D03*
X49506680Y-124129240D03*
X43266680Y-124129240D03*
D16*
X83999000Y-33167640D03*
X83999000Y-26927640D03*
D18*
X93587500Y-25474500D03*
X93587500Y-27062000D03*
X92000000Y-25474500D03*
X92000000Y-27062000D03*
X90412500Y-25474500D03*
X90412500Y-27062000D03*
X36801346Y-118337935D03*
X38176161Y-117544185D03*
X37595096Y-119712750D03*
X38969911Y-118919000D03*
X38388846Y-121087565D03*
X39763661Y-120293815D03*
X145611154Y-121087565D03*
X144236339Y-120293815D03*
X146404904Y-119712750D03*
X145030089Y-118919000D03*
X147198654Y-118337935D03*
X145823839Y-117544185D03*
X77279752Y-27211753D03*
X77690627Y-28745160D03*
X75746345Y-27622628D03*
X76157220Y-29156035D03*
X74212938Y-28033503D03*
X74623813Y-29566911D03*
X46453751Y-131601185D03*
X47576283Y-130478653D03*
X47576283Y-132723717D03*
X48698815Y-131601185D03*
X48698815Y-133846249D03*
X49821347Y-132723717D03*
X152266497Y-106087062D03*
X150733089Y-105676187D03*
X152677372Y-104553655D03*
X151143965Y-104142780D03*
X153088247Y-103020248D03*
X151554840Y-102609373D03*
X61962065Y-33101346D03*
X62755815Y-34476161D03*
X60587250Y-33895096D03*
X61381000Y-35269911D03*
X59212435Y-34688846D03*
X60006185Y-36063661D03*
X59212435Y-141911154D03*
X60006185Y-140536339D03*
X60587250Y-142704904D03*
X61381000Y-141330089D03*
X61962065Y-143498654D03*
X62755815Y-142123839D03*
X154825500Y-89887500D03*
X153238000Y-89887500D03*
X154825500Y-88300000D03*
X153238000Y-88300000D03*
X154825500Y-86712500D03*
X153238000Y-86712500D03*
X48698815Y-42753751D03*
X49821347Y-43876283D03*
X47576283Y-43876283D03*
X48698815Y-44998815D03*
X46453751Y-44998815D03*
X47576283Y-46121347D03*
X74212938Y-148566497D03*
X74623813Y-147033089D03*
X75746345Y-148977372D03*
X76157220Y-147443965D03*
X77279752Y-149388247D03*
X77690627Y-147854840D03*
X153088247Y-73579752D03*
X151554840Y-73990627D03*
X152677372Y-72046345D03*
X151143965Y-72457220D03*
X152266497Y-70512938D03*
X150733089Y-70923813D03*
X38388846Y-55512435D03*
X39763661Y-56306185D03*
X37595096Y-56887250D03*
X38969911Y-57681000D03*
X36801346Y-58262065D03*
X38176161Y-59055815D03*
X90412500Y-151125500D03*
X90412500Y-149538000D03*
X92000000Y-151125500D03*
X92000000Y-149538000D03*
X93587500Y-151125500D03*
X93587500Y-149538000D03*
X147198654Y-58262065D03*
X145823839Y-59055815D03*
X146404904Y-56887250D03*
X145030089Y-57681000D03*
X145611154Y-55512435D03*
X144236339Y-56306185D03*
X31733503Y-70512938D03*
X33266911Y-70923813D03*
X31322628Y-72046345D03*
X32856035Y-72457220D03*
X30911753Y-73579752D03*
X32445160Y-73990627D03*
X106720248Y-149388247D03*
X106309373Y-147854840D03*
X108253655Y-148977372D03*
X107842780Y-147443965D03*
X109787062Y-148566497D03*
X109376187Y-147033089D03*
X137546249Y-44998815D03*
X136423717Y-46121347D03*
X136423717Y-43876283D03*
X135301185Y-44998815D03*
X135301185Y-42753751D03*
X134178653Y-43876283D03*
X29174500Y-86712500D03*
X30762000Y-86712500D03*
X29174500Y-88300000D03*
X30762000Y-88300000D03*
X29174500Y-89887500D03*
X30762000Y-89887500D03*
X122037935Y-143498654D03*
X121244185Y-142123839D03*
X123412750Y-142704904D03*
X122619000Y-141330089D03*
X124787565Y-141911154D03*
X123993815Y-140536339D03*
X124787565Y-34688846D03*
X123993815Y-36063661D03*
X123412750Y-33895096D03*
X122619000Y-35269911D03*
X122037935Y-33101346D03*
X121244185Y-34476161D03*
X30911753Y-103020248D03*
X32445160Y-102609373D03*
X31322628Y-104553655D03*
X32856035Y-104142780D03*
X31733503Y-106087062D03*
X33266911Y-105676187D03*
X135301185Y-133846249D03*
X134178653Y-132723717D03*
X136423717Y-132723717D03*
X135301185Y-131601185D03*
X137546249Y-131601185D03*
X136423717Y-130478653D03*
X109747062Y-28033503D03*
X109336187Y-29566911D03*
X108213655Y-27622628D03*
X107802780Y-29156035D03*
X106680248Y-27211753D03*
X106269373Y-28745160D03*
D19*
X80915440Y-16631360D03*
X80915440Y-18135040D03*
D20*
X163887080Y-75813360D03*
X162383400Y-75813360D03*
X19437280Y-96417840D03*
X20940960Y-96417840D03*
D10*
G36*
X134254032Y-29464735D02*
X133263545Y-28474248D01*
X134182190Y-27555603D01*
X135172677Y-28546090D01*
X134254032Y-29464735D01*
X134254032Y-29464735D01*
G37*
G36*
X133190770Y-30527997D02*
X132200283Y-29537510D01*
X133118928Y-28618865D01*
X134109415Y-29609352D01*
X133190770Y-30527997D01*
X133190770Y-30527997D01*
G37*
D19*
X100839200Y-159994040D03*
X100839200Y-158490360D03*
D10*
G36*
X47429488Y-144646065D02*
X48419975Y-145636552D01*
X47501330Y-146555197D01*
X46510843Y-145564710D01*
X47429488Y-144646065D01*
X47429488Y-144646065D01*
G37*
G36*
X48492750Y-143582803D02*
X49483237Y-144573290D01*
X48564592Y-145491935D01*
X47574105Y-144501448D01*
X48492750Y-143582803D01*
X48492750Y-143582803D01*
G37*
D18*
X87709940Y-20075600D03*
X88535440Y-19288200D03*
X88535440Y-17091100D03*
X87709940Y-18107100D03*
X89678440Y-17853100D03*
X89678440Y-16710100D03*
X89678440Y-19186600D03*
D21*
X83932440Y-19186600D03*
X83932440Y-20456600D03*
X83932440Y-17916600D03*
D22*
X89407440Y-18551600D03*
D23*
X87207440Y-18551600D03*
D21*
X83932440Y-16646600D03*
D18*
X89678440Y-20329600D03*
X160280280Y-83227620D03*
X161067680Y-84053120D03*
X163264780Y-84053120D03*
X162248780Y-83227620D03*
X162502780Y-85196120D03*
X163645780Y-85196120D03*
X161169280Y-85196120D03*
D24*
X161169280Y-79450120D03*
X159899280Y-79450120D03*
X162439280Y-79450120D03*
D25*
X161804280Y-84925120D03*
D26*
X161804280Y-82725120D03*
D24*
X163709280Y-79450120D03*
D18*
X160026280Y-85196120D03*
X22866280Y-89420140D03*
X22078880Y-88594640D03*
X19881780Y-88594640D03*
X20897780Y-89420140D03*
X20643780Y-87451640D03*
X19500780Y-87451640D03*
X21977280Y-87451640D03*
D24*
X21977280Y-93197640D03*
X23247280Y-93197640D03*
X20707280Y-93197640D03*
D25*
X21342280Y-87722640D03*
D26*
X21342280Y-89922640D03*
D24*
X19437280Y-93197640D03*
D18*
X23120280Y-87451640D03*
X136670728Y-35771350D03*
X137811221Y-35798291D03*
X139364805Y-34244706D03*
X138062668Y-34379410D03*
X139634213Y-35591745D03*
X140442436Y-34783522D03*
X138691286Y-36534672D03*
D10*
G36*
X134787350Y-33231776D02*
X133868111Y-32312537D01*
X134469152Y-31711496D01*
X135388391Y-32630735D01*
X134787350Y-33231776D01*
X134787350Y-33231776D01*
G37*
G36*
X133889324Y-34129802D02*
X132970085Y-33210563D01*
X133571126Y-32609522D01*
X134490365Y-33528761D01*
X133889324Y-34129802D01*
X133889324Y-34129802D01*
G37*
G36*
X135685375Y-32333751D02*
X134766136Y-31414512D01*
X135367177Y-30813471D01*
X136286416Y-31732710D01*
X135685375Y-32333751D01*
X135685375Y-32333751D01*
G37*
G36*
X137834980Y-38209808D02*
X136632898Y-37007726D01*
X140062366Y-33578258D01*
X141264448Y-34780340D01*
X137834980Y-38209808D01*
X137834980Y-38209808D01*
G37*
G36*
X137074840Y-37096114D02*
X134635322Y-34656596D01*
X137711236Y-31580682D01*
X140150754Y-34020200D01*
X137074840Y-37096114D01*
X137074840Y-37096114D01*
G37*
G36*
X136583401Y-31435725D02*
X135664162Y-30516486D01*
X136265203Y-29915445D01*
X137184442Y-30834684D01*
X136583401Y-31435725D01*
X136583401Y-31435725D01*
G37*
D18*
X137883063Y-37342895D03*
X93993900Y-156372000D03*
X93168400Y-157159400D03*
X93168400Y-159356500D03*
X93993900Y-158340500D03*
X92025400Y-158594500D03*
X92025400Y-159737500D03*
X92025400Y-157261000D03*
D21*
X97771400Y-157261000D03*
X97771400Y-155991000D03*
X97771400Y-158531000D03*
D22*
X92296400Y-157896000D03*
D23*
X94496400Y-157896000D03*
D21*
X97771400Y-159801000D03*
D18*
X92025400Y-156118000D03*
X45088992Y-137968610D03*
X43948499Y-137941669D03*
X42394915Y-139495254D03*
X43697052Y-139360550D03*
X42125507Y-138148215D03*
X41317284Y-138956438D03*
X43068434Y-137205288D03*
D10*
G36*
X46972370Y-140508184D02*
X47891609Y-141427423D01*
X47290568Y-142028464D01*
X46371329Y-141109225D01*
X46972370Y-140508184D01*
X46972370Y-140508184D01*
G37*
G36*
X47870396Y-139610158D02*
X48789635Y-140529397D01*
X48188594Y-141130438D01*
X47269355Y-140211199D01*
X47870396Y-139610158D01*
X47870396Y-139610158D01*
G37*
G36*
X46074345Y-141406209D02*
X46993584Y-142325448D01*
X46392543Y-142926489D01*
X45473304Y-142007250D01*
X46074345Y-141406209D01*
X46074345Y-141406209D01*
G37*
G36*
X43924740Y-135530152D02*
X45126822Y-136732234D01*
X41697354Y-140161702D01*
X40495272Y-138959620D01*
X43924740Y-135530152D01*
X43924740Y-135530152D01*
G37*
G36*
X44684880Y-136643846D02*
X47124398Y-139083364D01*
X44048484Y-142159278D01*
X41608966Y-139719760D01*
X44684880Y-136643846D01*
X44684880Y-136643846D01*
G37*
G36*
X45176319Y-142304235D02*
X46095558Y-143223474D01*
X45494517Y-143824515D01*
X44575278Y-142905276D01*
X45176319Y-142304235D01*
X45176319Y-142304235D01*
G37*
D18*
X43876657Y-136397065D03*
D15*
X27470000Y-115030000D03*
D27*
X41284091Y-39696829D02*
X41284091Y-39696829D01*
D10*
G36*
X37691989Y-41592596D02*
X39388324Y-43288931D01*
X37691989Y-44985266D01*
X35995654Y-43288931D01*
X37691989Y-41592596D01*
X37691989Y-41592596D01*
G37*
D27*
X39488040Y-41492880D02*
X39488040Y-41492880D01*
M02*
