M48
;DRILL file {KiCad 4.0.1-stable} date 2/3/2016 8:32:53 AM
;FORMAT={-:-/ absolute / inch / decimal}
FMAT,2
INCH,TZ
T1C0.013
T2C0.015
T3C0.043
T4C0.122
T5C0.266
%
G90
G05
M72
T1
X0.9102Y-3.443
X1.7274Y-5.37
X3.5306Y-0.8004
X3.623Y-6.1464
X5.4285Y-1.4702
X6.3002Y-3.3542
T2
X0.7677Y-3.443
X0.7827Y-3.488
X0.8127Y-3.443
X0.8227Y-3.5205
X0.8652Y-3.443
X0.8692Y-3.488
X0.9002Y-3.5205
X0.9146Y-3.816
X1.0714Y-4.259
X1.1486Y-3.4139
X1.1486Y-3.4764
X1.1486Y-3.5389
X1.1606Y-2.6512
X1.2111Y-3.4139
X1.2111Y-3.4764
X1.2111Y-3.5389
X1.217Y-2.8968
X1.217Y-4.0559
X1.2332Y-2.8365
X1.2332Y-4.1163
X1.2494Y-2.7761
X1.2494Y-4.1767
X1.2774Y-2.913
X1.2774Y-4.0397
X1.2935Y-2.8526
X1.2935Y-4.1001
X1.3097Y-2.7923
X1.3097Y-4.1605
X1.4489Y-2.2938
X1.4489Y-4.659
X1.4801Y-2.2397
X1.4801Y-4.7131
X1.503Y-2.325
X1.503Y-4.6277
X1.5102Y-3.6682
X1.5114Y-2.1855
X1.5114Y-4.7672
X1.5342Y-2.2709
X1.5342Y-4.6819
X1.5462Y-3.035
X1.5655Y-2.2168
X1.5655Y-4.736
X1.6096Y-4.207
X1.6267Y-5.4707
X1.6585Y-5.4389
X1.6691Y-5.4919
X1.6956Y-5.4018
X1.6964Y-2.5086
X1.7204Y-5.4866
X1.7303Y-5.4308
X1.7752Y-5.4318
X1.8289Y-1.7716
X1.8289Y-5.1811
X1.8731Y-1.7274
X1.8731Y-1.8158
X1.8731Y-5.137
X1.8731Y-5.2253
X1.9014Y-4.7302
X1.9173Y-1.6832
X1.9173Y-1.7716
X1.9173Y-5.1811
X1.9173Y-5.2695
X1.9602Y-5.6407
X1.9615Y-1.7274
X1.9615Y-5.2253
X2.0243Y-2.0412
X2.1046Y-4.9884
X2.1336Y-1.9276
X2.2998Y-5.8314
X2.3312Y-1.3657
X2.3312Y-5.5871
X2.3624Y-1.4198
X2.3624Y-5.5329
X2.3853Y-1.3345
X2.3853Y-5.6183
X2.4166Y-1.3886
X2.4166Y-5.5642
X2.4395Y-1.3032
X2.4395Y-5.6496
X2.4707Y-1.3573
X2.4707Y-5.5954
X2.534Y-1.6574
X2.5986Y-5.365
X2.9106Y-0.9128
X2.9218Y-1.1037
X2.9218Y-5.8491
X2.9379Y-1.1641
X2.9379Y-5.7887
X2.9821Y-1.0875
X2.9821Y-5.8653
X2.9983Y-1.1479
X2.9983Y-5.8049
X3.0425Y-1.0713
X3.0425Y-5.8814
X3.0587Y-1.1317
X3.0587Y-5.8211
X3.1344Y-1.431
X3.1578Y-5.55
X3.1712Y-0.8002
X3.4531Y-0.7129
X3.4531Y-0.7904
X3.4856Y-0.6729
X3.4856Y-0.7594
X3.5306Y-0.6579
X3.5306Y-0.7029
X3.5306Y-0.7554
X3.5595Y-1.0029
X3.5595Y-1.0654
X3.5595Y-5.8873
X3.5595Y-5.9498
X3.622Y-1.0029
X3.622Y-1.0654
X3.622Y-5.8873
X3.622Y-5.9498
X3.623Y-6.1914
X3.623Y-6.2439
X3.623Y-6.2889
X3.668Y-6.1874
X3.668Y-6.2739
X3.6845Y-1.0029
X3.6845Y-1.0654
X3.6845Y-5.8873
X3.6845Y-5.9498
X3.7005Y-6.1564
X3.7005Y-6.2339
X3.7194Y-5.577
X3.9096Y-1.3831
X3.97Y-6.1721
X4.0362Y-0.9056
X4.095Y-6.0486
X4.1838Y-1.1317
X4.1854Y-5.8211
X4.2Y-1.0713
X4.2016Y-5.8814
X4.2442Y-1.1479
X4.2458Y-5.8049
X4.2604Y-1.0875
X4.262Y-5.8653
X4.3046Y-1.1641
X4.3061Y-5.7887
X4.3208Y-1.1037
X4.3223Y-5.8491
X4.3605Y-5.4391
X4.5444Y-1.5756
X4.7734Y-1.3573
X4.7734Y-5.5954
X4.8046Y-1.3032
X4.8046Y-5.6496
X4.8275Y-1.3886
X4.8275Y-5.5642
X4.8588Y-1.3345
X4.8588Y-5.6183
X4.8764Y-5.18
X4.8816Y-1.4198
X4.8816Y-5.5329
X4.9129Y-1.3657
X4.9129Y-5.5871
X5.0234Y-1.8703
X5.1288Y-1.3652
X5.1552Y-4.9041
X5.2042Y-1.2234
X5.2826Y-1.7274
X5.2826Y-5.2253
X5.3268Y-1.6832
X5.3268Y-1.7716
X5.3268Y-5.1811
X5.3268Y-5.2695
X5.371Y-1.7274
X5.371Y-1.8158
X5.371Y-5.137
X5.371Y-5.2253
X5.3807Y-1.4083
X5.4152Y-1.7716
X5.4152Y-5.1811
X5.4196Y-2.3607
X5.4256Y-1.4094
X5.4355Y-1.3535
X5.4603Y-1.4384
X5.4868Y-1.3482
X5.4882Y-4.41
X5.4974Y-1.4012
X5.5064Y-2.5192
X5.5292Y-1.3694
X5.6768Y-3.1267
X5.6786Y-2.2168
X5.6786Y-4.736
X5.685Y-5.0344
X5.6946Y-3.7689
X5.7098Y-2.2709
X5.7098Y-4.6819
X5.7327Y-2.1855
X5.7327Y-4.7672
X5.7411Y-2.325
X5.7411Y-4.6277
X5.764Y-2.2397
X5.764Y-4.7131
X5.7952Y-2.2938
X5.7952Y-4.659
X5.9344Y-2.7923
X5.9344Y-4.1605
X5.9505Y-2.8526
X5.9505Y-4.1001
X5.9667Y-2.913
X5.9667Y-4.0397
X5.9947Y-2.7761
X5.9947Y-4.1767
X6.0109Y-2.8365
X6.0109Y-4.1163
X6.0271Y-2.8968
X6.0271Y-4.0559
X6.033Y-3.4139
X6.033Y-3.4764
X6.033Y-3.5389
X6.0955Y-3.4139
X6.0955Y-3.4764
X6.0955Y-3.5389
X6.166Y-3.943
X6.187Y-2.7332
X6.3102Y-3.2767
X6.3138Y-3.0194
X6.3412Y-3.3092
X6.3452Y-3.3542
X6.3877Y-3.2767
X6.3977Y-3.3542
X6.4277Y-3.3092
X6.4427Y-3.3542
T3
X1.4839Y-1.7043
X1.5546Y-1.6336
X1.6254Y-1.5629
T4
X0.9248Y-2.9398
X1.3354Y-5.0043
X2.0941Y-1.1898
X3.0854Y-6.1736
X4.1587Y-0.7791
X5.15Y-5.763
X5.9087Y-1.9484
X6.3193Y-4.013
T5
X1.0736Y-2.424
X1.0815Y-4.5287
X2.5697Y-0.9358
X2.5697Y-6.0169
X4.6744Y-0.9358
X4.6744Y-6.0169
X6.1626Y-2.424
X6.1626Y-4.5287
T0
M30
