G04 #@! TF.FileFunction,Paste,Top*
%FSLAX46Y46*%
G04 Gerber Fmt 4.6, Leading zero omitted, Abs format (unit mm)*
G04 Created by KiCad (PCBNEW 4.0.1-stable) date 2/3/2016 11:10:25 AM*
%MOMM*%
G01*
G04 APERTURE LIST*
%ADD10C,0.100000*%
%ADD11R,0.600000X1.950000*%
%ADD12R,4.191000X3.556000*%
%ADD13R,1.000760X0.701040*%
%ADD14C,0.650000*%
%ADD15R,0.600000X1.500000*%
%ADD16R,0.508000X1.143000*%
%ADD17R,0.700000X0.350000*%
%ADD18R,1.798320X0.797560*%
%ADD19R,1.198880X1.198880*%
%ADD20R,2.430000X2.370000*%
%ADD21R,2.370000X2.430000*%
%ADD22R,0.600000X0.400000*%
%ADD23R,0.400000X0.600000*%
%ADD24R,1.500000X1.200000*%
%ADD25R,1.600200X1.803400*%
%ADD26R,1.193800X3.302000*%
%ADD27R,3.302000X1.193800*%
%ADD28R,1.143000X0.508000*%
%ADD29R,1.500000X0.600000*%
%ADD30R,1.550000X0.600000*%
%ADD31R,0.705000X0.705000*%
%ADD32R,0.596900X1.998980*%
%ADD33R,5.598160X6.499860*%
%ADD34R,1.998980X0.596900*%
%ADD35R,6.499860X5.598160*%
%ADD36R,3.200400X1.600200*%
%ADD37R,7.000240X6.499860*%
%ADD38R,2.500000X1.000000*%
%ADD39R,1.050000X0.600000*%
%ADD40R,0.600000X1.050000*%
%ADD41R,1.300000X4.500000*%
%ADD42R,0.900000X4.500000*%
%ADD43R,4.500000X1.300000*%
%ADD44R,4.500000X0.900000*%
%ADD45R,0.600000X0.600000*%
%ADD46R,0.899160X1.000760*%
%ADD47R,1.000760X0.899160*%
%ADD48R,1.498600X1.300480*%
%ADD49R,1.300480X1.498600*%
G04 APERTURE END LIST*
D10*
D11*
X241794700Y-54496140D03*
X240524700Y-54496140D03*
X239254700Y-54496140D03*
X237984700Y-54496140D03*
X236714700Y-54496140D03*
X235444700Y-54496140D03*
X234174700Y-54496140D03*
X232904700Y-54496140D03*
X231634700Y-54496140D03*
X230364700Y-54496140D03*
X230364700Y-63896140D03*
X231634700Y-63896140D03*
X232904700Y-63896140D03*
X234174700Y-63896140D03*
X235444700Y-63896140D03*
X236714700Y-63896140D03*
X237984700Y-63896140D03*
X239254700Y-63896140D03*
X240524700Y-63896140D03*
X241794700Y-63896140D03*
D12*
X194263680Y-72792760D03*
X200613680Y-72792760D03*
D13*
X242907220Y-23712340D03*
X242907220Y-22762380D03*
X242907220Y-21812420D03*
X240509460Y-23712340D03*
X240509460Y-21812420D03*
X240509460Y-22762380D03*
X252089320Y-23826640D03*
X252089320Y-22876680D03*
X252089320Y-21926720D03*
X249691560Y-23826640D03*
X249691560Y-21926720D03*
X249691560Y-22876680D03*
D14*
X215810638Y-55009397D03*
X215810638Y-54009397D03*
X215810638Y-56009397D03*
D15*
X205553980Y-37474060D03*
X204283980Y-37474060D03*
X203013980Y-37474060D03*
X201743980Y-37474060D03*
X200473980Y-37474060D03*
X199203980Y-37474060D03*
X197933980Y-37474060D03*
X196663980Y-37474060D03*
X196663980Y-42874060D03*
X197933980Y-42874060D03*
X199203980Y-42874060D03*
X200473980Y-42874060D03*
X201743980Y-42874060D03*
X203013980Y-42874060D03*
X204283980Y-42874060D03*
X205553980Y-42874060D03*
D16*
X196628954Y-51875232D03*
X199168954Y-51875232D03*
X200438954Y-51875232D03*
X201708954Y-51875232D03*
X202978954Y-51875232D03*
X204248954Y-51875232D03*
X205518954Y-51875232D03*
X205518954Y-58225232D03*
X204248954Y-58225232D03*
X202978954Y-58225232D03*
X201708954Y-58225232D03*
X200438954Y-58225232D03*
X199168954Y-58225232D03*
X197898954Y-58225232D03*
X196628954Y-58225232D03*
X197898954Y-51875232D03*
X213123180Y-51774260D03*
X215663180Y-51774260D03*
X216933180Y-51774260D03*
X218203180Y-51774260D03*
X219473180Y-51774260D03*
X220743180Y-51774260D03*
X222013180Y-51774260D03*
X222013180Y-58124260D03*
X220743180Y-58124260D03*
X219473180Y-58124260D03*
X218203180Y-58124260D03*
X216933180Y-58124260D03*
X215663180Y-58124260D03*
X214393180Y-58124260D03*
X213123180Y-58124260D03*
X214393180Y-51774260D03*
D15*
X220108180Y-37397860D03*
X218838180Y-37397860D03*
X217568180Y-37397860D03*
X216298180Y-37397860D03*
X215028180Y-37397860D03*
X213758180Y-37397860D03*
X212488180Y-37397860D03*
X211218180Y-37397860D03*
X211218180Y-42797860D03*
X212488180Y-42797860D03*
X213758180Y-42797860D03*
X215028180Y-42797860D03*
X216298180Y-42797860D03*
X217568180Y-42797860D03*
X218838180Y-42797860D03*
X220108180Y-42797860D03*
D17*
X240179700Y-35736700D03*
X240179700Y-35086700D03*
X240179700Y-34436700D03*
X240179700Y-33786700D03*
X242429700Y-33786700D03*
X242429700Y-34436700D03*
X242429700Y-35086700D03*
X242429700Y-35736700D03*
D18*
X258596800Y-37476600D03*
X258596800Y-36206600D03*
X258596800Y-34936600D03*
X258596800Y-33666600D03*
X253262800Y-33666600D03*
X253262800Y-34936600D03*
X253262800Y-36206600D03*
X253262800Y-37476600D03*
D11*
X256933100Y-54356440D03*
X255663100Y-54356440D03*
X254393100Y-54356440D03*
X253123100Y-54356440D03*
X251853100Y-54356440D03*
X250583100Y-54356440D03*
X249313100Y-54356440D03*
X248043100Y-54356440D03*
X246773100Y-54356440D03*
X245503100Y-54356440D03*
X245503100Y-63756440D03*
X246773100Y-63756440D03*
X248043100Y-63756440D03*
X249313100Y-63756440D03*
X250583100Y-63756440D03*
X251853100Y-63756440D03*
X253123100Y-63756440D03*
X254393100Y-63756440D03*
X255663100Y-63756440D03*
X256933100Y-63756440D03*
D19*
X261728620Y-25266820D03*
X259630580Y-25266820D03*
X195663754Y-63838632D03*
X193565714Y-63838632D03*
X214078220Y-63775760D03*
X211980180Y-63775760D03*
X199908093Y-63825932D03*
X197810053Y-63825932D03*
X217885680Y-64690160D03*
X215787640Y-64690160D03*
X204807220Y-63775760D03*
X202709180Y-63775760D03*
X222599920Y-64690160D03*
X220501880Y-64690160D03*
X209313180Y-63775760D03*
X207215140Y-63775760D03*
X226562320Y-64715560D03*
X224464280Y-64715560D03*
D20*
X207164983Y-149239605D03*
X207164983Y-155479605D03*
D21*
X213554743Y-139542765D03*
X219794743Y-139542765D03*
X253795183Y-101722165D03*
X247555183Y-101722165D03*
X274468243Y-107691165D03*
X268228243Y-107691165D03*
X257141143Y-135798805D03*
X263381143Y-135798805D03*
X253795183Y-107310165D03*
X247555183Y-107310165D03*
X274468243Y-113111525D03*
X268228243Y-113111525D03*
X257217343Y-129994905D03*
X263457343Y-129994905D03*
X253795183Y-112954045D03*
X247555183Y-112954045D03*
X274468243Y-118801125D03*
X268228243Y-118801125D03*
X257293543Y-124368805D03*
X263533543Y-124368805D03*
X253795183Y-118597925D03*
X247555183Y-118597925D03*
X274554603Y-124490725D03*
X268314603Y-124490725D03*
X257293543Y-118730005D03*
X263533543Y-118730005D03*
X236211543Y-138491205D03*
X242451543Y-138491205D03*
X274554603Y-130093965D03*
X268314603Y-130093965D03*
X257293543Y-113167405D03*
X263533543Y-113167405D03*
X253795183Y-124297685D03*
X247555183Y-124297685D03*
X274646043Y-135692125D03*
X268406043Y-135692125D03*
X257252903Y-107528605D03*
X263492903Y-107528605D03*
X253820583Y-130058405D03*
X247580583Y-130058405D03*
X257217343Y-101925365D03*
X263457343Y-101925365D03*
X253820583Y-135808965D03*
X247580583Y-135808965D03*
X257141143Y-141374105D03*
X263381143Y-141374105D03*
D19*
X229847183Y-94112325D03*
X231945223Y-94112325D03*
X229910683Y-90683325D03*
X232008723Y-90683325D03*
X232011263Y-88046805D03*
X229913223Y-88046805D03*
X229910683Y-84180925D03*
X232008723Y-84180925D03*
X203263543Y-153677865D03*
X203263543Y-151579825D03*
D12*
X179270703Y-93451925D03*
X185620703Y-93451925D03*
D22*
X211673483Y-152318545D03*
X211673483Y-153218545D03*
D23*
X207756383Y-136570965D03*
X208656383Y-136570965D03*
D22*
X227538323Y-152420145D03*
X227538323Y-153320145D03*
D23*
X203997183Y-120894085D03*
X204897183Y-120894085D03*
D24*
X198169583Y-153243525D03*
X200869583Y-153243525D03*
D25*
X197924463Y-156205165D03*
X200718463Y-156205165D03*
D26*
X225859383Y-144475845D03*
X223319383Y-150875845D03*
X220779383Y-144475845D03*
D27*
X198788463Y-122489205D03*
X205188463Y-125029205D03*
X198788463Y-127569205D03*
D26*
X241355923Y-144300585D03*
X238815923Y-150700585D03*
X236275923Y-144300585D03*
D27*
X196223063Y-107589565D03*
X202623063Y-110129565D03*
X196223063Y-112669565D03*
D28*
X218208903Y-94023425D03*
X218208903Y-91483425D03*
X218208903Y-90213425D03*
X218208903Y-88943425D03*
X218208903Y-87673425D03*
X218208903Y-86403425D03*
X218208903Y-85133425D03*
X224558903Y-85133425D03*
X224558903Y-86403425D03*
X224558903Y-87673425D03*
X224558903Y-88943425D03*
X224558903Y-90213425D03*
X224558903Y-91483425D03*
X224558903Y-92753425D03*
X224558903Y-94023425D03*
X218208903Y-92753425D03*
D29*
X204647863Y-98272845D03*
X204647863Y-99542845D03*
X204647863Y-100812845D03*
X204647863Y-102082845D03*
X204647863Y-103352845D03*
X204647863Y-104622845D03*
X204647863Y-105892845D03*
X204647863Y-107162845D03*
X210047863Y-107162845D03*
X210047863Y-105892845D03*
X210047863Y-104622845D03*
X210047863Y-103352845D03*
X210047863Y-102082845D03*
X210047863Y-100812845D03*
X210047863Y-99542845D03*
X210047863Y-98272845D03*
D30*
X236626463Y-95443285D03*
X236626463Y-96713285D03*
X236626463Y-97983285D03*
X236626463Y-99253285D03*
X242026463Y-99253285D03*
X242026463Y-97983285D03*
X242026463Y-96713285D03*
X242026463Y-95443285D03*
D31*
X239913963Y-97935785D03*
X239913963Y-96760785D03*
X238738963Y-97935785D03*
X238738963Y-96760785D03*
D30*
X236786483Y-85483945D03*
X236786483Y-86753945D03*
X236786483Y-88023945D03*
X236786483Y-89293945D03*
X242186483Y-89293945D03*
X242186483Y-88023945D03*
X242186483Y-86753945D03*
X242186483Y-85483945D03*
D31*
X240073983Y-87976445D03*
X240073983Y-86801445D03*
X238898983Y-87976445D03*
X238898983Y-86801445D03*
D32*
X213349883Y-153009845D03*
X218429883Y-153009845D03*
D33*
X215889883Y-146311865D03*
D32*
X214619883Y-153009845D03*
X215889883Y-153009845D03*
X217159883Y-153009845D03*
D34*
X207312303Y-134792965D03*
X207312303Y-129712965D03*
D35*
X200614323Y-132252965D03*
D34*
X207312303Y-133522965D03*
X207312303Y-132252965D03*
X207312303Y-130982965D03*
D32*
X229138523Y-152895545D03*
X234218523Y-152895545D03*
D33*
X231678523Y-146197565D03*
D32*
X230408523Y-152895545D03*
X231678523Y-152895545D03*
X232948523Y-152895545D03*
D34*
X204457343Y-119570745D03*
X204457343Y-114490745D03*
D35*
X197759363Y-117030745D03*
D34*
X204457343Y-118300745D03*
X204457343Y-117030745D03*
X204457343Y-115760745D03*
D21*
X180306143Y-121955805D03*
X186546143Y-121955805D03*
D36*
X187647623Y-84389205D03*
X187647623Y-88991685D03*
D37*
X193896023Y-86690445D03*
D21*
X180275663Y-110104165D03*
X186515663Y-110104165D03*
X180306143Y-115910605D03*
X186546143Y-115910605D03*
D38*
X198681383Y-137575405D03*
X198681383Y-140575405D03*
X202450743Y-137519525D03*
X202450743Y-140519525D03*
D39*
X263020103Y-148514045D03*
X263020103Y-149784045D03*
X263020103Y-147244045D03*
X263020103Y-145974045D03*
X263086143Y-154721805D03*
X263086143Y-155991805D03*
X263086143Y-153451805D03*
X263086143Y-152181805D03*
D40*
X272872243Y-146918405D03*
X274142243Y-146918405D03*
X271602243Y-146918405D03*
X270332243Y-146918405D03*
X245264983Y-153238965D03*
X243994983Y-153238965D03*
X246534983Y-153238965D03*
X247804983Y-153238965D03*
X272539503Y-92549705D03*
X273809503Y-92549705D03*
X271269503Y-92549705D03*
X269999503Y-92549705D03*
D39*
X263363003Y-95021645D03*
X263363003Y-96291645D03*
X263363003Y-93751645D03*
X263363003Y-92481645D03*
X263368083Y-88801185D03*
X263368083Y-90071185D03*
X263368083Y-87531185D03*
X263368083Y-86261185D03*
D41*
X91400000Y-27700000D03*
D42*
X93000000Y-27700000D03*
X89800000Y-27700000D03*
D10*
G36*
X39983557Y-120137917D02*
X36086443Y-122387917D01*
X35436443Y-121262083D01*
X39333557Y-119012083D01*
X39983557Y-120137917D01*
X39983557Y-120137917D01*
G37*
G36*
X39083557Y-118579070D02*
X35186443Y-120829070D01*
X34736443Y-120049648D01*
X38633557Y-117799648D01*
X39083557Y-118579070D01*
X39083557Y-118579070D01*
G37*
G36*
X40683557Y-121350352D02*
X36786443Y-123600352D01*
X36336443Y-122820930D01*
X40233557Y-120570930D01*
X40683557Y-121350352D01*
X40683557Y-121350352D01*
G37*
G36*
X143466443Y-119012083D02*
X147363557Y-121262083D01*
X146713557Y-122387917D01*
X142816443Y-120137917D01*
X143466443Y-119012083D01*
X143466443Y-119012083D01*
G37*
G36*
X142566443Y-120570930D02*
X146463557Y-122820930D01*
X146013557Y-123600352D01*
X142116443Y-121350352D01*
X142566443Y-120570930D01*
X142566443Y-120570930D01*
G37*
G36*
X144166443Y-117799648D02*
X148063557Y-120049648D01*
X147613557Y-120829070D01*
X143716443Y-118579070D01*
X144166443Y-117799648D01*
X144166443Y-117799648D01*
G37*
G36*
X75314491Y-32161565D02*
X74149805Y-27814899D01*
X75405509Y-27478435D01*
X76570195Y-31825101D01*
X75314491Y-32161565D01*
X75314491Y-32161565D01*
G37*
G36*
X77053157Y-31695692D02*
X75888472Y-27349025D01*
X76757805Y-27116088D01*
X77922490Y-31462755D01*
X77053157Y-31695692D01*
X77053157Y-31695692D01*
G37*
G36*
X73962195Y-32523912D02*
X72797510Y-28177245D01*
X73666843Y-27944308D01*
X74831528Y-32290975D01*
X73962195Y-32523912D01*
X73962195Y-32523912D01*
G37*
G36*
X49610610Y-132408629D02*
X46428629Y-135590610D01*
X45509390Y-134671371D01*
X48691371Y-131489390D01*
X49610610Y-132408629D01*
X49610610Y-132408629D01*
G37*
G36*
X48337817Y-131135837D02*
X45155837Y-134317817D01*
X44519441Y-133681421D01*
X47701421Y-130499441D01*
X48337817Y-131135837D01*
X48337817Y-131135837D01*
G37*
G36*
X50600559Y-133398579D02*
X47418579Y-136580559D01*
X46782183Y-135944163D01*
X49964163Y-132762183D01*
X50600559Y-133398579D01*
X50600559Y-133398579D01*
G37*
G36*
X149274899Y-104529805D02*
X153621565Y-105694491D01*
X153285101Y-106950195D01*
X148938435Y-105785509D01*
X149274899Y-104529805D01*
X149274899Y-104529805D01*
G37*
G36*
X148809025Y-106268472D02*
X153155692Y-107433157D01*
X152922755Y-108302490D01*
X148576088Y-107137805D01*
X148809025Y-106268472D01*
X148809025Y-106268472D01*
G37*
G36*
X149637245Y-103177510D02*
X153983912Y-104342195D01*
X153750975Y-105211528D01*
X149404308Y-104046843D01*
X149637245Y-103177510D01*
X149637245Y-103177510D01*
G37*
G36*
X60962083Y-38283557D02*
X58712083Y-34386443D01*
X59837917Y-33736443D01*
X62087917Y-37633557D01*
X60962083Y-38283557D01*
X60962083Y-38283557D01*
G37*
G36*
X62520930Y-37383557D02*
X60270930Y-33486443D01*
X61050352Y-33036443D01*
X63300352Y-36933557D01*
X62520930Y-37383557D01*
X62520930Y-37383557D01*
G37*
G36*
X59749648Y-38983557D02*
X57499648Y-35086443D01*
X58279070Y-34636443D01*
X60529070Y-38533557D01*
X59749648Y-38983557D01*
X59749648Y-38983557D01*
G37*
G36*
X62087917Y-141766443D02*
X59837917Y-145663557D01*
X58712083Y-145013557D01*
X60962083Y-141116443D01*
X62087917Y-141766443D01*
X62087917Y-141766443D01*
G37*
G36*
X60529070Y-140866443D02*
X58279070Y-144763557D01*
X57499648Y-144313557D01*
X59749648Y-140416443D01*
X60529070Y-140866443D01*
X60529070Y-140866443D01*
G37*
G36*
X63300352Y-142466443D02*
X61050352Y-146363557D01*
X60270930Y-145913557D01*
X62520930Y-142016443D01*
X63300352Y-142466443D01*
X63300352Y-142466443D01*
G37*
D43*
X153400000Y-89700000D03*
D44*
X153400000Y-91300000D03*
X153400000Y-88100000D03*
D10*
G36*
X48691371Y-47910610D02*
X45509390Y-44728629D01*
X46428629Y-43809390D01*
X49610610Y-46991371D01*
X48691371Y-47910610D01*
X48691371Y-47910610D01*
G37*
G36*
X49964163Y-46637817D02*
X46782183Y-43455837D01*
X47418579Y-42819441D01*
X50600559Y-46001421D01*
X49964163Y-46637817D01*
X49964163Y-46637817D01*
G37*
G36*
X47701421Y-48900559D02*
X44519441Y-45718579D01*
X45155837Y-45082183D01*
X48337817Y-48264163D01*
X47701421Y-48900559D01*
X47701421Y-48900559D01*
G37*
G36*
X76570195Y-147574899D02*
X75405509Y-151921565D01*
X74149805Y-151585101D01*
X75314491Y-147238435D01*
X76570195Y-147574899D01*
X76570195Y-147574899D01*
G37*
G36*
X74831528Y-147109025D02*
X73666843Y-151455692D01*
X72797510Y-151222755D01*
X73962195Y-146876088D01*
X74831528Y-147109025D01*
X74831528Y-147109025D01*
G37*
G36*
X77922490Y-147937245D02*
X76757805Y-152283912D01*
X75888472Y-152050975D01*
X77053157Y-147704308D01*
X77922490Y-147937245D01*
X77922490Y-147937245D01*
G37*
G36*
X148938435Y-73614491D02*
X153285101Y-72449805D01*
X153621565Y-73705509D01*
X149274899Y-74870195D01*
X148938435Y-73614491D01*
X148938435Y-73614491D01*
G37*
G36*
X149404308Y-75353157D02*
X153750975Y-74188472D01*
X153983912Y-75057805D01*
X149637245Y-76222490D01*
X149404308Y-75353157D01*
X149404308Y-75353157D01*
G37*
G36*
X148576088Y-72262195D02*
X152922755Y-71097510D01*
X153155692Y-71966843D01*
X148809025Y-73131528D01*
X148576088Y-72262195D01*
X148576088Y-72262195D01*
G37*
G36*
X39333557Y-60387917D02*
X35436443Y-58137917D01*
X36086443Y-57012083D01*
X39983557Y-59262083D01*
X39333557Y-60387917D01*
X39333557Y-60387917D01*
G37*
G36*
X40233557Y-58829070D02*
X36336443Y-56579070D01*
X36786443Y-55799648D01*
X40683557Y-58049648D01*
X40233557Y-58829070D01*
X40233557Y-58829070D01*
G37*
G36*
X38633557Y-61600352D02*
X34736443Y-59350352D01*
X35186443Y-58570930D01*
X39083557Y-60820930D01*
X38633557Y-61600352D01*
X38633557Y-61600352D01*
G37*
D41*
X91400000Y-151700000D03*
D42*
X89800000Y-151700000D03*
X93000000Y-151700000D03*
D10*
G36*
X142816443Y-59262083D02*
X146713557Y-57012083D01*
X147363557Y-58137917D01*
X143466443Y-60387917D01*
X142816443Y-59262083D01*
X142816443Y-59262083D01*
G37*
G36*
X143716443Y-60820930D02*
X147613557Y-58570930D01*
X148063557Y-59350352D01*
X144166443Y-61600352D01*
X143716443Y-60820930D01*
X143716443Y-60820930D01*
G37*
G36*
X142116443Y-58049648D02*
X146013557Y-55799648D01*
X146463557Y-56579070D01*
X142566443Y-58829070D01*
X142116443Y-58049648D01*
X142116443Y-58049648D01*
G37*
G36*
X33525101Y-74870195D02*
X29178435Y-73705509D01*
X29514899Y-72449805D01*
X33861565Y-73614491D01*
X33525101Y-74870195D01*
X33525101Y-74870195D01*
G37*
G36*
X33990975Y-73131528D02*
X29644308Y-71966843D01*
X29877245Y-71097510D01*
X34223912Y-72262195D01*
X33990975Y-73131528D01*
X33990975Y-73131528D01*
G37*
G36*
X33162755Y-76222490D02*
X28816088Y-75057805D01*
X29049025Y-74188472D01*
X33395692Y-75353157D01*
X33162755Y-76222490D01*
X33162755Y-76222490D01*
G37*
G36*
X107485509Y-147238435D02*
X108650195Y-151585101D01*
X107394491Y-151921565D01*
X106229805Y-147574899D01*
X107485509Y-147238435D01*
X107485509Y-147238435D01*
G37*
G36*
X105746843Y-147704308D02*
X106911528Y-152050975D01*
X106042195Y-152283912D01*
X104877510Y-147937245D01*
X105746843Y-147704308D01*
X105746843Y-147704308D01*
G37*
G36*
X108837805Y-146876088D02*
X110002490Y-151222755D01*
X109133157Y-151455692D01*
X107968472Y-147109025D01*
X108837805Y-146876088D01*
X108837805Y-146876088D01*
G37*
G36*
X133189390Y-46991371D02*
X136371371Y-43809390D01*
X137290610Y-44728629D01*
X134108629Y-47910610D01*
X133189390Y-46991371D01*
X133189390Y-46991371D01*
G37*
G36*
X134462183Y-48264163D02*
X137644163Y-45082183D01*
X138280559Y-45718579D01*
X135098579Y-48900559D01*
X134462183Y-48264163D01*
X134462183Y-48264163D01*
G37*
G36*
X132199441Y-46001421D02*
X135381421Y-42819441D01*
X136017817Y-43455837D01*
X132835837Y-46637817D01*
X132199441Y-46001421D01*
X132199441Y-46001421D01*
G37*
D43*
X29400000Y-89700000D03*
D44*
X29400000Y-88100000D03*
X29400000Y-91300000D03*
D10*
G36*
X121837917Y-141116443D02*
X124087917Y-145013557D01*
X122962083Y-145663557D01*
X120712083Y-141766443D01*
X121837917Y-141116443D01*
X121837917Y-141116443D01*
G37*
G36*
X120279070Y-142016443D02*
X122529070Y-145913557D01*
X121749648Y-146363557D01*
X119499648Y-142466443D01*
X120279070Y-142016443D01*
X120279070Y-142016443D01*
G37*
G36*
X123050352Y-140416443D02*
X125300352Y-144313557D01*
X124520930Y-144763557D01*
X122270930Y-140866443D01*
X123050352Y-140416443D01*
X123050352Y-140416443D01*
G37*
G36*
X120712083Y-37633557D02*
X122962083Y-33736443D01*
X124087917Y-34386443D01*
X121837917Y-38283557D01*
X120712083Y-37633557D01*
X120712083Y-37633557D01*
G37*
G36*
X122270930Y-38533557D02*
X124520930Y-34636443D01*
X125300352Y-35086443D01*
X123050352Y-38983557D01*
X122270930Y-38533557D01*
X122270930Y-38533557D01*
G37*
G36*
X119499648Y-36933557D02*
X121749648Y-33036443D01*
X122529070Y-33486443D01*
X120279070Y-37383557D01*
X119499648Y-36933557D01*
X119499648Y-36933557D01*
G37*
G36*
X33861565Y-105785509D02*
X29514899Y-106950195D01*
X29178435Y-105694491D01*
X33525101Y-104529805D01*
X33861565Y-105785509D01*
X33861565Y-105785509D01*
G37*
G36*
X33395692Y-104046843D02*
X29049025Y-105211528D01*
X28816088Y-104342195D01*
X33162755Y-103177510D01*
X33395692Y-104046843D01*
X33395692Y-104046843D01*
G37*
G36*
X34223912Y-107137805D02*
X29877245Y-108302490D01*
X29644308Y-107433157D01*
X33990975Y-106268472D01*
X34223912Y-107137805D01*
X34223912Y-107137805D01*
G37*
G36*
X134108629Y-131489390D02*
X137290610Y-134671371D01*
X136371371Y-135590610D01*
X133189390Y-132408629D01*
X134108629Y-131489390D01*
X134108629Y-131489390D01*
G37*
G36*
X132835837Y-132762183D02*
X136017817Y-135944163D01*
X135381421Y-136580559D01*
X132199441Y-133398579D01*
X132835837Y-132762183D01*
X132835837Y-132762183D01*
G37*
G36*
X135098579Y-130499441D02*
X138280559Y-133681421D01*
X137644163Y-134317817D01*
X134462183Y-131135837D01*
X135098579Y-130499441D01*
X135098579Y-130499441D01*
G37*
G36*
X106189805Y-31825101D02*
X107354491Y-27478435D01*
X108610195Y-27814899D01*
X107445509Y-32161565D01*
X106189805Y-31825101D01*
X106189805Y-31825101D01*
G37*
G36*
X107928472Y-32290975D02*
X109093157Y-27944308D01*
X109962490Y-28177245D01*
X108797805Y-32523912D01*
X107928472Y-32290975D01*
X107928472Y-32290975D01*
G37*
G36*
X104837510Y-31462755D02*
X106002195Y-27116088D01*
X106871528Y-27349025D01*
X105706843Y-31695692D01*
X104837510Y-31462755D01*
X104837510Y-31462755D01*
G37*
D43*
X226758543Y-120050805D03*
D44*
X226758543Y-118450805D03*
X226758543Y-121650805D03*
D43*
X220662543Y-120050805D03*
D44*
X220662543Y-118450805D03*
X220662543Y-121650805D03*
D43*
X213972183Y-120111765D03*
D44*
X213972183Y-118511765D03*
X213972183Y-121711765D03*
D43*
X238605103Y-125080005D03*
D44*
X238605103Y-123480005D03*
X238605103Y-126680005D03*
D43*
X221627743Y-115199405D03*
D44*
X221627743Y-113599405D03*
X221627743Y-116799405D03*
D43*
X215191383Y-114701565D03*
D44*
X215191383Y-113101565D03*
X215191383Y-116301565D03*
D43*
X235226903Y-129885685D03*
D44*
X235226903Y-128285685D03*
X235226903Y-131485685D03*
D43*
X226758543Y-113954805D03*
D44*
X226758543Y-112354805D03*
X226758543Y-115554805D03*
D43*
X219021703Y-109880645D03*
D44*
X219021703Y-108280645D03*
X219021703Y-111480645D03*
D43*
X229943703Y-132593325D03*
D44*
X229943703Y-130993325D03*
X229943703Y-134193325D03*
D43*
X232016343Y-115135905D03*
D44*
X232016343Y-113535905D03*
X232016343Y-116735905D03*
D43*
X224132183Y-107533685D03*
D44*
X224132183Y-105933685D03*
X224132183Y-109133685D03*
D43*
X224162663Y-132567925D03*
D44*
X224162663Y-130967925D03*
X224162663Y-134167925D03*
D43*
X232854543Y-120050805D03*
D44*
X232854543Y-118450805D03*
X232854543Y-121650805D03*
D43*
X229471263Y-107477805D03*
D44*
X229471263Y-105877805D03*
X229471263Y-109077805D03*
D43*
X218915023Y-130109205D03*
D44*
X218915023Y-128509205D03*
X218915023Y-131709205D03*
D43*
X231978243Y-124991105D03*
D44*
X231978243Y-123391105D03*
X231978243Y-126591105D03*
D43*
X234917023Y-110104165D03*
D44*
X234917023Y-108504165D03*
X234917023Y-111704165D03*
D43*
X215226943Y-125334005D03*
D44*
X215226943Y-123734005D03*
X215226943Y-126934005D03*
D43*
X226758543Y-126146805D03*
D44*
X226758543Y-124546805D03*
X226758543Y-127746805D03*
D43*
X238605103Y-115077485D03*
D44*
X238605103Y-113477485D03*
X238605103Y-116677485D03*
D43*
X221513443Y-124826005D03*
D44*
X221513443Y-123226005D03*
X221513443Y-126426005D03*
D43*
X239610943Y-120050805D03*
D44*
X239610943Y-118450805D03*
X239610943Y-121650805D03*
D45*
X252176520Y-48447338D03*
X252176520Y-46947338D03*
X250376520Y-46947338D03*
X250376520Y-48447338D03*
D22*
X252176520Y-47697338D03*
X250376520Y-47697338D03*
D45*
X243352560Y-48397808D03*
X243352560Y-46897808D03*
X241552560Y-46897808D03*
X241552560Y-48397808D03*
D22*
X243352560Y-47647808D03*
X241552560Y-47647808D03*
D45*
X234396520Y-48435972D03*
X234396520Y-46935972D03*
X232596520Y-46935972D03*
X232596520Y-48435972D03*
D22*
X234396520Y-47685972D03*
X232596520Y-47685972D03*
D45*
X261066520Y-48424642D03*
X261066520Y-46924642D03*
X259266520Y-46924642D03*
X259266520Y-48424642D03*
D22*
X261066520Y-47674642D03*
X259266520Y-47674642D03*
D46*
X263521860Y-25241420D03*
X265025540Y-25241420D03*
X193397304Y-56432240D03*
X191893624Y-56432240D03*
X193397304Y-53855956D03*
X191893624Y-53855956D03*
X193397305Y-51279670D03*
X191893625Y-51279670D03*
X193397304Y-48703384D03*
X191893624Y-48703384D03*
D47*
X217473840Y-66704380D03*
X217473840Y-68208060D03*
X214897555Y-66704380D03*
X214897555Y-68208060D03*
X212321271Y-66704380D03*
X212321271Y-68208060D03*
X209744985Y-66704380D03*
X209744985Y-68208060D03*
X205515880Y-33087480D03*
X205515880Y-34591160D03*
X203039380Y-33138280D03*
X203039380Y-34641960D03*
X198010180Y-33227180D03*
X198010180Y-34730860D03*
X200588280Y-33163680D03*
X200588280Y-34667360D03*
D46*
X233620980Y-21997840D03*
X235124660Y-21997840D03*
D47*
X197263954Y-48174452D03*
X197263954Y-49678132D03*
X214012180Y-48355420D03*
X214012180Y-49859100D03*
X195739954Y-49683212D03*
X195739954Y-48179532D03*
X212488180Y-49859100D03*
X212488180Y-48355420D03*
X193619054Y-61898072D03*
X193619054Y-60394392D03*
X212297680Y-61860600D03*
X212297680Y-60356920D03*
X195333554Y-61926012D03*
X195333554Y-60422332D03*
X213885180Y-61860600D03*
X213885180Y-60356920D03*
X200324654Y-48149052D03*
X200324654Y-49652732D03*
X216869680Y-48355420D03*
X216869680Y-49859100D03*
X198800654Y-49665432D03*
X198800654Y-48161752D03*
X215472680Y-49859100D03*
X215472680Y-48355420D03*
X217441180Y-32935080D03*
X217441180Y-34438760D03*
X212564380Y-32858880D03*
X212564380Y-34362560D03*
X220133580Y-32935080D03*
X220133580Y-34438760D03*
X215040881Y-32935080D03*
X215040881Y-34438760D03*
X198381554Y-61875212D03*
X198381554Y-60371532D03*
X215790180Y-61860600D03*
X215790180Y-60356920D03*
X199994454Y-61862512D03*
X199994454Y-60358832D03*
X217314180Y-61860600D03*
X217314180Y-60356920D03*
X203359954Y-48136352D03*
X203359954Y-49640032D03*
X219727180Y-48355420D03*
X219727180Y-49859100D03*
X201835954Y-49652733D03*
X201835954Y-48149053D03*
X218330180Y-49859100D03*
X218330180Y-48355420D03*
X202963180Y-61850440D03*
X202963180Y-60346760D03*
X219536680Y-61860600D03*
X219536680Y-60356920D03*
X204614180Y-61850440D03*
X204614180Y-60346760D03*
X221124180Y-61860600D03*
X221124180Y-60356920D03*
X206382555Y-48123652D03*
X206382555Y-49627332D03*
X222711680Y-48355420D03*
X222711680Y-49859100D03*
X204845854Y-49640032D03*
X204845854Y-48136352D03*
X221187680Y-49859100D03*
X221187680Y-48355420D03*
X207471680Y-61850440D03*
X207471680Y-60346760D03*
X223410180Y-61860600D03*
X223410180Y-60356920D03*
X209249680Y-61850440D03*
X209249680Y-60346760D03*
X225950180Y-61987600D03*
X225950180Y-60483920D03*
X262610000Y-36204060D03*
X262610000Y-37707740D03*
X260755800Y-33407520D03*
X260755800Y-34911200D03*
X238022800Y-35149960D03*
X238022800Y-36653640D03*
X238467300Y-33514200D03*
X238467300Y-32010520D03*
D46*
X200830223Y-99527605D03*
X202333903Y-99527605D03*
X200850543Y-101742485D03*
X202354223Y-101742485D03*
X200850543Y-106111285D03*
X202354223Y-106111285D03*
X200830223Y-104038645D03*
X202333903Y-104038645D03*
D47*
X214017903Y-95478845D03*
X214017903Y-93975165D03*
X215694303Y-93987865D03*
X215694303Y-95491545D03*
D46*
X228028543Y-94620325D03*
X226524863Y-94620325D03*
X228003143Y-93121725D03*
X226499463Y-93121725D03*
D47*
X214058543Y-92291145D03*
X214058543Y-90787465D03*
X215643503Y-90787465D03*
X215643503Y-92291145D03*
D46*
X227990443Y-91508825D03*
X226486763Y-91508825D03*
X228015843Y-90073725D03*
X226512163Y-90073725D03*
D47*
X214068703Y-89243145D03*
X214068703Y-87739465D03*
X215643503Y-87739465D03*
X215643503Y-89243145D03*
D46*
X228028543Y-88587825D03*
X226524863Y-88587825D03*
X228015843Y-87140025D03*
X226512163Y-87140025D03*
D47*
X214081403Y-85928445D03*
X214081403Y-84424765D03*
X215630803Y-84399365D03*
X215630803Y-85903045D03*
D46*
X228028543Y-85641425D03*
X226524863Y-85641425D03*
X228028543Y-84092025D03*
X226524863Y-84092025D03*
D47*
X203288943Y-155509205D03*
X203288943Y-157012885D03*
D46*
X248074223Y-155925765D03*
X246570543Y-155925765D03*
X211480443Y-155029145D03*
X212984123Y-155029145D03*
X221442323Y-152425645D03*
X219938643Y-152425645D03*
X221442323Y-153911545D03*
X219938643Y-153911545D03*
D47*
X210080903Y-136598905D03*
X210080903Y-135095225D03*
D46*
X227573883Y-155054545D03*
X229077563Y-155054545D03*
D47*
X206580783Y-121229365D03*
X206580783Y-119725685D03*
X206791603Y-126891025D03*
X206791603Y-128394705D03*
D46*
X237281763Y-152311345D03*
X235778083Y-152311345D03*
D47*
X203812183Y-111780565D03*
X203812183Y-113284245D03*
X208493403Y-126891025D03*
X208493403Y-128394705D03*
D46*
X237281763Y-153822645D03*
X235778083Y-153822645D03*
D47*
X205346343Y-111805965D03*
X205346343Y-113309645D03*
X265468143Y-151823665D03*
X265468143Y-153327345D03*
X265958363Y-92212405D03*
X265958363Y-93716085D03*
D46*
X269374663Y-90040705D03*
X270878343Y-90040705D03*
D47*
X265478303Y-145587965D03*
X265478303Y-147091645D03*
X265851683Y-86581225D03*
X265851683Y-88084905D03*
D46*
X270151903Y-144485605D03*
X271655583Y-144485605D03*
D47*
X248822880Y-47031858D03*
X248822880Y-48535538D03*
X240181800Y-46874600D03*
X240181800Y-48378280D03*
D46*
X252180760Y-45711058D03*
X250677080Y-45711058D03*
X243361880Y-45509128D03*
X241858200Y-45509128D03*
D47*
X253775880Y-48459338D03*
X253775880Y-46955658D03*
X245094160Y-48409808D03*
X245094160Y-46906128D03*
D46*
X250372280Y-49749658D03*
X251875960Y-49749658D03*
X241827720Y-49837288D03*
X243331400Y-49837288D03*
D47*
X257575720Y-46907562D03*
X257575720Y-48411242D03*
X230702520Y-46913812D03*
X230702520Y-48417492D03*
D46*
X261070760Y-45505482D03*
X259567080Y-45505482D03*
X234395680Y-45608252D03*
X232892000Y-45608252D03*
D47*
X262635400Y-48817642D03*
X262635400Y-47313962D03*
X235899360Y-49179492D03*
X235899360Y-47675812D03*
D46*
X259302920Y-49935242D03*
X260806600Y-49935242D03*
X232587200Y-49875452D03*
X234090880Y-49875452D03*
D47*
X237382720Y-21205360D03*
X237382720Y-22709040D03*
X247674800Y-22897000D03*
X247674800Y-21393320D03*
D46*
X198027960Y-45690960D03*
X196524280Y-45690960D03*
X205762260Y-45729060D03*
X204258580Y-45729060D03*
X212582160Y-45957660D03*
X211078480Y-45957660D03*
X220466320Y-45894160D03*
X218962640Y-45894160D03*
D47*
X212280543Y-93919285D03*
X212280543Y-95422965D03*
X212280543Y-84419685D03*
X212280543Y-85923365D03*
D46*
X252884340Y-51698060D03*
X254388020Y-51698060D03*
X237603700Y-51939360D03*
X239107380Y-51939360D03*
X249381680Y-66518960D03*
X247878000Y-66518960D03*
X234400760Y-66531660D03*
X232897080Y-66531660D03*
X257400460Y-66544360D03*
X255896780Y-66544360D03*
X242160460Y-66607860D03*
X240656780Y-66607860D03*
X246320980Y-66506260D03*
X244817300Y-66506260D03*
X254296580Y-66544360D03*
X252792900Y-66544360D03*
X231289260Y-66531660D03*
X229785580Y-66531660D03*
X238993080Y-66607860D03*
X237489400Y-66607860D03*
X257433480Y-68246160D03*
X258937160Y-68246160D03*
X242124900Y-68423960D03*
X243628580Y-68423960D03*
X238648160Y-101300000D03*
X240151840Y-101300000D03*
X240169743Y-102870245D03*
X238666063Y-102870245D03*
X240251840Y-91100000D03*
X238748160Y-91100000D03*
D47*
X214600000Y-156651840D03*
X214600000Y-155148160D03*
D46*
X216748160Y-156500000D03*
X218251840Y-156500000D03*
X211151840Y-133600000D03*
X209648160Y-133600000D03*
D47*
X230500000Y-156651840D03*
X230500000Y-155148160D03*
D46*
X208251840Y-118200000D03*
X206748160Y-118200000D03*
D47*
X211100000Y-131751840D03*
X211100000Y-130248160D03*
D46*
X232448160Y-156500000D03*
X233951840Y-156500000D03*
D47*
X208200000Y-116351840D03*
X208200000Y-114848160D03*
D48*
X245299900Y-35787500D03*
X245299900Y-33882500D03*
D49*
X264540400Y-32968100D03*
X262635400Y-32968100D03*
X240473900Y-37895700D03*
X242378900Y-37895700D03*
D48*
X189700000Y-95452500D03*
X189700000Y-93547500D03*
X189800000Y-123952500D03*
X189800000Y-122047500D03*
X197900000Y-150752500D03*
X197900000Y-148847500D03*
D46*
X238748160Y-92900000D03*
X240251840Y-92900000D03*
M02*
