G04 #@! TF.FileFunction,Soldermask,Top*
%FSLAX46Y46*%
G04 Gerber Fmt 4.6, Leading zero omitted, Abs format (unit mm)*
G04 Created by KiCad (PCBNEW 4.0.1-stable) date 2/3/2016 11:10:25 AM*
%MOMM*%
G01*
G04 APERTURE LIST*
%ADD10C,0.100000*%
%ADD11C,4.464000*%
%ADD12C,8.160000*%
%ADD13C,1.797000*%
%ADD14R,1.000000X2.350000*%
%ADD15R,4.591000X3.956000*%
%ADD16O,2.398980X2.398980*%
%ADD17R,2.398980X2.398980*%
%ADD18R,1.400760X1.101040*%
%ADD19C,1.050000*%
%ADD20R,1.000000X1.900000*%
%ADD21R,0.908000X1.543000*%
%ADD22R,1.100000X0.750000*%
%ADD23R,2.198320X1.197560*%
%ADD24R,1.598880X1.598880*%
%ADD25R,2.830000X2.770000*%
%ADD26R,2.770000X2.830000*%
%ADD27R,1.000000X0.800000*%
%ADD28R,0.800000X1.000000*%
%ADD29R,1.900000X1.600000*%
%ADD30R,2.000200X2.203400*%
%ADD31R,1.593800X3.702000*%
%ADD32R,3.702000X1.593800*%
%ADD33R,1.543000X0.908000*%
%ADD34R,1.900000X1.000000*%
%ADD35R,1.950000X1.000000*%
%ADD36R,1.575000X1.575000*%
%ADD37R,0.996900X2.398980*%
%ADD38R,5.998160X6.899860*%
%ADD39R,2.398980X0.996900*%
%ADD40R,6.899860X5.998160*%
%ADD41C,2.150000*%
%ADD42R,3.600400X2.000200*%
%ADD43R,7.400240X6.899860*%
%ADD44C,2.400000*%
%ADD45R,2.900000X1.400000*%
%ADD46C,1.136600*%
%ADD47R,1.300000X0.850000*%
%ADD48R,1.700000X4.850000*%
%ADD49R,3.450000X4.350000*%
%ADD50R,0.850000X1.300000*%
%ADD51R,4.850000X1.700000*%
%ADD52R,4.350000X3.450000*%
%ADD53R,1.700000X4.900000*%
%ADD54R,1.300000X4.900000*%
%ADD55R,4.900000X1.700000*%
%ADD56R,4.900000X1.300000*%
%ADD57R,1.000000X1.000000*%
%ADD58C,2.398980*%
%ADD59R,1.299160X1.400760*%
%ADD60R,1.400760X1.299160*%
%ADD61R,1.898600X1.700480*%
%ADD62R,1.700480X1.898600*%
G04 APERTURE END LIST*
D10*
D11*
X159910000Y-103330000D03*
X77770000Y-158210000D03*
X22890000Y-76070000D03*
X52590000Y-31620000D03*
X130210000Y-147780000D03*
X33320000Y-128510000D03*
D12*
X155930000Y-62970000D03*
X64670000Y-154230000D03*
X118130000Y-154230000D03*
X118130000Y-25170000D03*
X155930000Y-116430000D03*
X64670000Y-25170000D03*
X26670000Y-62970000D03*
D11*
X105030000Y-21190000D03*
X149480000Y-50890000D03*
D13*
X262533800Y-28091300D03*
X259993800Y-28091300D03*
X257453800Y-28091300D03*
X254913800Y-28091300D03*
X252373800Y-28091300D03*
X249833800Y-28091300D03*
X247293800Y-28091300D03*
X244753800Y-28091300D03*
X242213800Y-28091300D03*
X239673800Y-28091300D03*
X237133800Y-28091300D03*
X234593800Y-28091300D03*
X232053800Y-28091300D03*
X232053800Y-43331300D03*
X234593800Y-43331300D03*
X237133800Y-43331300D03*
X239673800Y-43331300D03*
X242213800Y-43331300D03*
X244753800Y-43331300D03*
X247293800Y-43331300D03*
X249833800Y-43331300D03*
X252373800Y-43331300D03*
X254913800Y-43331300D03*
X257453800Y-43331300D03*
X259993800Y-43331300D03*
X262533800Y-43331300D03*
X265073800Y-43331300D03*
X265073800Y-28091300D03*
D14*
X241794700Y-54496140D03*
X240524700Y-54496140D03*
X239254700Y-54496140D03*
X237984700Y-54496140D03*
X236714700Y-54496140D03*
X235444700Y-54496140D03*
X234174700Y-54496140D03*
X232904700Y-54496140D03*
X231634700Y-54496140D03*
X230364700Y-54496140D03*
X230364700Y-63896140D03*
X231634700Y-63896140D03*
X232904700Y-63896140D03*
X234174700Y-63896140D03*
X235444700Y-63896140D03*
X236714700Y-63896140D03*
X237984700Y-63896140D03*
X239254700Y-63896140D03*
X240524700Y-63896140D03*
X241794700Y-63896140D03*
D15*
X194263680Y-72792760D03*
X200613680Y-72792760D03*
D16*
X187939080Y-59610160D03*
D17*
X187939080Y-67230160D03*
D16*
X187939080Y-64690160D03*
X187939080Y-62150160D03*
X229366480Y-22328040D03*
D17*
X221746480Y-22328040D03*
D16*
X224286480Y-22328040D03*
X226826480Y-22328040D03*
X226775680Y-72665760D03*
D17*
X231855680Y-72665760D03*
D16*
X229315680Y-72665760D03*
X244111180Y-72665760D03*
D17*
X249191180Y-72665760D03*
D16*
X246651180Y-72665760D03*
X235475180Y-72729260D03*
D17*
X240555180Y-72729260D03*
D16*
X238015180Y-72729260D03*
X252797980Y-72716560D03*
D17*
X257877980Y-72716560D03*
D16*
X255337980Y-72716560D03*
D18*
X242907220Y-23712340D03*
X242907220Y-22762380D03*
X242907220Y-21812420D03*
X240509460Y-23712340D03*
X240509460Y-21812420D03*
X240509460Y-22762380D03*
X252089320Y-23826640D03*
X252089320Y-22876680D03*
X252089320Y-21926720D03*
X249691560Y-23826640D03*
X249691560Y-21926720D03*
X249691560Y-22876680D03*
D19*
X215810638Y-55009397D03*
X215810638Y-54009397D03*
X215810638Y-56009397D03*
D20*
X205553980Y-37474060D03*
X204283980Y-37474060D03*
X203013980Y-37474060D03*
X201743980Y-37474060D03*
X200473980Y-37474060D03*
X199203980Y-37474060D03*
X197933980Y-37474060D03*
X196663980Y-37474060D03*
X196663980Y-42874060D03*
X197933980Y-42874060D03*
X199203980Y-42874060D03*
X200473980Y-42874060D03*
X201743980Y-42874060D03*
X203013980Y-42874060D03*
X204283980Y-42874060D03*
X205553980Y-42874060D03*
D21*
X196628954Y-51875232D03*
X199168954Y-51875232D03*
X200438954Y-51875232D03*
X201708954Y-51875232D03*
X202978954Y-51875232D03*
X204248954Y-51875232D03*
X205518954Y-51875232D03*
X205518954Y-58225232D03*
X204248954Y-58225232D03*
X202978954Y-58225232D03*
X201708954Y-58225232D03*
X200438954Y-58225232D03*
X199168954Y-58225232D03*
X197898954Y-58225232D03*
X196628954Y-58225232D03*
X197898954Y-51875232D03*
X213123180Y-51774260D03*
X215663180Y-51774260D03*
X216933180Y-51774260D03*
X218203180Y-51774260D03*
X219473180Y-51774260D03*
X220743180Y-51774260D03*
X222013180Y-51774260D03*
X222013180Y-58124260D03*
X220743180Y-58124260D03*
X219473180Y-58124260D03*
X218203180Y-58124260D03*
X216933180Y-58124260D03*
X215663180Y-58124260D03*
X214393180Y-58124260D03*
X213123180Y-58124260D03*
X214393180Y-51774260D03*
D20*
X220108180Y-37397860D03*
X218838180Y-37397860D03*
X217568180Y-37397860D03*
X216298180Y-37397860D03*
X215028180Y-37397860D03*
X213758180Y-37397860D03*
X212488180Y-37397860D03*
X211218180Y-37397860D03*
X211218180Y-42797860D03*
X212488180Y-42797860D03*
X213758180Y-42797860D03*
X215028180Y-42797860D03*
X216298180Y-42797860D03*
X217568180Y-42797860D03*
X218838180Y-42797860D03*
X220108180Y-42797860D03*
D22*
X240179700Y-35736700D03*
X240179700Y-35086700D03*
X240179700Y-34436700D03*
X240179700Y-33786700D03*
X242429700Y-33786700D03*
X242429700Y-34436700D03*
X242429700Y-35086700D03*
X242429700Y-35736700D03*
D23*
X258596800Y-37476600D03*
X258596800Y-36206600D03*
X258596800Y-34936600D03*
X258596800Y-33666600D03*
X253262800Y-33666600D03*
X253262800Y-34936600D03*
X253262800Y-36206600D03*
X253262800Y-37476600D03*
D14*
X256933100Y-54356440D03*
X255663100Y-54356440D03*
X254393100Y-54356440D03*
X253123100Y-54356440D03*
X251853100Y-54356440D03*
X250583100Y-54356440D03*
X249313100Y-54356440D03*
X248043100Y-54356440D03*
X246773100Y-54356440D03*
X245503100Y-54356440D03*
X245503100Y-63756440D03*
X246773100Y-63756440D03*
X248043100Y-63756440D03*
X249313100Y-63756440D03*
X250583100Y-63756440D03*
X251853100Y-63756440D03*
X253123100Y-63756440D03*
X254393100Y-63756440D03*
X255663100Y-63756440D03*
X256933100Y-63756440D03*
D11*
X263915680Y-72848760D03*
X187915680Y-72848760D03*
X187915680Y-20848760D03*
X263915680Y-20848760D03*
D24*
X261728620Y-25266820D03*
X259630580Y-25266820D03*
X195663754Y-63838632D03*
X193565714Y-63838632D03*
X214078220Y-63775760D03*
X211980180Y-63775760D03*
X199908093Y-63825932D03*
X197810053Y-63825932D03*
X217885680Y-64690160D03*
X215787640Y-64690160D03*
X204807220Y-63775760D03*
X202709180Y-63775760D03*
X222599920Y-64690160D03*
X220501880Y-64690160D03*
X209313180Y-63775760D03*
X207215140Y-63775760D03*
X226562320Y-64715560D03*
X224464280Y-64715560D03*
D16*
X187977180Y-48662759D03*
D17*
X187977180Y-56282759D03*
D16*
X187977180Y-53742759D03*
X187977180Y-51202759D03*
X209821179Y-72665760D03*
D17*
X217441179Y-72665760D03*
D16*
X214901179Y-72665760D03*
X212361179Y-72665760D03*
D25*
X207164983Y-149239605D03*
X207164983Y-155479605D03*
D26*
X213554743Y-139542765D03*
X219794743Y-139542765D03*
X253795183Y-101722165D03*
X247555183Y-101722165D03*
X274468243Y-107691165D03*
X268228243Y-107691165D03*
X257141143Y-135798805D03*
X263381143Y-135798805D03*
X253795183Y-107310165D03*
X247555183Y-107310165D03*
X274468243Y-113111525D03*
X268228243Y-113111525D03*
X257217343Y-129994905D03*
X263457343Y-129994905D03*
X253795183Y-112954045D03*
X247555183Y-112954045D03*
X274468243Y-118801125D03*
X268228243Y-118801125D03*
X257293543Y-124368805D03*
X263533543Y-124368805D03*
X253795183Y-118597925D03*
X247555183Y-118597925D03*
X274554603Y-124490725D03*
X268314603Y-124490725D03*
X257293543Y-118730005D03*
X263533543Y-118730005D03*
X236211543Y-138491205D03*
X242451543Y-138491205D03*
X274554603Y-130093965D03*
X268314603Y-130093965D03*
X257293543Y-113167405D03*
X263533543Y-113167405D03*
X253795183Y-124297685D03*
X247555183Y-124297685D03*
X274646043Y-135692125D03*
X268406043Y-135692125D03*
X257252903Y-107528605D03*
X263492903Y-107528605D03*
X253820583Y-130058405D03*
X247580583Y-130058405D03*
X257217343Y-101925365D03*
X263457343Y-101925365D03*
X253820583Y-135808965D03*
X247580583Y-135808965D03*
X257141143Y-141374105D03*
X263381143Y-141374105D03*
D24*
X229847183Y-94112325D03*
X231945223Y-94112325D03*
X229910683Y-90683325D03*
X232008723Y-90683325D03*
X232011263Y-88046805D03*
X229913223Y-88046805D03*
X229910683Y-84180925D03*
X232008723Y-84180925D03*
X203263543Y-153677865D03*
X203263543Y-151579825D03*
D15*
X179270703Y-93451925D03*
X185620703Y-93451925D03*
D27*
X211673483Y-152318545D03*
X211673483Y-153218545D03*
D28*
X207756383Y-136570965D03*
X208656383Y-136570965D03*
D27*
X227538323Y-152420145D03*
X227538323Y-153320145D03*
D28*
X203997183Y-120894085D03*
X204897183Y-120894085D03*
D29*
X198169583Y-153243525D03*
X200869583Y-153243525D03*
D16*
X181317943Y-86395805D03*
D17*
X178777943Y-86395805D03*
D16*
X208114943Y-86624405D03*
D17*
X200494943Y-86624405D03*
D16*
X203034943Y-86624405D03*
X205574943Y-86624405D03*
D30*
X197924463Y-156205165D03*
X200718463Y-156205165D03*
D31*
X225859383Y-144475845D03*
X223319383Y-150875845D03*
X220779383Y-144475845D03*
D32*
X198788463Y-122489205D03*
X205188463Y-125029205D03*
X198788463Y-127569205D03*
D31*
X241355923Y-144300585D03*
X238815923Y-150700585D03*
X236275923Y-144300585D03*
D32*
X196223063Y-107589565D03*
X202623063Y-110129565D03*
X196223063Y-112669565D03*
D33*
X218208903Y-94023425D03*
X218208903Y-91483425D03*
X218208903Y-90213425D03*
X218208903Y-88943425D03*
X218208903Y-87673425D03*
X218208903Y-86403425D03*
X218208903Y-85133425D03*
X224558903Y-85133425D03*
X224558903Y-86403425D03*
X224558903Y-87673425D03*
X224558903Y-88943425D03*
X224558903Y-90213425D03*
X224558903Y-91483425D03*
X224558903Y-92753425D03*
X224558903Y-94023425D03*
X218208903Y-92753425D03*
D34*
X204647863Y-98272845D03*
X204647863Y-99542845D03*
X204647863Y-100812845D03*
X204647863Y-102082845D03*
X204647863Y-103352845D03*
X204647863Y-104622845D03*
X204647863Y-105892845D03*
X204647863Y-107162845D03*
X210047863Y-107162845D03*
X210047863Y-105892845D03*
X210047863Y-104622845D03*
X210047863Y-103352845D03*
X210047863Y-102082845D03*
X210047863Y-100812845D03*
X210047863Y-99542845D03*
X210047863Y-98272845D03*
D35*
X236626463Y-95443285D03*
X236626463Y-96713285D03*
X236626463Y-97983285D03*
X236626463Y-99253285D03*
X242026463Y-99253285D03*
X242026463Y-97983285D03*
X242026463Y-96713285D03*
X242026463Y-95443285D03*
D36*
X239913963Y-97935785D03*
X239913963Y-96760785D03*
X238738963Y-97935785D03*
X238738963Y-96760785D03*
D35*
X236786483Y-85483945D03*
X236786483Y-86753945D03*
X236786483Y-88023945D03*
X236786483Y-89293945D03*
X242186483Y-89293945D03*
X242186483Y-88023945D03*
X242186483Y-86753945D03*
X242186483Y-85483945D03*
D36*
X240073983Y-87976445D03*
X240073983Y-86801445D03*
X238898983Y-87976445D03*
X238898983Y-86801445D03*
D37*
X213349883Y-153009845D03*
X218429883Y-153009845D03*
D38*
X215889883Y-146311865D03*
D37*
X214619883Y-153009845D03*
X215889883Y-153009845D03*
X217159883Y-153009845D03*
D39*
X207312303Y-134792965D03*
X207312303Y-129712965D03*
D40*
X200614323Y-132252965D03*
D39*
X207312303Y-133522965D03*
X207312303Y-132252965D03*
X207312303Y-130982965D03*
D37*
X229138523Y-152895545D03*
X234218523Y-152895545D03*
D38*
X231678523Y-146197565D03*
D37*
X230408523Y-152895545D03*
X231678523Y-152895545D03*
X232948523Y-152895545D03*
D39*
X204457343Y-119570745D03*
X204457343Y-114490745D03*
D40*
X197759363Y-117030745D03*
D39*
X204457343Y-118300745D03*
X204457343Y-117030745D03*
X204457343Y-115760745D03*
D26*
X180306143Y-121955805D03*
X186546143Y-121955805D03*
D41*
X179001463Y-104038645D03*
X191701463Y-104038645D03*
X191701463Y-98958645D03*
X179001463Y-98958645D03*
D42*
X187647623Y-84389205D03*
X187647623Y-88991685D03*
D43*
X193896023Y-86690445D03*
D44*
X178838903Y-127315205D03*
X178838903Y-129855205D03*
X178838903Y-132395205D03*
X178838903Y-147635205D03*
X178838903Y-152715205D03*
X194078903Y-152715205D03*
X194078903Y-147635205D03*
X194078903Y-132395205D03*
X194078903Y-129855205D03*
D11*
X201358543Y-145450805D03*
X201358543Y-94650805D03*
X252158543Y-94650805D03*
X252158543Y-145450805D03*
D26*
X180275663Y-110104165D03*
X186515663Y-110104165D03*
X180306143Y-115910605D03*
X186546143Y-115910605D03*
D45*
X198681383Y-137575405D03*
X198681383Y-140575405D03*
X202450743Y-137519525D03*
X202450743Y-140519525D03*
D16*
X253164383Y-86126565D03*
D17*
X248084383Y-86126565D03*
D16*
X250624383Y-86126565D03*
D46*
X259242603Y-149403045D03*
X258417103Y-148615645D03*
X258417103Y-146418545D03*
X259242603Y-147434545D03*
X257274103Y-147180545D03*
X257274103Y-146037545D03*
X257274103Y-148514045D03*
D47*
X263020103Y-148514045D03*
X263020103Y-149784045D03*
X263020103Y-147244045D03*
D48*
X257545103Y-147879045D03*
D49*
X259745103Y-147879045D03*
D47*
X263020103Y-145974045D03*
D46*
X257274103Y-149657045D03*
X259308643Y-155610805D03*
X258483143Y-154823405D03*
X258483143Y-152626305D03*
X259308643Y-153642305D03*
X257340143Y-153388305D03*
X257340143Y-152245305D03*
X257340143Y-154721805D03*
D47*
X263086143Y-154721805D03*
X263086143Y-155991805D03*
X263086143Y-153451805D03*
D48*
X257611143Y-154086805D03*
D49*
X259811143Y-154086805D03*
D47*
X263086143Y-152181805D03*
D46*
X257340143Y-155864805D03*
X273761243Y-150695905D03*
X272973843Y-151521405D03*
X270776743Y-151521405D03*
X271792743Y-150695905D03*
X271538743Y-152664405D03*
X270395743Y-152664405D03*
X272872243Y-152664405D03*
D50*
X272872243Y-146918405D03*
X274142243Y-146918405D03*
X271602243Y-146918405D03*
D51*
X272237243Y-152393405D03*
D52*
X272237243Y-150193405D03*
D50*
X270332243Y-146918405D03*
D46*
X274015243Y-152664405D03*
X244375983Y-149461465D03*
X245163383Y-148635965D03*
X247360483Y-148635965D03*
X246344483Y-149461465D03*
X246598483Y-147492965D03*
X247741483Y-147492965D03*
X245264983Y-147492965D03*
D50*
X245264983Y-153238965D03*
X243994983Y-153238965D03*
X246534983Y-153238965D03*
D51*
X245899983Y-147763965D03*
D52*
X245899983Y-149963965D03*
D50*
X247804983Y-153238965D03*
D46*
X244121983Y-147492965D03*
X273428503Y-96327205D03*
X272641103Y-97152705D03*
X270444003Y-97152705D03*
X271460003Y-96327205D03*
X271206003Y-98295705D03*
X270063003Y-98295705D03*
X272539503Y-98295705D03*
D50*
X272539503Y-92549705D03*
X273809503Y-92549705D03*
X271269503Y-92549705D03*
D51*
X271904503Y-98024705D03*
D52*
X271904503Y-95824705D03*
D50*
X269999503Y-92549705D03*
D46*
X273682503Y-98295705D03*
X259585503Y-95910645D03*
X258760003Y-95123245D03*
X258760003Y-92926145D03*
X259585503Y-93942145D03*
X257617003Y-93688145D03*
X257617003Y-92545145D03*
X257617003Y-95021645D03*
D47*
X263363003Y-95021645D03*
X263363003Y-96291645D03*
X263363003Y-93751645D03*
D48*
X257888003Y-94386645D03*
D49*
X260088003Y-94386645D03*
D47*
X263363003Y-92481645D03*
D46*
X257617003Y-96164645D03*
X259590583Y-89690185D03*
X258765083Y-88902785D03*
X258765083Y-86705685D03*
X259590583Y-87721685D03*
X257622083Y-87467685D03*
X257622083Y-86324685D03*
X257622083Y-88801185D03*
D47*
X263368083Y-88801185D03*
X263368083Y-90071185D03*
X263368083Y-87531185D03*
D48*
X257893083Y-88166185D03*
D49*
X260093083Y-88166185D03*
D47*
X263368083Y-86261185D03*
D46*
X257622083Y-89944185D03*
D53*
X91400000Y-27700000D03*
D54*
X93000000Y-27700000D03*
X89800000Y-27700000D03*
D46*
X92987500Y-26874500D03*
X92987500Y-28462000D03*
X91400000Y-26874500D03*
X91400000Y-28462000D03*
X89812500Y-26874500D03*
X89812500Y-28462000D03*
D10*
G36*
X40256762Y-120211122D02*
X36013238Y-122661122D01*
X35163238Y-121188878D01*
X39406762Y-118738878D01*
X40256762Y-120211122D01*
X40256762Y-120211122D01*
G37*
G36*
X39356762Y-118652276D02*
X35113238Y-121102276D01*
X34463238Y-119976442D01*
X38706762Y-117526442D01*
X39356762Y-118652276D01*
X39356762Y-118652276D01*
G37*
G36*
X40956762Y-121423558D02*
X36713238Y-123873558D01*
X36063238Y-122747724D01*
X40306762Y-120297724D01*
X40956762Y-121423558D01*
X40956762Y-121423558D01*
G37*
D46*
X36201346Y-119737935D03*
X37576161Y-118944185D03*
X36995096Y-121112750D03*
X38369911Y-120319000D03*
X37788846Y-122487565D03*
X39163661Y-121693815D03*
D10*
G36*
X143393238Y-118738878D02*
X147636762Y-121188878D01*
X146786762Y-122661122D01*
X142543238Y-120211122D01*
X143393238Y-118738878D01*
X143393238Y-118738878D01*
G37*
G36*
X142493238Y-120297724D02*
X146736762Y-122747724D01*
X146086762Y-123873558D01*
X141843238Y-121423558D01*
X142493238Y-120297724D01*
X142493238Y-120297724D01*
G37*
G36*
X144093238Y-117526442D02*
X148336762Y-119976442D01*
X147686762Y-121102276D01*
X143443238Y-118652276D01*
X144093238Y-117526442D01*
X144093238Y-117526442D01*
G37*
D46*
X145011154Y-122487565D03*
X143636339Y-121693815D03*
X145804904Y-121112750D03*
X144430089Y-120319000D03*
X146598654Y-119737935D03*
X145223839Y-118944185D03*
D10*
G36*
X75173070Y-32406514D02*
X73904856Y-27673478D01*
X75546930Y-27233486D01*
X76815144Y-31966522D01*
X75173070Y-32406514D01*
X75173070Y-32406514D01*
G37*
G36*
X76911736Y-31940641D02*
X75643523Y-27207604D01*
X76899226Y-26871139D01*
X78167439Y-31604176D01*
X76911736Y-31940641D01*
X76911736Y-31940641D01*
G37*
G36*
X73820774Y-32768861D02*
X72552561Y-28035824D01*
X73808264Y-27699359D01*
X75076477Y-32432396D01*
X73820774Y-32768861D01*
X73820774Y-32768861D01*
G37*
D46*
X76679752Y-28611753D03*
X77090627Y-30145160D03*
X75146345Y-29022628D03*
X75557220Y-30556035D03*
X73612938Y-29433503D03*
X74023813Y-30966911D03*
D10*
G36*
X49893452Y-132408629D02*
X46428629Y-135873452D01*
X45226548Y-134671371D01*
X48691371Y-131206548D01*
X49893452Y-132408629D01*
X49893452Y-132408629D01*
G37*
G36*
X48620660Y-131135837D02*
X45155837Y-134600660D01*
X44236598Y-133681421D01*
X47701421Y-130216598D01*
X48620660Y-131135837D01*
X48620660Y-131135837D01*
G37*
G36*
X50883402Y-133398579D02*
X47418579Y-136863402D01*
X46499340Y-135944163D01*
X49964163Y-132479340D01*
X50883402Y-133398579D01*
X50883402Y-133398579D01*
G37*
D46*
X45853751Y-133001185D03*
X46976283Y-131878653D03*
X46976283Y-134123717D03*
X48098815Y-133001185D03*
X48098815Y-135246249D03*
X49221347Y-134123717D03*
D10*
G36*
X149133478Y-104284856D02*
X153866514Y-105553070D01*
X153426522Y-107195144D01*
X148693486Y-105926930D01*
X149133478Y-104284856D01*
X149133478Y-104284856D01*
G37*
G36*
X148667604Y-106023523D02*
X153400641Y-107291736D01*
X153064176Y-108547439D01*
X148331139Y-107279226D01*
X148667604Y-106023523D01*
X148667604Y-106023523D01*
G37*
G36*
X149495824Y-102932561D02*
X154228861Y-104200774D01*
X153892396Y-105456477D01*
X149159359Y-104188264D01*
X149495824Y-102932561D01*
X149495824Y-102932561D01*
G37*
D46*
X151666497Y-107487062D03*
X150133089Y-107076187D03*
X152077372Y-105953655D03*
X150543965Y-105542780D03*
X152488247Y-104420248D03*
X150954840Y-104009373D03*
D10*
G36*
X60888878Y-38556762D02*
X58438878Y-34313238D01*
X59911122Y-33463238D01*
X62361122Y-37706762D01*
X60888878Y-38556762D01*
X60888878Y-38556762D01*
G37*
G36*
X62447724Y-37656762D02*
X59997724Y-33413238D01*
X61123558Y-32763238D01*
X63573558Y-37006762D01*
X62447724Y-37656762D01*
X62447724Y-37656762D01*
G37*
G36*
X59676442Y-39256762D02*
X57226442Y-35013238D01*
X58352276Y-34363238D01*
X60802276Y-38606762D01*
X59676442Y-39256762D01*
X59676442Y-39256762D01*
G37*
D46*
X61362065Y-34501346D03*
X62155815Y-35876161D03*
X59987250Y-35295096D03*
X60781000Y-36669911D03*
X58612435Y-36088846D03*
X59406185Y-37463661D03*
D10*
G36*
X62361122Y-141693238D02*
X59911122Y-145936762D01*
X58438878Y-145086762D01*
X60888878Y-140843238D01*
X62361122Y-141693238D01*
X62361122Y-141693238D01*
G37*
G36*
X60802276Y-140793238D02*
X58352276Y-145036762D01*
X57226442Y-144386762D01*
X59676442Y-140143238D01*
X60802276Y-140793238D01*
X60802276Y-140793238D01*
G37*
G36*
X63573558Y-142393238D02*
X61123558Y-146636762D01*
X59997724Y-145986762D01*
X62447724Y-141743238D01*
X63573558Y-142393238D01*
X63573558Y-142393238D01*
G37*
D46*
X58612435Y-143311154D03*
X59406185Y-141936339D03*
X59987250Y-144104904D03*
X60781000Y-142730089D03*
X61362065Y-144898654D03*
X62155815Y-143523839D03*
D55*
X153400000Y-89700000D03*
D56*
X153400000Y-91300000D03*
X153400000Y-88100000D03*
D46*
X154225500Y-91287500D03*
X152638000Y-91287500D03*
X154225500Y-89700000D03*
X152638000Y-89700000D03*
X154225500Y-88112500D03*
X152638000Y-88112500D03*
D10*
G36*
X48691371Y-48193452D02*
X45226548Y-44728629D01*
X46428629Y-43526548D01*
X49893452Y-46991371D01*
X48691371Y-48193452D01*
X48691371Y-48193452D01*
G37*
G36*
X49964163Y-46920660D02*
X46499340Y-43455837D01*
X47418579Y-42536598D01*
X50883402Y-46001421D01*
X49964163Y-46920660D01*
X49964163Y-46920660D01*
G37*
G36*
X47701421Y-49183402D02*
X44236598Y-45718579D01*
X45155837Y-44799340D01*
X48620660Y-48264163D01*
X47701421Y-49183402D01*
X47701421Y-49183402D01*
G37*
D46*
X48098815Y-44153751D03*
X49221347Y-45276283D03*
X46976283Y-45276283D03*
X48098815Y-46398815D03*
X45853751Y-46398815D03*
X46976283Y-47521347D03*
D10*
G36*
X76815144Y-147433478D02*
X75546930Y-152166514D01*
X73904856Y-151726522D01*
X75173070Y-146993486D01*
X76815144Y-147433478D01*
X76815144Y-147433478D01*
G37*
G36*
X75076477Y-146967604D02*
X73808264Y-151700641D01*
X72552561Y-151364176D01*
X73820774Y-146631139D01*
X75076477Y-146967604D01*
X75076477Y-146967604D01*
G37*
G36*
X78167439Y-147795824D02*
X76899226Y-152528861D01*
X75643523Y-152192396D01*
X76911736Y-147459359D01*
X78167439Y-147795824D01*
X78167439Y-147795824D01*
G37*
D46*
X73612938Y-149966497D03*
X74023813Y-148433089D03*
X75146345Y-150377372D03*
X75557220Y-148843965D03*
X76679752Y-150788247D03*
X77090627Y-149254840D03*
D10*
G36*
X148693486Y-73473070D02*
X153426522Y-72204856D01*
X153866514Y-73846930D01*
X149133478Y-75115144D01*
X148693486Y-73473070D01*
X148693486Y-73473070D01*
G37*
G36*
X149159359Y-75211736D02*
X153892396Y-73943523D01*
X154228861Y-75199226D01*
X149495824Y-76467439D01*
X149159359Y-75211736D01*
X149159359Y-75211736D01*
G37*
G36*
X148331139Y-72120774D02*
X153064176Y-70852561D01*
X153400641Y-72108264D01*
X148667604Y-73376477D01*
X148331139Y-72120774D01*
X148331139Y-72120774D01*
G37*
D46*
X152488247Y-74979752D03*
X150954840Y-75390627D03*
X152077372Y-73446345D03*
X150543965Y-73857220D03*
X151666497Y-71912938D03*
X150133089Y-72323813D03*
D10*
G36*
X39406762Y-60661122D02*
X35163238Y-58211122D01*
X36013238Y-56738878D01*
X40256762Y-59188878D01*
X39406762Y-60661122D01*
X39406762Y-60661122D01*
G37*
G36*
X40306762Y-59102276D02*
X36063238Y-56652276D01*
X36713238Y-55526442D01*
X40956762Y-57976442D01*
X40306762Y-59102276D01*
X40306762Y-59102276D01*
G37*
G36*
X38706762Y-61873558D02*
X34463238Y-59423558D01*
X35113238Y-58297724D01*
X39356762Y-60747724D01*
X38706762Y-61873558D01*
X38706762Y-61873558D01*
G37*
D46*
X37788846Y-56912435D03*
X39163661Y-57706185D03*
X36995096Y-58287250D03*
X38369911Y-59081000D03*
X36201346Y-59662065D03*
X37576161Y-60455815D03*
D53*
X91400000Y-151700000D03*
D54*
X89800000Y-151700000D03*
X93000000Y-151700000D03*
D46*
X89812500Y-152525500D03*
X89812500Y-150938000D03*
X91400000Y-152525500D03*
X91400000Y-150938000D03*
X92987500Y-152525500D03*
X92987500Y-150938000D03*
D10*
G36*
X142543238Y-59188878D02*
X146786762Y-56738878D01*
X147636762Y-58211122D01*
X143393238Y-60661122D01*
X142543238Y-59188878D01*
X142543238Y-59188878D01*
G37*
G36*
X143443238Y-60747724D02*
X147686762Y-58297724D01*
X148336762Y-59423558D01*
X144093238Y-61873558D01*
X143443238Y-60747724D01*
X143443238Y-60747724D01*
G37*
G36*
X141843238Y-57976442D02*
X146086762Y-55526442D01*
X146736762Y-56652276D01*
X142493238Y-59102276D01*
X141843238Y-57976442D01*
X141843238Y-57976442D01*
G37*
D46*
X146598654Y-59662065D03*
X145223839Y-60455815D03*
X145804904Y-58287250D03*
X144430089Y-59081000D03*
X145011154Y-56912435D03*
X143636339Y-57706185D03*
D10*
G36*
X33666522Y-75115144D02*
X28933486Y-73846930D01*
X29373478Y-72204856D01*
X34106514Y-73473070D01*
X33666522Y-75115144D01*
X33666522Y-75115144D01*
G37*
G36*
X34132396Y-73376477D02*
X29399359Y-72108264D01*
X29735824Y-70852561D01*
X34468861Y-72120774D01*
X34132396Y-73376477D01*
X34132396Y-73376477D01*
G37*
G36*
X33304176Y-76467439D02*
X28571139Y-75199226D01*
X28907604Y-73943523D01*
X33640641Y-75211736D01*
X33304176Y-76467439D01*
X33304176Y-76467439D01*
G37*
D46*
X31133503Y-71912938D03*
X32666911Y-72323813D03*
X30722628Y-73446345D03*
X32256035Y-73857220D03*
X30311753Y-74979752D03*
X31845160Y-75390627D03*
D10*
G36*
X107626930Y-146993486D02*
X108895144Y-151726522D01*
X107253070Y-152166514D01*
X105984856Y-147433478D01*
X107626930Y-146993486D01*
X107626930Y-146993486D01*
G37*
G36*
X105888264Y-147459359D02*
X107156477Y-152192396D01*
X105900774Y-152528861D01*
X104632561Y-147795824D01*
X105888264Y-147459359D01*
X105888264Y-147459359D01*
G37*
G36*
X108979226Y-146631139D02*
X110247439Y-151364176D01*
X108991736Y-151700641D01*
X107723523Y-146967604D01*
X108979226Y-146631139D01*
X108979226Y-146631139D01*
G37*
D46*
X106120248Y-150788247D03*
X105709373Y-149254840D03*
X107653655Y-150377372D03*
X107242780Y-148843965D03*
X109187062Y-149966497D03*
X108776187Y-148433089D03*
D10*
G36*
X132906548Y-46991371D02*
X136371371Y-43526548D01*
X137573452Y-44728629D01*
X134108629Y-48193452D01*
X132906548Y-46991371D01*
X132906548Y-46991371D01*
G37*
G36*
X134179340Y-48264163D02*
X137644163Y-44799340D01*
X138563402Y-45718579D01*
X135098579Y-49183402D01*
X134179340Y-48264163D01*
X134179340Y-48264163D01*
G37*
G36*
X131916598Y-46001421D02*
X135381421Y-42536598D01*
X136300660Y-43455837D01*
X132835837Y-46920660D01*
X131916598Y-46001421D01*
X131916598Y-46001421D01*
G37*
D46*
X136946249Y-46398815D03*
X135823717Y-47521347D03*
X135823717Y-45276283D03*
X134701185Y-46398815D03*
X134701185Y-44153751D03*
X133578653Y-45276283D03*
D55*
X29400000Y-89700000D03*
D56*
X29400000Y-88100000D03*
X29400000Y-91300000D03*
D46*
X28574500Y-88112500D03*
X30162000Y-88112500D03*
X28574500Y-89700000D03*
X30162000Y-89700000D03*
X28574500Y-91287500D03*
X30162000Y-91287500D03*
D10*
G36*
X121911122Y-140843238D02*
X124361122Y-145086762D01*
X122888878Y-145936762D01*
X120438878Y-141693238D01*
X121911122Y-140843238D01*
X121911122Y-140843238D01*
G37*
G36*
X120352276Y-141743238D02*
X122802276Y-145986762D01*
X121676442Y-146636762D01*
X119226442Y-142393238D01*
X120352276Y-141743238D01*
X120352276Y-141743238D01*
G37*
G36*
X123123558Y-140143238D02*
X125573558Y-144386762D01*
X124447724Y-145036762D01*
X121997724Y-140793238D01*
X123123558Y-140143238D01*
X123123558Y-140143238D01*
G37*
D46*
X121437935Y-144898654D03*
X120644185Y-143523839D03*
X122812750Y-144104904D03*
X122019000Y-142730089D03*
X124187565Y-143311154D03*
X123393815Y-141936339D03*
D10*
G36*
X120438878Y-37706762D02*
X122888878Y-33463238D01*
X124361122Y-34313238D01*
X121911122Y-38556762D01*
X120438878Y-37706762D01*
X120438878Y-37706762D01*
G37*
G36*
X121997724Y-38606762D02*
X124447724Y-34363238D01*
X125573558Y-35013238D01*
X123123558Y-39256762D01*
X121997724Y-38606762D01*
X121997724Y-38606762D01*
G37*
G36*
X119226442Y-37006762D02*
X121676442Y-32763238D01*
X122802276Y-33413238D01*
X120352276Y-37656762D01*
X119226442Y-37006762D01*
X119226442Y-37006762D01*
G37*
D46*
X124187565Y-36088846D03*
X123393815Y-37463661D03*
X122812750Y-35295096D03*
X122019000Y-36669911D03*
X121437935Y-34501346D03*
X120644185Y-35876161D03*
D10*
G36*
X34106514Y-105926930D02*
X29373478Y-107195144D01*
X28933486Y-105553070D01*
X33666522Y-104284856D01*
X34106514Y-105926930D01*
X34106514Y-105926930D01*
G37*
G36*
X33640641Y-104188264D02*
X28907604Y-105456477D01*
X28571139Y-104200774D01*
X33304176Y-102932561D01*
X33640641Y-104188264D01*
X33640641Y-104188264D01*
G37*
G36*
X34468861Y-107279226D02*
X29735824Y-108547439D01*
X29399359Y-107291736D01*
X34132396Y-106023523D01*
X34468861Y-107279226D01*
X34468861Y-107279226D01*
G37*
D46*
X30311753Y-104420248D03*
X31845160Y-104009373D03*
X30722628Y-105953655D03*
X32256035Y-105542780D03*
X31133503Y-107487062D03*
X32666911Y-107076187D03*
D10*
G36*
X134108629Y-131206548D02*
X137573452Y-134671371D01*
X136371371Y-135873452D01*
X132906548Y-132408629D01*
X134108629Y-131206548D01*
X134108629Y-131206548D01*
G37*
G36*
X132835837Y-132479340D02*
X136300660Y-135944163D01*
X135381421Y-136863402D01*
X131916598Y-133398579D01*
X132835837Y-132479340D01*
X132835837Y-132479340D01*
G37*
G36*
X135098579Y-130216598D02*
X138563402Y-133681421D01*
X137644163Y-134600660D01*
X134179340Y-131135837D01*
X135098579Y-130216598D01*
X135098579Y-130216598D01*
G37*
D46*
X134701185Y-135246249D03*
X133578653Y-134123717D03*
X135823717Y-134123717D03*
X134701185Y-133001185D03*
X136946249Y-133001185D03*
X135823717Y-131878653D03*
D10*
G36*
X105944856Y-31966522D02*
X107213070Y-27233486D01*
X108855144Y-27673478D01*
X107586930Y-32406514D01*
X105944856Y-31966522D01*
X105944856Y-31966522D01*
G37*
G36*
X107683523Y-32432396D02*
X108951736Y-27699359D01*
X110207439Y-28035824D01*
X108939226Y-32768861D01*
X107683523Y-32432396D01*
X107683523Y-32432396D01*
G37*
G36*
X104592561Y-31604176D02*
X105860774Y-26871139D01*
X107116477Y-27207604D01*
X105848264Y-31940641D01*
X104592561Y-31604176D01*
X104592561Y-31604176D01*
G37*
D46*
X109147062Y-29433503D03*
X108736187Y-30966911D03*
X107613655Y-29022628D03*
X107202780Y-30556035D03*
X106080248Y-28611753D03*
X105669373Y-30145160D03*
X87109940Y-21475600D03*
X87935440Y-20688200D03*
X87935440Y-18491100D03*
X87109940Y-19507100D03*
X89078440Y-19253100D03*
X89078440Y-18110100D03*
X89078440Y-20586600D03*
X89078440Y-21729600D03*
X159680280Y-84627620D03*
X160467680Y-85453120D03*
X162664780Y-85453120D03*
X161648780Y-84627620D03*
X161902780Y-86596120D03*
X163045780Y-86596120D03*
X160569280Y-86596120D03*
X159426280Y-86596120D03*
X22266280Y-90820140D03*
X21478880Y-89994640D03*
X19281780Y-89994640D03*
X20297780Y-90820140D03*
X20043780Y-88851640D03*
X18900780Y-88851640D03*
X21377280Y-88851640D03*
X22520280Y-88851640D03*
X136070728Y-37171350D03*
X137211221Y-37198291D03*
X138764805Y-35644706D03*
X137462668Y-35779410D03*
X139034213Y-36991745D03*
X139842436Y-36183522D03*
X138091286Y-37934672D03*
X137283063Y-38742895D03*
X93393900Y-157772000D03*
X92568400Y-158559400D03*
X92568400Y-160756500D03*
X93393900Y-159740500D03*
X91425400Y-159994500D03*
X91425400Y-161137500D03*
X91425400Y-158661000D03*
X91425400Y-157518000D03*
X44488992Y-139368610D03*
X43348499Y-139341669D03*
X41794915Y-140895254D03*
X43097052Y-140760550D03*
X41525507Y-139548215D03*
X40717284Y-140356438D03*
X42468434Y-138605288D03*
X43276657Y-137797065D03*
D55*
X226758543Y-120050805D03*
D56*
X226758543Y-118450805D03*
X226758543Y-121650805D03*
D46*
X225933043Y-118463305D03*
X227520543Y-118463305D03*
X225933043Y-120050805D03*
X227520543Y-120050805D03*
X225933043Y-121638305D03*
X227520543Y-121638305D03*
D55*
X220662543Y-120050805D03*
D56*
X220662543Y-118450805D03*
X220662543Y-121650805D03*
D46*
X219837043Y-118463305D03*
X221424543Y-118463305D03*
X219837043Y-120050805D03*
X221424543Y-120050805D03*
X219837043Y-121638305D03*
X221424543Y-121638305D03*
D55*
X213972183Y-120111765D03*
D56*
X213972183Y-118511765D03*
X213972183Y-121711765D03*
D46*
X213146683Y-118524265D03*
X214734183Y-118524265D03*
X213146683Y-120111765D03*
X214734183Y-120111765D03*
X213146683Y-121699265D03*
X214734183Y-121699265D03*
D55*
X238605103Y-125080005D03*
D56*
X238605103Y-123480005D03*
X238605103Y-126680005D03*
D46*
X237779603Y-123492505D03*
X239367103Y-123492505D03*
X237779603Y-125080005D03*
X239367103Y-125080005D03*
X237779603Y-126667505D03*
X239367103Y-126667505D03*
D55*
X221627743Y-115199405D03*
D56*
X221627743Y-113599405D03*
X221627743Y-116799405D03*
D46*
X220802243Y-113611905D03*
X222389743Y-113611905D03*
X220802243Y-115199405D03*
X222389743Y-115199405D03*
X220802243Y-116786905D03*
X222389743Y-116786905D03*
D55*
X215191383Y-114701565D03*
D56*
X215191383Y-113101565D03*
X215191383Y-116301565D03*
D46*
X214365883Y-113114065D03*
X215953383Y-113114065D03*
X214365883Y-114701565D03*
X215953383Y-114701565D03*
X214365883Y-116289065D03*
X215953383Y-116289065D03*
D55*
X235226903Y-129885685D03*
D56*
X235226903Y-128285685D03*
X235226903Y-131485685D03*
D46*
X234401403Y-128298185D03*
X235988903Y-128298185D03*
X234401403Y-129885685D03*
X235988903Y-129885685D03*
X234401403Y-131473185D03*
X235988903Y-131473185D03*
D55*
X226758543Y-113954805D03*
D56*
X226758543Y-112354805D03*
X226758543Y-115554805D03*
D46*
X225933043Y-112367305D03*
X227520543Y-112367305D03*
X225933043Y-113954805D03*
X227520543Y-113954805D03*
X225933043Y-115542305D03*
X227520543Y-115542305D03*
D55*
X219021703Y-109880645D03*
D56*
X219021703Y-108280645D03*
X219021703Y-111480645D03*
D46*
X218196203Y-108293145D03*
X219783703Y-108293145D03*
X218196203Y-109880645D03*
X219783703Y-109880645D03*
X218196203Y-111468145D03*
X219783703Y-111468145D03*
D55*
X229943703Y-132593325D03*
D56*
X229943703Y-130993325D03*
X229943703Y-134193325D03*
D46*
X229118203Y-131005825D03*
X230705703Y-131005825D03*
X229118203Y-132593325D03*
X230705703Y-132593325D03*
X229118203Y-134180825D03*
X230705703Y-134180825D03*
D55*
X232016343Y-115135905D03*
D56*
X232016343Y-113535905D03*
X232016343Y-116735905D03*
D46*
X231190843Y-113548405D03*
X232778343Y-113548405D03*
X231190843Y-115135905D03*
X232778343Y-115135905D03*
X231190843Y-116723405D03*
X232778343Y-116723405D03*
D55*
X224132183Y-107533685D03*
D56*
X224132183Y-105933685D03*
X224132183Y-109133685D03*
D46*
X223306683Y-105946185D03*
X224894183Y-105946185D03*
X223306683Y-107533685D03*
X224894183Y-107533685D03*
X223306683Y-109121185D03*
X224894183Y-109121185D03*
D55*
X224162663Y-132567925D03*
D56*
X224162663Y-130967925D03*
X224162663Y-134167925D03*
D46*
X223337163Y-130980425D03*
X224924663Y-130980425D03*
X223337163Y-132567925D03*
X224924663Y-132567925D03*
X223337163Y-134155425D03*
X224924663Y-134155425D03*
D55*
X232854543Y-120050805D03*
D56*
X232854543Y-118450805D03*
X232854543Y-121650805D03*
D46*
X232029043Y-118463305D03*
X233616543Y-118463305D03*
X232029043Y-120050805D03*
X233616543Y-120050805D03*
X232029043Y-121638305D03*
X233616543Y-121638305D03*
D55*
X229471263Y-107477805D03*
D56*
X229471263Y-105877805D03*
X229471263Y-109077805D03*
D46*
X228645763Y-105890305D03*
X230233263Y-105890305D03*
X228645763Y-107477805D03*
X230233263Y-107477805D03*
X228645763Y-109065305D03*
X230233263Y-109065305D03*
D55*
X218915023Y-130109205D03*
D56*
X218915023Y-128509205D03*
X218915023Y-131709205D03*
D46*
X218089523Y-128521705D03*
X219677023Y-128521705D03*
X218089523Y-130109205D03*
X219677023Y-130109205D03*
X218089523Y-131696705D03*
X219677023Y-131696705D03*
D55*
X231978243Y-124991105D03*
D56*
X231978243Y-123391105D03*
X231978243Y-126591105D03*
D46*
X231152743Y-123403605D03*
X232740243Y-123403605D03*
X231152743Y-124991105D03*
X232740243Y-124991105D03*
X231152743Y-126578605D03*
X232740243Y-126578605D03*
D55*
X234917023Y-110104165D03*
D56*
X234917023Y-108504165D03*
X234917023Y-111704165D03*
D46*
X234091523Y-108516665D03*
X235679023Y-108516665D03*
X234091523Y-110104165D03*
X235679023Y-110104165D03*
X234091523Y-111691665D03*
X235679023Y-111691665D03*
D55*
X215226943Y-125334005D03*
D56*
X215226943Y-123734005D03*
X215226943Y-126934005D03*
D46*
X214401443Y-123746505D03*
X215988943Y-123746505D03*
X214401443Y-125334005D03*
X215988943Y-125334005D03*
X214401443Y-126921505D03*
X215988943Y-126921505D03*
D55*
X226758543Y-126146805D03*
D56*
X226758543Y-124546805D03*
X226758543Y-127746805D03*
D46*
X225933043Y-124559305D03*
X227520543Y-124559305D03*
X225933043Y-126146805D03*
X227520543Y-126146805D03*
X225933043Y-127734305D03*
X227520543Y-127734305D03*
D55*
X238605103Y-115077485D03*
D56*
X238605103Y-113477485D03*
X238605103Y-116677485D03*
D46*
X237779603Y-113489985D03*
X239367103Y-113489985D03*
X237779603Y-115077485D03*
X239367103Y-115077485D03*
X237779603Y-116664985D03*
X239367103Y-116664985D03*
D55*
X221513443Y-124826005D03*
D56*
X221513443Y-123226005D03*
X221513443Y-126426005D03*
D46*
X220687943Y-123238505D03*
X222275443Y-123238505D03*
X220687943Y-124826005D03*
X222275443Y-124826005D03*
X220687943Y-126413505D03*
X222275443Y-126413505D03*
D55*
X239610943Y-120050805D03*
D56*
X239610943Y-118450805D03*
X239610943Y-121650805D03*
D46*
X238785443Y-118463305D03*
X240372943Y-118463305D03*
X238785443Y-120050805D03*
X240372943Y-120050805D03*
X238785443Y-121638305D03*
X240372943Y-121638305D03*
D16*
X263016400Y-60656640D03*
D17*
X263016400Y-53036640D03*
D16*
X263016400Y-55576640D03*
X263016400Y-58116640D03*
D57*
X252176520Y-48447338D03*
X252176520Y-46947338D03*
X250376520Y-46947338D03*
X250376520Y-48447338D03*
D27*
X252176520Y-47697338D03*
X250376520Y-47697338D03*
D57*
X243352560Y-48397808D03*
X243352560Y-46897808D03*
X241552560Y-46897808D03*
X241552560Y-48397808D03*
D27*
X243352560Y-47647808D03*
X241552560Y-47647808D03*
D57*
X234396520Y-48435972D03*
X234396520Y-46935972D03*
X232596520Y-46935972D03*
X232596520Y-48435972D03*
D27*
X234396520Y-47685972D03*
X232596520Y-47685972D03*
D57*
X261066520Y-48424642D03*
X261066520Y-46924642D03*
X259266520Y-46924642D03*
X259266520Y-48424642D03*
D27*
X261066520Y-47674642D03*
X259266520Y-47674642D03*
D12*
X26870000Y-116430000D03*
D58*
X40684091Y-41096829D02*
X40684091Y-41096829D01*
D10*
G36*
X37091989Y-42992596D02*
X38788324Y-44688931D01*
X37091989Y-46385266D01*
X35395654Y-44688931D01*
X37091989Y-42992596D01*
X37091989Y-42992596D01*
G37*
D58*
X38888040Y-42892880D02*
X38888040Y-42892880D01*
D59*
X263521860Y-25241420D03*
X265025540Y-25241420D03*
X193397304Y-56432240D03*
X191893624Y-56432240D03*
X193397304Y-53855956D03*
X191893624Y-53855956D03*
X193397305Y-51279670D03*
X191893625Y-51279670D03*
X193397304Y-48703384D03*
X191893624Y-48703384D03*
D60*
X217473840Y-66704380D03*
X217473840Y-68208060D03*
X214897555Y-66704380D03*
X214897555Y-68208060D03*
X212321271Y-66704380D03*
X212321271Y-68208060D03*
X209744985Y-66704380D03*
X209744985Y-68208060D03*
X205515880Y-33087480D03*
X205515880Y-34591160D03*
X203039380Y-33138280D03*
X203039380Y-34641960D03*
X198010180Y-33227180D03*
X198010180Y-34730860D03*
X200588280Y-33163680D03*
X200588280Y-34667360D03*
D59*
X233620980Y-21997840D03*
X235124660Y-21997840D03*
D60*
X197263954Y-48174452D03*
X197263954Y-49678132D03*
X214012180Y-48355420D03*
X214012180Y-49859100D03*
X195739954Y-49683212D03*
X195739954Y-48179532D03*
X212488180Y-49859100D03*
X212488180Y-48355420D03*
X193619054Y-61898072D03*
X193619054Y-60394392D03*
X212297680Y-61860600D03*
X212297680Y-60356920D03*
X195333554Y-61926012D03*
X195333554Y-60422332D03*
X213885180Y-61860600D03*
X213885180Y-60356920D03*
X200324654Y-48149052D03*
X200324654Y-49652732D03*
X216869680Y-48355420D03*
X216869680Y-49859100D03*
X198800654Y-49665432D03*
X198800654Y-48161752D03*
X215472680Y-49859100D03*
X215472680Y-48355420D03*
X217441180Y-32935080D03*
X217441180Y-34438760D03*
X212564380Y-32858880D03*
X212564380Y-34362560D03*
X220133580Y-32935080D03*
X220133580Y-34438760D03*
X215040881Y-32935080D03*
X215040881Y-34438760D03*
X198381554Y-61875212D03*
X198381554Y-60371532D03*
X215790180Y-61860600D03*
X215790180Y-60356920D03*
X199994454Y-61862512D03*
X199994454Y-60358832D03*
X217314180Y-61860600D03*
X217314180Y-60356920D03*
X203359954Y-48136352D03*
X203359954Y-49640032D03*
X219727180Y-48355420D03*
X219727180Y-49859100D03*
X201835954Y-49652733D03*
X201835954Y-48149053D03*
X218330180Y-49859100D03*
X218330180Y-48355420D03*
X202963180Y-61850440D03*
X202963180Y-60346760D03*
X219536680Y-61860600D03*
X219536680Y-60356920D03*
X204614180Y-61850440D03*
X204614180Y-60346760D03*
X221124180Y-61860600D03*
X221124180Y-60356920D03*
X206382555Y-48123652D03*
X206382555Y-49627332D03*
X222711680Y-48355420D03*
X222711680Y-49859100D03*
X204845854Y-49640032D03*
X204845854Y-48136352D03*
X221187680Y-49859100D03*
X221187680Y-48355420D03*
X207471680Y-61850440D03*
X207471680Y-60346760D03*
X223410180Y-61860600D03*
X223410180Y-60356920D03*
X209249680Y-61850440D03*
X209249680Y-60346760D03*
X225950180Y-61987600D03*
X225950180Y-60483920D03*
X262610000Y-36204060D03*
X262610000Y-37707740D03*
X260755800Y-33407520D03*
X260755800Y-34911200D03*
X238022800Y-35149960D03*
X238022800Y-36653640D03*
X238467300Y-33514200D03*
X238467300Y-32010520D03*
D59*
X200830223Y-99527605D03*
X202333903Y-99527605D03*
X200850543Y-101742485D03*
X202354223Y-101742485D03*
X200850543Y-106111285D03*
X202354223Y-106111285D03*
X200830223Y-104038645D03*
X202333903Y-104038645D03*
D60*
X214017903Y-95478845D03*
X214017903Y-93975165D03*
X215694303Y-93987865D03*
X215694303Y-95491545D03*
D59*
X228028543Y-94620325D03*
X226524863Y-94620325D03*
X228003143Y-93121725D03*
X226499463Y-93121725D03*
D60*
X214058543Y-92291145D03*
X214058543Y-90787465D03*
X215643503Y-90787465D03*
X215643503Y-92291145D03*
D59*
X227990443Y-91508825D03*
X226486763Y-91508825D03*
X228015843Y-90073725D03*
X226512163Y-90073725D03*
D60*
X214068703Y-89243145D03*
X214068703Y-87739465D03*
X215643503Y-87739465D03*
X215643503Y-89243145D03*
D59*
X228028543Y-88587825D03*
X226524863Y-88587825D03*
X228015843Y-87140025D03*
X226512163Y-87140025D03*
D60*
X214081403Y-85928445D03*
X214081403Y-84424765D03*
X215630803Y-84399365D03*
X215630803Y-85903045D03*
D59*
X228028543Y-85641425D03*
X226524863Y-85641425D03*
X228028543Y-84092025D03*
X226524863Y-84092025D03*
D60*
X203288943Y-155509205D03*
X203288943Y-157012885D03*
D59*
X248074223Y-155925765D03*
X246570543Y-155925765D03*
X211480443Y-155029145D03*
X212984123Y-155029145D03*
X221442323Y-152425645D03*
X219938643Y-152425645D03*
X221442323Y-153911545D03*
X219938643Y-153911545D03*
D60*
X210080903Y-136598905D03*
X210080903Y-135095225D03*
D59*
X227573883Y-155054545D03*
X229077563Y-155054545D03*
D60*
X206580783Y-121229365D03*
X206580783Y-119725685D03*
X206791603Y-126891025D03*
X206791603Y-128394705D03*
D59*
X237281763Y-152311345D03*
X235778083Y-152311345D03*
D60*
X203812183Y-111780565D03*
X203812183Y-113284245D03*
X208493403Y-126891025D03*
X208493403Y-128394705D03*
D59*
X237281763Y-153822645D03*
X235778083Y-153822645D03*
D60*
X205346343Y-111805965D03*
X205346343Y-113309645D03*
X265468143Y-151823665D03*
X265468143Y-153327345D03*
X265958363Y-92212405D03*
X265958363Y-93716085D03*
D59*
X269374663Y-90040705D03*
X270878343Y-90040705D03*
D60*
X265478303Y-145587965D03*
X265478303Y-147091645D03*
X265851683Y-86581225D03*
X265851683Y-88084905D03*
D59*
X270151903Y-144485605D03*
X271655583Y-144485605D03*
D60*
X248822880Y-47031858D03*
X248822880Y-48535538D03*
X240181800Y-46874600D03*
X240181800Y-48378280D03*
D59*
X252180760Y-45711058D03*
X250677080Y-45711058D03*
X243361880Y-45509128D03*
X241858200Y-45509128D03*
D60*
X253775880Y-48459338D03*
X253775880Y-46955658D03*
X245094160Y-48409808D03*
X245094160Y-46906128D03*
D59*
X250372280Y-49749658D03*
X251875960Y-49749658D03*
X241827720Y-49837288D03*
X243331400Y-49837288D03*
D60*
X257575720Y-46907562D03*
X257575720Y-48411242D03*
X230702520Y-46913812D03*
X230702520Y-48417492D03*
D59*
X261070760Y-45505482D03*
X259567080Y-45505482D03*
X234395680Y-45608252D03*
X232892000Y-45608252D03*
D60*
X262635400Y-48817642D03*
X262635400Y-47313962D03*
X235899360Y-49179492D03*
X235899360Y-47675812D03*
D59*
X259302920Y-49935242D03*
X260806600Y-49935242D03*
X232587200Y-49875452D03*
X234090880Y-49875452D03*
D60*
X237382720Y-21205360D03*
X237382720Y-22709040D03*
X247674800Y-22897000D03*
X247674800Y-21393320D03*
D59*
X198027960Y-45690960D03*
X196524280Y-45690960D03*
X205762260Y-45729060D03*
X204258580Y-45729060D03*
X212582160Y-45957660D03*
X211078480Y-45957660D03*
X220466320Y-45894160D03*
X218962640Y-45894160D03*
D60*
X212280543Y-93919285D03*
X212280543Y-95422965D03*
X212280543Y-84419685D03*
X212280543Y-85923365D03*
D59*
X252884340Y-51698060D03*
X254388020Y-51698060D03*
X237603700Y-51939360D03*
X239107380Y-51939360D03*
X249381680Y-66518960D03*
X247878000Y-66518960D03*
X234400760Y-66531660D03*
X232897080Y-66531660D03*
X257400460Y-66544360D03*
X255896780Y-66544360D03*
X242160460Y-66607860D03*
X240656780Y-66607860D03*
X246320980Y-66506260D03*
X244817300Y-66506260D03*
X254296580Y-66544360D03*
X252792900Y-66544360D03*
X231289260Y-66531660D03*
X229785580Y-66531660D03*
X238993080Y-66607860D03*
X237489400Y-66607860D03*
X257433480Y-68246160D03*
X258937160Y-68246160D03*
X242124900Y-68423960D03*
X243628580Y-68423960D03*
X238648160Y-101300000D03*
X240151840Y-101300000D03*
X240169743Y-102870245D03*
X238666063Y-102870245D03*
X240251840Y-91100000D03*
X238748160Y-91100000D03*
D60*
X214600000Y-156651840D03*
X214600000Y-155148160D03*
D59*
X216748160Y-156500000D03*
X218251840Y-156500000D03*
X211151840Y-133600000D03*
X209648160Y-133600000D03*
D60*
X230500000Y-156651840D03*
X230500000Y-155148160D03*
D59*
X208251840Y-118200000D03*
X206748160Y-118200000D03*
D60*
X211100000Y-131751840D03*
X211100000Y-130248160D03*
D59*
X232448160Y-156500000D03*
X233951840Y-156500000D03*
D60*
X208200000Y-116351840D03*
X208200000Y-114848160D03*
D61*
X245299900Y-35787500D03*
X245299900Y-33882500D03*
D62*
X264540400Y-32968100D03*
X262635400Y-32968100D03*
X240473900Y-37895700D03*
X242378900Y-37895700D03*
D61*
X189700000Y-95452500D03*
X189700000Y-93547500D03*
X189800000Y-123952500D03*
X189800000Y-122047500D03*
X197900000Y-150752500D03*
X197900000Y-148847500D03*
D59*
X238748160Y-92900000D03*
X240251840Y-92900000D03*
M02*
