M48
;DRILL file {KiCad 4.0.1-stable} date 2/3/2016 11:10:27 AM
;FORMAT={-:-/ absolute / inch / decimal}
FMAT,2
INCH,TZ
T1C0.010
T2C0.012
T3C0.013
T4C0.015
T5C0.031
T6C0.039
T7C0.043
T8C0.120
T9C0.122
T10C0.266
%
G90
G05
M72
T1
X8.4965Y-2.1264
X8.4965Y-2.1657
X8.4965Y-2.2051
T2
X7.6807Y-2.6609
X7.7174Y-2.6976
X7.7543Y-2.6959
T3
X0.8866Y-3.4981
X1.7038Y-5.4251
X3.507Y-0.8555
X3.5994Y-6.2015
X5.4048Y-1.5253
X6.2766Y-3.4093
X9.6111Y-5.8068
X10.1289Y-5.892
X10.1315Y-6.1364
X10.1424Y-3.786
X10.1426Y-3.5411
X10.7749Y-3.8699
X10.788Y-6.0104
T4
X0.7441Y-3.4981
X0.7591Y-3.5431
X0.7891Y-3.4981
X0.7991Y-3.5756
X0.8416Y-3.4981
X0.8456Y-3.5431
X0.8766Y-3.5756
X0.891Y-3.8711
X1.0478Y-4.3141
X1.125Y-3.469
X1.125Y-3.5315
X1.125Y-3.594
X1.137Y-2.7063
X1.1875Y-3.469
X1.1875Y-3.5315
X1.1875Y-3.594
X1.1934Y-2.952
X1.1934Y-4.111
X1.2096Y-2.8916
X1.2096Y-4.1714
X1.2257Y-2.8312
X1.2257Y-4.2318
X1.2537Y-2.9681
X1.2537Y-4.0949
X1.2699Y-2.9078
X1.2699Y-4.1552
X1.2861Y-2.8474
X1.2861Y-4.2156
X1.4252Y-2.3489
X1.4252Y-4.7141
X1.4565Y-2.2948
X1.4565Y-4.7682
X1.4794Y-2.3802
X1.4794Y-4.6828
X1.4866Y-3.7233
X1.4877Y-2.2406
X1.4877Y-4.8223
X1.5106Y-2.326
X1.5106Y-4.737
X1.5226Y-3.0901
X1.5419Y-2.2719
X1.5419Y-4.7911
X1.586Y-4.2621
X1.603Y-5.5258
X1.6349Y-5.494
X1.6455Y-5.5471
X1.672Y-5.4569
X1.6728Y-2.5637
X1.6967Y-5.5418
X1.7066Y-5.4859
X1.7515Y-5.487
X1.8053Y-1.8267
X1.8053Y-5.2363
X1.8495Y-1.7825
X1.8495Y-1.8709
X1.8495Y-5.1921
X1.8495Y-5.2805
X1.8778Y-4.7853
X1.8937Y-1.7383
X1.8937Y-1.8267
X1.8937Y-5.2363
X1.8937Y-5.3247
X1.9366Y-5.6958
X1.9378Y-1.7825
X1.9378Y-5.2805
X2.0007Y-2.0963
X2.081Y-5.0435
X2.11Y-1.9827
X2.2762Y-5.8865
X2.3076Y-1.4208
X2.3076Y-5.6422
X2.3388Y-1.4749
X2.3388Y-5.588
X2.3617Y-1.3896
X2.3617Y-5.6734
X2.393Y-1.4437
X2.393Y-5.6193
X2.4158Y-1.3583
X2.4158Y-5.7047
X2.4471Y-1.4124
X2.4471Y-5.6505
X2.5104Y-1.7125
X2.575Y-5.4201
X2.887Y-0.9679
X2.8981Y-1.1588
X2.8981Y-5.9042
X2.9143Y-1.2192
X2.9143Y-5.8438
X2.9585Y-1.1426
X2.9585Y-5.9204
X2.9747Y-1.203
X2.9747Y-5.86
X3.0189Y-1.1264
X3.0189Y-5.9365
X3.0351Y-1.1868
X3.0351Y-5.8762
X3.1108Y-1.4861
X3.1342Y-5.6051
X3.1476Y-0.8553
X3.4295Y-0.768
X3.4295Y-0.8455
X3.462Y-0.728
X3.462Y-0.8145
X3.507Y-0.713
X3.507Y-0.758
X3.507Y-0.8105
X3.5359Y-1.0581
X3.5359Y-1.1206
X3.5359Y-5.9424
X3.5359Y-6.0049
X3.5984Y-1.0581
X3.5984Y-1.1206
X3.5984Y-5.9424
X3.5984Y-6.0049
X3.5994Y-6.2465
X3.5994Y-6.299
X3.5994Y-6.344
X3.6444Y-6.2425
X3.6444Y-6.329
X3.6609Y-1.0581
X3.6609Y-1.1206
X3.6609Y-5.9424
X3.6609Y-6.0049
X3.6769Y-6.2115
X3.6769Y-6.289
X3.6958Y-5.6321
X3.886Y-1.4382
X3.9464Y-6.2272
X4.0126Y-0.9607
X4.0714Y-6.1037
X4.1602Y-1.1868
X4.1618Y-5.8762
X4.1764Y-1.1264
X4.178Y-5.9365
X4.2206Y-1.203
X4.2222Y-5.86
X4.2368Y-1.1426
X4.2383Y-5.9204
X4.281Y-1.2192
X4.2825Y-5.8438
X4.2971Y-1.1588
X4.2987Y-5.9042
X4.3369Y-5.4943
X4.5208Y-1.6307
X4.7498Y-1.4124
X4.7498Y-5.6505
X4.781Y-1.3583
X4.781Y-5.7047
X4.8039Y-1.4437
X4.8039Y-5.6193
X4.8351Y-1.3896
X4.8351Y-5.6734
X4.8528Y-5.2351
X4.858Y-1.4749
X4.858Y-5.588
X4.8893Y-1.4208
X4.8893Y-5.6422
X4.9998Y-1.9254
X5.1052Y-1.4203
X5.1316Y-4.9592
X5.1806Y-1.2785
X5.259Y-1.7825
X5.259Y-5.2805
X5.3032Y-1.7383
X5.3032Y-1.8267
X5.3032Y-5.2363
X5.3032Y-5.3247
X5.3474Y-1.7825
X5.3474Y-1.8709
X5.3474Y-5.1921
X5.3474Y-5.2805
X5.3571Y-1.4634
X5.3916Y-1.8267
X5.3916Y-5.2363
X5.396Y-2.4158
X5.402Y-1.4645
X5.4119Y-1.4086
X5.4367Y-1.4935
X5.4632Y-1.4033
X5.4646Y-4.4651
X5.4738Y-1.4564
X5.4828Y-2.5743
X5.5056Y-1.4245
X5.6532Y-3.1818
X5.655Y-2.2719
X5.655Y-4.7911
X5.6614Y-5.0895
X5.671Y-3.824
X5.6862Y-2.326
X5.6862Y-4.737
X5.7091Y-2.2406
X5.7091Y-4.8223
X5.7175Y-2.3802
X5.7175Y-4.6828
X5.7404Y-2.2948
X5.7404Y-4.7682
X5.7716Y-2.3489
X5.7716Y-4.7141
X5.9108Y-2.8474
X5.9108Y-4.2156
X5.9269Y-2.9078
X5.9269Y-4.1552
X5.9431Y-2.9681
X5.9431Y-4.0949
X5.9711Y-2.8312
X5.9711Y-4.2318
X5.9873Y-2.8916
X5.9873Y-4.1714
X6.0035Y-2.952
X6.0035Y-4.111
X6.0094Y-3.469
X6.0094Y-3.5315
X6.0094Y-3.594
X6.0719Y-3.469
X6.0719Y-3.5315
X6.0719Y-3.594
X6.1424Y-3.9981
X6.1634Y-2.7883
X6.2866Y-3.3318
X6.2902Y-3.0745
X6.3176Y-3.3643
X6.3216Y-3.4093
X6.3641Y-3.3318
X6.3741Y-3.4093
X6.4041Y-3.3643
X6.4191Y-3.4093
X7.6232Y-1.8659
X7.6782Y-1.7984
X7.6982Y-2.0159
X7.8023Y-4.3062
X7.8243Y-3.919
X7.8397Y-1.6289
X7.8432Y-1.8389
X7.8539Y-4.8804
X7.8927Y-1.6274
X7.9409Y-1.8346
X8.0157Y-1.8504
X8.0742Y-1.5944
X8.0843Y-5.464
X8.1047Y-6.0034
X8.1132Y-2.4349
X8.1155Y-4.2184
X8.117Y-3.9169
X8.118Y-4.0169
X8.12Y-4.1114
X8.1455Y-4.404
X8.1575Y-6.0046
X8.1632Y-1.7084
X8.1639Y-2.0756
X8.1687Y-1.8499
X8.1907Y-1.8059
X8.1907Y-4.7168
X8.1949Y-4.9364
X8.1952Y-1.6254
X8.198Y-3.8804
X8.202Y-4.2189
X8.209Y-4.0174
X8.2185Y-4.2969
X8.2246Y-0.8725
X8.2451Y-5.2068
X8.2505Y-4.3884
X8.2642Y-1.7124
X8.2667Y-6.0976
X8.2737Y-1.8634
X8.2841Y-5.9958
X8.3092Y-2.4309
X8.3258Y-0.8219
X8.33Y-3.6349
X8.3511Y-5.3292
X8.3555Y-4.0619
X8.3575Y-3.2714
X8.362Y-3.5099
X8.3755Y-3.4339
X8.3895Y-4.1169
X8.3916Y-4.6663
X8.3916Y-4.7288
X8.3916Y-4.7913
X8.3965Y-3.8159
X8.4062Y-2.7869
X8.4116Y-0.7867
X8.4396Y-4.4533
X8.4396Y-4.5158
X8.4396Y-4.5783
X8.441Y-4.8719
X8.441Y-4.9344
X8.441Y-4.9969
X8.4541Y-4.6663
X8.4541Y-4.7288
X8.4541Y-4.7913
X8.4677Y-1.7529
X8.4776Y-0.8395
X8.4792Y-1.8074
X8.4832Y-1.8559
X8.4996Y-6.1034
X8.5021Y-4.4533
X8.5021Y-4.5158
X8.5021Y-4.5783
X8.5035Y-4.8719
X8.5035Y-4.9344
X8.5035Y-4.9969
X8.5106Y-1.2223
X8.5117Y-2.7814
X8.513Y-1.1659
X8.5271Y-5.4944
X8.5272Y-2.4919
X8.5326Y-0.7933
X8.5572Y-1.8049
X8.5712Y-1.8514
X8.5862Y-5.0599
X8.5862Y-5.1224
X8.5862Y-5.1849
X8.5904Y-4.2635
X8.5904Y-4.326
X8.5904Y-4.3885
X8.6118Y-1.2223
X8.6177Y-1.6199
X8.618Y-1.1735
X8.6487Y-5.0599
X8.6487Y-5.1224
X8.6487Y-5.1849
X8.6529Y-4.2635
X8.6529Y-4.326
X8.6529Y-4.3885
X8.655Y-4.6639
X8.655Y-4.7264
X8.655Y-4.7889
X8.6682Y-2.7509
X8.6717Y-1.8549
X8.681Y-3.9789
X8.6837Y-2.6219
X8.6885Y-4.8519
X8.6885Y-4.9144
X8.6885Y-4.9769
X8.693Y-4.4729
X8.693Y-4.5354
X8.693Y-4.5979
X8.7119Y-5.4072
X8.7175Y-4.6639
X8.7175Y-4.7264
X8.7175Y-4.7889
X8.7175Y-6.1102
X8.7214Y-1.2109
X8.7252Y-1.8309
X8.751Y-4.8519
X8.751Y-4.9144
X8.751Y-4.9769
X8.7532Y-1.8544
X8.7555Y-4.4729
X8.7555Y-4.5354
X8.7555Y-4.5979
X8.7589Y-2.2331
X8.7592Y-2.7179
X8.7601Y-5.4488
X8.769Y-3.3789
X8.769Y-3.4734
X8.771Y-1.3355
X8.7715Y-3.5759
X8.7864Y-2.0931
X8.7916Y-4.1711
X8.7916Y-4.2336
X8.7916Y-4.2961
X8.7928Y-5.1567
X8.7928Y-5.2192
X8.7928Y-5.2817
X8.8043Y-5.3556
X8.8282Y-1.9359
X8.8307Y-5.7306
X8.8377Y-2.6119
X8.8442Y-2.4499
X8.8537Y-2.2869
X8.8541Y-4.1711
X8.8541Y-4.2336
X8.8541Y-4.2961
X8.8553Y-5.1567
X8.8553Y-5.2192
X8.8553Y-5.2817
X8.895Y-4.4239
X8.895Y-4.4864
X8.895Y-4.5489
X8.895Y-4.6639
X8.895Y-4.7264
X8.895Y-4.7889
X8.895Y-4.9039
X8.895Y-4.9664
X8.895Y-5.0289
X8.9012Y-2.6044
X8.9385Y-5.4942
X8.9437Y-2.4549
X8.9575Y-4.4239
X8.9575Y-4.4864
X8.9575Y-4.5489
X8.9575Y-4.6639
X8.9575Y-4.7264
X8.9575Y-4.7889
X8.9575Y-4.9039
X8.9575Y-4.9664
X8.9575Y-5.0289
X9.0014Y-1.7603
X9.0018Y-4.1689
X9.0018Y-4.2314
X9.0018Y-4.2939
X9.0035Y-6.1718
X9.0204Y-5.1577
X9.0204Y-5.2202
X9.0204Y-5.2827
X9.0294Y-1.8369
X9.0304Y-1.6775
X9.0396Y-2.0505
X9.0472Y-0.9491
X9.0643Y-4.1689
X9.0643Y-4.2314
X9.0643Y-4.2939
X9.0829Y-5.1577
X9.0829Y-5.2202
X9.0829Y-5.2827
X9.0998Y-1.9673
X9.1005Y-4.8584
X9.1005Y-4.9209
X9.1005Y-4.9834
X9.102Y-4.4704
X9.102Y-4.5329
X9.102Y-4.5954
X9.103Y-1.5601
X9.1036Y-0.9811
X9.11Y-2.0385
X9.1112Y-1.2487
X9.1185Y-3.9019
X9.135Y-4.6639
X9.135Y-4.7264
X9.135Y-4.7889
X9.1542Y-0.8161
X9.163Y-4.8584
X9.163Y-4.9209
X9.163Y-4.9834
X9.1645Y-4.4704
X9.1645Y-4.5329
X9.1645Y-4.5954
X9.1686Y-2.2409
X9.1768Y-0.9449
X9.1774Y-1.4239
X9.1924Y-1.8469
X9.1936Y-1.2255
X9.1975Y-4.6639
X9.1975Y-4.7264
X9.1975Y-4.7889
X9.1986Y-0.9797
X9.2094Y-0.8159
X9.2162Y-4.2723
X9.2162Y-4.3348
X9.2162Y-4.3973
X9.2224Y-1.5349
X9.2245Y-5.3314
X9.2284Y-5.0511
X9.2284Y-5.1136
X9.2284Y-5.1761
X9.24Y-3.4164
X9.2445Y-3.5154
X9.2445Y-3.9059
X9.26Y-1.6145
X9.2787Y-4.2723
X9.2787Y-4.3348
X9.2787Y-4.3973
X9.2824Y-1.1855
X9.2909Y-5.0511
X9.2909Y-5.1136
X9.2909Y-5.1761
X9.2972Y-2.0454
X9.3159Y-6.1146
X9.3224Y-1.7909
X9.3304Y-1.6055
X9.3614Y-4.4681
X9.3614Y-4.5306
X9.3614Y-4.5931
X9.3614Y-4.8619
X9.3614Y-4.9244
X9.3614Y-4.9869
X9.385Y-1.4955
X9.387Y-1.6785
X9.3872Y-0.9521
X9.3948Y-0.9011
X9.401Y-4.6639
X9.401Y-4.7264
X9.401Y-4.7889
X9.4146Y-1.9471
X9.4239Y-4.4681
X9.4239Y-4.5306
X9.4239Y-4.5931
X9.4239Y-4.8619
X9.4239Y-4.9244
X9.4239Y-4.9869
X9.4291Y-5.3434
X9.4357Y-5.7318
X9.4534Y-1.1795
X9.4632Y-1.9703
X9.4635Y-4.6639
X9.4635Y-4.7264
X9.4635Y-4.7889
X9.4664Y-1.2289
X9.4875Y-5.954
X9.5005Y-1.4295
X9.5107Y-2.0569
X9.5554Y-1.1809
X9.565Y-0.8051
X9.5852Y-2.2403
X9.5876Y-2.0783
X9.5888Y-1.7441
X9.5931Y-3.6242
X9.595Y-3.9079
X9.5965Y-6.1259
X9.6006Y-1.2299
X9.6045Y-1.495
X9.6045Y-4.0824
X9.6075Y-3.5169
X9.6158Y-0.9449
X9.6184Y-0.8289
X9.6201Y-0.8957
X9.6211Y-5.8843
X9.625Y-6.1729
X9.637Y-1.7879
X9.6425Y-1.5395
X9.6465Y-5.7324
X9.647Y-3.6814
X9.6521Y-5.8518
X9.653Y-6.1294
X9.6561Y-5.8068
X9.6565Y-1.4635
X9.6622Y-1.7559
X9.6623Y-5.4546
X9.6789Y-5.703
X9.683Y-1.6121
X9.6846Y-1.6521
X9.6949Y-0.8169
X9.6958Y-1.8531
X9.6966Y-1.2753
X9.6986Y-5.8843
X9.6992Y-2.0489
X9.7031Y-3.7682
X9.7062Y-1.5033
X9.7086Y-5.8068
X9.7112Y-1.9133
X9.724Y-5.7144
X9.7386Y-5.8518
X9.7461Y-0.7776
X9.7478Y-1.3321
X9.7502Y-1.9313
X9.7504Y-1.8329
X9.7536Y-5.8068
X9.7559Y-3.7396
X9.7645Y-6.1914
X9.7679Y-5.2324
X9.7862Y-1.6545
X9.8126Y-1.9833
X9.8151Y-4.7706
X9.8187Y-4.335
X9.8199Y-4.563
X9.8294Y-0.7373
X9.8329Y-3.941
X9.8351Y-5.1494
X9.8417Y-4.1962
X9.8642Y-1.2106
X9.869Y-1.2919
X9.8794Y-1.5409
X9.8917Y-1.8484
X9.8957Y-0.7894
X9.8957Y-1.9075
X9.908Y-1.6475
X9.9128Y-2.0669
X9.9782Y-1.9943
X9.9783Y-0.8917
X9.9862Y-0.8012
X9.99Y-0.9387
X10.0414Y-1.7913
X10.0462Y-0.9077
X10.0566Y-1.7561
X10.0886Y-1.6753
X10.0902Y-1.8425
X10.1022Y-2.0657
X10.1276Y-0.9473
X10.1289Y-5.7495
X10.1289Y-5.7945
X10.1289Y-5.847
X10.1303Y-3.854
X10.1315Y-5.9939
X10.1315Y-6.0389
X10.1315Y-6.0914
X10.1424Y-3.6435
X10.1424Y-3.6885
X10.1424Y-3.741
X10.1426Y-3.3986
X10.1426Y-3.4436
X10.1426Y-3.4961
X10.1558Y-2.0927
X10.157Y-2.0195
X10.1574Y-1.9633
X10.1739Y-5.7645
X10.1739Y-5.851
X10.1765Y-6.0089
X10.1765Y-6.0954
X10.1874Y-3.6585
X10.1874Y-3.745
X10.1876Y-3.4136
X10.1876Y-3.5001
X10.2064Y-5.8045
X10.2064Y-5.882
X10.209Y-6.0489
X10.209Y-6.1264
X10.2199Y-3.6985
X10.2199Y-3.776
X10.2201Y-3.4536
X10.2201Y-3.5311
X10.2399Y-3.3656
X10.2555Y-5.5784
X10.2665Y-3.5842
X10.285Y-1.4285
X10.2875Y-1.5385
X10.2951Y-3.8602
X10.2958Y-1.2241
X10.3278Y-1.7689
X10.346Y-1.8049
X10.3785Y-1.6275
X10.3804Y-1.1673
X10.439Y-1.7825
X10.447Y-3.5039
X10.4485Y-5.8474
X10.45Y-5.8974
X10.45Y-6.0934
X10.45Y-6.1414
X10.4515Y-3.5484
X10.4539Y-4.1392
X10.46Y-3.755
X10.46Y-3.7919
X10.4621Y-4.9002
X10.4621Y-5.1202
X10.4631Y-4.6758
X10.4643Y-4.2384
X10.4659Y-4.4568
X10.4659Y-5.4296
X10.4671Y-5.5014
X10.4701Y-4.7828
X10.4709Y-4.3458
X10.4709Y-4.5636
X10.4715Y-5.232
X10.4719Y-5.3446
X10.4741Y-5.0134
X10.496Y-5.8694
X10.4985Y-6.1144
X10.5015Y-3.5364
X10.5045Y-3.7634
X10.5075Y-5.7274
X10.522Y-3.6304
X10.542Y-3.9454
X10.5875Y-3.8592
X10.6003Y-3.7726
X10.6291Y-3.9744
X10.6324Y-3.8699
X10.639Y-5.6329
X10.6455Y-6.0104
X10.6474Y-3.8249
X10.648Y-3.4599
X10.6605Y-5.9654
X10.6774Y-3.8699
X10.6874Y-3.7924
X10.6905Y-6.0104
X10.7005Y-5.9329
X10.729Y-3.5439
X10.7299Y-3.8699
X10.7339Y-3.8249
X10.743Y-6.0104
X10.744Y-5.6939
X10.747Y-3.4929
X10.747Y-5.9654
X10.761Y-5.6439
X10.7649Y-3.7924
X10.778Y-5.9329
X10.78Y-3.5459
X10.794Y-5.6879
X10.8211Y-3.7508
X10.8571Y-5.9886
X10.8647Y-5.8598
T5
X9.136Y-1.106
X9.136Y-1.706
X9.236Y-1.106
X9.236Y-1.706
X9.336Y-1.106
X9.336Y-1.706
X9.436Y-1.106
X9.436Y-1.706
X9.536Y-1.106
X9.536Y-1.706
X9.636Y-1.106
X9.636Y-1.706
X9.736Y-1.106
X9.736Y-1.706
X9.836Y-1.106
X9.836Y-1.706
X9.936Y-1.106
X9.936Y-1.706
X10.036Y-1.106
X10.036Y-1.706
X10.136Y-1.106
X10.136Y-1.706
X10.236Y-1.106
X10.236Y-1.706
X10.336Y-1.106
X10.336Y-1.706
X10.436Y-1.106
X10.436Y-1.706
T6
X7.0409Y-5.0124
X7.0409Y-5.1124
X7.0409Y-5.2124
X7.0409Y-5.8124
X7.0409Y-6.0124
X7.0473Y-3.896
X7.0473Y-4.096
X7.5473Y-3.896
X7.5473Y-4.096
X7.6409Y-5.1124
X7.6409Y-5.2124
X7.6409Y-5.8124
X7.6409Y-6.0124
T7
X1.4603Y-1.7594
X1.531Y-1.6887
X1.6017Y-1.618
X7.0385Y-3.4014
X7.1385Y-3.4014
X7.3992Y-2.3469
X7.3992Y-2.4469
X7.3992Y-2.5469
X7.3992Y-2.6469
X7.4007Y-1.9159
X7.4007Y-2.0159
X7.4007Y-2.1159
X7.4007Y-2.2159
X7.8935Y-3.4104
X7.9935Y-3.4104
X8.0935Y-3.4104
X8.1935Y-3.4104
X8.2607Y-2.8609
X8.3607Y-2.8609
X8.4607Y-2.8609
X8.5607Y-2.8609
X8.7302Y-0.8791
X8.8302Y-0.8791
X8.9282Y-2.8609
X8.9302Y-0.8791
X9.0282Y-2.8609
X9.0302Y-0.8791
X9.1282Y-2.8609
X9.2707Y-2.8634
X9.3707Y-2.8634
X9.4707Y-2.8634
X9.6107Y-2.8609
X9.7107Y-2.8609
X9.7671Y-3.3908
X9.8107Y-2.8609
X9.8671Y-3.3908
X9.9527Y-2.8629
X9.9671Y-3.3908
X10.0527Y-2.8629
X10.1527Y-2.8629
X10.355Y-2.0881
X10.355Y-2.1881
X10.355Y-2.2881
X10.355Y-2.3881
T8
X10.3904Y-2.8681
T9
X0.9012Y-2.9949
X1.3118Y-5.0594
X2.0705Y-1.2449
X3.0618Y-6.2287
X4.135Y-0.8343
X5.1264Y-5.8181
X5.885Y-2.0035
X6.2957Y-4.0681
X7.3983Y-0.8208
X7.3983Y-2.8681
X7.9275Y-3.7264
X7.9275Y-5.7264
X9.9275Y-3.7264
X9.9275Y-5.7264
X10.3904Y-0.8208
T10
X1.05Y-2.4791
X1.0579Y-4.5839
X2.5461Y-0.9909
X2.5461Y-6.072
X4.6508Y-0.9909
X4.6508Y-6.072
X6.139Y-2.4791
X6.139Y-4.5839
T0
M30
